<?xml version="1.0" encoding="utf-8"?>
<!-- Generator: Adobe Illustrator 25.2.3, SVG Export Plug-In . SVG Version: 6.00 Build 0)  -->
<svg version="1.1" id="CONCEPTS" xmlns="http://www.w3.org/2000/svg" xmlns:xlink="http://www.w3.org/1999/xlink" x="0px" y="0px"
	 viewBox="0 0 1908 1073.2" style="enable-background:new 0 0 1908 1073.2;" xml:space="preserve">
<style type="text/css">
	.st0{fill:#00ABAB;}
	.st1{fill:#007680;}
</style>
<g>
	<path class="st0" d="M757.8,219.2c-15.7,0-28.4,12.7-28.4,28.3s12.7,28.4,28.3,28.4c15.7,0,28.4-12.7,28.4-28.3c0,0,0,0,0,0
		C786.2,231.9,773.5,219.2,757.8,219.2z M757.8,273.9c-14.6,0-26.4-11.8-26.4-26.3s11.8-26.4,26.3-26.4c14.6,0,26.4,11.8,26.4,26.3
		c0,0,0,0,0,0C784.1,262.1,772.4,273.8,757.8,273.9z"/>
	<path class="st0" d="M762.4,247.7c0-2.5-2-4.6-4.6-4.6c-2.5,0-4.6,2-4.6,4.6s2,4.6,4.6,4.6c0,0,0,0,0,0
		C760.3,252.3,762.4,250.2,762.4,247.7z M755.3,247.7c0-1.4,1.1-2.6,2.6-2.6s2.6,1.1,2.6,2.6s-1.1,2.6-2.6,2.6l0,0
		C756.4,250.3,755.3,249.1,755.3,247.7z"/>
	<path class="st0" d="M769.9,236.3c-0.4,0.4-0.5,1-0.1,1.4c0,0,0,0,0,0c5,5.9,4.9,14.6-0.3,20.3l-3.6-3.6c3.7-4.5,3.1-11.1-1.4-14.8
		c-1.6-1.3-3.6-2.2-5.7-2.4v-5.1c2,0.1,3.9,0.6,5.7,1.4c0.5,0.2,1.1-0.1,1.3-0.6c0.2-0.5,0-1-0.4-1.2c-2.4-1.1-4.9-1.7-7.5-1.7
		c-9.7,0-17.6,7.8-17.7,17.5c0,8.3,5.7,15.5,13.9,17.3h0.2c0.6,0.1,1-0.3,1.1-0.9c0.1-0.6-0.3-1-0.9-1.1
		c-8.4-1.8-13.8-10.2-11.9-18.6c1.5-6.8,7.3-11.8,14.3-12.2v5.1c-3.9,0.4-7.3,2.9-8.7,6.5c-0.2,0.5,0,1.1,0.5,1.3
		c0.5,0.2,1.1,0,1.3-0.6c1.8-4.3,6.7-6.4,11.1-4.7c4.3,1.8,6.4,6.7,4.7,11.1s-6.7,6.4-11.1,4.7c-2.1-0.9-3.8-2.6-4.7-4.7
		c-0.2-0.5-0.7-0.8-1.3-0.6c-0.5,0.2-0.8,0.7-0.6,1.3c0,0,0,0.1,0,0.1c2.2,5.4,8.3,8,13.7,5.8c1-0.4,1.9-1,2.7-1.6l3.6,3.6
		c-2,1.8-4.4,3-7,3.5c-0.6,0.1-1,0.6-0.9,1.1c0.1,0.6,0.6,1,1.1,0.9h0.2c3.2-0.7,6.2-2.3,8.5-4.7l0.2-0.1l0.1-0.1
		c6.4-6.4,6.8-16.7,1-23.6C770.9,236,770.3,235.9,769.9,236.3z"/>
</g>
<g>
	<path class="st0" d="M593,674.3c-15.7,0-28.4,12.7-28.4,28.3S577.3,731,593,731s28.4-12.7,28.4-28.3c0,0,0,0,0,0
		C621.3,687,608.7,674.3,593,674.3C593,674.3,593,674.3,593,674.3z M593,729c-14.6,0-26.4-11.8-26.4-26.3s11.8-26.4,26.3-26.4
		c14.6,0,26.4,11.8,26.4,26.3v0C619.3,717.2,607.5,729,593,729z"/>
	<path class="st0" d="M605.7,690.8c-0.1-0.4-0.3-0.7-0.7-0.8c-0.4-0.1-8.9-2.6-19,7.3c-1.7-0.4-6.4-0.9-9.8,4.7
		c-0.2,0.4-0.2,0.9,0.2,1.2l4.7,4.7c-0.8,1.6-1,4.5,0.6,6.1s4.5,1.3,6.1,0.6l4.7,4.7c0.2,0.2,0.4,0.3,0.7,0.3c0.2,0,0.4-0.1,0.6-0.2
		c5-3.8,4.8-8,4.5-9.6C607.2,700.5,605.8,691.2,605.7,690.8z M596.5,708.8c-0.3,0.3-0.4,0.6-0.2,1c0,0,1.2,3.9-3,7.5l-4.7-4.7
		c-0.2-0.2-0.4-0.3-0.7-0.3c-0.3,0-0.5,0.1-0.7,0.3c-0.5,0.5-3,1-4.1,0s-0.5-3.6,0-4.1c0.4-0.4,0.4-1,0-1.4c0,0,0,0,0,0l-4.7-4.7
		c3.2-4.6,7.4-3.1,7.5-3c0.4,0.2,0.8,0.1,1.1-0.2c8-8,14.8-7.7,16.8-7.3C603.9,694,603.8,701.5,596.5,708.8L596.5,708.8z"/>
	<path class="st0" d="M591,699.6c-1.2,0-2.4,0.5-3.3,1.4c-1.8,1.8-1.8,4.8,0,6.6s4.8,1.8,6.6,0c1.8-1.8,1.8-4.8,0-6.6c0,0,0,0,0,0
		C593.4,700.1,592.2,699.6,591,699.6z M592.9,706.2c-1,1-2.7,1-3.8,0c-0.5-0.5-0.8-1.2-0.8-1.9c0-1.5,1.2-2.7,2.7-2.7
		c1.5,0,2.7,1.2,2.7,2.7C593.7,705,593.4,705.7,592.9,706.2z"/>
</g>
<g>
	<path class="st1" d="M101.5,370.8c-15.7,0-28.4,12.7-28.4,28.4c0,15.7,12.7,28.4,28.4,28.4s28.3-12.7,28.3-28.4
		C129.8,383.5,117.2,370.8,101.5,370.8C101.5,370.8,101.5,370.8,101.5,370.8z M101.5,425.5c-14.6,0-26.3-11.8-26.3-26.4
		s11.8-26.4,26.3-26.4s26.3,11.8,26.3,26.4c0,0,0,0,0,0C127.8,413.7,116,425.5,101.5,425.5z"/>
	<path class="st1" d="M111.5,409.5v-8.1c0.1-1.7-1.3-3.2-3.1-3.2c-0.1,0-0.1,0-0.2,0h-5.7v-9.4c1.7-0.6,2.6-2.4,2.1-4.1
		s-2.4-2.6-4.1-2.1s-2.6,2.4-2.1,4.1c0.3,1,1.1,1.8,2.1,2.1v9.4h-5.7c-1.8,0-3.2,1.4-3.2,3.1c0,0,0,0.1,0,0.1v8.1
		c-1.7,0.6-2.6,2.4-2.1,4.1s2.4,2.6,4.1,2.1s2.6-2.4,2.1-4.1c-0.3-1-1.1-1.8-2.1-2.1v-8.1c0-0.7,0.5-1.2,1.1-1.3c0,0,0.1,0,0.1,0
		h5.7v9.4c-1.7,0.6-2.6,2.4-2.1,4.1s2.4,2.6,4.1,2.1s2.6-2.4,2.1-4.1c-0.3-1-1.1-1.8-2.1-2.1v-9.4h5.7c0.6-0.1,1.2,0.4,1.2,1
		c0,0.1,0,0.1,0,0.2v8.1c-1.7,0.6-2.6,2.4-2.1,4.1s2.4,2.6,4.1,2.1s2.6-2.4,2.1-4.1C113.2,410.6,112.4,409.8,111.5,409.5z
		 M101.5,384.5c0.7,0,1.2,0.6,1.2,1.2c0,0.7-0.6,1.2-1.2,1.2c-0.7,0-1.2-0.6-1.2-1.2l0,0C100.2,385,100.8,384.4,101.5,384.5
		C101.5,384.4,101.5,384.4,101.5,384.5L101.5,384.5z M92.5,413.8c-0.7,0-1.2-0.6-1.2-1.2c0-0.7,0.6-1.2,1.2-1.2
		c0.7,0,1.2,0.6,1.2,1.2l0,0C93.7,413.2,93.2,413.8,92.5,413.8L92.5,413.8z M101.5,413.8c-0.7,0-1.2-0.6-1.2-1.2
		c0-0.7,0.6-1.2,1.2-1.2c0.7,0,1.2,0.6,1.2,1.2l0,0C102.7,413.3,102.2,413.8,101.5,413.8L101.5,413.8z M110.5,413.8
		c-0.7,0-1.2-0.6-1.2-1.2c0-0.7,0.6-1.2,1.2-1.2c0.7,0,1.2,0.6,1.2,1.2l0,0C111.7,413.3,111.1,413.8,110.5,413.8z"/>
</g>
<g>
	<path class="st1" d="M101.5,292.9c-15.7,0-28.3,12.7-28.3,28.4c0,15.7,12.7,28.4,28.3,28.4s28.3-12.7,28.3-28.4c0,0,0,0,0,0
		C129.8,305.6,117.2,292.9,101.5,292.9C101.5,292.9,101.5,292.9,101.5,292.9z M101.5,347.6c-14.6,0-26.3-11.8-26.3-26.4
		s11.8-26.4,26.3-26.4s26.3,11.8,26.3,26.4C127.8,335.8,116,347.6,101.5,347.6L101.5,347.6z"/>
	<path class="st1" d="M110.4,307.6c0-1.8-1.5-3.3-3.3-3.3c-1.8,0-3.3,1.5-3.3,3.3c0,1.4,0.9,2.7,2.3,3.1c0,0.1-0.1,0.2-0.1,0.3v9.2
		h-6.9c-1.3,0.1-2.3-0.9-2.4-2.1c0-0.1,0-0.2,0-0.3v-7.1c1.7-0.6,2.7-2.4,2.1-4.1s-2.4-2.7-4.1-2.1s-2.7,2.4-2.1,4.1
		c0.3,1,1.1,1.8,2.1,2.1v7.1c-0.1,2.4,1.8,4.3,4.1,4.4c0.1,0,0.2,0,0.3,0h7v9.5c-1.7,0.6-2.7,2.4-2.1,4.1s2.4,2.7,4.1,2.1
		s2.7-2.4,2.1-4.1c-0.3-1-1.1-1.8-2.1-2.1V311c0-0.1,0-0.2-0.1-0.3C109.5,310.3,110.4,309.1,110.4,307.6z M95.8,306.4
		c0.7,0,1.3,0.6,1.3,1.3c0,0.7-0.6,1.3-1.3,1.3s-1.3-0.6-1.3-1.3l0,0C94.5,306.9,95.1,306.4,95.8,306.4
		C95.8,306.4,95.8,306.4,95.8,306.4L95.8,306.4z M107.2,336.2c-0.7,0-1.3-0.6-1.3-1.3c0-0.7,0.6-1.3,1.3-1.3s1.3,0.6,1.3,1.3l0,0
		C108.4,335.6,107.9,336.2,107.2,336.2L107.2,336.2z M107.2,308.9c-0.7,0-1.3-0.6-1.3-1.3c0-0.7,0.6-1.3,1.3-1.3s1.3,0.6,1.3,1.3
		l0,0C108.4,308.3,107.9,308.9,107.2,308.9L107.2,308.9z"/>
</g>
<g>
	<path class="st1" d="M101.5,219.2c-15.7,0-28.4,12.7-28.4,28.4s12.7,28.3,28.4,28.3s28.3-12.7,28.3-28.3
		C129.8,231.9,117.2,219.2,101.5,219.2C101.5,219.2,101.5,219.2,101.5,219.2z M101.5,273.9c-14.6,0-26.3-11.8-26.3-26.4
		s11.8-26.3,26.3-26.3s26.3,11.8,26.3,26.3C127.8,262.1,116,273.9,101.5,273.9z"/>
	<path class="st1" d="M112,258.5v-7.5c0.1-2.4-1.8-4.5-4.3-4.6c-0.1,0-0.2,0-0.3,0h-4.9v-9.7c0-0.1,0-0.2-0.1-0.3
		c1.8-0.5,2.8-2.4,2.3-4.2c-0.5-1.8-2.4-2.8-4.2-2.3s-2.8,2.4-2.3,4.2c0.3,1.1,1.2,2,2.3,2.3c0,0.1-0.1,0.2-0.1,0.3v9.7h-4.9
		c-1.3,0.1-2.5-1-2.6-2.3c0-0.1,0-0.1,0-0.2v-7.5c1.8-0.6,2.8-2.4,2.2-4.2s-2.4-2.8-4.2-2.2c-1.8,0.6-2.8,2.4-2.2,4.2
		c0.3,1.1,1.2,1.9,2.2,2.2v7.5c-0.1,2.4,1.9,4.5,4.3,4.6c0.1,0,0.2,0,0.3,0h4.9v10c-1.8,0.6-2.8,2.4-2.2,4.2
		c0.6,1.8,2.4,2.8,4.2,2.2s2.8-2.4,2.2-4.2c-0.3-1.1-1.2-1.9-2.2-2.2v-10h4.9c1.3-0.1,2.5,1,2.6,2.3c0,0.1,0,0.2,0,0.3v7.5
		c-1.8,0.6-2.8,2.4-2.2,4.2c0.6,1.8,2.4,2.8,4.2,2.2s2.8-2.4,2.2-4.2C113.8,259.7,113,258.9,112,258.5L112,258.5z M92,231.9
		c0.8,0,1.4,0.6,1.4,1.4c0,0.8-0.6,1.4-1.4,1.4s-1.4-0.6-1.4-1.4l0,0C90.6,232.5,91.2,231.9,92,231.9z M100.1,233.3
		c0-0.8,0.6-1.4,1.4-1.4c0.8,0,1.4,0.6,1.4,1.4c0,0.8-0.6,1.4-1.4,1.4l0,0C100.7,234.7,100.1,234.1,100.1,233.3L100.1,233.3z
		 M101.5,263.1c-0.8,0-1.4-0.6-1.4-1.4c0-0.8,0.6-1.4,1.4-1.4s1.4,0.6,1.4,1.4l0,0C102.9,262.5,102.2,263.1,101.5,263.1L101.5,263.1
		z M111,263.1c-0.8,0-1.4-0.6-1.4-1.4c0-0.8,0.6-1.4,1.4-1.4s1.4,0.6,1.4,1.4l0,0C112.3,262.5,111.7,263.1,111,263.1L111,263.1z"/>
</g>
<g>
	<path class="st0" d="M593,598.4c-15.7,0-28.4,12.7-28.4,28.3s12.7,28.4,28.3,28.4s28.4-12.7,28.4-28.3v0
		C621.3,611.1,608.7,598.4,593,598.4z M593,653.1c-14.6,0-26.4-11.8-26.4-26.3s11.8-26.4,26.3-26.4c14.6,0,26.4,11.8,26.4,26.3v0
		C619.3,641.3,607.5,653.1,593,653.1L593,653.1z"/>
	<path class="st0" d="M601.3,610L601.3,610c-1.4,0-2.8,0.6-3.7,1.6c-2.7,3.1-2,9.5-1.9,9.8c0,0,0,0.1,0,0.1c0.4,1.7,1.8,8.1,1.8,8.2
		c0.1,0.5,0.5,0.8,1,0.8c2.1-0.2,6.6,1.4,8.2,2c0.1,0,0.2,0.1,0.4,0.1c0.2,0,0.3,0,0.5-0.1c0.2-0.1,0.4-0.4,0.5-0.6
		c1-3.5,1.1-11.9,1.1-12.2v-0.1C609.1,619.2,608.1,610,601.3,610z M606.4,630.3c-2.3-0.9-4.7-1.4-7.1-1.7c-0.4-1.8-1.3-5.9-1.6-7.4
		c-0.2-1.7-0.3-6.2,1.5-8.2c0.5-0.7,1.4-1,2.2-1l0,0c4.7,0,5.7,7,5.8,7.7C607.1,623.2,606.9,626.8,606.4,630.3L606.4,630.3z"/>
	<path class="st0" d="M598.5,633.5c-0.5,0-0.9,0.4-1,0.9L597,638c-0.4,2.6,1.4,5,4,5.4c0.2,0,0.5,0,0.7,0c2.4,0,4.4-1.7,4.7-4.1
		l0.3-2.5c0-0.3,0-0.5-0.2-0.7C605.2,634.3,602.6,633.4,598.5,633.5z M604.4,639.1c-0.2,1.5-1.6,2.6-3.1,2.3
		c-1.5-0.2-2.6-1.6-2.3-3.1l0,0l0.4-2.8c2.6,0.1,4.4,0.6,5.3,1.6L604.4,639.1z"/>
	<path class="st0" d="M584.6,610L584.6,610c-6.8,0-7.8,9.1-7.8,9.5c0,0,0,0.1,0,0.1c0,0.4,0.1,8.8,1.1,12.2c0.1,0.3,0.3,0.5,0.5,0.6
		c0.1,0.1,0.3,0.1,0.4,0.1c0.1,0,0.3,0,0.4-0.1c1.5-0.6,6-2.2,8.2-2c0.5,0,0.9-0.3,1-0.8c0-0.1,1.4-6.5,1.8-8.2v-0.1
		c0-0.3,0.8-6.7-1.9-9.8C587.3,610.6,586,610,584.6,610z M588.2,621.2c-0.4,1.4-1.3,5.6-1.6,7.4c-2.4,0.3-4.8,0.9-7.1,1.7
		c-0.5-3.5-0.7-7-0.7-10.6c0.1-0.7,1.1-7.7,5.8-7.7l0,0c0.9,0,1.7,0.3,2.2,1C588.5,615,588.4,619.5,588.2,621.2L588.2,621.2z"/>
	<path class="st0" d="M588.4,634.3c-0.1-0.5-0.5-0.9-1-0.9c-4,0-6.7,0.8-8.1,2.7c-0.2,0.2-0.2,0.5-0.2,0.7l0.3,2.5
		c0.3,2.3,2.3,4.1,4.7,4.1c0.2,0,0.5,0,0.7,0c2.6-0.4,4.4-2.8,4-5.4L588.4,634.3z M586.4,640.3c-0.9,1.2-2.6,1.5-3.8,0.6
		c0,0,0,0,0,0c-0.6-0.4-1-1.1-1.1-1.8l-0.3-2c1-1,2.7-1.5,5.3-1.6l0.4,2.8C587,639,586.8,639.8,586.4,640.3L586.4,640.3z"/>
</g>
<g>
	<path class="st0" d="M757.8,446.7c-15.7,0-28.4,12.7-28.4,28.3s12.7,28.4,28.3,28.4c15.7,0,28.4-12.7,28.4-28.3c0,0,0,0,0,0
		C786.2,459.4,773.5,446.7,757.8,446.7z M757.8,501.4c-14.6,0-26.4-11.8-26.4-26.3s11.8-26.4,26.3-26.4c14.6,0,26.4,11.8,26.4,26.3
		c0,0,0,0,0,0C784.1,489.5,772.4,501.3,757.8,501.4z"/>
	<path class="st0" d="M774.4,469.9l-11.2-1.1l-4.5-10.1c-0.2-0.5-0.8-0.7-1.3-0.5c-0.2,0.1-0.4,0.3-0.5,0.5l-4.5,10.1l-11.2,1.1
		c-0.6,0-1,0.5-0.9,1.1c0,0.2,0.1,0.5,0.3,0.6l7.9,7.9l-2.2,11.2c-0.1,0.5,0.2,1.1,0.8,1.2c0.2,0,0.5,0,0.7-0.1l10.1-5.6l10.1,5.6
		c0.2,0.1,0.3,0.1,0.5,0.1c0.6,0,1-0.4,1-1c0-0.1,0-0.1,0-0.2l-2.2-11.2l7.8-7.9c0.3-0.3,0.4-0.7,0.2-1
		C775.1,470.2,774.8,469.9,774.4,469.9z M765.4,478.4c-0.2,0.2-0.3,0.6-0.3,0.9l1.9,9.7l-8.7-4.8c-0.3-0.2-0.7-0.2-1,0l-8.7,4.8
		l1.9-9.6c0.1-0.3,0-0.7-0.3-0.9l-6.7-6.8l9.7-1c0.4,0,0.7-0.3,0.8-0.6l3.8-8.5l3.8,8.5c0.1,0.3,0.5,0.6,0.8,0.6l9.7,1L765.4,478.4z
		"/>
</g>
<g>
	<path class="st1" d="M101.5,143.2c-15.7,0-28.4,12.7-28.4,28.4s12.7,28.3,28.4,28.3s28.3-12.7,28.3-28.3
		C129.8,155.9,117.2,143.2,101.5,143.2C101.5,143.2,101.5,143.2,101.5,143.2z M101.5,197.9c-14.6,0-26.3-11.8-26.3-26.4
		s11.8-26.3,26.3-26.3s26.3,11.8,26.3,26.3C127.8,186.1,116,197.9,101.5,197.9z"/>
	<path class="st1" d="M113.4,165.4c2.5,0,4.6-2,4.6-4.6c0-2.5-2-4.6-4.6-4.6s-4.6,2-4.6,4.6c0,0.3,0,0.6,0.1,0.9l-15.7,7.1
		c-1.5-2-4.4-2.4-6.4-0.9c-2,1.5-2.4,4.4-0.9,6.4s4.4,2.4,6.4,0.9c0.4-0.3,0.7-0.6,0.9-0.9l15.7,7.1c-0.1,0.3-0.1,0.6-0.1,0.9
		c0,2.5,2,4.6,4.6,4.6s4.6-2,4.6-4.6c0-2.5-2-4.6-4.6-4.6c-1.5,0-2.8,0.7-3.7,1.8l-15.7-7.1c0.1-0.6,0.1-1.2,0-1.8l15.7-7
		C110.6,164.7,112,165.4,113.4,165.4z M113.4,179.7c1.4,0,2.6,1.2,2.6,2.6c0,1.4-1.2,2.6-2.6,2.6s-2.6-1.2-2.6-2.6
		S112,179.7,113.4,179.7L113.4,179.7z M89.6,174.1c-1.4,0-2.6-1.2-2.6-2.6c0-1.4,1.2-2.6,2.6-2.6c1.4,0,2.6,1.2,2.6,2.6
		S91,174.1,89.6,174.1L89.6,174.1z M113.4,158.2c1.4,0,2.6,1.2,2.6,2.6c0,1.4-1.2,2.6-2.6,2.6s-2.6-1.2-2.6-2.6
		C110.8,159.4,112,158.2,113.4,158.2L113.4,158.2z"/>
</g>
<g>
	<path class="st0" d="M593,292.9c-15.7,0-28.4,12.7-28.4,28.3c0,15.7,12.7,28.4,28.3,28.4c15.7,0,28.4-12.7,28.4-28.3c0,0,0,0,0,0
		C621.3,305.6,608.7,292.9,593,292.9C593,292.9,593,292.9,593,292.9z M593,347.6c-14.6,0-26.4-11.8-26.4-26.3s11.8-26.4,26.3-26.4
		c14.6,0,26.4,11.8,26.4,26.3c0,0,0,0,0,0C619.3,335.8,607.5,347.6,593,347.6L593,347.6z"/>
	<path class="st0" d="M587.1,322.5c-1.5,0-2.7,1.2-2.7,2.7s1.2,2.7,2.7,2.7c1.5,0,2.7-1.2,2.7-2.7v0
		C589.8,323.7,588.6,322.5,587.1,322.5z"/>
	<circle class="st0" cx="586.3" cy="316.4" r="2.7"/>
	<path class="st0" d="M605.8,310.9c-0.3-0.9-0.7-1.7-1.1-2.4c-1.8-2.7-1.3-3.9-1.3-4c0.2-0.4,0.2-0.8-0.1-1.2
		c-0.3-0.4-0.8-0.5-1.2-0.3c-1.6,0.8-2.9,2-3.9,3.5c-1.9-0.6-4-1-6-1c-1.8,0-3.6,0.2-5.3,0.8c-6.4,2.1-10.8,8-11,14.8
		c0.1,3.5,1.2,6.9,3.4,9.6c3.2,3.9,7.9,6.3,13,6.4c1.3,0.1,2.5-0.3,3.4-1.2c0.8-1.2,0.8-2.8,0-4c-0.4-0.6-0.9-1.1-1.4-1.5
		c-0.7-0.4-1.2-1.1-1.3-1.9c-0.1-0.5,0-0.9,0.3-1.3c0.7-0.4,1.5-0.5,2.3-0.4h2.4l0.9,11.9c0,0.5,0.5,0.9,1,0.9h2.6
		c0.5,0,1-0.4,1-0.9l1-12c2.5-0.1,4.1-1,5-2.6c2.3-4.4-3-12.2-3.6-13.1C605.9,311,605.8,311,605.8,310.9z M601.3,305.9
		c0.3,1.3,0.8,2.6,1.6,3.7c1.4,2.1,1.7,5.4,0.7,6.9c-0.5,0.7-1.4,0.9-2.2,0.6c-1.9-0.4-3.2-2.2-3.1-4.2
		C598.2,310.3,599.3,307.7,601.3,305.9L601.3,305.9z M596.2,324.8h-0.5c-1.3-0.2-2.6,0.1-3.7,0.9c-0.8,0.8-1.2,1.9-1,3.1
		c0.2,1.3,1,2.4,2,3.1c0.4,0.3,0.8,0.7,1.1,1.1c0.3,0.5,0.3,1.1,0,1.6c-0.2,0.2-0.6,0.5-1.8,0.5c-4.4-0.1-8.6-2.2-11.4-5.6
		c-1.9-2.4-2.9-5.4-2.9-8.4c0-3.2,1.2-6.3,3.4-8.7c1.6-1.9,3.8-3.4,6.2-4.1c1.5-0.5,3.1-0.7,4.7-0.7c1.7,0,3.4,0.3,5,0.8
		c-0.5,1.2-0.8,2.4-0.8,3.7c-0.5-0.4-1.1-0.7-1.8-0.7c-1.5,0-2.7,1.2-2.7,2.7c0,1.5,1.2,2.7,2.7,2.7c0.9,0,1.7-0.4,2.2-1.1
		c0.2,0.5,0.5,1,0.8,1.5v5l0.2,2.8H596.2z M601.6,337.6h-0.7l-1.2-15.7v-3.4c0.4,0.2,0.9,0.3,1.4,0.4c0.4,0.1,0.8,0.2,1.2,0.2
		c0.2,0,0.4,0,0.6-0.1v4L601.6,337.6z M607.7,323.2c-0.5,0.9-1.5,1.4-3,1.5l0.1-1.5v-5c0.2-0.2,0.3-0.3,0.5-0.5
		c0.4-0.7,0.7-1.4,0.8-2.2C607.5,318,608.7,321.3,607.7,323.2L607.7,323.2z"/>
</g>
<g>
	<circle class="st0" cx="826.4" cy="247.7" r="2.6"/>
	<path class="st0" d="M826.4,219.2c-15.7,0-28.4,12.7-28.4,28.3s12.7,28.4,28.3,28.4c15.7,0,28.4-12.7,28.4-28.3v0
		C854.7,231.9,842,219.2,826.4,219.2C826.4,219.2,826.4,219.2,826.4,219.2z M838.9,260c0,0-0.1,0.1-0.1,0.1c0,0-0.1,0.1-0.1,0.1
		c-2.4,2.3-5.3,3.9-8.5,4.7h-0.2c-0.6,0.1-1-0.3-1.1-0.9c-0.1-0.6,0.3-1,0.9-1.1c2.6-0.6,5-1.8,7-3.5l-3.7-3.5
		c-4.5,3.7-11.1,3.1-14.8-1.4c-0.7-0.8-1.2-1.7-1.6-2.7c-0.2-0.5,0-1.1,0.6-1.3s1.1,0,1.3,0.6c1.8,4.4,6.7,6.5,11.1,4.7
		c4.4-1.8,6.5-6.7,4.7-11.1c-1.8-4.4-6.7-6.5-11.1-4.7c-2.1,0.9-3.8,2.6-4.7,4.7c-0.2,0.5-0.8,0.8-1.3,0.6s-0.8-0.8-0.6-1.3
		c1.5-3.6,4.8-6.1,8.7-6.5v-5.1c-8.6,0.5-15.2,7.8-14.7,16.4c0.4,7.1,5.5,13,12.4,14.4c0.6,0.1,1,0.6,0.9,1.1s-0.6,1-1.1,0.9h-0.2
		c-9.5-2.1-15.5-11.4-13.5-20.9c1.8-8.1,8.9-13.9,17.2-13.9c2.6,0,5.2,0.6,7.5,1.7c0.5,0.2,0.8,0.8,0.6,1.3s-0.8,0.8-1.3,0.6
		c-0.1,0-0.1,0-0.2-0.1c-1.8-0.8-3.7-1.3-5.7-1.4v5.1c5.8,0.6,10,5.7,9.4,11.4c-0.2,2.1-1,4.1-2.4,5.7l3.6,3.6
		c5.1-5.8,5.2-14.4,0.3-20.3c-0.4-0.4-0.3-1.1,0.1-1.4c0.4-0.4,1.1-0.3,1.4,0.1c5.8,7,5.4,17.2-1,23.7L838.9,260z M821.8,247.7
		c0-2.5,2-4.6,4.6-4.6s4.6,2,4.6,4.6s-2,4.6-4.6,4.6l0,0C823.9,252.2,821.8,250.2,821.8,247.7L821.8,247.7z"/>
</g>
<g>
	<path class="st0" d="M655.5,699.1c-0.3,0.3-0.7,0.4-1.1,0.2c-0.2-0.1-4.3-1.6-7.5,3l4.7,4.7c0.2,0.2,0.3,0.4,0.3,0.7
		c0,0.3-0.1,0.5-0.3,0.7c-0.5,0.5-1.1,3,0,4.1s3.6,0.5,4.1,0c0.4-0.4,1-0.4,1.4,0l4.7,4.7c4.2-3.6,3.1-7.3,3-7.5
		c-0.1-0.4,0-0.7,0.2-1c7.2-7.2,7.4-14.8,7.3-17C670.3,691.4,663.5,691.1,655.5,699.1z M662.9,707.6c-1.8,1.8-4.8,1.8-6.6,0
		s-1.8-4.8,0-6.6c1.8-1.8,4.8-1.8,6.6,0C664.5,702.8,664.3,705.7,662.9,707.6L662.9,707.6z"/>
	<path class="st0" d="M659.5,701.6c-0.7,0-1.4,0.3-1.9,0.8c-1,1-1,2.7,0,3.8c1,1,2.7,1,3.8,0c1-1,1-2.7,0-3.8
		C660.9,701.9,660.3,701.6,659.5,701.6z"/>
	<path class="st0" d="M661.5,674.3c-15.7,0-28.4,12.7-28.4,28.3s12.7,28.4,28.3,28.4s28.4-12.7,28.4-28.3c0,0,0,0,0,0
		C689.8,687,677.2,674.3,661.5,674.3z M662.3,719.4c-0.2,0.1-0.4,0.2-0.6,0.2c-0.3,0-0.5-0.1-0.7-0.3l-4.7-4.7
		c-1.6,0.8-4.5,1-6.1-0.6s-1.3-4.5-0.6-6.1l-4.7-4.7c-0.3-0.3-0.4-0.8-0.2-1.2c3.4-5.6,8.1-5.1,9.8-4.7c10.2-9.8,18.7-7.4,19-7.3
		c0.4,0.1,0.6,0.4,0.7,0.8c0.1,0.4,1.5,9.7-7.4,19C667.2,711.3,667.3,715.6,662.3,719.4z"/>
</g>
<g>
	<path class="st1" d="M179,411.3c-0.7,0-1.2,0.6-1.2,1.2s0.6,1.2,1.2,1.2c0.7,0,1.2-0.6,1.2-1.2C180.2,411.9,179.7,411.3,179,411.3z
		"/>
	<path class="st1" d="M170,411.3c-0.7,0-1.2,0.6-1.2,1.2c0,0.7,0.6,1.2,1.2,1.2c0.7,0,1.2-0.6,1.2-1.2l0,0
		C171.2,411.9,170.7,411.3,170,411.3z"/>
	<path class="st1" d="M161.1,411.3c-0.7,0-1.2,0.6-1.2,1.2c0,0.7,0.6,1.2,1.2,1.2c0.7,0,1.2-0.6,1.2-1.2l0,0
		C162.3,411.9,161.8,411.3,161.1,411.3z"/>
	<path class="st1" d="M170,370.8c-15.7,0-28.3,12.7-28.3,28.4c0,15.7,12.7,28.4,28.3,28.4s28.4-12.7,28.4-28.4
		C198.4,383.5,185.7,370.8,170,370.8C170,370.8,170,370.8,170,370.8z M179,415.8c-1.8,0-3.2-1.4-3.3-3.2c0-1.4,0.9-2.7,2.3-3.1v-8.1
		c0.1-0.6-0.4-1.2-1-1.2c-0.1,0-0.1,0-0.2,0H171v9.4c1.7,0.6,2.6,2.4,2.1,4.1s-2.4,2.6-4.1,2.1s-2.6-2.4-2.1-4.1
		c0.3-1,1.1-1.8,2.1-2.1v-9.4h-5.7c-0.7,0-1.2,0.5-1.2,1.1c0,0,0,0.1,0,0.1v8.1c1.7,0.6,2.6,2.4,2.1,4.1s-2.4,2.6-4.1,2.1
		s-2.6-2.4-2.1-4.1c0.3-1,1.1-1.8,2.1-2.1v-8.1c0-1.8,1.4-3.2,3.1-3.2c0,0,0.1,0,0.1,0h5.7v-9.4c-1.7-0.6-2.6-2.4-2.1-4.1
		s2.4-2.6,4.1-2.1s2.6,2.4,2.1,4.1c-0.3,1-1.1,1.8-2.1,2.1v9.4h5.7c1.7-0.1,3.2,1.3,3.2,3c0,0.1,0,0.1,0,0.2v8.1
		c1.7,0.5,2.6,2.4,2.1,4.1C181.6,414.9,180.4,415.8,179,415.8L179,415.8z"/>
	<path class="st1" d="M170,386.9c0.7,0,1.2-0.6,1.2-1.2c0-0.7-0.6-1.2-1.2-1.2c-0.7,0-1.2,0.6-1.2,1.2l0,0
		C168.8,386.4,169.3,386.9,170,386.9z"/>
</g>
<g>
	<path class="st1" d="M175.7,306.4c-0.7,0-1.3,0.6-1.3,1.3c0,0.7,0.6,1.3,1.3,1.3s1.3-0.6,1.3-1.3l0,0
		C177,306.9,176.4,306.4,175.7,306.4z"/>
	<path class="st1" d="M164.4,308.9c0.7,0,1.3-0.6,1.3-1.3c0-0.7-0.6-1.3-1.3-1.3s-1.3,0.6-1.3,1.3l0,0
		C163.1,308.3,163.7,308.9,164.4,308.9z"/>
	<path class="st1" d="M175.7,333.6c-0.7,0-1.3,0.6-1.3,1.3c0,0.7,0.6,1.3,1.3,1.3s1.3-0.6,1.3-1.3l0,0
		C177,334.2,176.4,333.6,175.7,333.6z"/>
	<path class="st1" d="M170,292.9c-15.7,0-28.3,12.7-28.3,28.4c0,15.7,12.7,28.4,28.3,28.4s28.4-12.7,28.4-28.4c0,0,0,0,0,0
		C198.3,305.6,185.7,292.9,170,292.9z M176.7,311.1v20.7c1.7,0.6,2.7,2.4,2.1,4.1s-2.4,2.7-4.1,2.1s-2.7-2.4-2.1-4.1
		c0.3-1,1.1-1.8,2.1-2.1v-9.5h-6.9c-2.4,0.1-4.3-1.8-4.4-4.1c0-0.1,0-0.2,0-0.3v-7.1c-1.7-0.6-2.7-2.4-2.1-4.1s2.4-2.7,4.1-2.1
		s2.7,2.4,2.1,4.1c-0.3,1-1.1,1.8-2.1,2.1v7.1c-0.1,1.3,0.9,2.3,2.2,2.4c0.1,0,0.2,0,0.2,0h6.9v-9.2c0-0.1,0-0.2,0.1-0.3
		c-1.7-0.5-2.7-2.3-2.2-4.1c0.5-1.7,2.3-2.7,4.1-2.2c1.7,0.5,2.7,2.3,2.2,4.1c-0.3,1.1-1.1,1.9-2.2,2.2
		C176.7,310.9,176.7,310.9,176.7,311.1L176.7,311.1z"/>
</g>
<g>
	<circle class="st1" cx="170" cy="261.7" r="1.4"/>
	<path class="st1" d="M171.4,233.3c0-0.8-0.6-1.4-1.4-1.4c-0.8,0-1.4,0.6-1.4,1.4c0,0.8,0.6,1.4,1.4,1.4c0,0,0,0,0,0
		C170.8,234.7,171.4,234.1,171.4,233.3z"/>
	<path class="st1" d="M160.6,234.7c0.8,0,1.4-0.6,1.4-1.4c0-0.8-0.6-1.4-1.4-1.4c-0.8,0-1.4,0.6-1.4,1.4c0,0,0,0,0,0
		C159.2,234.1,159.8,234.7,160.6,234.7z"/>
	<path class="st1" d="M170,219.2c-15.7,0-28.3,12.7-28.3,28.4s12.7,28.3,28.3,28.3s28.4-12.7,28.4-28.3S185.7,219.2,170,219.2
		C170,219.2,170,219.2,170,219.2z M179.5,265.1c-1.9,0-3.4-1.5-3.4-3.4c0-1.5,1-2.8,2.4-3.2v-7.5c0.1-1.3-1-2.5-2.3-2.6
		c-0.1,0-0.2,0-0.3,0H171v10c1.8,0.6,2.8,2.4,2.2,4.2c-0.6,1.8-2.4,2.8-4.2,2.2s-2.8-2.4-2.2-4.2c0.3-1.1,1.2-1.9,2.2-2.2v-10h-4.9
		c-2.4,0.1-4.5-1.9-4.6-4.3c0-0.1,0-0.2,0-0.3v-7.5c-1.8-0.6-2.8-2.4-2.2-4.2c0.6-1.8,2.4-2.8,4.2-2.2c1.8,0.6,2.8,2.4,2.2,4.2
		c-0.3,1.1-1.2,1.9-2.2,2.2v7.5c-0.1,1.3,1,2.5,2.3,2.6c0.1,0,0.2,0,0.2,0h4.9v-9.7c0-0.1,0-0.2,0.1-0.3c-1.8-0.5-2.8-2.4-2.3-4.2
		c0.5-1.8,2.4-2.8,4.2-2.3s2.8,2.4,2.3,4.2c-0.3,1.1-1.2,2-2.3,2.3c0,0.1,0.1,0.2,0.1,0.3v9.7h5c2.4-0.1,4.5,1.8,4.6,4.3
		c0,0.1,0,0.2,0,0.3v7.5c1.8,0.5,2.8,2.4,2.2,4.2C182.3,264.2,181,265.2,179.5,265.1L179.5,265.1z"/>
	<circle class="st1" cx="179.5" cy="261.7" r="1.4"/>
</g>
<g>
	<path class="st0" d="M667.5,638.3c-0.1,0.7,0.1,1.4,0.5,2c0.4,0.6,1.1,1,1.8,1.1c1.5,0.2,2.9-0.8,3.1-2.3c0,0,0,0,0,0l0.3-2
		c-1-1-2.7-1.5-5.3-1.6L667.5,638.3z"/>
	<path class="st0" d="M653.1,612L653.1,612c-4.7,0-5.7,7-5.8,7.7c0,3.5,0.3,7.1,0.7,10.6c2.3-0.9,4.7-1.5,7.1-1.7
		c0.4-1.8,1.3-5.9,1.6-7.4c0.2-1.7,0.3-6.2-1.5-8.2C654.8,612.3,654,612,653.1,612z"/>
	<path class="st0" d="M655.1,635.5c-2.6,0.1-4.4,0.6-5.3,1.6l0.3,2c0.2,1.5,1.6,2.6,3.1,2.3c1.5-0.2,2.6-1.6,2.3-3.1L655.1,635.5z"
		/>
	<path class="st0" d="M669.9,612L669.9,612c-0.9,0-1.7,0.3-2.2,1c-1.8,2-1.7,6.5-1.5,8.2c0.4,1.4,1.3,5.6,1.6,7.4
		c2.4,0.3,4.8,0.9,7.1,1.7c0.5-3.5,0.7-7,0.7-10.6C675.6,619.1,674.6,612,669.9,612z"/>
	<path class="st0" d="M661.5,598.4c-15.7,0-28.4,12.7-28.4,28.3s12.7,28.4,28.3,28.4s28.4-12.7,28.4-28.3v0
		C689.8,611.1,677.2,598.4,661.5,598.4z M653.4,643.4c-0.2,0-0.4,0-0.7,0c-2.4,0-4.4-1.7-4.7-4.1l-0.3-2.5c0-0.3,0-0.5,0.2-0.7
		c1.4-1.9,4-2.8,8.1-2.7c0.5,0,0.9,0.4,1,0.9l0.5,3.7C657.8,640.6,656,643,653.4,643.4C653.4,643.4,653.4,643.4,653.4,643.4
		L653.4,643.4z M658.8,621.5c0,0,0,0.1,0,0.1c-0.4,1.7-1.8,8.1-1.8,8.2c-0.1,0.5-0.6,0.8-1,0.8c-2.2-0.2-6.6,1.4-8.2,2
		c-0.1,0-0.2,0.1-0.4,0.1c-0.2,0-0.3,0-0.4-0.1c-0.3-0.1-0.4-0.3-0.5-0.6c-1-3.5-1.1-11.9-1.1-12.2v-0.1c0-0.4,1.1-9.5,7.8-9.5l0,0
		c1.4,0,2.8,0.6,3.7,1.6C659.6,614.8,658.8,621.2,658.8,621.5L658.8,621.5z M675,639.4c-0.3,2.3-2.3,4.1-4.7,4.1c-0.2,0-0.5,0-0.7,0
		c-2.6-0.4-4.4-2.8-4-5.4l0.5-3.7c0.1-0.5,0.5-0.9,1-0.9c4,0,6.7,0.8,8.1,2.7c0.2,0.2,0.2,0.5,0.2,0.7L675,639.4z M676.6,631.9
		c-0.1,0.3-0.3,0.5-0.5,0.6c-0.1,0.1-0.3,0.1-0.4,0.1c-0.1,0-0.3,0-0.4-0.1c-1.5-0.6-6-2.2-8.2-2c-0.5,0-0.9-0.3-1-0.8
		c0-0.1-1.4-6.5-1.8-8.2c0,0,0-0.1,0-0.1c0-0.3-0.8-6.7,1.9-9.8c0.9-1.1,2.3-1.7,3.7-1.6l0,0c6.7,0,7.8,9.1,7.8,9.5v0.1
		C677.7,620,677.6,628.4,676.6,631.9L676.6,631.9z"/>
</g>
<g>
	<path class="st0" d="M830.2,470.1l-3.8-8.5l-3.8,8.5c-0.1,0.3-0.5,0.6-0.8,0.6l-9.7,1l6.7,6.8c0.2,0.2,0.3,0.6,0.3,0.9l-1.9,9.6
		l8.7-4.8c0.1-0.1,0.3-0.1,0.5-0.1c0.2,0,0.3,0,0.5,0.1l8.7,4.8l-1.9-9.6c-0.1-0.3,0-0.7,0.3-0.9l6.8-6.8l-9.7-1
		C830.6,470.7,830.3,470.4,830.2,470.1z"/>
	<path class="st0" d="M826.4,446.7c-15.7,0-28.3,12.7-28.3,28.4c0,15.7,12.7,28.3,28.4,28.3c15.7,0,28.3-12.7,28.3-28.4c0,0,0,0,0,0
		C854.7,459.3,842,446.7,826.4,446.7C826.4,446.7,826.4,446.7,826.4,446.7z M843.5,471.6l-7.8,7.9l2.2,11.2c0.1,0.4-0.1,0.8-0.4,1
		c-0.2,0.1-0.4,0.2-0.6,0.2c-0.2,0-0.3,0-0.5-0.1l-10.1-5.6l-10.1,5.6c-0.3,0.2-0.8,0.2-1.1-0.1c-0.3-0.2-0.5-0.6-0.4-1l2.2-11.2
		l-7.9-7.9c-0.3-0.3-0.4-0.7-0.2-1c0.1-0.4,0.5-0.6,0.8-0.7l11.2-1.1l4.5-10.1c0.2-0.4,0.5-0.6,0.9-0.6c0.4,0,0.8,0.2,0.9,0.6
		l4.5,10.1l11.2,1.1c0.4,0,0.7,0.3,0.8,0.7C843.9,470.9,843.8,471.3,843.5,471.6z"/>
</g>
<g>
	<path class="st1" d="M158.1,169c-1.4,0-2.6,1.2-2.6,2.6s1.2,2.6,2.6,2.6s2.6-1.2,2.6-2.6S159.6,169,158.1,169L158.1,169z"/>
	<circle class="st1" cx="181.9" cy="160.8" r="2.6"/>
	<path class="st1" d="M181.9,184.8c1.4,0,2.6-1.2,2.6-2.6s-1.2-2.6-2.6-2.6s-2.6,1.2-2.6,2.6S180.5,184.8,181.9,184.8L181.9,184.8z"
		/>
	<path class="st1" d="M170,143.2c-15.7,0-28.3,12.7-28.3,28.4s12.7,28.3,28.3,28.3s28.4-12.7,28.4-28.3S185.7,143.2,170,143.2
		C170,143.2,170,143.2,170,143.2z M162.7,171.5c0,0.3,0,0.6-0.1,0.9l15.7,7.1c1.5-2,4.4-2.4,6.4-0.9c2,1.5,2.4,4.4,0.9,6.4
		c-1.5,2-4.4,2.4-6.4,0.9c-1.1-0.9-1.8-2.2-1.8-3.6c0-0.3,0-0.6,0.1-0.9l-15.7-7.1c-1.5,2-4.4,2.4-6.4,0.9s-2.4-4.4-0.9-6.4
		c1.5-2,4.4-2.4,6.4-0.9c0.4,0.3,0.7,0.6,0.9,0.9l15.7-7.1c-0.1-0.3-0.1-0.6-0.1-0.9c0-2.5,2-4.6,4.6-4.6c2.5,0,4.6,2,4.6,4.6
		c0,2.5-2,4.6-4.6,4.6c-1.5,0-2.8-0.7-3.7-1.8l-15.7,7C162.7,170.9,162.7,171.2,162.7,171.5L162.7,171.5z"/>
</g>
<g>
	<path class="st0" d="M666.2,316.9c-0.4-0.5-0.6-1-0.8-1.5c-0.8,1.2-2.5,1.5-3.7,0.7s-1.5-2.5-0.7-3.7c0.5-0.7,1.3-1.2,2.2-1.1
		c0.7,0,1.3,0.2,1.8,0.7c0.1-1.3,0.3-2.5,0.8-3.7c-1.6-0.5-3.3-0.7-5-0.8c-1.6,0-3.2,0.2-4.7,0.7c-2.4,0.8-4.6,2.2-6.2,4.1
		c-2.2,2.4-3.4,5.5-3.4,8.7c0,3,1.1,6,2.9,8.4c2.8,3.4,7,5.5,11.4,5.6c1.2,0,1.7-0.2,1.8-0.5c0.3-0.5,0.3-1.1-0.1-1.6
		c-0.3-0.4-0.7-0.8-1.1-1.1c-1-0.7-1.8-1.9-2-3.1c-0.2-1.1,0.2-2.3,1-3.1c1.1-0.8,2.4-1.1,3.7-0.9h2.2l-0.2-2.8L666.2,316.9z
		 M654.9,313.7c1.5,0,2.7,1.2,2.7,2.7s-1.2,2.7-2.7,2.7c-1.5,0-2.7-1.2-2.7-2.7v0C652.2,314.9,653.4,313.7,654.9,313.7
		C654.9,313.7,654.9,313.7,654.9,313.7L654.9,313.7z M655.6,327.8c-1.5,0-2.7-1.2-2.7-2.7s1.2-2.7,2.7-2.7c1.5,0,2.7,1.2,2.7,2.7v0
		C658.3,326.6,657.1,327.8,655.6,327.8L655.6,327.8z"/>
	<path class="st0" d="M671.3,319.1c-0.2,0-0.4,0.1-0.6,0.1c-0.4,0-0.8-0.1-1.2-0.2c-0.5-0.1-0.9-0.3-1.3-0.5v3.4l1.2,15.7h0.7
		l1.2-14.5L671.3,319.1z"/>
	<path class="st0" d="M670,317.1c0.8,0.3,1.7,0.1,2.2-0.6c1-1.5,0.7-4.8-0.7-6.9c-0.8-1.1-1.4-2.4-1.6-3.7c-2,1.8-3.1,4.3-3,7
		C666.7,314.9,668.1,316.7,670,317.1z"/>
	<path class="st0" d="M673.8,317.6c-0.1,0.2-0.3,0.4-0.5,0.5v5l-0.1,1.5c1.6-0.1,2.6-0.6,3-1.5c1-1.9-0.2-5.2-1.6-7.8
		C674.5,316.2,674.2,316.9,673.8,317.6z"/>
	<path class="st0" d="M661.5,292.9c-15.7,0-28.4,12.7-28.4,28.3c0,15.7,12.7,28.4,28.3,28.4c15.7,0,28.4-12.7,28.4-28.3c0,0,0,0,0,0
		C689.8,305.6,677.2,292.9,661.5,292.9z M678,324.1c-0.8,1.6-2.5,2.5-5,2.6l-1,12c0,0.5-0.5,0.9-1,0.9h-2.6c-0.5,0-1-0.4-1-0.9
		l-0.9-11.9h-2.4c-0.8-0.1-1.6,0-2.3,0.4c-0.3,0.3-0.4,0.8-0.3,1.3c0.2,0.8,0.7,1.5,1.3,1.9c0.5,0.4,1,0.9,1.4,1.5
		c0.8,1.2,0.8,2.8,0,4c-0.9,0.9-2.1,1.3-3.4,1.2c-5.1-0.1-9.8-2.5-13-6.4c-2.1-2.8-3.3-6.1-3.3-9.6c0-3.7,1.4-7.3,3.9-10
		c1.9-2.2,4.4-3.9,7.2-4.8c1.7-0.5,3.5-0.8,5.3-0.8c2,0,4.1,0.4,6,1c1-1.5,2.3-2.7,3.9-3.5c0.5-0.2,1.1,0,1.3,0.5
		c0.1,0.3,0.1,0.7-0.1,0.9c0,0.1-0.5,1.3,1.3,4c0.5,0.8,0.9,1.6,1.2,2.4c0,0,0.1,0.1,0.1,0.1C675,311.9,680.3,319.8,678,324.1z"/>
</g>
<g>
	<path class="st0" d="M593,750.2c-15.7,0-28.4,12.7-28.4,28.3s12.7,28.4,28.3,28.4s28.4-12.7,28.4-28.3c0,0,0,0,0,0
		C621.3,762.8,608.7,750.2,593,750.2C593,750.2,593,750.2,593,750.2z M593,804.8c-14.6,0-26.4-11.8-26.4-26.3s11.8-26.4,26.3-26.4
		c14.6,0,26.4,11.8,26.4,26.3v0C619.3,793,607.5,804.8,593,804.8z"/>
	<path class="st0" d="M605.1,764.7c-0.3-0.2-0.7-0.1-1,0c-0.1,0-6.4,4.2-10.4,0.1c-4.2-4.2-10.3-1.9-12.9-0.1
		c-0.3,0.2-0.4,0.5-0.4,0.8v28c0,0.6,0.4,1,1,1s1-0.4,1-1v-12.3c1.5-0.9,6.4-3.4,10,0.2c4.1,4.1,10.2,1.9,12.9,0.1
		c0.3-0.2,0.5-0.5,0.5-0.8v-15.1C605.7,765.2,605.4,764.8,605.1,764.7z M603.6,780.1c-1.5,0.9-6.5,3.3-10-0.1
		c-1.5-1.6-3.7-2.4-5.9-2.4c-1.9,0-3.7,0.5-5.4,1.4v-12.9c1.5-0.9,6.5-3.3,10,0.2s8.3,2.5,11.4,1L603.6,780.1z"/>
</g>
<g>
	<path class="st0" d="M660.8,766.3c-3.5-3.5-8.5-1-10-0.2V779c1.7-0.9,3.6-1.3,5.5-1.4c2.2,0,4.3,0.8,5.9,2.4c3.4,3.4,8.4,1,10,0.1
		v-12.9C669.1,768.7,664.3,769.7,660.8,766.3z"/>
	<path class="st0" d="M661.5,750.2c-15.7,0-28.4,12.7-28.4,28.3s12.7,28.4,28.3,28.4s28.4-12.7,28.4-28.3c0,0,0,0,0,0
		C689.8,762.8,677.2,750.2,661.5,750.2z M674.2,780.7c0,0.3-0.2,0.7-0.5,0.8c-2.7,1.8-8.8,4-12.9-0.1c-3.5-3.5-8.5-1-10-0.2v12.3
		c0,0.6-0.4,1-1,1s-1-0.4-1-1v-28c0-0.3,0.2-0.6,0.4-0.8c2.6-1.8,8.7-4.1,12.9,0.1c4,4,10.3-0.1,10.4-0.1c0.3-0.2,0.7-0.2,1,0
		c0.3,0.2,0.5,0.5,0.5,0.9L674.2,780.7z"/>
</g>
<g>
	<path class="st0" d="M593,370.8c-15.7,0-28.4,12.7-28.4,28.3s12.7,28.4,28.3,28.4c15.7,0,28.4-12.7,28.4-28.3c0,0,0,0,0,0
		C621.4,383.5,608.7,370.8,593,370.8C593,370.8,593,370.8,593,370.8z M593,425.5c-14.6,0-26.4-11.8-26.4-26.3s11.8-26.4,26.3-26.4
		c14.6,0,26.4,11.8,26.4,26.3c0,0,0,0,0,0C619.3,413.7,607.5,425.5,593,425.5z"/>
	<path class="st0" d="M605.5,386.7L590.2,402c-1.3,0.1-4,0.5-5.2,4.2c-1,3-3.4,2.9-3.6,2.8c-0.5-0.1-1,0.3-1.1,0.8
		c-0.1,0.5,0.2,1,0.6,1.2c2.3,0.8,4.8,1.3,7.2,1.3c1.6,0.1,3.2-0.3,4.7-1.1c1.5-1,2.4-2.8,2.4-4.6c0-0.3,0-0.5,0-0.8l14.6-14.9
		c1-1.4,0.6-3.2-0.7-4.2C607.9,386,606.5,386,605.5,386.7L605.5,386.7z M591.6,409.5c-1.7,1.1-4.5,0.9-6.9,0.5
		c1-0.8,1.8-1.9,2.1-3.1c0.3-1.8,2-3,3.8-2.8c0.7,0,1.4,0.3,1.9,0.9c0.4,0.4,0.7,1,0.6,1.6C593.2,407.6,592.6,408.8,591.6,409.5z
		 M608.2,389.5l-14,14.3c-0.1-0.1-0.2-0.2-0.3-0.4c-0.4-0.4-0.9-0.7-1.4-1l14.3-14.3c0.4-0.2,0.9-0.2,1.2,0.2
		C608.4,388.6,608.5,389.1,608.2,389.5L608.2,389.5z"/>
	<path class="st0" d="M581.2,407.5c0.3,0,0.6-0.2,0.8-0.4c0.3-0.5,0.2-1.1-0.2-1.4c-0.6-0.4-1.4-1.3-1.4-1.9c0-0.4,0.5-0.7,1.2-1.1
		c3.2-1.5,5-3.9,4.4-5.9c-0.4-1.4-2.1-3.7-9.6-3c-0.6,0-1,0.5-0.9,1.1c0,0.6,0.5,1,1.1,0.9c4.8-0.4,7.2,0.5,7.5,1.5
		c0.2,0.9-0.8,2.4-3.3,3.6c-1.5,0.7-2.3,1.6-2.4,2.7c-0.2,2,2,3.5,2.2,3.7C580.8,407.4,581,407.5,581.2,407.5z"/>
</g>
<g>
	<path class="st0" d="M593,143.2c-15.7,0-28.4,12.7-28.4,28.3s12.7,28.4,28.3,28.4s28.4-12.7,28.4-28.3v0
		C621.4,155.9,608.7,143.2,593,143.2C593,143.2,593,143.2,593,143.2z M593,197.9c-14.6,0-26.4-11.8-26.4-26.3s11.8-26.4,26.3-26.4
		c14.6,0,26.4,11.8,26.4,26.3v0C619.3,186.1,607.5,197.9,593,197.9z"/>
	<path class="st0" d="M580.5,177.7c3.4-1.6,5.4-4.1,4.8-6.4c-0.4-1.5-2.3-4-10.4-3.2c-0.6,0-1,0.5-0.9,1.1c0,0.6,0.5,1,1.1,0.9
		c5.7-0.5,8,0.6,8.3,1.8s-0.9,2.8-3.7,4c-1.6,0.7-2.5,1.7-2.6,2.9c-0.2,2.1,2.2,3.8,2.4,3.9c0.2,0.1,0.4,0.2,0.6,0.2
		c0.3,0,0.6-0.2,0.8-0.4c0.3-0.5,0.2-1.1-0.2-1.4c-0.5-0.4-1.6-1.4-1.5-2.1C579.2,178.4,580,177.9,580.5,177.7z"/>
	<path class="st0" d="M610,163.4c0-0.3-0.1-0.5-0.3-0.7L606,159c-0.4-0.4-1-0.4-1.4,0l-7.2,7.2l-10.8,10.9c-0.1,0.1-0.2,0.2-0.2,0.4
		l-1.8,5.4c-0.1,0.4,0,0.7,0.2,1c0.2,0.2,0.4,0.3,0.7,0.3c0.1,0,0.2,0,0.3-0.1l5.4-1.8c0.1-0.1,0.3-0.1,0.4-0.2l10.9-10.9l7.2-7.2
		C609.9,163.9,610,163.6,610,163.4z M590.3,180.6l-3.3,1.1l1.1-3.3l10-10l2.2,2.2L590.3,180.6z M601.8,169.2l-2.2-2.2l5.8-5.8
		l2.2,2.2L601.8,169.2z"/>
	<path class="st0" d="M611.6,168.4c-0.4-0.4-1-0.4-1.4,0l-5.1,5.1c-0.4,0.4-0.4,1,0,1.4c0.4,0.4,1,0.4,1.4,0l0,0l5.1-5.1
		C612,169.4,612,168.8,611.6,168.4C611.6,168.4,611.6,168.4,611.6,168.4z"/>
</g>
<g>
	<path class="st0" d="M593,219.2c-15.7,0-28.4,12.7-28.4,28.3s12.7,28.4,28.3,28.4c15.7,0,28.4-12.7,28.4-28.3v0
		C621.4,231.9,608.7,219.2,593,219.2C593,219.2,593,219.2,593,219.2z M593,273.9c-14.6,0-26.4-11.8-26.4-26.3s11.8-26.4,26.3-26.4
		c14.6,0,26.4,11.8,26.4,26.3v0C619.3,262.1,607.5,273.9,593,273.9z"/>
	<path class="st0" d="M580.9,254c3.6-1.6,5.6-4.3,5-6.6c-0.4-1.6-2.4-4.1-10.9-3.4c-0.6,0-1,0.5-0.9,1.1c0,0.6,0.5,1,1.1,0.9
		c5.9-0.5,8.4,0.7,8.8,1.9s-1,2.9-3.9,4.3c-1.7,0.8-2.5,1.8-2.7,3c-0.2,2.2,2.2,3.9,2.5,4.1c0.5,0.3,1.1,0.2,1.4-0.2
		c0.3-0.5,0.2-1.1-0.2-1.4c0,0,0,0,0,0c-0.5-0.4-1.7-1.5-1.6-2.3C579.5,254.7,580.4,254.2,580.9,254z"/>
	<path class="st0" d="M611.5,238.3l-3.8-3.8c-0.4-0.4-1-0.4-1.4,0l-7.6,7.6l-11.4,11.4c-0.1,0.1-0.2,0.2-0.2,0.4l-1.9,5.7
		c-0.1,0.4,0,0.7,0.2,1c0.2,0.2,0.4,0.3,0.7,0.3c0.1,0,0.2,0,0.3,0l5.7-1.9c0.1,0,0.3-0.1,0.4-0.2l11.4-11.4l7.6-7.6
		C611.8,239.3,611.8,238.6,611.5,238.3z M591.2,257.1l-3.6,1.2l1.2-3.6l10.5-10.5l2.4,2.4L591.2,257.1z M603.2,245.1l-2.4-2.4
		l6.2-6.2l2.4,2.4L603.2,245.1z"/>
</g>
<g>
	<path class="st0" d="M659.2,404c-1.8-0.2-3.4,1.1-3.8,2.8c-0.4,1.2-1.1,2.3-2.1,3.1c2.3,0.5,5.2,0.6,6.9-0.5c1-0.7,1.5-1.8,1.5-3
		c0-0.6-0.2-1.2-0.6-1.6C660.6,404.4,659.9,404,659.2,404z"/>
	<path class="st0" d="M661.5,370.8c-15.7,0-28.4,12.7-28.4,28.3s12.7,28.4,28.3,28.4c15.7,0,28.4-12.7,28.4-28.3c0,0,0,0,0,0
		C689.8,383.5,677.2,370.8,661.5,370.8z M647,403.6c0.1-1.1,0.9-2,2.4-2.7c2.5-1.1,3.5-2.7,3.3-3.6c-0.3-1.1-2.7-2-7.5-1.5
		c-0.6,0-1-0.4-1.1-0.9c0-0.6,0.4-1,0.9-1.1l0,0c7.5-0.7,9.2,1.6,9.6,3c0.5,2.1-1.2,4.5-4.4,5.9c-0.8,0.4-1.2,0.7-1.2,1.1
		c-0.1,0.6,0.8,1.5,1.4,1.9c0.5,0.3,0.6,0.9,0.2,1.4c-0.2,0.3-0.5,0.4-0.8,0.4c-0.2,0-0.4-0.1-0.6-0.2
		C649,407.1,646.8,405.6,647,403.6z M678.2,390.9l-14.6,14.9c0,0.3,0,0.5,0,0.8c0,1.8-0.9,3.6-2.4,4.6c-1.4,0.8-3,1.2-4.6,1.1
		c-2.5-0.1-4.9-0.5-7.2-1.3c-0.5-0.2-0.8-0.8-0.6-1.3c0.2-0.4,0.6-0.7,1-0.6c0.3,0,2.7,0.2,3.6-2.8c1.2-3.7,3.9-4.1,5.2-4.2
		l15.3-15.2c0.5-0.5,1.3-0.8,2-0.7c0.8,0.1,1.5,0.4,2,0.9C679.1,388,679.2,389.7,678.2,390.9L678.2,390.9z"/>
	<path class="st0" d="M675.9,388c-0.2,0-0.3,0-0.5,0.1l-14.3,14.3c0.5,0.2,1,0.6,1.4,1c0.1,0.1,0.2,0.2,0.3,0.4l14-14.3
		c0.2-0.4,0.1-0.9-0.2-1.2C676.4,388.2,676.1,388,675.9,388z"/>
</g>
<g>
	<polygon class="st0" points="666.6,168.4 656.6,178.4 655.5,181.7 658.8,180.6 668.8,170.6 	"/>
	<path class="st0" d="M661.5,143.2c-15.7,0-28.4,12.7-28.4,28.3s12.7,28.4,28.3,28.4s28.4-12.7,28.4-28.3v0
		C689.8,155.9,677.2,143.2,661.5,143.2z M649.2,181.1c0.5,0.3,0.6,0.9,0.2,1.4c-0.2,0.3-0.5,0.4-0.8,0.4c-0.2,0-0.4-0.1-0.6-0.2
		c-0.3-0.2-2.6-1.8-2.4-3.9c0.1-1.2,1-2.2,2.6-2.9c2.8-1.3,3.9-3,3.7-4s-2.6-2.3-8.3-1.8c-0.6,0-1-0.4-1.1-0.9c0-0.6,0.4-1,0.9-1.1
		l0,0c8.1-0.7,10,1.7,10.4,3.2c0.6,2.2-1.3,4.8-4.8,6.4c-0.5,0.2-1.4,0.7-1.4,1.3C647.6,179.7,648.7,180.7,649.2,181.1z
		 M660.1,182.2c-0.1,0.1-0.2,0.2-0.4,0.2l-5.4,1.8c-0.1,0-0.2,0.1-0.3,0.1c-0.3,0-0.5-0.1-0.7-0.3c-0.3-0.3-0.4-0.6-0.2-1l1.8-5.4
		c0-0.1,0.1-0.3,0.2-0.4l10.9-10.9l7.3-7.2c0.4-0.4,1-0.4,1.4,0l3.6,3.6c0.4,0.4,0.4,1,0,1.4c0,0,0,0,0,0l-7.2,7.2L660.1,182.2z
		 M680.2,169.8L675,175c-0.2,0.2-0.4,0.3-0.7,0.3c-0.3,0-0.5-0.1-0.7-0.3c-0.4-0.4-0.4-1,0-1.4c0,0,0,0,0,0l5.1-5.1
		c0.4-0.4,1-0.4,1.4,0C680.5,168.8,680.5,169.5,680.2,169.8L680.2,169.8L680.2,169.8z"/>
	<rect x="668" y="163.6" transform="matrix(0.707 -0.7072 0.7072 0.707 80.1004 523.7274)" class="st0" width="8.3" height="3.1"/>
</g>
<g>
	<polygon class="st0" points="667.9,244.2 657.4,254.7 656.2,258.3 659.8,257.1 670.3,246.6 	"/>
	
		<rect x="669.2" y="239.2" transform="matrix(0.7071 -0.7071 0.7071 0.7071 26.9718 546.863)" class="st0" width="8.8" height="3.4"/>
	<path class="st0" d="M661.5,219.2c-15.7,0-28.4,12.7-28.4,28.3s12.7,28.4,28.3,28.4c15.7,0,28.4-12.7,28.4-28.3v0
		C689.8,231.9,677.2,219.2,661.5,219.2z M649.6,257.6c0.5,0.3,0.6,0.9,0.2,1.4c-0.2,0.3-0.5,0.4-0.8,0.4c-0.2,0-0.4-0.1-0.6-0.2
		c-0.3-0.2-2.7-1.9-2.5-4.1c0.1-1.2,1-2.3,2.7-3c2.9-1.3,4.2-3.2,3.9-4.3s-2.8-2.4-8.8-1.9c-0.6,0-1-0.4-1.1-0.9
		c0-0.6,0.4-1,0.9-1.1c8.5-0.8,10.4,1.8,10.9,3.4c0.6,2.3-1.4,5-5,6.6c-0.5,0.2-1.4,0.8-1.5,1.4
		C647.9,256.1,649.1,257.2,649.6,257.6z M680,239.6l-7.6,7.6L661,258.7c-0.1,0.1-0.2,0.2-0.4,0.2l-5.7,1.9c-0.1,0-0.2,0-0.3,0
		c-0.6,0-1-0.4-1.1-0.9c0-0.1,0-0.3,0.1-0.4l1.9-5.7c0-0.1,0.1-0.3,0.2-0.4l11.4-11.4l7.6-7.6c0.4-0.4,1-0.4,1.4,0l3.8,3.8
		C680.4,238.6,680.4,239.3,680,239.6L680,239.6z"/>
</g>
<g>
	<path class="st0" d="M757.8,370.8c-15.7,0-28.4,12.7-28.4,28.3c0,15.7,12.7,28.4,28.3,28.4c15.7,0,28.4-12.7,28.4-28.3c0,0,0,0,0,0
		C786.2,383.5,773.5,370.8,757.8,370.8z M757.8,425.5c-14.6,0-26.4-11.8-26.4-26.3s11.8-26.4,26.3-26.4c14.6,0,26.4,11.8,26.4,26.3
		c0,0,0,0,0,0C784.1,413.7,772.4,425.5,757.8,425.5z"/>
	<path class="st0" d="M757.8,380.1c-10.5,0-19.1,8.5-19.1,19.1c0,10.5,8.5,19.1,19.1,19.1c10.5,0,19.1-8.5,19.1-19.1c0,0,0,0,0,0
		C776.9,388.6,768.3,380.1,757.8,380.1z M757.8,416.2c-9.4,0-17.1-7.6-17.1-17.1c0-9.4,7.6-17.1,17.1-17.1s17.1,7.6,17.1,17.1
		c0,0,0,0,0,0C774.9,408.5,767.2,416.2,757.8,416.2z"/>
	<path class="st0" d="M768.9,395.7l-7-1l-3.1-6.4c-0.2-0.5-0.8-0.7-1.3-0.4c-0.2,0.1-0.4,0.3-0.4,0.4l-3.1,6.4l-7,1
		c-0.4,0.1-0.7,0.3-0.8,0.7c-0.1,0.4,0,0.7,0.2,1l5.1,5l-1.2,7c-0.1,0.4,0.1,0.8,0.4,1c0.3,0.2,0.7,0.2,1,0.1l6.3-3.3l6.3,3.3
		c0.1,0.1,0.3,0.1,0.5,0.1c0.2,0,0.4-0.1,0.6-0.2c0.3-0.2,0.5-0.6,0.4-1l-1.2-7l5.1-5c0.3-0.3,0.4-0.6,0.2-1
		C769.6,396,769.3,395.8,768.9,395.7z M762.6,401.3c-0.2,0.2-0.3,0.6-0.3,0.9l0.9,5.5l-5-2.6c-0.1-0.1-0.3-0.1-0.5-0.1
		c-0.2,0-0.3,0-0.5,0.1l-5,2.6l0.9-5.5c0.1-0.3-0.1-0.7-0.3-0.9l-4-3.9l5.5-0.8c0.3,0,0.6-0.3,0.8-0.5l2.5-5l2.5,5
		c0.1,0.3,0.4,0.5,0.8,0.5l5.5,0.8L762.6,401.3z"/>
</g>
<g>
	<path class="st1" d="M101.5,598.4c-15.7,0-28.4,12.7-28.4,28.3c0,15.7,12.7,28.4,28.4,28.4s28.3-12.7,28.3-28.4l0,0
		C129.8,611.1,117.1,598.4,101.5,598.4z M101.5,653.1c-14.6,0-26.3-11.8-26.3-26.3c0-14.6,11.8-26.4,26.3-26.4s26.3,11.8,26.3,26.4
		l0,0C127.8,641.3,116,653.1,101.5,653.1L101.5,653.1z"/>
	<path class="st1" d="M114.3,622.1c-2.2,0-4.1,1.5-4.6,3.7H93.3c-0.6-2.5-3-4.1-5.6-3.6c-2.5,0.6-4.1,3-3.6,5.6s3,4.1,5.6,3.6
		c1.8-0.4,3.2-1.8,3.6-3.6h16.5c0.6,2.5,3,4.1,5.6,3.6c2.5-0.6,4.1-3,3.6-5.6C118.4,623.6,116.5,622.1,114.3,622.1z M88.7,629.4
		c-1.5,0-2.7-1.2-2.7-2.7c0-1.5,1.2-2.7,2.7-2.7c1.5,0,2.7,1.2,2.7,2.7l0,0C91.4,628.2,90.2,629.4,88.7,629.4z M114.3,629.4
		c-1.5,0-2.7-1.2-2.7-2.7c0-1.5,1.2-2.7,2.7-2.7c1.5,0,2.7,1.2,2.7,2.7l0,0C117,628.2,115.8,629.4,114.3,629.4z"/>
</g>
<g>
	<path class="st1" d="M101.5,750.2c-15.7,0-28.3,12.7-28.3,28.3c0,15.7,12.7,28.4,28.3,28.4s28.3-12.7,28.3-28.4c0,0,0,0,0,0
		C129.8,762.8,117.2,750.2,101.5,750.2C101.5,750.2,101.5,750.2,101.5,750.2z M101.5,804.8c-14.6,0-26.3-11.8-26.3-26.3
		c0-14.6,11.8-26.4,26.3-26.4s26.3,11.8,26.3,26.4l0,0C127.8,793,116,804.8,101.5,804.8z"/>
	<path class="st1" d="M113.2,771.4c2.3,0,4.2-1.9,4.2-4.2c0-2.3-1.9-4.2-4.2-4.2s-4.2,1.9-4.2,4.2c0,0.9,0.3,1.7,0.8,2.5l-4.9,4.7
		c-1.6-1-3.6-1.1-5.2-0.3l-3.5-5.6c1.6-1.7,1.5-4.4-0.2-6c-1.7-1.6-4.4-1.5-6,0.2c-1.6,1.7-1.5,4.4,0.2,6c1.2,1.1,2.9,1.4,4.4,0.9
		l3.6,5.6c-1,0.9-1.6,2.2-1.7,3.5l-2.5,0.2c-0.8-2.2-3.3-3.2-5.5-2.4c-2.2,0.8-3.2,3.3-2.4,5.5c0.8,2.2,3.3,3.2,5.5,2.4
		c1.5-0.6,2.5-1.9,2.7-3.5l2.4-0.2c0.4,1.7,1.6,3.2,3.3,3.9l-0.8,2.6h-0.3c-2.3,0-4.3,1.9-4.3,4.2c0,2.3,1.9,4.3,4.2,4.3
		c2.3,0,4.3-1.9,4.3-4.2c0-1.5-0.8-2.9-2-3.7l0.9-2.8h0.3c1.9,0,3.7-1,4.8-2.6l2.7,1.7c-1,2.1-0.1,4.6,1.9,5.6s4.6,0.1,5.6-1.9
		c1-2.1,0.1-4.6-1.9-5.6c-0.6-0.3-1.2-0.4-1.8-0.4c-0.9,0-1.7,0.3-2.5,0.8l-3.2-2c0.1-0.4,0.2-0.9,0.2-1.3c0-1.3-0.5-2.6-1.3-3.6
		l4.9-4.8C111.9,771.2,112.5,771.4,113.2,771.4z M90.8,765.6c0-1.2,1-2.2,2.2-2.2c1.2,0,2.2,1,2.2,2.2s-1,2.2-2.2,2.2
		C91.8,767.8,90.8,766.9,90.8,765.6z M98.5,793.5c-1.2,0-2.2-1-2.2-2.2s1-2.2,2.2-2.2s2.2,1,2.2,2.2S99.8,793.5,98.5,793.5
		C98.5,793.5,98.5,793.5,98.5,793.5z M115.4,786c0,1.2-1,2.2-2.2,2.2c-1.2,0-2.2-1-2.2-2.2s1-2.2,2.2-2.2
		C114.4,783.8,115.4,784.8,115.4,786L115.4,786z M113.2,765c1.2,0,2.2,1,2.2,2.2s-1,2.2-2.2,2.2s-2.2-1-2.2-2.2
		C111,766,111.9,765,113.2,765C113.1,765,113.2,765,113.2,765z M89.8,782.6c-1.2,0-2.2-1-2.2-2.2s1-2.2,2.2-2.2s2.2,1,2.2,2.2
		C92,781.6,91,782.6,89.8,782.6z M102,783c-2.1,0-3.7-1.7-3.7-3.7c0-2.1,1.7-3.7,3.7-3.8c2.1,0,3.7,1.7,3.7,3.7c0,0,0,0,0,0
		C105.7,781.3,104.1,783,102,783z"/>
</g>
<g>
	<path class="st1" d="M101.5,522.5c-15.7,0-28.4,12.7-28.4,28.3c0,15.7,12.7,28.4,28.4,28.4s28.3-12.7,28.3-28.4l0,0
		C129.8,535.2,117.2,522.5,101.5,522.5C101.5,522.5,101.5,522.5,101.5,522.5z M101.5,577.2c-14.6,0-26.3-11.8-26.3-26.3
		c0-14.6,11.8-26.4,26.3-26.4s26.3,11.8,26.3,26.4l0,0C127.8,565.4,116,577.2,101.5,577.2L101.5,577.2z"/>
	<path class="st1" d="M117.9,546.7c-1.9,0-3.5,1.3-4,3.2h-6.8c-0.1-0.8-0.5-1.6-0.9-2.3l4.8-4.8c2,1.2,4.6,0.6,5.8-1.4
		c1.2-2,0.6-4.6-1.4-5.8s-4.6-0.6-5.8,1.4c-0.8,1.3-0.8,3,0,4.4l-4.8,4.8c-0.7-0.5-1.5-0.8-2.3-1l0.1-6.8c2.2-0.6,3.6-2.8,3-5
		s-2.8-3.6-5-3c-2.2,0.6-3.6,2.8-3,5c0.4,1.5,1.5,2.7,3,3l-0.1,6.8c-0.8,0.1-1.6,0.4-2.2,0.9l-4.8-4.8c0.4-0.6,0.6-1.4,0.6-2.1
		c0-2.3-1.9-4.2-4.2-4.2s-4.2,1.9-4.2,4.2s1.9,4.2,4.2,4.2c0,0,0,0,0,0c0.8,0,1.5-0.2,2.1-0.6l4.8,4.8c-0.5,0.7-0.8,1.5-1,2.3h-6.8
		c-0.6-2.2-2.8-3.6-5-3c-2.2,0.6-3.6,2.8-3,5s2.8,3.6,5,3c1.5-0.4,2.7-1.5,3-3h6.8c0.1,0.7,0.4,1.4,0.8,2.1l-4.9,4.8
		c-2-1-4.5-0.2-5.5,1.8c-1,2-0.2,4.5,1.8,5.5c2,1,4.5,0.2,5.5-1.8c0.7-1.3,0.6-3-0.3-4.2l4.7-4.7c0.7,0.6,1.6,0.9,2.5,1.1l0.1,6.8
		c-2.2,0.6-3.6,2.8-3,5s2.8,3.6,5,3c2.2-0.6,3.6-2.8,3-5c-0.4-1.5-1.5-2.7-3-3l-0.1-6.8c0.9-0.2,1.8-0.5,2.5-1.1l4.8,4.8
		c-0.4,0.7-0.7,1.5-0.7,2.3c0,2.3,1.8,4.2,4.2,4.3c2.3,0,4.2-1.8,4.3-4.2c0-2.3-1.8-4.2-4.2-4.3c-0.7,0-1.5,0.2-2.1,0.5l-4.9-4.9
		c0.4-0.6,0.7-1.3,0.8-2.1h6.8c0.6,2.2,2.8,3.6,5,3c2.2-0.6,3.6-2.8,3-5C121.5,548,119.8,546.7,117.9,546.7L117.9,546.7z
		 M101.5,554.6c-2.1,0-3.7-1.7-3.7-3.7s1.7-3.7,3.7-3.7s3.7,1.7,3.7,3.7c0,0,0,0,0,0C105.2,552.9,103.6,554.6,101.5,554.6
		C101.5,554.6,101.5,554.6,101.5,554.6z M113.1,537.2c1.2,0,2.2,1,2.2,2.2c0,1.2-1,2.2-2.2,2.2s-2.2-1-2.2-2.2l0,0
		C111,538.1,111.9,537.2,113.1,537.2z M99.4,534.4c0-1.2,1-2.2,2.2-2.2c1.2,0,2.2,1,2.2,2.2s-1,2.2-2.2,2.2c0,0,0,0,0,0
		C100.4,536.6,99.4,535.6,99.4,534.4C99.4,534.4,99.4,534.4,99.4,534.4z M87.7,539.2c0-1.2,1-2.2,2.2-2.2s2.2,1,2.2,2.2
		s-1,2.2-2.2,2.2c0,0,0,0,0,0C88.7,541.3,87.7,540.4,87.7,539.2z M85.1,553c-1.2,0-2.2-1-2.2-2.2c0-1.2,1-2.2,2.2-2.2s2.2,1,2.2,2.1
		c0,0,0,0,0,0C87.2,552,86.2,553,85.1,553z M89.9,564.6c-1.2,0-2.2-0.9-2.2-2.1c0-1.2,0.9-2.2,2.1-2.2s2.2,0.9,2.2,2.1
		c0,0,0,0,0,0.1C92,563.6,91,564.6,89.9,564.6L89.9,564.6z M103.7,567.3c0,1.2-1,2.2-2.2,2.2s-2.2-1-2.2-2.2s1-2.2,2.2-2.2
		c0,0,0,0,0,0C102.8,565.1,103.7,566.1,103.7,567.3C103.7,567.3,103.7,567.3,103.7,567.3L103.7,567.3z M115.4,562.4
		c0,1.2-1,2.2-2.2,2.2s-2.2-1-2.2-2.2s1-2.2,2.2-2.2c0,0,0,0,0,0C114.4,560.2,115.4,561.2,115.4,562.4
		C115.4,562.4,115.4,562.4,115.4,562.4L115.4,562.4z M117.9,553c-1.2,0-2.2-1-2.2-2.2s1-2.2,2.2-2.2s2.2,1,2.2,2.2c0,0,0,0,0,0
		C120.1,552,119.1,553,117.9,553z"/>
</g>
<g>
	<path class="st1" d="M101.5,674.3c-15.7,0-28.3,12.7-28.3,28.3c0,15.7,12.7,28.4,28.3,28.4s28.3-12.7,28.3-28.4c0,0,0,0,0,0
		C129.8,687,117.2,674.3,101.5,674.3C101.5,674.3,101.5,674.3,101.5,674.3z M101.5,729c-14.6,0-26.3-11.8-26.3-26.3
		c0-14.6,11.8-26.4,26.3-26.4s26.3,11.8,26.3,26.4l0,0C127.8,717.2,116,729,101.5,729L101.5,729z"/>
	<path class="st1" d="M103.8,694.3h8.4c0.6,1.8,2.5,2.8,4.3,2.3s2.8-2.5,2.3-4.3c-0.6-1.8-2.5-2.8-4.3-2.3c-1.1,0.3-1.9,1.2-2.3,2.3
		h-8.4c-1.8,0-3.3,1.5-3.3,3.3v6h-9.7c-0.6-1.8-2.5-2.8-4.2-2.2c-1.8,0.6-2.8,2.5-2.2,4.2s2.5,2.8,4.2,2.2c1.1-0.3,1.9-1.2,2.2-2.2
		h9.7v6c0,1.8,1.5,3.3,3.3,3.3h8.4c0.6,1.8,2.5,2.8,4.2,2.2c1.8-0.6,2.8-2.5,2.2-4.2s-2.5-2.8-4.2-2.2c-1.1,0.3-1.9,1.2-2.2,2.2
		h-8.4c-0.7,0-1.3-0.6-1.3-1.3v-14C102.5,694.9,103.1,694.4,103.8,694.3z M115.4,691.9c0.8,0,1.4,0.6,1.4,1.4c0,0.8-0.6,1.4-1.4,1.4
		c-0.8,0-1.4-0.6-1.4-1.4c0,0,0,0,0,0C114,692.6,114.6,691.9,115.4,691.9z M87.6,704c-0.8,0-1.4-0.6-1.4-1.4c0-0.8,0.6-1.4,1.4-1.4
		s1.4,0.6,1.4,1.4C89,703.4,88.4,704,87.6,704z M115.4,710.5c0.8,0,1.4,0.6,1.4,1.4c0,0.8-0.6,1.4-1.4,1.4s-1.4-0.6-1.4-1.4
		C114,711.1,114.6,710.5,115.4,710.5C115.4,710.5,115.4,710.5,115.4,710.5L115.4,710.5z"/>
</g>
<g>
	<path class="st0" d="M828.8,396l-2.5-5l-2.5,5c-0.1,0.3-0.4,0.5-0.8,0.5l-5.5,0.8l4,3.9c0.2,0.2,0.3,0.6,0.3,0.9l-1,5.5l5-2.6
		c0.1-0.1,0.3-0.1,0.5-0.1c0.2,0,0.3,0,0.5,0.1l5,2.6l-0.9-5.5c-0.1-0.3,0-0.6,0.3-0.9l4-3.9l-5.5-0.8
		C829.3,396.5,829,396.3,828.8,396z"/>
	<path class="st0" d="M826.4,382.1c-9.4,0-17.1,7.6-17.1,17.1c0,9.4,7.6,17.1,17.1,17.1s17.1-7.6,17.1-17.1c0,0,0,0,0,0
		C843.4,389.7,835.8,382.1,826.4,382.1z M838,397.4l-5.1,5l1.2,7c0.1,0.4-0.1,0.8-0.4,1c-0.2,0.1-0.4,0.2-0.6,0.2
		c-0.2,0-0.3,0-0.5-0.1l-6.3-3.3l-6.3,3.3c-0.5,0.3-1.1,0.1-1.3-0.4c-0.1-0.2-0.1-0.4-0.1-0.6l1.2-7l-5.1-5c-0.3-0.3-0.4-0.6-0.3-1
		c0.1-0.4,0.4-0.6,0.8-0.7l7-1l3.1-6.4c0.2-0.5,0.8-0.7,1.3-0.5c0.2,0.1,0.4,0.3,0.5,0.5l3.1,6.4l7,1c0.5,0.1,0.9,0.6,0.8,1.1
		C838.2,397.1,838.1,397.3,838,397.4L838,397.4z"/>
	<path class="st0" d="M826.4,370.8c-15.7,0-28.4,12.7-28.4,28.3s12.7,28.4,28.3,28.4c15.7,0,28.4-12.7,28.4-28.3c0,0,0,0,0,0
		C854.7,383.5,842,370.8,826.4,370.8C826.4,370.8,826.4,370.8,826.4,370.8z M826.4,418.2c-10.5,0-19.1-8.5-19.1-19.1
		c0-10.5,8.5-19.1,19.1-19.1c10.5,0,19.1,8.5,19.1,19.1c0,0,0,0,0,0C845.4,409.7,836.9,418.2,826.4,418.2z"/>
</g>
<g>
	<circle class="st1" cx="157.2" cy="626.8" r="2.7"/>
	<circle class="st1" cx="182.8" cy="626.8" r="2.7"/>
	<path class="st1" d="M170,598.4c-15.7,0-28.3,12.7-28.3,28.3c0,15.7,12.7,28.4,28.3,28.4s28.4-12.7,28.4-28.4l0,0
		C198.3,611.1,185.7,598.4,170,598.4z M182.8,631.4c-2.2,0-4.1-1.5-4.6-3.7h-16.4c-0.6,2.5-3,4.1-5.6,3.6c-2.5-0.6-4.1-3-3.6-5.6
		c0.6-2.5,3-4.1,5.6-3.6c1.8,0.4,3.2,1.8,3.6,3.6h16.5c0.6-2.5,3-4.1,5.6-3.6c2.5,0.6,4.1,3,3.6,5.6
		C186.9,629.9,185,631.4,182.8,631.4L182.8,631.4z"/>
</g>
<g>
	<path class="st1" d="M179.5,786c0,1.2,1,2.2,2.2,2.2c1.2,0,2.2-1,2.2-2.2c0-1.2-1-2.2-2.2-2.2C180.5,783.8,179.5,784.8,179.5,786z"
		/>
	<path class="st1" d="M167.1,789.2c-1.2,0-2.2,1-2.2,2.2c0,1.2,1,2.2,2.2,2.2c1.2,0,2.2-1,2.2-2.2
		C169.3,790.1,168.3,789.2,167.1,789.2C167.1,789.2,167.1,789.2,167.1,789.2z"/>
	<path class="st1" d="M163.8,765.6c0-1.2-1-2.2-2.2-2.2c-1.2,0-2.2,1-2.2,2.2c0,1.2,1,2.2,2.2,2.2
		C162.8,767.8,163.8,766.9,163.8,765.6z"/>
	<path class="st1" d="M181.7,769.4c1.2,0,2.2-1,2.2-2.2c0-1.2-1-2.2-2.2-2.2c-1.2,0-2.2,1-2.2,2.2
		C179.5,768.4,180.5,769.4,181.7,769.4z"/>
	<path class="st1" d="M170,750.2c-15.7,0-28.3,12.7-28.3,28.3c0,15.7,12.7,28.4,28.3,28.4s28.4-12.7,28.4-28.4c0,0,0,0,0,0
		C198.3,762.8,185.7,750.2,170,750.2z M176.2,779.3c0,0.4,0,0.9-0.1,1.3l3.2,2c1.9-1.4,4.5-0.9,5.9,0.9c1.4,1.9,0.9,4.5-0.9,5.9
		c-1.9,1.4-4.5,0.9-5.9-0.9c-0.5-0.7-0.8-1.6-0.8-2.5c0-0.6,0.2-1.3,0.4-1.8l-2.7-1.7c-1,1.6-2.8,2.6-4.7,2.6h-0.4l-0.9,2.8
		c2,1.2,2.6,3.8,1.4,5.8c-1.2,2-3.8,2.6-5.8,1.4s-2.6-3.8-1.4-5.8c0.8-1.2,2.1-2,3.6-2h0.3l0.8-2.6c-1.6-0.7-2.8-2.2-3.3-3.9
		l-2.4,0.2c-0.3,2.3-2.3,3.9-4.6,3.7c-2.3-0.3-3.9-2.3-3.7-4.6s2.3-3.9,4.6-3.7c1.5,0.2,2.9,1.2,3.4,2.6l2.5-0.2
		c0.1-1.3,0.8-2.6,1.7-3.5l-3.5-5.6c-0.5,0.2-0.9,0.3-1.4,0.3c-2.3,0-4.2-1.9-4.3-4.2c0-2.3,1.9-4.2,4.2-4.3c2.3,0,4.2,1.9,4.3,4.2
		c0,1.1-0.4,2.1-1.1,2.9l3.5,5.6c1.7-0.8,3.7-0.6,5.2,0.3l4.9-4.7c-1.4-1.9-0.9-4.5,1-5.8c1.9-1.4,4.5-0.9,5.8,1
		c0.5,0.7,0.8,1.6,0.8,2.4c0,2.3-1.9,4.2-4.2,4.2c-0.6,0-1.3-0.2-1.9-0.5l-4.9,4.8C175.8,776.7,176.2,778,176.2,779.3L176.2,779.3z"
		/>
	<circle class="st1" cx="158.4" cy="780.4" r="2.2"/>
	<path class="st1" d="M170.5,775.5c-2.1,0-3.7,1.7-3.7,3.7c0,2.1,1.7,3.7,3.7,3.8c2.1,0,3.7-1.7,3.7-3.7c0,0,0,0,0,0
		C174.2,777.2,172.6,775.6,170.5,775.5z"/>
</g>
<g>
	<path class="st1" d="M156.1,701.2c-0.8,0-1.4,0.6-1.4,1.4c0,0.8,0.6,1.4,1.4,1.4c0.8,0,1.4-0.6,1.4-1.4
		C157.5,701.8,156.9,701.2,156.1,701.2C156.1,701.2,156.1,701.2,156.1,701.2z"/>
	<path class="st1" d="M184,694.8c0.8,0,1.4-0.6,1.4-1.4c0-0.8-0.6-1.4-1.4-1.4s-1.4,0.6-1.4,1.4c0,0,0,0,0,0
		C182.6,694.1,183.2,694.8,184,694.8C184,694.8,184,694.8,184,694.8z"/>
	<path class="st1" d="M170,674.3c-15.7,0-28.3,12.7-28.3,28.3c0,15.7,12.7,28.4,28.3,28.4s28.4-12.7,28.4-28.4c0,0,0,0,0,0
		C198.3,687,185.7,674.3,170,674.3z M172.3,710.9h8.4c0.6-1.8,2.5-2.8,4.2-2.2c1.8,0.6,2.8,2.5,2.2,4.2c-0.6,1.8-2.5,2.8-4.2,2.2
		c-1.1-0.3-1.9-1.2-2.2-2.2h-8.4c-1.8,0-3.3-1.5-3.3-3.3v-6h-9.7c-0.6,1.8-2.5,2.8-4.2,2.2c-1.8-0.6-2.8-2.5-2.2-4.2
		c0.6-1.8,2.5-2.8,4.2-2.2c1.1,0.3,1.9,1.2,2.2,2.2h9.7v-6c0-1.8,1.5-3.3,3.3-3.3h8.4c0.6-1.8,2.5-2.8,4.2-2.2
		c1.8,0.6,2.8,2.5,2.2,4.2c-0.6,1.8-2.5,2.8-4.2,2.2c-1.1-0.3-1.9-1.2-2.2-2.2h-8.4c-0.7,0-1.3,0.6-1.3,1.3v13.9
		C171,710.2,171.5,710.9,172.3,710.9C172.3,710.9,172.3,710.9,172.3,710.9L172.3,710.9z"/>
	<path class="st1" d="M184,713.3c0.8,0,1.4-0.6,1.4-1.4c0-0.8-0.6-1.4-1.4-1.4c-0.8,0-1.4,0.6-1.4,1.4
		C182.6,712.7,183.2,713.3,184,713.3C184,713.3,184,713.3,184,713.3z"/>
</g>
<g>
	<path class="st1" d="M173.8,550.9c0-2.1-1.7-3.7-3.7-3.7c-2.1,0-3.7,1.7-3.7,3.7c0,2.1,1.7,3.7,3.7,3.7c0,0,0,0,0,0
		C172.1,554.6,173.8,552.9,173.8,550.9z"/>
	<path class="st1" d="M153.6,548.7c-1.2,0-2.2,1-2.2,2.2c0,1.2,1,2.2,2.2,2.2c1.2,0,2.2-1,2.2-2.2l0,0
		C155.8,549.7,154.8,548.7,153.6,548.7z"/>
	<path class="st1" d="M160.6,539.2c0-1.2-1-2.2-2.2-2.2c-1.2,0-2.2,1-2.2,2.2c0,1.2,1,2.2,2.2,2.2c0,0,0,0,0,0
		C159.6,541.3,160.6,540.4,160.6,539.2C160.6,539.2,160.6,539.2,160.6,539.2z"/>
	<path class="st1" d="M172.3,534.4c0-1.2-1-2.2-2.2-2.2s-2.2,1-2.2,2.2s1,2.2,2.2,2.2c0,0,0,0,0,0
		C171.3,536.6,172.3,535.6,172.3,534.4z"/>
	<path class="st1" d="M181.7,541.5c1.2,0,2.2-1,2.2-2.1c0-1.2-1-2.2-2.1-2.2c-1.2,0-2.2,1-2.2,2.1c0,0,0,0,0,0
		C179.5,540.5,180.5,541.5,181.7,541.5z"/>
	<path class="st1" d="M179.6,562.4c0,1.2,1,2.2,2.2,2.2s2.2-1,2.2-2.2s-1-2.2-2.2-2.2c0,0,0,0,0,0
		C180.6,560.3,179.6,561.2,179.6,562.4z"/>
	<path class="st1" d="M158.4,560.3c-1.2,0-2.2,1-2.2,2.1s1,2.2,2.1,2.2c1.2,0,2.2-1,2.2-2.1c0,0,0,0,0,0
		C160.6,561.3,159.6,560.3,158.4,560.3z"/>
	<path class="st1" d="M170,522.5c-15.7,0-28.3,12.7-28.3,28.3c0,15.7,12.7,28.4,28.3,28.4s28.4-12.7,28.4-28.4l0,0
		C198.3,535.2,185.7,522.5,170,522.5z M186.5,555c-1.9,0-3.5-1.3-4-3.2h-6.8c-0.1,0.7-0.4,1.4-0.8,2.1l4.9,4.9
		c0.6-0.3,1.3-0.5,2-0.5c2.3,0,4.2,1.9,4.2,4.2c0,2.3-1.9,4.2-4.2,4.2c-2.3,0-4.2-1.9-4.2-4.2l0,0c0-0.8,0.2-1.6,0.7-2.3l-4.8-4.8
		c-0.7,0.6-1.6,0.9-2.5,1.1l0.1,6.8c2.2,0.6,3.6,2.8,3,5c-0.6,2.2-2.8,3.6-5,3c-2.2-0.6-3.6-2.8-3-5c0.4-1.5,1.5-2.7,3-3l-0.1-6.8
		c-0.9-0.2-1.8-0.5-2.5-1.1l-4.7,4.7c1.4,1.9,0.9,4.6-1,5.9s-4.6,0.9-5.9-1c-1.4-1.9-0.9-4.6,1-5.9c1.3-0.9,3-1,4.4-0.3l4.9-4.8
		c-0.4-0.6-0.7-1.3-0.8-2.1h-6.8c-0.6,2.2-2.8,3.6-5,3c-2.2-0.6-3.6-2.8-3-5c0.6-2.2,2.8-3.6,5-3c1.5,0.4,2.7,1.5,3,3h6.8
		c0.2-0.8,0.5-1.6,1-2.3l-4.8-4.8c-2,1.2-4.5,0.6-5.7-1.4c-1.2-2-0.6-4.5,1.4-5.7c2-1.2,4.5-0.6,5.7,1.4c0.4,0.6,0.6,1.4,0.6,2.1
		c0,0.8-0.2,1.5-0.6,2.1l4.9,4.8c0.7-0.5,1.4-0.8,2.2-0.9l0.1-6.8c-2.2-0.6-3.6-2.8-3-5c0.6-2.2,2.8-3.6,5-3c2.2,0.6,3.6,2.8,3,5
		c-0.4,1.5-1.5,2.7-3,3l-0.1,6.8c0.8,0.2,1.6,0.5,2.3,1l4.8-4.8c-1.2-1.9-0.6-4.5,1.4-5.7c0.7-0.4,1.4-0.6,2.2-0.6
		c2.3,0,4.2,1.8,4.2,4.1s-1.8,4.2-4.1,4.2c-0.8,0-1.6-0.2-2.2-0.6l-4.8,4.8c0.5,0.7,0.8,1.5,0.9,2.3h6.8c0.6-2.2,2.8-3.6,5-3
		c2.2,0.6,3.6,2.8,3,5C190.1,553.8,188.4,555.1,186.5,555L186.5,555z"/>
	<path class="st1" d="M186.5,548.7c-1.2,0-2.2,1-2.2,2.1s1,2.2,2.1,2.2c1.2,0,2.2-1,2.2-2.1c0,0,0,0,0,0
		C188.6,549.7,187.7,548.7,186.5,548.7z"/>
	<path class="st1" d="M168,567.3c0,1.2,1,2.2,2.2,2.2s2.2-1,2.2-2.2s-1-2.2-2.2-2.2c0,0,0,0,0,0C169,565.2,168,566.1,168,567.3z"/>
</g>
<g>
	<path class="st1" d="M101.5,446.7c-15.7,0-28.3,12.7-28.3,28.4c0,15.7,12.7,28.4,28.3,28.4s28.3-12.7,28.3-28.4c0,0,0,0,0,0
		C129.8,459.3,117.2,446.7,101.5,446.7C101.5,446.7,101.5,446.7,101.5,446.7z M101.5,501.4c-14.6,0-26.3-11.8-26.3-26.4
		s11.8-26.4,26.3-26.4s26.3,11.8,26.3,26.4C127.8,489.5,116,501.3,101.5,501.4z"/>
	<path class="st1" d="M118.6,471.9c-1.4,0-2.6,0.9-3,2.1h-1.8c-0.2-2.6-1.2-5-2.9-7l1.3-1.3c1.2,0.6,2.7,0.4,3.6-0.6l0,0
		c1.2-1.2,1.2-3.2,0-4.5c-1.2-1.2-3.2-1.2-4.4,0c-0.9,1-1.2,2.4-0.6,3.6l-1.3,1.3c-2-1.7-4.4-2.7-7-2.9v-1.8c1.6-0.6,2.5-2.3,2-4
		c-0.6-1.6-2.3-2.5-4-2c-1.6,0.6-2.5,2.3-2,4c0.3,0.9,1,1.7,2,2v1.8c-2.6,0.2-5,1.2-7,2.9l-1.3-1.3c0.6-1.2,0.4-2.7-0.6-3.6
		c-1.2-1.2-3.2-1.2-4.4,0c-1.2,1.2-1.2,3.2,0,4.5c0.6,0.6,1.4,0.9,2.2,0.9c0.5,0,1-0.1,1.4-0.3l1.3,1.2c-1.7,2-2.7,4.4-2.9,7h-1.8
		c-0.6-1.6-2.3-2.5-4-2s-2.5,2.3-2,4s2.3,2.5,4,2c0.9-0.3,1.7-1,2-2h1.8c0.2,2.6,1.2,5,2.9,7l-1.3,1.3c-1.2-0.6-2.7-0.4-3.6,0.6l0,0
		c-1.2,1.2-1.3,3.2,0,4.4s3.2,1.3,4.4,0c1-1,1.2-2.4,0.6-3.7l1.3-1.3c2,1.7,4.4,2.7,7,2.9v1.8c-1.6,0.6-2.5,2.3-2,4
		c0.6,1.6,2.3,2.5,4,2c1.6-0.6,2.5-2.3,2-4c-0.3-0.9-1-1.7-2-2v-1.8c2.6-0.2,5-1.2,7-2.9l1.3,1.3c-0.6,1.2-0.4,2.7,0.6,3.6l0,0
		c1.2,1.2,3.2,1.3,4.4,0.1s1.3-3.2,0.1-4.4c-1-1-2.4-1.2-3.7-0.6l-1.2-1.3c1.7-2,2.7-4.4,2.9-7h1.8c0.6,1.6,2.3,2.5,4,2
		c1.6-0.6,2.5-2.3,2-4C121.1,472.7,120,471.9,118.6,471.9L118.6,471.9z M112.8,462.1c0.4-0.4,1.1-0.5,1.6,0c0,0,0,0,0,0
		c0.4,0.4,0.4,1.2,0,1.6c-0.4,0.4-1.2,0.4-1.6,0C112.3,463.3,112.3,462.6,112.8,462.1C112.8,462.1,112.8,462.1,112.8,462.1z
		 M101.5,456.8c0.6,0,1.1,0.5,1.1,1.1c0,0.6-0.5,1.1-1.1,1.1c-0.6,0-1.1-0.5-1.1-1.1C100.4,457.3,100.9,456.8,101.5,456.8z
		 M88.6,463.8c-0.4-0.4-0.4-1.2,0-1.6c0,0,0,0,0,0c0.2-0.2,0.5-0.3,0.8-0.3c0.6,0,1.1,0.6,1.1,1.2c0,0.6-0.6,1.1-1.2,1.1
		C89,464.1,88.8,464,88.6,463.8L88.6,463.8z M84.4,476.2c-0.6,0-1.1-0.5-1.1-1.2c0-0.6,0.5-1.1,1.2-1.1c0.6,0,1.1,0.5,1.1,1.1
		C85.5,475.6,85,476.1,84.4,476.2C84.4,476.2,84.4,476.2,84.4,476.2L84.4,476.2z M90.2,488c-0.5,0.4-1.2,0.3-1.6-0.1
		c-0.4-0.4-0.4-1,0-1.5c0.5-0.4,1.2-0.4,1.6,0C90.6,486.8,90.6,487.5,90.2,488L90.2,488z M101.5,493.3c-0.6-0.1-1.1-0.6-1-1.3
		c0.1-0.6,0.5-1,1-1c0.6-0.1,1.2,0.4,1.3,1c0.1,0.6-0.4,1.2-1,1.3C101.6,493.3,101.6,493.3,101.5,493.3z M114.4,486.3
		c0.4,0.4,0.4,1.2,0,1.6c-0.4,0.4-1.2,0.4-1.6,0c-0.4-0.4-0.4-1.2,0-1.6c0,0,0,0,0,0C113.2,485.9,113.9,485.8,114.4,486.3
		L114.4,486.3z M101.5,485.4c-5.7,0-10.4-4.7-10.4-10.4c0-5.7,4.7-10.4,10.4-10.4c5.7,0,10.4,4.7,10.4,10.4
		C111.9,480.7,107.2,485.4,101.5,485.4L101.5,485.4z M118.6,476.2c-0.6,0-1.1-0.5-1.1-1.1c0-0.6,0.5-1.1,1.1-1.1
		c0.6,0,1.1,0.5,1.1,1.1C119.7,475.6,119.2,476.2,118.6,476.2L118.6,476.2z"/>
	<path class="st1" d="M102.1,466.1c-0.4-0.3-0.9-0.3-1.2,0l-4.6,3.6c-0.4,0.3-0.5,1-0.2,1.4c0.2,0.2,0.5,0.4,0.8,0.4H98v2.1
		c0,0.6,0.4,1,1,1h5c0.6,0,1-0.4,1-1v-2.1h1.1c0.6,0,1-0.4,1-1c0-0.3-0.1-0.6-0.4-0.8L102.1,466.1z M103,470.5v2.1h-3v-2.1
		c0-0.3-0.2-0.6-0.4-0.8l1.9-1.5l2,1.5C103.2,469.8,103,470.1,103,470.5L103,470.5z"/>
	<path class="st1" d="M106.1,478.5H105v-2.1c0-0.6-0.4-1-1-1h-5c-0.6,0-1,0.4-1,1v2.1h-1.1c-0.4,0-0.8,0.3-0.9,0.7
		c-0.1,0.4,0,0.9,0.3,1.1l4.6,3.6c0.2,0.1,0.4,0.2,0.6,0.2c0.2,0,0.4-0.1,0.6-0.2l4.6-3.6c0.4-0.3,0.5-1,0.2-1.4
		C106.7,478.7,106.4,478.5,106.1,478.5z M101.5,481.9l-1.9-1.5c0.3-0.2,0.4-0.5,0.4-0.8v-2.1h3v2.1c0,0.3,0.2,0.6,0.4,0.8
		L101.5,481.9z"/>
</g>
<g>
	<path class="st1" d="M152.9,473.9c-0.6,0-1.1,0.5-1.1,1.1c0,0.6,0.5,1.1,1.1,1.1c0.6,0,1.1-0.5,1.1-1.1S153.6,473.9,152.9,473.9
		L152.9,473.9z"/>
	<path class="st1" d="M170,491c-0.6,0-1.2,0.5-1.2,1.1s0.5,1.2,1.1,1.2s1.2-0.5,1.2-1.1c0,0,0,0,0,0C171.1,491.5,170.6,491,170,491z
		"/>
	<path class="st1" d="M171.6,479.5v-2.1h-3v2.1c0,0.3-0.2,0.6-0.4,0.8l1.9,1.5l1.9-1.5C171.7,480.2,171.5,479.8,171.6,479.5z"/>
	<path class="st1" d="M181.3,486.3L181.3,486.3c-0.5,0.4-0.5,1.2,0,1.6c0.4,0.5,1.2,0.5,1.6,0c0.5-0.4,0.5-1.2,0-1.6c0,0,0,0,0,0
		C182.5,485.9,181.8,485.9,181.3,486.3z"/>
	<path class="st1" d="M158.8,463.7L158.8,463.7c0.5-0.4,0.5-1.2,0.1-1.6c-0.2-0.2-0.6-0.4-0.9-0.4c-0.3,0-0.6,0.1-0.8,0.3
		c-0.4,0.4-0.4,1.2,0,1.6S158.3,464.1,158.8,463.7L158.8,463.7z"/>
	<path class="st1" d="M182.9,463.7c0.4-0.4,0.4-1.2,0-1.6c-0.2-0.2-0.5-0.3-0.8-0.3c-0.6,0-1.1,0.6-1.1,1.2c0,0.6,0.6,1.1,1.2,1.1
		C182.5,464,182.7,463.9,182.9,463.7L182.9,463.7z"/>
	<path class="st1" d="M170,459c0.6,0,1.1-0.5,1.1-1.1c0-0.6-0.5-1.1-1.1-1.1c-0.6,0-1.1,0.5-1.1,1.1S169.4,459,170,459L170,459z"/>
	<path class="st1" d="M157.1,486.3c-0.5,0.4-0.5,1.2,0,1.6c0.4,0.5,1.2,0.5,1.6,0c0.5-0.4,0.5-1.2,0-1.6c0,0,0,0,0,0
		C158.3,485.9,157.6,485.9,157.1,486.3z"/>
	<path class="st1" d="M170,446.7c-15.7,0-28.3,12.7-28.3,28.4s12.7,28.3,28.4,28.3c15.6,0,28.3-12.7,28.3-28.4
		C198.4,459.3,185.7,446.7,170,446.7C170,446.7,170,446.7,170,446.7z M187.1,478.1c-1.4,0-2.6-0.9-3-2.1h-1.8c-0.2,2.6-1.2,5-2.9,7
		l1.3,1.3c1.5-0.8,3.4-0.1,4.2,1.4c0.8,1.5,0.1,3.4-1.4,4.2c-1.2,0.6-2.7,0.4-3.6-0.6l0,0c-0.9-1-1.2-2.4-0.6-3.6l-1.3-1.3
		c-2,1.7-4.4,2.7-7,2.9v1.8c1.6,0.6,2.5,2.3,2,4c-0.6,1.6-2.3,2.5-4,2c-1.6-0.6-2.5-2.3-2-4c0.3-0.9,1-1.7,2-2v-1.8
		c-2.6-0.2-5-1.2-7-2.9l-1.3,1.3c0.8,1.5,0.1,3.4-1.4,4.2c-1.5,0.8-3.4,0.1-4.2-1.4c-0.6-1.2-0.4-2.7,0.6-3.6l0,0
		c1-0.9,2.4-1.2,3.6-0.6l1.3-1.3c-1.7-2-2.7-4.4-2.9-7h-1.8c-0.6,1.6-2.3,2.5-4,2c-1.6-0.6-2.5-2.3-2-4c0.6-1.6,2.3-2.5,4-2
		c0.9,0.3,1.7,1,2,2h1.8c0.2-2.6,1.2-5,2.9-7l-1.3-1.3c-0.4,0.2-0.9,0.3-1.4,0.3c-1.7,0-3.1-1.4-3.1-3.2c0-0.8,0.3-1.6,0.9-2.2
		c1.2-1.2,3.2-1.2,4.4,0l0,0c0.9,1,1.2,2.4,0.6,3.6l1.3,1.3c2-1.7,4.4-2.7,7-2.9v-1.8c-1.6-0.6-2.5-2.3-2-4c0.6-1.6,2.3-2.5,4-2
		c1.6,0.6,2.5,2.3,2,4c-0.3,0.9-1,1.7-2,2v1.8c2.6,0.2,5,1.2,7,2.9l1.3-1.3c-0.6-1.2-0.4-2.7,0.6-3.6c1.2-1.2,3.2-1.2,4.4,0
		c1.2,1.2,1.2,3.2,0,4.4c0,0,0,0,0,0l0,0c-0.6,0.6-1.4,0.9-2.2,0.9c-0.5,0-1-0.1-1.4-0.3l-1.2,1.3c1.7,2,2.7,4.4,2.9,7h1.8
		c0.6-1.6,2.3-2.5,4-2c1.6,0.6,2.5,2.3,2,4C189.7,477.3,188.5,478.1,187.1,478.1L187.1,478.1z"/>
	<path class="st1" d="M187.1,473.9c-0.6,0-1.1,0.5-1.1,1.1c0,0.6,0.5,1.1,1.1,1.1c0.6,0,1.1-0.5,1.1-1.1S187.8,473.9,187.1,473.9
		L187.1,473.9z"/>
	<path class="st1" d="M170,464.6c-5.7,0-10.4,4.7-10.4,10.4s4.7,10.4,10.4,10.4c5.7,0,10.4-4.7,10.4-10.4
		C180.4,469.3,175.8,464.6,170,464.6C170,464.6,170,464.6,170,464.6z M175.2,480.3l-4.5,3.7c-0.4,0.3-0.9,0.3-1.2,0l-4.6-3.6
		c-0.3-0.3-0.5-0.7-0.3-1.1c0.1-0.4,0.5-0.7,0.9-0.7h1.1v-2.1c0-0.6,0.4-1,1-1h5c0.6,0,1,0.4,1,1v2.1h1.1c0.4,0,0.8,0.3,0.9,0.7
		C175.7,479.6,175.5,480.1,175.2,480.3L175.2,480.3z M175.5,470.8c-0.1,0.4-0.5,0.7-0.9,0.7h-1.1v2.1c0,0.6-0.4,1-1,1h-5
		c-0.6,0-1-0.4-1-1v-2.1h-1.1c-0.6,0-1-0.5-1-1c0-0.3,0.1-0.6,0.4-0.8l4.6-3.6c0.4-0.3,0.9-0.3,1.2,0l4.6,3.6
		C175.6,470,175.7,470.4,175.5,470.8L175.5,470.8z"/>
	<path class="st1" d="M168.1,469.7c0.3,0.2,0.4,0.5,0.4,0.8v2.1h3v-2.1c0-0.3,0.2-0.6,0.4-0.8l-1.9-1.5L168.1,469.7z"/>
</g>
<g>
	<path class="st0" d="M757.8,143.2c-15.7,0-28.4,12.7-28.4,28.3s12.7,28.4,28.3,28.4s28.4-12.7,28.4-28.3c0,0,0,0,0,0
		C786.2,155.9,773.5,143.2,757.8,143.2z M757.8,197.9c-14.6,0-26.4-11.8-26.4-26.3s11.8-26.4,26.3-26.4c14.6,0,26.4,11.8,26.4,26.3
		c0,0,0,0,0,0C784.1,186.1,772.4,197.8,757.8,197.9z"/>
	<path class="st0" d="M775.4,170.5h-2.8c-0.5-7.4-6.4-13.3-13.8-13.8v-2.8c0-0.6-0.4-1-1-1s-1,0.4-1,1v2.8
		c-7.4,0.5-13.3,6.4-13.8,13.8h-2.8c-0.6,0-1,0.4-1,1s0.4,1,1,1h2.8c0.5,7.4,6.4,13.3,13.8,13.8v2.8c0,0.6,0.4,1,1,1s1-0.4,1-1v-2.8
		c7.4-0.5,13.3-6.4,13.8-13.8h2.8c0.6,0,1-0.4,1-1S775.9,170.5,775.4,170.5L775.4,170.5z M770.6,170.5h-4.3c-0.5-3.9-3.6-7-7.5-7.5
		v-4.3C765.1,159.2,770.1,164.2,770.6,170.5z M756.8,170.5h-5.5c0.4-2.8,2.6-5,5.5-5.5V170.5z M756.8,172.5v5.5
		c-2.8-0.4-5-2.6-5.5-5.5L756.8,172.5z M758.8,172.5h5.5c-0.4,2.8-2.6,5-5.5,5.5V172.5z M758.8,170.5v-5.5c2.8,0.4,5,2.6,5.5,5.5
		H758.8z M756.8,158.7v4.3c-3.9,0.5-7,3.6-7.5,7.5H745C745.5,164.2,750.5,159.2,756.8,158.7L756.8,158.7z M745,172.5h4.3
		c0.5,3.9,3.6,7,7.5,7.5v4.3C750.5,183.8,745.5,178.8,745,172.5z M758.8,184.3V180c3.9-0.5,7-3.6,7.5-7.5h4.3
		C770.1,178.8,765.1,183.8,758.8,184.3L758.8,184.3z"/>
</g>
<g>
	<path class="st0" d="M832.8,172.5h-5.5v5.5C830.2,177.6,832.4,175.3,832.8,172.5z"/>
	<path class="st0" d="M827.4,165.1v5.5h5.5C832.4,167.7,830.2,165.5,827.4,165.1z"/>
	<path class="st0" d="M825.4,178v-5.5h-5.5C820.3,175.4,822.5,177.6,825.4,178z"/>
	<path class="st0" d="M819.9,170.5h5.5v-5.5C822.5,165.5,820.3,167.7,819.9,170.5z"/>
	<path class="st0" d="M834.8,170.5h4.3c-0.5-6.3-5.5-11.3-11.8-11.8v4.3C831.3,163.5,834.4,166.6,834.8,170.5z"/>
	<path class="st0" d="M825.4,163v-4.3c-6.3,0.5-11.3,5.5-11.8,11.8h4.3C818.3,166.6,821.4,163.5,825.4,163z"/>
	<path class="st0" d="M826.4,143.2c-15.7,0-28.4,12.7-28.4,28.3s12.7,28.4,28.3,28.4s28.4-12.7,28.4-28.3v0
		C854.7,155.9,842,143.2,826.4,143.2C826.4,143.2,826.4,143.2,826.4,143.2z M844,172.5h-2.8c-0.5,7.4-6.4,13.3-13.8,13.8v2.8
		c0,0.6-0.4,1-1,1s-1-0.4-1-1v-2.8c-7.4-0.5-13.3-6.4-13.8-13.8h-2.8c-0.6,0-1-0.4-1-1s0.4-1,1-1h2.8c0.5-7.4,6.4-13.3,13.8-13.8
		v-2.8c0-0.6,0.4-1,1-1s1,0.4,1,1v2.8c7.4,0.5,13.3,6.4,13.8,13.8h2.8c0.6,0,1,0.4,1,1S844.6,172.5,844,172.5z"/>
	<path class="st0" d="M827.4,180v4.3c6.3-0.5,11.3-5.5,11.8-11.8h-4.3C834.4,176.4,831.3,179.5,827.4,180z"/>
	<path class="st0" d="M817.9,172.5h-4.3c0.5,6.3,5.5,11.3,11.8,11.8V180C821.4,179.5,818.4,176.4,817.9,172.5z"/>
</g>
<g>
	<path class="st0" d="M593,446.7c-15.7,0-28.4,12.6-28.4,28.3c0,15.7,12.6,28.4,28.3,28.4c15.7,0,28.4-12.6,28.4-28.3c0,0,0,0,0-0.1
		C621.3,459.4,608.6,446.7,593,446.7z M593,501.4c-14.6,0-26.4-11.7-26.4-26.3c0-14.6,11.7-26.4,26.3-26.4
		c14.6,0,26.4,11.7,26.4,26.3c0,0,0,0,0,0C619.3,489.5,607.5,501.3,593,501.4z"/>
	<path class="st0" d="M606.7,460.3h-27.4c-0.6,0-1,0.4-1,1v27.4c0,0.6,0.4,1,1,1h27.4c0.6,0,1-0.4,1-1v-27.4
		C607.7,460.7,607.2,460.3,606.7,460.3z M589.4,478.6v-7.1h7.2v7.1H589.4z M596.5,480.6v7.1h-7.2v-7.1H596.5z M580.2,471.4h7.2v7.1
		h-7.2V471.4z M589.4,469.4v-7.1h7.2v7.1H589.4z M598.5,471.4h7.1v7.1h-7.1V471.4z M605.7,469.4h-7.1v-7.1h7.1V469.4z M587.4,462.3
		v7.1h-7.2v-7.1H587.4z M580.2,480.6h7.2v7.1h-7.2V480.6z M598.5,487.7v-7.1h7.1v7.1H598.5z"/>
</g>
<g>
	<path class="st0" d="M757.8,522.5c-15.7,0-28.4,12.7-28.4,28.3s12.7,28.4,28.3,28.4s28.4-12.7,28.4-28.3c0,0,0,0,0,0
		C786.2,535.2,773.5,522.5,757.8,522.5z M757.8,577.2c-14.6,0-26.4-11.8-26.4-26.3c0-14.6,11.8-26.4,26.3-26.4
		c14.6,0,26.4,11.8,26.4,26.3c0,0,0,0,0,0C784.1,565.4,772.4,577.2,757.8,577.2L757.8,577.2z"/>
	<path class="st0" d="M776,539.6c-0.1-0.3-0.3-0.5-0.5-0.7l-12.3-6.1c-0.4-0.2-0.9-0.1-1.2,0.3l-4.1,5.2l-4.1-5.2
		c-0.3-0.4-0.8-0.5-1.2-0.3l-12.3,6.2c-0.3,0.1-0.5,0.4-0.5,0.7c-0.1,0.3,0,0.6,0.2,0.8l4.4,5.5l-4.4,5.5c0,0,0,0.1,0,0.1
		s0,0-0.1,0.1c0,0,0,0.1,0,0.1c0,0.1,0,0.1,0,0.2c0,0.1,0,0.1,0,0.2c0,0.1,0,0.1,0,0.2c0,0.1,0,0.1,0,0.2c0,0.1,0.1,0.1,0.1,0.2
		c0,0.1,0.1,0.1,0.1,0.2l0.1,0.1c0,0,0.1,0,0.1,0.1h0.1l4.3,2.2v6.7c0,0,0,0.1,0,0.1c0,0.1,0,0.1,0,0.2c0,0.1,0.1,0.1,0.1,0.2
		c0,0.1,0.1,0.1,0.1,0.2c0.1,0,0.1,0.1,0.2,0.1c0,0,0.1,0.1,0.1,0.1l12.3,6.1l0,0h0.1c0.1,0,0.2,0.1,0.3,0.1l0,0
		c0.1,0,0.2,0,0.3-0.1h0.1l0,0l12.3-6.1c0,0,0.1-0.1,0.1-0.1c0.1,0,0.1-0.1,0.2-0.1c0-0.1,0.1-0.1,0.1-0.2c0-0.1,0.1-0.1,0.1-0.2
		c0-0.1,0-0.1,0-0.2c0,0,0-0.1,0-0.1v-6.7l4.3-2.2c0.3-0.1,0.5-0.4,0.5-0.7c0.1-0.3,0-0.6-0.2-0.8l-4.4-5.5l4.4-5.5
		C775.9,540.3,776,540,776,539.6z M752.6,557l-10.4-5.2l3.6-4.5l10.4,5.2L752.6,557z M757.8,551l-10-5l10-5l10,5L757.8,551z
		 M752.6,535l3.6,4.5l-10.4,5.2l-3.6-4.5L752.6,535z M752.5,559.2L752.5,559.2c0.1,0.1,0.3,0.1,0.4,0.1c0.1,0,0.3,0,0.4-0.1h0.1
		c0.1-0.1,0.2-0.1,0.3-0.2l0,0l3.1-3.9v11.5l-10.3-5.1v-5.1L752.5,559.2z M769.1,561.3l-10.3,5.1V555l3.1,3.9
		c0.2,0.2,0.5,0.4,0.8,0.4c0.2,0,0.3,0,0.5-0.1l5.9-3V561.3z M763,557l-3.6-4.5l10.4-5.2l3.6,4.5L763,557z M769.8,544.7l-10.4-5.2
		l3.6-4.5l10.4,5.2L769.8,544.7z"/>
</g>
<g>
	<path class="st0" d="M593,522.5c-15.7,0-28.4,12.7-28.4,28.3s12.7,28.4,28.3,28.4s28.4-12.7,28.4-28.3v0
		C621.4,535.2,608.7,522.5,593,522.5C593,522.5,593,522.5,593,522.5z M593,577.2c-14.6,0-26.4-11.8-26.4-26.3s11.8-26.4,26.3-26.4
		c14.6,0,26.4,11.8,26.4,26.3v0C619.3,565.4,607.5,577.2,593,577.2L593,577.2z"/>
	<path class="st0" d="M608.8,536.3h-31.7c-0.4,0-0.8,0.3-0.9,0.7c-0.1,0.4,0,0.8,0.3,1.1l13.2,11v15.4c0,0.4,0.2,0.7,0.5,0.9
		c0.3,0.2,0.7,0.1,1-0.1l4.5-3.4c0.3-0.2,0.4-0.5,0.4-0.8v-12l13.2-11c0.3-0.3,0.4-0.7,0.3-1.1C609.5,536.6,609.2,536.3,608.8,536.3
		z M594.6,547.8c-0.2,0.2-0.4,0.5-0.4,0.8v11.9l-2.5,1.9v-13.8c0-0.3-0.1-0.6-0.4-0.8l-11.5-9.5H606L594.6,547.8z"/>
</g>
<g>
	<rect x="657.9" y="462.3" class="st0" width="7.2" height="7.1"/>
	<rect x="667.1" y="471.4" class="st0" width="7.2" height="7.1"/>
	<rect x="648.8" y="471.4" class="st0" width="7.2" height="7.1"/>
	<rect x="657.9" y="480.6" class="st0" width="7.2" height="7.1"/>
	<rect x="657.9" y="471.4" class="st0" width="7.2" height="7.1"/>
	<rect x="667.1" y="462.3" class="st0" width="7.2" height="7.1"/>
	<rect x="667.1" y="480.6" class="st0" width="7.2" height="7.1"/>
	<rect x="648.8" y="462.3" class="st0" width="7.2" height="7.1"/>
	<path class="st0" d="M661.5,446.7c-15.7,0-28.4,12.7-28.4,28.3c0,15.7,12.7,28.4,28.3,28.4c15.7,0,28.4-12.7,28.4-28.3c0,0,0,0,0,0
		C689.8,459.3,677.2,446.7,661.5,446.7z M676.2,488.7c0,0.6-0.4,1-1,1h-27.4c-0.6,0-1-0.4-1-1v-27.4c0-0.6,0.4-1,1-1h27.4
		c0.6,0,1,0.4,1,1L676.2,488.7z"/>
	<rect x="648.8" y="480.6" class="st0" width="7.2" height="7.1"/>
</g>
<g>
	<path class="st0" d="M825.4,566.4V555l-3.1,3.9l0,0c-0.1,0.1-0.2,0.2-0.3,0.2h-0.1c-0.1,0.1-0.2,0.1-0.4,0.1c-0.1,0-0.3,0-0.4-0.1
		l0,0l-5.9-3v5.1L825.4,566.4z"/>
	<polygon class="st0" points="824.8,539.5 821.2,535 810.8,540.2 814.4,544.7 	"/>
	<path class="st0" d="M831.3,559.2c-0.3,0-0.6-0.1-0.8-0.4l-3.1-3.9v11.5l10.3-5.1v-5.1l-5.9,3C831.6,559.2,831.4,559.3,831.3,559.2
		z"/>
	<polygon class="st0" points="826.4,541 816.3,546 826.4,551 836.4,546 	"/>
	<polygon class="st0" points="814.4,547.2 810.8,551.8 821.2,557 824.8,552.5 	"/>
	<polygon class="st0" points="827.9,552.5 831.5,557 842,551.8 838.3,547.2 	"/>
	<polygon class="st0" points="827.9,539.5 838.3,544.7 842,540.2 831.5,535 	"/>
	<path class="st0" d="M826.4,522.5c-15.7,0-28.4,12.7-28.4,28.3s12.7,28.4,28.3,28.4s28.4-12.7,28.4-28.3v0
		C854.7,535.2,842,522.5,826.4,522.5C826.4,522.5,826.4,522.5,826.4,522.5z M844.3,551.5c0.3,0.4,0.2,1.1-0.2,1.4c0,0-0.1,0-0.1,0.1
		l-4.3,2.2v6.7c0,0,0,0.1,0,0.1c0,0.1,0,0.1,0,0.2c0,0.1-0.1,0.1-0.1,0.2c0,0.1-0.1,0.1-0.1,0.2c-0.1,0-0.1,0.1-0.2,0.1
		c0,0-0.1,0.1-0.1,0.1l-12.3,6.1l0,0h-0.1c-0.1,0-0.2,0.1-0.3,0.1l0,0c-0.2,0-0.3,0-0.5,0h-0.1l0,0l-12.3-6.1c0,0-0.1-0.1-0.1-0.1
		c-0.1,0-0.1-0.1-0.2-0.1l-0.1-0.2c0-0.1-0.1-0.1-0.1-0.2c0-0.1,0-0.1,0-0.2c0,0,0-0.1,0-0.1v-6.7l-4.4-2.2c0,0,0,0-0.1,0l-0.1-0.1
		l-0.1-0.1c-0.1,0-0.1-0.1-0.1-0.2l-0.1-0.2c0-0.1,0-0.1-0.1-0.2c0-0.1,0-0.1,0-0.2c0-0.1,0-0.1,0-0.2c0-0.1,0-0.1,0.1-0.2
		c0,0,0-0.1,0-0.1l0.1-0.1c0,0,0-0.1,0-0.1l4.4-5.5l-4.4-5.5c-0.2-0.2-0.3-0.5-0.2-0.8c0.1-0.3,0.3-0.5,0.5-0.7l12.3-6.2
		c0.4-0.2,0.9-0.1,1.2,0.3l4.1,5.2l4.1-5.2c0.3-0.4,0.8-0.5,1.2-0.3L844,539c0.3,0.1,0.5,0.4,0.5,0.7c0.1,0.3,0,0.6-0.2,0.8
		l-4.4,5.5L844.3,551.5z"/>
</g>
<g>
	<path class="st0" d="M659.9,547.8c0.2,0.2,0.4,0.5,0.4,0.8v13.8l2.5-1.9v-11.9c0-0.3,0.1-0.6,0.4-0.8l11.5-9.5h-26.2L659.9,547.8z"
		/>
	<path class="st0" d="M661.5,522.5c-15.7,0-28.4,12.7-28.4,28.3s12.7,28.4,28.3,28.4s28.4-12.7,28.4-28.3v0
		C689.8,535.2,677.2,522.5,661.5,522.5z M678,538.1l-13.2,11v12c0,0.3-0.1,0.6-0.4,0.8l-4.5,3.4c-0.2,0.1-0.4,0.2-0.6,0.2
		c-0.6,0-1-0.4-1-1v-15.4l-13.2-11c-0.4-0.4-0.5-1-0.1-1.4c0.2-0.2,0.5-0.4,0.8-0.4h31.7c0.6,0,1,0.4,1,1
		C678.4,537.6,678.2,537.9,678,538.1L678,538.1z"/>
</g>
<g>
	<path class="st0" d="M757.8,347.6c-14.6,0-26.4-11.8-26.4-26.3s11.8-26.4,26.3-26.4c14.6,0,26.4,11.8,26.4,26.3c0,0,0,0,0,0
		C784.1,335.8,772.4,347.6,757.8,347.6 M757.8,292.9c-15.7,0-28.4,12.7-28.4,28.3c0,15.7,12.7,28.4,28.3,28.4
		c15.7,0,28.4-12.7,28.4-28.3c0,0,0,0,0,0C786.2,305.6,773.5,292.9,757.8,292.9C757.8,292.9,757.8,292.9,757.8,292.9"/>
	<path class="st0" d="M753.2,316.7h-8.7V308h8.7V316.7z M754.2,306h-10.7c-0.6,0-1,0.4-1,1v10.7c0,0.6,0.4,1,1,1h10.7
		c0.6,0,1-0.4,1-1V307C755.2,306.4,754.8,306,754.2,306"/>
	<path class="st0" d="M771.1,316.7h-8.7V308h8.7V316.7z M772.1,306h-10.7c-0.6,0-1,0.4-1,1v10.7c0,0.6,0.4,1,1,1h10.7
		c0.6,0,1-0.4,1-1V307C773.1,306.4,772.6,306,772.1,306"/>
	<path class="st0" d="M753.2,334.5h-8.7v-8.7h8.7V334.5z M754.2,323.8h-10.7c-0.6,0-1,0.4-1,1v10.7c0,0.6,0.4,1,1,1h10.7
		c0.6,0,1-0.4,1-1v-10.7C755.2,324.3,754.8,323.8,754.2,323.8"/>
	<path class="st0" d="M771.1,334.5h-8.7v-8.7h8.7V334.5z M772.1,323.8h-10.7c-0.6,0-1,0.4-1,1v10.7c0,0.6,0.4,1,1,1h10.7
		c0.6,0,1-0.4,1-1v-10.7C773.1,324.3,772.6,323.8,772.1,323.8"/>
</g>
<g>
	<rect x="813.1" y="308" class="st0" width="8.7" height="8.7"/>
	<rect x="813.1" y="325.8" class="st0" width="8.7" height="8.7"/>
	<rect x="830.9" y="325.8" class="st0" width="8.7" height="8.7"/>
	<path class="st0" d="M841.6,317.7c0,0.6-0.4,1-1,1h-10.7c-0.6,0-1-0.4-1-1V307c0-0.6,0.4-1,1-1h10.7c0.6,0,1,0.4,1,1V317.7z
		 M841.6,335.5c0,0.6-0.4,1-1,1h-10.7c-0.6,0-1-0.4-1-1v-10.7c0-0.6,0.4-1,1-1h10.7c0.6,0,1,0.4,1,1V335.5z M823.8,317.7
		c0,0.6-0.4,1-1,1h-10.7c-0.6,0-1-0.4-1-1V307c0-0.6,0.4-1,1-1h10.7c0.6,0,1,0.4,1,1V317.7z M823.8,335.5c0,0.6-0.4,1-1,1h-10.7
		c-0.6,0-1-0.4-1-1v-10.7c0-0.6,0.4-1,1-1h10.7c0.6,0,1,0.4,1,1V335.5z M826.4,292.9c-15.7,0-28.4,12.7-28.4,28.3
		c0,15.7,12.7,28.4,28.3,28.4c15.7,0,28.4-12.7,28.4-28.3c0,0,0,0,0,0C854.7,305.6,842,292.9,826.4,292.9
		C826.4,292.9,826.4,292.9,826.4,292.9"/>
	<rect x="830.9" y="308" class="st0" width="8.7" height="8.7"/>
</g>
</svg>
