<?xml version="1.0" encoding="utf-8"?>
<!-- Generator: Adobe Illustrator 25.2.3, SVG Export Plug-In . SVG Version: 6.00 Build 0)  -->
<svg version="1.1" id="EDUCATION" xmlns="http://www.w3.org/2000/svg" xmlns:xlink="http://www.w3.org/1999/xlink" x="0px" y="0px"
	 viewBox="0 0 1908 1073.2" style="enable-background:new 0 0 1908 1073.2;" xml:space="preserve">
<style type="text/css">
	.st0{fill:#26890D;}
</style>
<g>
	<path class="st0" d="M265.4,273.7c-14.6,0-26.4-11.8-26.4-26.3s11.8-26.4,26.3-26.4c14.6,0,26.4,11.8,26.4,26.3c0,0,0,0,0,0
		C291.7,261.9,279.9,273.7,265.4,273.7 M265.4,219c-15.7,0-28.4,12.7-28.4,28.3s12.7,28.4,28.3,28.4c15.7,0,28.4-12.7,28.4-28.3
		c0,0,0,0,0,0C293.7,231.7,281,219,265.4,219"/>
	<path class="st0" d="M255.5,262c-0.1,0-0.2,0-0.3,0.1c-0.6,0.3-1.3,0.2-1.9-0.1c-0.4-0.3-0.6-0.9-0.5-1.4v-2.7
		c0-0.5,0.2-0.9,0.6-1.2c0.6-0.4,1.3-0.4,1.9-0.2h0.2h24.4l-0.2,0.6c-0.4,1.4-0.4,2.9,0,4.3l0.2,0.6L255.5,262z M282,256.5h0.2
		c0.6,0,1-0.4,1-1c0-0.6-0.4-1-1-1h-26.6c-1.2-0.3-2.5-0.1-3.5,0.6c-0.9,0.7-1.3,1.7-1.3,2.8v2.6c-0.1,1.2,0.4,2.3,1.3,3
		c0.6,0.5,1.4,0.7,2.1,0.7c0.5,0,1-0.1,1.4-0.2h26.5c0.6,0,1-0.4,1-1s-0.4-1-1-1h-0.3l-0.3-1.2c-0.3-1-0.3-2.1,0-3.1L282,256.5z"/>
	<path class="st0" d="M277.7,253.9c0.7,0,1.4-0.2,2-0.7c0.9-0.9,1.4-2.1,1.3-3.4v-3.4c0.2-1.4-0.2-2.8-1.2-3.7
		c-0.8-0.6-1.8-0.7-2.7-0.4h-8.8c-0.6,0-1,0.4-1,1s0.4,1,1,1h9c0.1,0,0.2,0,0.3-0.1c0.6-0.2,0.9,0,1,0.1c0.5,0.5,0.7,1.3,0.5,2
		c0,0,0,0.1,0,0.1v3.5c0.1,0.7-0.1,1.3-0.6,1.8c-0.3,0.2-0.7,0.3-1,0.2c-0.1,0-0.2,0-0.2,0h-26l0.2-1.3c0.3-1.7,0.3-3.3,0-5
		l-0.2-1.3h8.6c0.6,0,1-0.4,1-1s-0.4-1-1-1h-11.2c-0.6,0-1,0.4-1,1s0.4,1,1,1h0.6l0.3,1.6c0.2,1.4,0.2,2.9,0,4.4l-0.3,1.6h-0.6
		c-0.6,0-1,0.4-1,1s0.4,1,1,1h28.4C277.3,254,277.5,254,277.7,253.9"/>
	<path class="st0" d="M278,246.1c0.1-0.5-0.3-1.1-0.8-1.2c0,0,0,0,0,0c-0.5-0.1-1.1,0.3-1.2,0.8l-0.2,0.9c-0.2,0.9-0.2,1.7,0,2.6
		l0.2,1.1c0.1,0.5,0.5,0.8,1,0.8h0.2c0.5-0.1,0.9-0.6,0.8-1.2c0,0,0,0,0,0l-0.2-1.1c-0.1-0.6-0.1-1.3,0-1.9L278,246.1z"/>
	<path class="st0" d="M255.7,258.1c-0.1-0.5-0.6-0.9-1.2-0.8c0,0,0,0,0,0c-0.5,0.1-0.9,0.7-0.8,1.2l0.1,0.5c0,0.2,0,0.4,0,0.6
		l-0.1,0.4c-0.1,0.5,0.2,1.1,0.7,1.2c0,0,0,0,0,0c0.1,0,0.1,0,0.2,0c0.5,0,0.9-0.3,1-0.8l0.1-0.4c0.1-0.5,0.1-1,0-1.4L255.7,258.1z"
		/>
	<path class="st0" d="M252.1,241.2c0.4,0.3,0.9,0.4,1.4,0.4c0.4,0,0.8-0.1,1.2-0.3l5.1,0.1l0,0c0.6,0,1-0.4,1-1s-0.4-1-1-1l-5.3-0.1
		c-0.2,0-0.3,0-0.5,0.1c-0.4,0.2-0.6,0.2-0.8,0.1s-0.6-0.9-0.5-2v-3.1c-0.1-0.7,0.2-1.4,0.7-1.9c0.2-0.1,0.4-0.1,0.6,0
		c0.1,0.1,0.3,0.1,0.4,0.1l18.1,0.3l-0.2,1c-0.3,1.5-0.4,3.1-0.1,4.6l0.2,1l-4.5-0.1c-0.6,0-1,0.4-1,1s0.4,1,1,1l6.4,0.1l0,0
		c0.6,0,1-0.4,1-1c0-0.6-0.4-1-1-1l-0.2-1.4c-0.2-1.3-0.2-2.6,0.1-3.9l0.3-1.4c0.6,0,1-0.5,1-1c0-0.6-0.5-1-1-1l-19.8-0.3
		c-0.8-0.3-1.6-0.3-2.4,0.1c-1.1,0.8-1.8,2.2-1.7,3.6v3c-0.3,1.4,0.3,2.8,1.3,3.7"/>
	<path class="st0" d="M253.9,237.4c-0.1,0.5,0.2,1.1,0.8,1.2h0.2c0.5,0,0.9-0.3,1-0.8l0.2-0.7c0.1-0.7,0.1-1.3,0-2l-0.1-0.8
		c-0.1-0.6-0.6-0.9-1.2-0.8s-0.9,0.6-0.8,1.2l0.1,0.8c0.1,0.4,0.1,0.8,0,1.2L253.9,237.4z"/>
	<path class="st0" d="M264.5,239v4.8c-0.3-0.1-0.6-0.1-0.9,0.1V239H264.5z M262.2,247.2c0.1,0.1,0.3,0.1,0.4,0.1
		c0.3,0,0.5-0.1,0.7-0.3l0.8-0.8l0.7,0.6c0.3,0.3,0.7,0.4,1.1,0.2c0.4-0.2,0.6-0.5,0.6-0.9V239h0.1c0.6,0,1-0.4,1-1s-0.4-1-1-1h-6.3
		c-0.6,0-1,0.4-1,1s0.4,1,1,1h1.3v7.3C261.6,246.7,261.9,247,262.2,247.2"/>
</g>
<g>
	<path class="st0" d="M265.4,425.5c-14.6,0-26.4-11.8-26.4-26.3s11.8-26.4,26.3-26.4c14.6,0,26.4,11.8,26.4,26.3c0,0,0,0,0,0
		C291.7,413.7,279.9,425.5,265.4,425.5 M265.4,370.8c-15.7,0-28.4,12.7-28.4,28.3s12.7,28.4,28.3,28.4c15.7,0,28.4-12.7,28.4-28.3
		c0,0,0,0,0,0C293.7,383.5,281,370.8,265.4,370.8"/>
	<path class="st0" d="M275.9,393.6v-4.8h3.4C279.4,389.7,279.1,391.9,275.9,393.6 M265.5,402.8c-8,0-8.1-6.2-8.1-6.5v-11.9h16.5
		v11.8C273.9,396.5,273.1,402.8,265.5,402.8 M270.1,413.7c0.4,0,0.9,0.2,1.2,0.5c0.4,0.5,0.6,1.1,0.6,1.7h-12.5
		c0.2-2,1.4-2.1,1.7-2.2C261.1,413.7,267,413.5,270.1,413.7 M251.5,388.6h3.6c0.1,0,0.2,0,0.3,0v5.1
		C251.7,392,251.4,389.7,251.5,388.6 M280.1,386.8h-4.2v-3.3c0-0.6-0.4-1-1-1h-18.4c-0.6,0-1,0.4-1,1v3.2c-0.1,0-0.2-0.1-0.3-0.1
		h-4.4c-0.4,0-0.8,0.3-0.9,0.6c0,0-1.9,5.2,4.9,8.3c0.1,0.1,0.3,0.1,0.4,0.1c0.1,0,0.2,0,0.3,0v0.7c0,0.1,0.1,7.9,9.1,8.5v6.9
		c-1.9,0-3.4,0.1-3.6,0.1c-1,0.1-1.8,0.5-2.5,1.2c-0.9,1.1-1.3,2.6-1.2,4c0,0.6,0.4,1,1,1h14.5c0.5,0,1-0.4,1-0.9
		c0.1-1.4-0.2-2.9-1.1-4.1c-0.7-0.7-1.6-1.2-2.6-1.2c-1,0-2.4-0.1-3.7-0.1v-6.9c4.8-0.1,8.7-3.7,9.3-8.4v-0.6c0.1,0,0.1,0,0.2,0
		c6.8-3.2,4.9-8.3,4.9-8.3c-0.2-0.4-0.5-0.6-0.9-0.6"/>
	<path class="st0" d="M266.9,394l0.4,1.2l-1-0.7c-0.2-0.1-0.4-0.2-0.6-0.2c-0.2,0-0.4,0.1-0.6,0.2l-1,0.7l0.4-1.2
		c0.1-0.4,0-0.9-0.4-1.1l-1-0.7h1.3c0.4,0,0.8-0.3,1-0.7l0.4-1.2l0.4,1.2c0.1,0.4,0.5,0.7,1,0.7h1.3l-1,0.7
		c-0.4,0.3-0.5,0.7-0.4,1.1 M271.5,390.1h-3.6l-1.1-3.4c-0.2-0.5-0.7-0.8-1.3-0.6c-0.3,0.1-0.5,0.3-0.6,0.6l-1.1,3.4H260
		c-0.6,0-1,0.4-1,1c0,0.3,0.2,0.6,0.4,0.8l2.9,2.1l-1.1,3.4c-0.2,0.5,0.1,1.1,0.6,1.3c0.3,0.1,0.6,0,0.9-0.1l2.9-2.1l2.9,2.1
		c0.3,0.3,0.8,0.3,1.2,0c0.4-0.3,0.5-0.7,0.4-1.1l-1.2-3.5l2.9-2.1c0.4-0.3,0.5-0.9,0.2-1.4c-0.2-0.3-0.5-0.4-0.8-0.4"/>
</g>
<g>
	<path class="st0" d="M265.4,349.4c-14.6,0-26.4-11.8-26.4-26.3s11.8-26.4,26.3-26.4c14.6,0,26.4,11.8,26.4,26.3c0,0,0,0,0,0
		C291.7,337.6,279.9,349.4,265.4,349.4 M265.4,294.8c-15.7,0-28.4,12.7-28.4,28.3c0,15.7,12.7,28.4,28.3,28.4
		c15.7,0,28.4-12.7,28.4-28.3c0,0,0,0,0,0C293.7,307.4,281,294.8,265.4,294.8"/>
	<path class="st0" d="M265.9,333.7c-0.4-0.4-1-0.4-1.4,0l-2.1,2v-7.3c0.9,0.4,1.9,0.7,2.9,0.7c0.9,0,1.8-0.2,2.7-0.6v7.2
		L265.9,333.7z M265.3,318.1c2.5,0,4.5,2,4.5,4.5c0,2.5-2,4.5-4.5,4.5c-2.5,0-4.5-2-4.5-4.5c0,0,0,0,0,0
		C260.8,320.1,262.8,318.1,265.3,318.1 M265.3,316.1c-3.6,0-6.5,2.9-6.5,6.5c0,1.6,0.6,3.1,1.6,4.3V338c0,0.4,0.2,0.8,0.6,0.9
		c0.4,0.2,0.8,0.1,1.1-0.2l3.1-2.9l3.1,2.9c0.2,0.2,0.4,0.3,0.7,0.3c0.1,0,0.3,0,0.4-0.1c0.4-0.1,0.6-0.5,0.6-0.9v-11
		c2.5-2.6,2.4-6.7-0.1-9.2C268.7,316.7,267,316,265.3,316.1"/>
	<path class="st0" d="M282.5,311.2h-34.3c-0.9,0-1.5,0.7-1.6,1.5v13c0,0.9,0.7,1.5,1.6,1.5h9c0.6,0,1-0.4,1-1s-0.4-1-1-1h-8.6v-12.1
		h33.4v12h-8.4c-0.6,0-1,0.4-1,1s0.4,1,1,1h8.9c0.8,0,1.5-0.7,1.5-1.5v-13C284.1,311.9,283.4,311.2,282.5,311.2"/>
</g>
<g>
	<path class="st0" d="M324.3,260l-0.1,0.4c-0.1,0.5-0.5,0.8-1,0.8H323c-0.5-0.1-0.9-0.7-0.7-1.2l0.1-0.4c0-0.2,0-0.4,0-0.6l-0.1-0.5
		c-0.1-0.6,0.2-1.1,0.8-1.2c0.6-0.1,1.1,0.2,1.2,0.8l0.1,0.5C324.4,259.1,324.4,259.6,324.3,260 M348.2,257.1l0.2-0.6H324h-0.2
		c-0.6-0.2-1.3-0.2-1.9,0.2c-0.4,0.3-0.6,0.8-0.5,1.2v2.7c-0.1,0.5,0.1,1,0.5,1.4c0.6,0.3,1.3,0.4,1.9,0.1c0.1-0.1,0.2-0.1,0.3-0.1
		h24.3l-0.2-0.6C347.7,260,347.7,258.5,348.2,257.1"/>
	<path class="st0" d="M333,243.8V239h-0.9v4.9C332.4,243.7,332.8,243.7,333,243.8"/>
	<path class="st0" d="M350.1,260.8l0.4,1.2h0.3c0.6,0,1,0.4,1,1s-0.4,1-1,1h-26.5c-0.5,0.2-1,0.2-1.5,0.2c-0.8,0-1.5-0.2-2.1-0.7
		c-0.9-0.7-1.4-1.8-1.3-3v-2.6c0-1.1,0.5-2.1,1.3-2.8c1-0.7,2.3-0.9,3.5-0.6h26.5c0.6,0,1,0.4,1,1c0,0.6-0.4,1-1,1c0,0,0,0,0,0h-0.2
		l-0.4,1.2C349.8,258.8,349.8,259.9,350.1,260.8 M346.4,249l0.2,1.1c0.1,0.5-0.3,1.1-0.8,1.1h-0.2c-0.5,0-0.9-0.3-1-0.8l-0.2-1.1
		c-0.2-0.9-0.2-1.7,0-2.6l0.2-0.9c0.1-0.6,0.6-0.9,1.2-0.8c0.6,0.1,0.9,0.6,0.8,1.2l0,0l-0.2,0.9C346.3,247.7,346.3,248.3,346.4,249
		 M316.2,252.9c0-0.6,0.4-1,1-1h0.6l0.3-1.6c0.3-1.4,0.3-2.9,0-4.4l-0.3-1.6h-0.6c-0.6,0-1-0.4-1-1s0.4-1,1-1h11.3c0.6,0,1,0.4,1,1
		s-0.4,1-1,1h-8.6l0.2,1.3c0.3,1.7,0.3,3.3,0,5l-0.2,1.3h25.9c0.1,0,0.1,0,0.2,0c0.3,0.1,0.7,0,1-0.2c0.5-0.5,0.7-1.2,0.6-1.8v-3.5
		c0,0,0-0.1,0-0.1c0.2-0.7,0-1.4-0.5-2c-0.1-0.1-0.3-0.3-1-0.1c-0.1,0-0.2,0.1-0.3,0.1h-9c-0.6,0-1-0.4-1-1s0.4-1,1-1h8.8
		c0.9-0.3,1.9-0.2,2.7,0.4c1,0.9,1.5,2.3,1.2,3.7v3.4c0.1,1.3-0.3,2.5-1.3,3.4c-0.6,0.5-1.3,0.7-2,0.7c-0.2,0-0.4,0-0.6-0.1h-28.4
		C316.6,253.8,316.2,253.3,316.2,252.9 M322.6,235.5l-0.1-0.8c-0.1-0.5,0.3-1.1,0.8-1.2c0,0,0,0,0,0c0.5-0.1,1.1,0.3,1.1,0.8
		l0.1,0.8c0.1,0.7,0.1,1.3,0,2l-0.1,0.7c-0.1,0.5-0.5,0.8-1,0.8h-0.2c-0.5-0.1-0.9-0.6-0.8-1.2c0,0,0,0,0,0l0.1-0.7
		C322.7,236.3,322.7,235.9,322.6,235.5 M328.9,238.9c-0.6,0-1-0.4-1-1s0.4-1,1-1h6.3c0.6,0,1,0.4,1,1s-0.4,1-1,1H335v7.1
		c0,0.6-0.5,1-1,1c-0.3,0-0.5-0.1-0.7-0.3l-0.6-0.6l-0.8,0.8c-0.2,0.2-0.4,0.3-0.7,0.3c-0.1,0-0.3,0-0.4-0.1
		c-0.4-0.2-0.6-0.5-0.6-0.9V239L328.9,238.9z M319.3,237.5v-3c-0.1-1.4,0.6-2.7,1.7-3.6c0.7-0.4,1.6-0.5,2.3-0.1l19.8,0.3
		c0.6,0,1,0.4,1,1c0,0.5-0.4,0.9-0.9,1l-0.3,1.4c-0.3,1.3-0.3,2.6-0.1,3.9l0.2,1.4c0.6,0,1,0.5,1,1s-0.5,1-1,1l0,0l-6.4-0.1
		c-0.6,0-1-0.4-1-1s0.4-1,1-1l4.5,0.1l-0.2-1c-0.3-1.5-0.2-3.1,0.1-4.6l0.2-1l-18.1-0.3c-0.2,0-0.3,0-0.4-0.1
		c-0.2-0.1-0.4-0.1-0.6,0c-0.5,0.5-0.8,1.2-0.7,1.9l0,3.1c-0.1,1.1,0.2,1.8,0.5,2c0.3,0.1,0.6,0.1,0.8-0.1c0.1-0.1,0.3-0.1,0.5-0.1
		l5.3,0.1c0.6,0,1,0.4,1,1s-0.4,1-1,1l0,0l-5.1-0.1c-0.4,0.2-0.8,0.3-1.2,0.3c-0.5,0-1-0.2-1.4-0.4c-1.1-0.9-1.6-2.3-1.3-3.7
		 M333.9,219.1c-15.7,0-28.4,12.7-28.4,28.3c0,15.7,12.7,28.4,28.3,28.4c15.7,0,28.4-12.7,28.4-28.3c0,0,0,0,0,0
		C362.3,231.8,349.6,219.1,333.9,219.1"/>
</g>
<g>
	<path class="st0" d="M327.9,415.9h12.5c0-0.6-0.2-1.2-0.6-1.7c-0.3-0.3-0.7-0.5-1.1-0.5c-3-0.2-9,0-9.1,0
		C329.3,413.7,328.1,413.9,327.9,415.9"/>
	<path class="st0" d="M336.8,392.1h-1.3c-0.4,0-0.8-0.3-1-0.7l-0.4-1.2l-0.4,1.2c-0.1,0.4-0.5,0.7-1,0.7h-1.3l1,0.7
		c0.4,0.2,0.5,0.7,0.4,1.1l-0.4,1.2l1-0.7c0.4-0.3,0.8-0.3,1.2,0l1,0.7l-0.4-1.2c-0.1-0.4,0-0.9,0.4-1.1L336.8,392.1z"/>
	<path class="st0" d="M323.7,388.6h-3.6c-0.1,1.1,0.2,3.3,3.9,5.1v-5.1C323.9,388.6,323.8,388.6,323.7,388.6"/>
	<path class="st0" d="M344.6,395.7c-0.1,0-0.2,0-0.2,0v0.6c-0.6,4.7-4.6,8.3-9.3,8.4v6.9c1.3,0,2.7,0,3.7,0.1c1,0,1.9,0.5,2.6,1.2
		c0.9,1.2,1.2,2.6,1.1,4.1c0,0.5-0.5,0.9-1,0.9h-14.5c-0.6,0-1-0.4-1-1c-0.2-1.4,0.2-2.9,1.2-4c0.6-0.7,1.5-1.1,2.5-1.2
		c0.1,0,1.7,0,3.5-0.1v-6.9c-9-0.5-9.1-8.4-9.1-8.5v-0.7c-0.1,0-0.2,0-0.3,0c-0.1,0-0.3,0-0.4-0.1c-6.9-3.2-4.9-8.3-4.9-8.3
		c0.1-0.4,0.5-0.6,0.9-0.6h4.4c0.1,0,0.2,0,0.3,0.1v-3.2c0-0.6,0.4-1,1-1h18.5c0.6,0,1,0.4,1,1v3.3h4.2c0.4,0,0.8,0.2,0.9,0.6
		C349.5,387.3,351.5,392.4,344.6,395.7 M333.9,370.7c-15.7,0-28.4,12.7-28.4,28.3c0,15.7,12.7,28.4,28.3,28.4
		c15.7,0,28.4-12.7,28.4-28.3c0,0,0,0,0,0C362.3,383.4,349.6,370.7,333.9,370.7"/>
	<path class="st0" d="M344.4,388.7v4.8c3.2-1.7,3.5-3.8,3.4-4.8H344.4z"/>
	<path class="st0" d="M340.5,391.9l-2.9,2.1l1.1,3.4c0.2,0.5-0.1,1.1-0.6,1.3c-0.1,0-0.2,0-0.3,0c-0.2,0-0.4-0.1-0.6-0.2l-2.9-2.1
		l-2.9,2.1c-0.3,0.3-0.8,0.3-1.2,0c-0.4-0.3-0.5-0.7-0.4-1.1l1.1-3.4l-2.9-2.1c-0.4-0.3-0.5-0.9-0.2-1.4c0.2-0.3,0.5-0.4,0.8-0.4
		h3.6l1.1-3.4c0.2-0.5,0.7-0.8,1.3-0.6c0.3,0.1,0.5,0.3,0.6,0.6l1.1,3.4h3.6c0.6,0,1,0.4,1,1C340.9,391.4,340.7,391.8,340.5,391.9
		 M326,384.4v11.9c0,0.3,0.1,6.5,8.1,6.5c7.6,0,8.3-6.3,8.3-6.6v-11.8H326z"/>
</g>
<g>
	<path class="st0" d="M333.9,327c2.5,0,4.5-2,4.5-4.5c0-2.5-2-4.5-4.5-4.5c-2.5,0-4.5,2-4.5,4.5c0,0,0,0,0,0
		C329.4,325,331.4,327,333.9,327"/>
	<path class="st0" d="M333.9,329c-1,0-2-0.2-2.8-0.7v7.3l2.1-2c0.4-0.4,1-0.4,1.4,0l2.1,2v-7.2C335.7,328.8,334.8,329,333.9,329"/>
	<path class="st0" d="M352.6,325.7c0,0.9-0.7,1.5-1.5,1.5c0,0,0,0,0,0h-8.9c-0.6,0-1-0.4-1-1s0.4-1,1-1h8.4v-12h-33.4v12h8.6
		c0.6,0,1,0.4,1,1s-0.4,1-1,1h-9c-0.9,0-1.5-0.7-1.6-1.5c0,0,0,0,0,0v-13c0-0.9,0.7-1.5,1.6-1.5h34.3c0.9,0,1.5,0.7,1.6,1.5V325.7z
		 M338.5,338c0,0.4-0.2,0.8-0.6,0.9c-0.1,0.1-0.3,0.1-0.4,0.1c-0.3,0-0.5-0.1-0.7-0.3l-3.1-2.9l-3.1,2.9c-0.4,0.4-1,0.4-1.4,0
		c-0.2-0.2-0.3-0.4-0.3-0.7v-11.2c-2.4-2.7-2.1-6.8,0.5-9.1s6.8-2.1,9.1,0.5c2.2,2.5,2.2,6.4-0.2,8.8L338.5,338z M333.9,294.8
		c-15.7,0-28.4,12.7-28.4,28.3c0,15.7,12.7,28.4,28.3,28.4c15.7,0,28.4-12.7,28.4-28.3c0,0,0,0,0,0
		C362.3,307.5,349.6,294.8,333.9,294.8"/>
</g>
<g>
	<path class="st0" d="M101.5,197.9c-14.6,0-26.3-11.8-26.3-26.4s11.8-26.3,26.3-26.3s26.3,11.8,26.3,26.3
		C127.8,186.1,116,197.9,101.5,197.9 M101.5,143.2c-15.7,0-28.4,12.7-28.4,28.4s12.7,28.3,28.4,28.3s28.3-12.7,28.3-28.3
		C129.8,155.9,117.2,143.2,101.5,143.2C101.5,143.2,101.5,143.2,101.5,143.2"/>
	<path class="st0" d="M93.5,160.9c-0.9,0.1-1.7-0.6-1.8-1.5c-0.1-0.9,0.6-1.7,1.5-1.8c0.1,0,0.2,0,0.3,0h14.8
		c-0.4,1.1-0.4,2.3,0,3.4H93.5z M111.2,185.5H93.5c-0.9,0-1.7-0.8-1.7-1.7v-21.4c0.5,0.3,1.1,0.4,1.7,0.4h17.8V185.5z M110.6,157.5
		h1.6c0.6,0,1-0.4,1-1s-0.4-1-1-1H93.5c-2,0-3.7,1.6-3.7,3.7c0,0.1,0,0.2,0,0.4c0,0.1,0,0.1,0,0.2v24.1c0,2,1.6,3.7,3.7,3.7h18.8
		c0.6,0,1-0.4,1-1v-24.6c0-0.6-0.4-1-1-1h-1.6c-0.4-0.5-0.6-1.1-0.6-1.7C110,158.6,110.2,158,110.6,157.5"/>
</g>
<g>
	<path class="st0" d="M176.9,157.5H162c-0.9-0.1-1.7,0.6-1.8,1.5c-0.1,0.9,0.6,1.7,1.5,1.8c0.1,0,0.2,0,0.3,0h14.9
		C176.4,159.8,176.4,158.6,176.9,157.5"/>
	<path class="st0" d="M180.8,160.9c0.6,0,1,0.4,1,1v24.6c0,0.6-0.4,1-1,1H162c-2,0-3.7-1.6-3.7-3.7v-24.1c0-0.1,0-0.1,0-0.2
		c0-0.1,0-0.2,0-0.4c0-2,1.6-3.7,3.7-3.7h18.8c0.6,0,1,0.4,1,1s-0.4,1-1,1h-1.6c-0.8,1-0.8,2.4,0,3.4L180.8,160.9z M170,143.2
		c-15.7,0-28.3,12.7-28.3,28.4s12.7,28.3,28.3,28.3s28.4-12.7,28.4-28.3S185.7,143.2,170,143.2C170,143.2,170,143.2,170,143.2"/>
	<path class="st0" d="M160.3,162.5v21.4c0,0.9,0.8,1.7,1.7,1.7h17.8v-22.6H162C161.4,162.9,160.8,162.7,160.3,162.5"/>
</g>
<g>
	<path class="st0" d="M101.5,501.4c-14.6,0-26.3-11.8-26.3-26.4s11.8-26.4,26.3-26.4s26.3,11.8,26.3,26.4
		C127.8,489.5,116,501.3,101.5,501.4 M101.5,446.6c-15.7,0-28.4,12.7-28.4,28.4c0,15.7,12.7,28.4,28.4,28.4s28.3-12.7,28.3-28.4
		C129.8,459.3,117.2,446.7,101.5,446.6C101.5,446.6,101.5,446.6,101.5,446.6"/>
	<path class="st0" d="M112.2,490.4H90.8v-30.7h21.4V490.4z M113.2,457.6H89.8c-0.6,0-1,0.4-1,1v32.7c0,0.6,0.4,1,1,1h23.4
		c0.6,0,1-0.4,1-1v-32.7C114.2,458.1,113.7,457.6,113.2,457.6"/>
	<path class="st0" d="M104,484c-0.2,0.1-0.4,0.3-0.6,0.5c-0.2,0.2-0.3,0.5-0.3,0.8c-0.3,0-0.5,0-0.8,0.1c-0.3,0.1-0.5,0.2-0.7,0.4
		c-0.2-0.2-0.4-0.3-0.7-0.4c-0.2-0.1-0.4-0.1-0.6-0.1H100c-0.1-0.3-0.2-0.5-0.3-0.8c-0.2-0.2-0.4-0.4-0.7-0.5c0.2-0.5,0.2-1.1,0-1.6
		c0.2-0.1,0.4-0.3,0.6-0.5c0.2-0.2,0.3-0.5,0.3-0.8c0.3,0,0.5,0,0.8-0.1c0.3-0.1,0.5-0.2,0.7-0.4c0.2,0.2,0.5,0.3,0.7,0.4
		c0.3,0.1,0.5,0.1,0.8,0.1c0.1,0.3,0.2,0.5,0.3,0.8c0.4,0.1,0.7,0.5,0.6,1c0,0.1-0.1,0.3-0.2,0.4C103.8,483.5,103.8,483.7,104,484
		 M105.9,481.7c-0.2-0.4-0.5-0.8-0.9-1l-0.1-0.1c0,0,0-0.1,0-0.1c-0.1-0.9-0.9-1.6-1.8-1.5c-0.1,0-0.1,0-0.2,0h-0.2l-0.1-0.1
		c-0.3-0.3-0.8-0.5-1.2-0.5c-0.5,0-0.9,0.2-1.2,0.5l-0.1,0.1H100c-0.9-0.2-1.8,0.4-2,1.3c0,0.1,0,0.1,0,0.2c0,0,0,0.1,0,0.1
		l-0.1,0.1c-0.8,0.4-1.2,1.4-0.8,2.2c0,0,0,0.1,0,0.1c0,0.1,0.1,0.1,0.1,0.1c0,0.1,0,0.1-0.1,0.2c-0.4,0.8-0.1,1.8,0.7,2.3
		c0,0,0.1,0,0.1,0l0.1,0.1c0,0,0,0.1,0,0.1c0.1,0.9,0.9,1.6,1.8,1.5c0.1,0,0.1,0,0.2,0h0.2l0.1,0.1c0.3,0.3,0.8,0.5,1.2,0.5
		c0.5,0,0.9-0.2,1.2-0.5l0.1-0.1h0.2c0.4,0.1,0.9,0,1.3-0.3c0.4-0.3,0.6-0.7,0.7-1.1c0,0,0-0.1,0-0.1l0.1-0.1
		c0.8-0.4,1.2-1.4,0.8-2.2c0,0,0-0.1,0-0.1c0,0,0-0.1-0.1-0.1c0-0.1,0-0.1,0.1-0.2C106,482.6,106.1,482.2,105.9,481.7"/>
	<path class="st0" d="M94.5,465.5h14c0.6,0,1-0.4,1-1s-0.4-1-1-1h-14c-0.6,0-1,0.4-1,1S93.9,465.5,94.5,465.5"/>
	<path class="st0" d="M94.5,470.2h14c0.6,0,1-0.4,1-1s-0.4-1-1-1h-14c-0.6,0-1,0.4-1,1S93.9,470.2,94.5,470.2"/>
	<path class="st0" d="M94.5,474.8h14c0.6,0,1-0.4,1-1s-0.4-1-1-1h-14c-0.6,0-1,0.4-1,1S93.9,474.8,94.5,474.8"/>
</g>
<g>
	<path class="st0" d="M101.5,349.4c-14.6,0-26.3-11.8-26.3-26.4s11.8-26.4,26.3-26.4s26.3,11.8,26.3,26.4c0,0,0,0,0,0
		C127.8,337.6,116,349.4,101.5,349.4 M101.5,294.8c-15.7,0-28.4,12.7-28.4,28.4c0,15.7,12.7,28.4,28.4,28.4s28.3-12.7,28.3-28.4
		C129.8,307.4,117.2,294.8,101.5,294.8C101.5,294.8,101.5,294.8,101.5,294.8"/>
	<path class="st0" d="M101.5,323.9l-14.7-6.3l14.7-5.2l14.7,5.2L101.5,323.9z M111.6,329.6c-2.7,2.7-6.3,4.2-10.2,4.3
		c-6.6,0-9.5-3.3-10.2-4.2l1-7.6l8.8,3.8c0.1,0.1,0.3,0.1,0.4,0.1c0.1,0,0.3,0,0.4-0.1l8.8-3.8L111.6,329.6z M119.3,316.6l-17.5-6.2
		c-0.2-0.1-0.5-0.1-0.7,0l-17.4,6.2c-0.5,0.2-0.8,0.8-0.6,1.3c0.1,0.3,0.3,0.5,0.5,0.6l6.8,2.9l-1.1,8.5c0,0.2,0,0.4,0.1,0.6
		c0.1,0.2,3.3,5.5,12.1,5.5c4.6-0.1,8.9-2,12-5.3c0.2-0.2,0.3-0.5,0.2-0.8l-1.2-8.5l4.1-1.8v15.4c0,0.6,0.4,1,1,1s1-0.4,1-1v-16.2
		l0,0l0.7-0.3c0.4-0.2,0.6-0.6,0.6-1C120,317,119.7,316.7,119.3,316.6"/>
</g>
<g>
	<path class="st0" d="M101.5,273.7c-14.6,0-26.3-11.8-26.3-26.4S86.9,221,101.5,221s26.3,11.8,26.3,26.3
		C127.8,261.9,116,273.7,101.5,273.7 M101.5,219c-15.7,0-28.3,12.7-28.3,28.4s12.7,28.4,28.3,28.4s28.3-12.7,28.3-28.4c0,0,0,0,0,0
		C129.8,231.7,117.2,219,101.5,219C101.5,219,101.5,219,101.5,219"/>
	<path class="st0" d="M111.4,245.8c-0.6,0.3-1.1,0.8-1.4,1.3c-0.3,0.6-0.4,1.3-0.4,1.9c0,0.3,0,0.7-0.2,1c-0.3,0.1-0.7,0.2-1,0.2
		c-0.4,0-0.8,0.1-1.1,0.1c-0.2,0-0.3,0-0.4,0.1c-0.1,0-0.3,0.1-0.4,0.2c-0.5,0.4-1,0.9-1.3,1.4c-0.2,0.3-0.5,0.8-0.7,0.8
		c-0.4-0.1-0.7-0.2-1-0.4c-0.6-0.4-1.2-0.6-1.9-0.6c-0.7,0-1.3,0.3-1.9,0.6c-0.3,0.2-0.6,0.3-1,0.4c-0.2,0-0.5-0.6-0.7-0.8
		c-0.3-0.6-0.8-1.1-1.3-1.4c-0.1-0.1-0.2-0.1-0.4-0.2c-0.1-0.1-0.3-0.1-0.4-0.1c-0.4-0.1-0.7-0.1-1.1-0.1c-0.3,0-0.7-0.1-1-0.2
		c-0.1-0.3-0.2-0.7-0.2-1c0-0.7-0.1-1.3-0.4-1.9c-0.4-0.5-0.9-1-1.4-1.3c-0.3-0.2-0.8-0.5-0.8-0.7c0.1-0.4,0.2-0.7,0.4-1
		c0.4-0.6,0.6-1.2,0.6-1.9c-0.1-0.7-0.3-1.3-0.6-1.9c-0.2-0.3-0.3-0.6-0.4-1c0-0.2,0.6-0.5,0.8-0.7c0.6-0.3,1.1-0.8,1.4-1.3
		c0.3-0.6,0.4-1.3,0.4-1.9c0-0.3,0.1-0.7,0.2-1c0.3-0.1,0.7-0.2,1-0.2c1.4,0.2,2.7-0.6,3.2-1.9c0.2-0.3,0.5-0.8,0.7-0.9l0,0
		c0.3,0.1,0.6,0.2,0.9,0.4c0.6,0.4,1.2,0.6,1.9,0.6c0.7-0.1,1.3-0.3,1.9-0.6c0.3-0.2,0.6-0.3,1-0.4c0.2,0,0.5,0.6,0.7,0.9
		c0.3,0.6,0.8,1.1,1.3,1.4c0.6,0.3,1.3,0.4,1.9,0.4c0.3,0,0.7,0.1,1,0.2c0.1,0.3,0.2,0.7,0.2,1.1c0,0.7,0.1,1.3,0.4,1.9
		c0.4,0.5,0.9,1,1.4,1.3c0.3,0.2,0.8,0.5,0.8,0.7c-0.1,0.4-0.2,0.7-0.4,1c-0.4,0.6-0.6,1.2-0.6,1.9c0,0.7,0.3,1.3,0.6,1.9
		c0.2,0.3,0.3,0.6,0.4,1C112.1,245.3,111.6,245.7,111.4,245.8 M102,259.6c-0.3-0.2-0.7-0.2-1,0l-4.2,2.5V254c0.3,0.5,0.8,0.8,1.3,1
		c0.2,0,0.4,0.1,0.5,0.1c0.7,0,1.3-0.3,1.8-0.6c0.3-0.2,0.6-0.3,1-0.4c0.4,0.1,0.7,0.2,1,0.4c0.7,0.5,1.5,0.7,2.4,0.5
		c0.5-0.2,1-0.5,1.3-1v8.2L102,259.6z M114.1,238.9c-0.3-0.8-0.9-1.5-1.7-1.9c-0.3-0.2-0.6-0.4-0.8-0.6c-0.1-0.3-0.2-0.7-0.2-1
		c0.1-0.9-0.2-1.7-0.8-2.4c-0.7-0.5-1.5-0.8-2.3-0.7c-0.3,0-0.7-0.1-1-0.2c-0.2-0.2-0.5-0.5-0.6-0.8c-0.4-0.8-1-1.4-1.8-1.7
		c-0.8-0.1-1.7,0.1-2.4,0.5c-0.3,0.2-0.6,0.3-1,0.4c-0.4-0.1-0.7-0.2-1-0.4c-0.7-0.5-1.5-0.7-2.4-0.5c-0.8,0.3-1.5,0.9-1.8,1.7
		c-0.2,0.3-0.4,0.6-0.6,0.8c-0.3,0.1-0.7,0.2-1,0.2c-1.5-0.3-2.8,0.7-3.1,2.2c-0.1,0.3-0.1,0.6,0,0.9c0,0.3,0,0.7-0.2,1
		c-0.2,0.3-0.5,0.5-0.8,0.6c-0.8,0.4-1.4,1-1.7,1.9c-0.1,0.8,0.1,1.7,0.5,2.4c0.2,0.3,0.3,0.6,0.4,1c-0.1,0.4-0.2,0.7-0.4,1
		c-0.5,0.7-0.7,1.6-0.5,2.4c0.3,0.8,0.9,1.5,1.7,1.8c0.3,0.2,0.6,0.4,0.8,0.6c0.1,0.3,0.2,0.7,0.2,1c-0.3,1.5,0.7,2.8,2.2,3.1
		c0.3,0.1,0.6,0.1,0.9,0h0.2v11.6c0,0.6,0.4,1,1,1c0.2,0,0.4,0,0.5-0.1l5.2-3.1l5.2,3.1c0.2,0.1,0.3,0.1,0.5,0.1c0.6,0,1-0.4,1-1
		v-11.6h0.2c1.5,0.2,2.9-0.7,3.1-2.2c0.1-0.3,0.1-0.6,0-0.9c0-0.3,0-0.7,0.2-1c0.2-0.3,0.5-0.5,0.8-0.6c0.8-0.4,1.4-1,1.7-1.8
		c0.1-0.8-0.1-1.7-0.5-2.4c-0.2-0.3-0.3-0.6-0.4-1c0.1-0.4,0.2-0.7,0.4-1C114.1,240.6,114.3,239.8,114.1,238.9"/>
	<path class="st0" d="M101.5,245.8c-2,0-3.6-1.6-3.6-3.6c0-2,1.6-3.6,3.6-3.6s3.6,1.6,3.6,3.6l0,0
		C105,244.2,103.5,245.8,101.5,245.8 M101.5,236.7c-3.1,0-5.6,2.5-5.6,5.6c0,3.1,2.5,5.6,5.6,5.6c3.1,0,5.6-2.5,5.6-5.6l0,0
		C107,239.2,104.6,236.7,101.5,236.7"/>
</g>
<g>
	<path class="st0" d="M101.5,425.5c-14.6,0-26.3-11.8-26.3-26.4s11.8-26.4,26.3-26.4s26.3,11.8,26.3,26.4
		C127.8,413.7,116,425.5,101.5,425.5 M101.5,370.8c-15.7,0-28.3,12.7-28.3,28.4c0,15.7,12.7,28.4,28.3,28.4s28.3-12.7,28.3-28.4
		c0,0,0,0,0,0C129.8,383.5,117.2,370.8,101.5,370.8C101.5,370.8,101.5,370.8,101.5,370.8"/>
	<path class="st0" d="M112,399.4c-1.1,1-2.3,1.9-3.6,2.6c1.3-3.9,2-7.9,2.2-12c2-0.6,3.6-0.5,4.5,0.5
		C116.7,392.2,115.3,396.3,112,399.4 M101.5,406.5c-1.1,0-2.1-0.5-2.8-1.3c-4.2-4.4-4.4-17.7-4.4-21.4h14.4c0,3.7-0.2,17-4.4,21.4
		C103.7,406,102.6,406.4,101.5,406.5 M99.5,414.6l2-4.6l2,4.6H99.5z M91,399.4c-3.3-3.1-4.7-7.2-3-9c0.9-0.9,2.5-1.1,4.5-0.5
		c0.2,4.1,0.9,8.2,2.2,12.1C93.4,401.3,92.1,400.4,91,399.4 M110.7,387.9c0.1-2.9,0-4.9,0-5.2c0-0.6-0.4-1-1-1H93.3
		c-0.6,0-1,0.4-1,1c0,0.2-0.1,2.3,0,5.2c-2.4-0.6-4.5-0.2-5.8,1.2c-2.5,2.7-1.1,7.9,3.1,11.8c1.8,1.7,4,3.1,6.3,3.9
		c0.4,0.6,0.8,1.2,1.3,1.7c0.8,0.8,1.8,1.4,2.8,1.7l-3,7c-0.2,0.5,0,1.1,0.5,1.3c0.1,0.1,0.3,0.1,0.4,0.1h7c0.3,0,0.7-0.2,0.8-0.5
		c0.2-0.3,0.2-0.7,0.1-1l-3-7c1.1-0.3,2.1-0.9,2.8-1.7c0.5-0.5,1-1.1,1.3-1.8c2.3-0.9,4.5-2.2,6.3-3.8c4.2-4,5.6-9.2,3.1-11.8
		C115.1,387.6,113,387.2,110.7,387.9"/>
</g>
<g>
	<path class="st0" d="M163,472.8h14c0.6,0,1,0.4,1,1s-0.4,1-1,1h-14c-0.6,0-1-0.4-1-1S162.4,472.8,163,472.8 M163,468.2h14
		c0.6,0,1,0.4,1,1s-0.4,1-1,1h-14c-0.6,0-1-0.4-1-1S162.4,468.2,163,468.2 M163,463.5h14c0.6,0,1,0.4,1,1s-0.4,1-1,1h-14
		c-0.6,0-1-0.4-1-1S162.4,463.5,163,463.5 M174.4,483.3c0.2,0.4,0.2,0.9,0.1,1.3c-0.2,0.4-0.5,0.8-0.9,1l-0.1,0.1c0,0,0,0.1,0,0.1
		c-0.1,0.4-0.3,0.9-0.7,1.1c-0.4,0.2-0.8,0.3-1.3,0.3c0,0-0.1,0-0.1,0l-0.1,0.1c-0.6,0.7-1.7,0.7-2.4,0.1c0,0,0,0-0.1-0.1l-0.1-0.1
		h-0.1c-0.9,0.2-1.8-0.4-2-1.3c0-0.1,0-0.1,0-0.2c0,0,0-0.1,0-0.1l-0.1-0.1c-0.4-0.2-0.7-0.6-0.9-1c-0.1-0.4-0.1-0.9,0.1-1.3
		c0-0.1,0.1-0.1,0.1-0.2c0,0,0,0-0.1-0.1c-0.2-0.4-0.2-0.9-0.1-1.3c0.2-0.4,0.5-0.8,0.9-1l0.1-0.1c0,0,0-0.1,0-0.1
		c0.1-0.4,0.3-0.9,0.7-1.1c0.4-0.2,0.8-0.3,1.3-0.3h0.1l0.1-0.1c0.6-0.7,1.7-0.7,2.4-0.1c0,0,0,0,0.1,0.1l0.1,0.1h0.1
		c0.4-0.1,0.9,0,1.3,0.3c0.4,0.3,0.6,0.7,0.7,1.1c0,0,0,0.1,0,0.1l0.1,0.1c0.4,0.2,0.7,0.6,0.9,1c0.1,0.4,0.1,0.9-0.1,1.3l-0.1,0.1
		L174.4,483.3 M159.3,490.3h21.4v-30.7h-21.3L159.3,490.3z"/>
	<path class="st0" d="M171.9,481.8c-0.2-0.2-0.3-0.5-0.3-0.8c-0.3,0-0.6,0-0.8-0.1c-0.3-0.1-0.5-0.2-0.7-0.4
		c-0.2,0.2-0.4,0.3-0.7,0.4c-0.3,0.1-0.5,0.1-0.8,0.1c-0.1,0.3-0.2,0.5-0.3,0.8c-0.2,0.2-0.4,0.4-0.6,0.5c0.2,0.5,0.2,1.1,0,1.6
		c0.2,0.1,0.4,0.3,0.6,0.5c0.2,0.2,0.3,0.5,0.3,0.8h0.2c0.2,0,0.4,0,0.6,0.1c0.3,0.1,0.5,0.2,0.7,0.4c0.2-0.2,0.4-0.3,0.7-0.4
		c0.3-0.1,0.5-0.1,0.8-0.1c0.1-0.3,0.2-0.5,0.3-0.8c0.2-0.2,0.4-0.4,0.6-0.5c-0.2-0.5-0.2-1.1,0-1.6
		C172.3,482.3,172.1,482.1,171.9,481.8"/>
	<path class="st0" d="M182.7,491.4c0,0.6-0.4,1-1,1h-23.4c-0.6,0-1-0.4-1-1v-32.7c0-0.6,0.4-1,1-1h23.4c0.6,0,1,0.4,1,1V491.4z
		 M170,446.7c-15.7,0-28.3,12.7-28.3,28.4s12.7,28.3,28.4,28.3c15.6,0,28.3-12.7,28.3-28.4C198.4,459.3,185.7,446.7,170,446.7
		C170,446.7,170,446.7,170,446.7"/>
</g>
<g>
	<polygon class="st0" points="155.3,317.6 170,323.9 184.8,317.6 170,312.3 	"/>
	<path class="st0" d="M187.9,318.4l-0.6,0.3v16.2c0,0.6-0.4,1-1,1s-1-0.4-1-1v-15.4l-4.1,1.8l1.1,8.5c0,0.3,0,0.6-0.2,0.8
		c-3.1,3.3-7.4,5.2-12,5.3c-8.8,0-11.9-5.3-12.1-5.5c-0.1-0.2-0.2-0.4-0.1-0.6l1.1-8.5l-6.8-2.9c-0.5-0.2-0.7-0.8-0.5-1.3
		c0.1-0.3,0.3-0.5,0.6-0.5l17.4-6.2c0.2-0.1,0.5-0.1,0.7,0l17.4,6.2c0.5,0.2,0.8,0.8,0.6,1.3C188.3,318.1,188.1,318.3,187.9,318.4
		 M170,294.8c-15.7,0-28.3,12.7-28.3,28.4c0,15.7,12.7,28.4,28.3,28.4s28.4-12.7,28.4-28.4C198.4,307.4,185.7,294.8,170,294.8
		C170,294.8,170,294.8,170,294.8"/>
	<path class="st0" d="M170,326c-0.1,0-0.3,0-0.4-0.1l-8.8-3.8l-1,7.6c0.7,1,3.6,4.2,10.2,4.2c3.8-0.1,7.4-1.6,10.2-4.3l-1-7.5
		l-8.8,3.8C170.3,326,170.2,326,170,326"/>
</g>
<g>
	<path class="st0" d="M173.4,254.9c-0.8,0.1-1.7-0.1-2.4-0.5c-0.6-0.5-1.4-0.5-2,0c-0.6,0.3-1.2,0.6-1.9,0.6c-0.2,0-0.4,0-0.5-0.1
		c-0.5-0.2-1-0.5-1.3-1v8.2l4.2-2.5c0.3-0.2,0.7-0.2,1,0l4.2,2.5V254c-0.3,0.5-0.8,0.8-1.3,1"/>
	<path class="st0" d="M170,247.8c-3.1,0-5.6-2.5-5.6-5.6s2.5-5.6,5.6-5.6c3.1,0,5.6,2.5,5.6,5.6l0,0
		C175.6,245.3,173.1,247.8,170,247.8 M179.7,242.3c0-0.7,0.3-1.3,0.6-1.9c0.2-0.3,0.3-0.6,0.4-1c-0.1-0.2-0.6-0.5-0.8-0.7
		c-0.6-0.3-1.1-0.8-1.4-1.3c-0.3-0.6-0.4-1.3-0.4-1.9c0-0.4,0-0.7-0.2-1.1c-0.3-0.1-0.7-0.2-1-0.2c-0.7,0-1.3-0.1-1.9-0.4
		c-0.5-0.4-1-0.9-1.3-1.4c-0.2-0.3-0.5-0.8-0.7-0.9c-0.4,0.1-0.7,0.2-1,0.4c-1.1,0.8-2.7,0.8-3.8,0c-0.3-0.2-0.6-0.3-0.9-0.4l0,0
		c-0.2,0-0.5,0.6-0.7,0.9c-0.3,0.6-0.8,1.1-1.3,1.4c-0.6,0.3-1.3,0.4-1.9,0.4c-0.4,0-0.7,0-1.1,0.2c-0.1,0.3-0.2,0.7-0.2,1
		c0,0.7-0.1,1.3-0.4,1.9c-0.4,0.5-0.9,1-1.4,1.3c-0.3,0.2-0.8,0.5-0.8,0.7c0.1,0.4,0.2,0.7,0.4,1c0.4,0.6,0.6,1.2,0.6,1.9
		c0,0.7-0.3,1.3-0.6,1.9c-0.2,0.3-0.3,0.6-0.4,1c0,0.2,0.6,0.5,0.8,0.7c0.6,0.3,1.1,0.8,1.4,1.3c0.3,0.6,0.4,1.3,0.4,1.9
		c0,0.3,0.1,0.7,0.2,1c0.3,0.1,0.7,0.2,1.1,0.2c0.4,0,0.8,0.1,1.1,0.1c0.2,0,0.3,0,0.4,0.1c0.1,0,0.3,0.1,0.4,0.2
		c0.5,0.4,1,0.9,1.3,1.4c0.2,0.3,0.5,0.8,0.7,0.8c0.4-0.1,0.7-0.2,1-0.4c1.1-0.8,2.7-0.8,3.8,0c0.3,0.2,0.6,0.3,1,0.4
		c0.2,0,0.5-0.6,0.7-0.8c0.3-0.6,0.8-1.1,1.3-1.4c0.1-0.1,0.2-0.1,0.4-0.2c0.1-0.1,0.3-0.1,0.4-0.1c0.4-0.1,0.7-0.1,1.1-0.1
		c0.3,0,0.7-0.1,1-0.2c0.1-0.3,0.2-0.7,0.2-1c0-0.7,0.1-1.3,0.4-1.9c0.4-0.5,0.9-1,1.4-1.3c0.3-0.2,0.8-0.5,0.8-0.7
		c-0.1-0.4-0.2-0.7-0.4-1C180,243.6,179.8,242.9,179.7,242.3"/>
	<path class="st0" d="M170,238.7c-2,0-3.6,1.6-3.6,3.6s1.6,3.6,3.6,3.6c2,0,3.6-1.6,3.6-3.6l0,0C173.6,240.3,172,238.7,170,238.7"/>
	<path class="st0" d="M182.1,243.3c0.5,0.7,0.7,1.6,0.5,2.4c-0.3,0.8-0.9,1.5-1.7,1.8c-0.3,0.2-0.6,0.4-0.8,0.6
		c-0.1,0.3-0.2,0.7-0.1,1c0.3,1.5-0.7,2.9-2.2,3.1c-0.3,0.1-0.6,0.1-0.9,0h-0.2v11.7c0,0.6-0.4,1-1,1c-0.2,0-0.4,0-0.5-0.1l-5.2-3.1
		l-5.2,3.1c-0.2,0.1-0.3,0.1-0.5,0.1c-0.2,0-0.3,0-0.5-0.1c-0.3-0.2-0.5-0.5-0.5-0.9v-11.7h-0.2c-1.5,0.3-2.9-0.7-3.1-2.2
		c-0.1-0.3-0.1-0.6,0-0.9c0-0.3,0-0.7-0.1-1c-0.2-0.3-0.5-0.5-0.8-0.6c-0.8-0.4-1.4-1-1.7-1.8c-0.1-0.8,0.1-1.7,0.5-2.4
		c0.2-0.3,0.3-0.6,0.4-1c-0.1-0.4-0.2-0.7-0.4-1c-0.5-0.7-0.7-1.5-0.5-2.4c0.3-0.8,0.9-1.5,1.7-1.9c0.3-0.2,0.6-0.4,0.8-0.6
		c0.1-0.3,0.2-0.7,0.1-1c-0.3-1.5,0.7-2.8,2.2-3.1c0.3-0.1,0.6-0.1,0.9,0c0.7,0.2,1.5-0.3,1.7-1c0.4-0.8,1-1.4,1.8-1.7
		c0.8-0.1,1.7,0.1,2.4,0.5c0.3,0.2,0.6,0.3,1,0.4c0.4-0.1,0.7-0.2,1-0.4c0.7-0.5,1.6-0.7,2.4-0.5c0.8,0.3,1.5,0.9,1.8,1.7
		c0.2,0.3,0.4,0.6,0.6,0.8c0.3,0.1,0.7,0.2,1,0.2c1.5-0.3,2.8,0.7,3.1,2.2c0.1,0.3,0.1,0.6,0,0.9c0,0.3,0,0.7,0.1,1
		c0.2,0.3,0.5,0.5,0.8,0.6c0.8,0.4,1.4,1,1.7,1.9c0.1,0.8-0.1,1.7-0.5,2.4c-0.2,0.3-0.3,0.6-0.4,1
		C181.8,242.6,181.9,243,182.1,243.3 M170,219.1c-15.7,0-28.3,12.7-28.3,28.4s12.7,28.3,28.3,28.3s28.4-12.7,28.4-28.3c0,0,0,0,0,0
		C198.3,231.7,185.7,219.1,170,219.1"/>
</g>
<g>
	<polygon class="st0" points="168,414.5 172,414.5 170,409.9 	"/>
	<path class="st0" d="M177.3,383.7h-14.4c0,3.7,0.1,17,4.4,21.4c1.4,1.6,3.7,1.7,5.3,0.4c0.1-0.1,0.3-0.3,0.4-0.4
		C177.1,400.7,177.3,387.4,177.3,383.7"/>
	<path class="st0" d="M156.5,390.4c-0.8,0.8-0.9,2.1-0.4,3.7c0.7,2,1.9,3.8,3.5,5.2c1.1,1,2.4,1.9,3.7,2.6c-1.3-3.9-2-8-2.2-12.1
		C159,389.4,157.4,389.5,156.5,390.4"/>
	<path class="st0" d="M181.9,400.9c-1.8,1.7-3.9,3-6.3,3.8c-0.4,0.6-0.8,1.2-1.3,1.8c-0.8,0.8-1.8,1.4-2.8,1.7l3,7
		c0.2,0.5,0,1.1-0.5,1.3c-0.1,0.1-0.3,0.1-0.4,0.1h-7c-0.3,0-0.6-0.2-0.8-0.5c-0.2-0.3-0.2-0.7-0.1-1l3-7c-1.1-0.3-2.1-0.9-2.8-1.7
		c-0.5-0.5-0.9-1.1-1.3-1.7c-2.4-0.8-4.5-2.2-6.3-3.9c-1.8-1.7-3.2-3.8-4-6.1c-0.7-2.3-0.4-4.3,0.9-5.7s3.4-1.8,5.9-1.2
		c-0.1-2.9,0-4.9,0-5.2c0-0.6,0.4-1,1-1h16.4c0.6,0,1,0.4,1,1c0,0.2,0.1,2.3,0,5.2c2.4-0.6,4.5-0.2,5.8,1.2
		c2.5,2.7,1.1,7.9-3.1,11.8 M170,370.8c-15.7,0-28.3,12.7-28.3,28.4c0,15.7,12.7,28.4,28.3,28.4s28.4-12.7,28.4-28.4c0,0,0,0,0,0
		C198.3,383.5,185.7,370.8,170,370.8"/>
	<path class="st0" d="M179.1,390c-0.2,4.1-0.9,8.1-2.2,12c1.3-0.7,2.5-1.6,3.6-2.6c3.3-3.1,4.7-7.2,3-9
		C182.7,389.5,181,389.3,179.1,390"/>
</g>
<g>
	<path class="st0" d="M101.5,577.2c-14.6,0-26.3-11.8-26.3-26.3c0-14.6,11.8-26.4,26.3-26.4s26.3,11.8,26.3,26.4l0,0
		C127.8,565.4,116,577.2,101.5,577.2 M101.5,522.5c-15.7,0-28.4,12.7-28.4,28.3c0,15.7,12.7,28.4,28.4,28.4s28.3-12.7,28.3-28.4l0,0
		C129.8,535.2,117.2,522.5,101.5,522.5C101.5,522.5,101.5,522.5,101.5,522.5"/>
	<path class="st0" d="M116.5,562.5c-4.6-1.2-9.4-1.3-14-0.1v-22.5c4.6-1.1,9.4-1.1,14,0V562.5z M86.5,562.4v-22.5
		c4.6-1.2,9.4-1.2,14-0.1v22.6C95.9,561.2,91.1,561.2,86.5,562.4 M117.9,538.2c-5.3-1.5-11-1.6-16.3-0.1c-1.4-0.5-7.4-2.2-16.3,0.1
		c-0.5,0.1-0.8,0.5-0.8,1v24.6c0,0.6,0.5,1,1,1c0.1,0,0.2,0,0.4-0.1c5-1.6,10.4-1.6,15.3,0c0.1,0,0.2,0,0.3,0h0.1
		c0.1,0,0.2,0,0.3-0.1l0,0l0,0c0.1,0,6-2.6,15.3,0c0.1,0,0.2,0,0.3,0c0.2,0,0.4-0.1,0.6-0.2c0.2-0.2,0.4-0.5,0.4-0.8v-24.6
		C118.5,538.7,118.2,538.3,117.9,538.2"/>
</g>
<g>
	<path class="st0" d="M171,539.9v22.5c4.6-1.2,9.4-1.1,14,0.1v-22.6C180.4,538.7,175.6,538.7,171,539.9"/>
	<path class="st0" d="M169,539.8c-4.6-1.1-9.4-1.1-14,0.1v22.5c4.6-1.2,9.4-1.2,14,0.1V539.8z"/>
	<path class="st0" d="M187.1,563.8c0,0.3-0.2,0.6-0.4,0.8c-0.2,0.1-0.4,0.2-0.6,0.2c-0.1,0-0.2,0-0.3,0c-9.3-2.6-15.3-0.1-15.3,0
		h-0.1c-0.1,0-0.2,0.1-0.3,0.1H170c-0.1,0-0.2,0-0.3,0c-5-1.6-10.4-1.6-15.4,0c-0.5,0.2-1.1,0-1.3-0.6c0-0.1-0.1-0.2-0.1-0.4v-24.7
		c0-0.5,0.3-0.9,0.8-1c8.9-2.2,14.9-0.5,16.3-0.1c5.3-1.5,11-1.4,16.3,0.1c0.4,0.1,0.7,0.6,0.7,1L187.1,563.8z M170.1,522.5
		c-15.7,0-28.3,12.7-28.3,28.3c0,15.7,12.7,28.4,28.3,28.4s28.4-12.7,28.4-28.4l0,0C198.4,535.2,185.7,522.5,170.1,522.5
		C170,522.5,170,522.5,170.1,522.5"/>
</g>
<g>
	<path class="st0" d="M265.4,197.9c-14.6,0-26.4-11.8-26.4-26.3s11.8-26.4,26.3-26.4c14.6,0,26.4,11.8,26.4,26.3c0,0,0,0,0,0
		C291.7,186.1,279.9,197.8,265.4,197.9 M265.4,143.2c-15.7,0-28.4,12.7-28.4,28.3s12.7,28.4,28.3,28.4c15.7,0,28.4-12.7,28.4-28.3
		c0,0,0,0,0,0C293.7,155.9,281,143.2,265.4,143.2"/>
	<path class="st0" d="M276.1,186.9h-21.4v-30.8h9.7V175c0,0.6,0.4,1,1,1c0.3,0,0.5-0.1,0.7-0.3l2.8-2.8l2.8,2.8
		c0.2,0.2,0.4,0.3,0.7,0.3c0.1,0,0.3,0,0.4-0.1c0.4-0.2,0.6-0.5,0.6-0.9v-18.9h2.7L276.1,186.9z M266.4,156.1h5v16.5l-1.8-1.8
		c-0.4-0.4-1-0.4-1.4,0c0,0,0,0,0,0l-1.8,1.8L266.4,156.1z M277.1,154.1h-23.4c-0.6,0-1,0.4-1,1v32.8c0,0.6,0.4,1,1,1h23.4
		c0.6,0,1-0.4,1-1v-32.8C278.1,154.6,277.7,154.1,277.1,154.1"/>
</g>
<g>
	<path class="st0" d="M101.5,653.1c-14.6,0-26.3-11.8-26.3-26.3c0-14.6,11.8-26.4,26.3-26.4s26.3,11.8,26.3,26.4l0,0
		C127.8,641.3,116,653.1,101.5,653.1 M101.5,598.4c-15.7,0-28.4,12.7-28.4,28.3c0,15.7,12.7,28.4,28.4,28.4s28.3-12.7,28.3-28.4l0,0
		C129.8,611.1,117.1,598.4,101.5,598.4"/>
	<path class="st0" d="M111.6,639.2l-9.5-7.2c-0.4-0.3-0.9-0.3-1.2,0l-9.6,7.2v-25.9h20.3L111.6,639.2z M112.6,611.3H90.3
		c-0.6,0-1,0.4-1,1v28.8c0,0.6,0.4,1,1,1c0.2,0,0.4-0.1,0.6-0.2l10.6-8l10.5,8c0.2,0.1,0.4,0.2,0.6,0.2c0.2,0,0.3,0,0.4-0.1
		c0.3-0.2,0.6-0.5,0.6-0.9v-28.9C113.6,611.8,113.2,611.3,112.6,611.3"/>
</g>
<g>
	<path class="st0" d="M342,175c0,0.6-0.4,1-1,1c-0.3,0-0.5-0.1-0.7-0.3l-2.8-2.8l-2.8,2.8c-0.2,0.2-0.4,0.3-0.7,0.3
		c-0.1,0-0.3,0-0.4-0.1c-0.4-0.2-0.6-0.5-0.6-0.9v-18.9h-9.7v30.8h21.4v-30.8H342V175z"/>
	<path class="st0" d="M338.1,170.8l1.8,1.8v-16.5h-5v16.5l1.8-1.8C337.2,170.4,337.8,170.4,338.1,170.8"/>
	<path class="st0" d="M346.6,187.9c0,0.6-0.4,1-1,1h-23.4c-0.6,0-1-0.4-1-1v-32.8c0-0.6,0.4-1,1-1h23.4c0.6,0,1,0.4,1,1V187.9z
		 M333.9,143.2c-15.7,0-28.4,12.7-28.4,28.3s12.7,28.4,28.3,28.4c15.7,0,28.4-12.7,28.4-28.3c0,0,0,0,0,0
		C362.3,155.9,349.6,143.2,333.9,143.2"/>
</g>
<g>
	<path class="st0" d="M159.9,639.2l9.6-7.2c0.4-0.3,0.8-0.3,1.2,0l9.5,7.2v-25.8h-20.3V639.2z"/>
	<path class="st0" d="M182.2,641.2c0,0.4-0.2,0.7-0.6,0.9c-0.1,0.1-0.3,0.1-0.4,0.1c-0.2,0-0.4-0.1-0.6-0.2l-10.5-8l-10.6,8
		c-0.3,0.2-0.7,0.3-1.1,0.1c-0.3-0.2-0.6-0.5-0.6-0.9v-28.8c0-0.6,0.4-1,1-1h22.3c0.6,0,1,0.4,1,1L182.2,641.2z M170,598.4
		c-15.7,0-28.3,12.7-28.3,28.3c0,15.7,12.7,28.4,28.3,28.4s28.4-12.7,28.4-28.4l0,0C198.3,611.1,185.7,598.4,170,598.4"/>
</g>
<g>
	<path class="st0" d="M265.4,729c-14.6,0-26.4-11.8-26.4-26.3c0-14.6,11.8-26.4,26.3-26.4c14.6,0,26.4,11.8,26.4,26.3c0,0,0,0,0,0
		C291.7,717.2,279.9,729,265.4,729 M265.4,674.3c-15.7,0-28.4,12.7-28.4,28.3c0,15.7,12.7,28.4,28.3,28.4
		c15.7,0,28.4-12.7,28.4-28.3c0,0,0,0,0,0C293.7,687,281,674.3,265.4,674.3L265.4,674.3"/>
	<path class="st0" d="M267.9,706.7l-5.7-5.7l10.1-10.1l5.7,5.7L267.9,706.7z M256.9,714.7l-4.1-4.2l8.1-8.1l5.7,5.7l-6.7,6.7
		L256.9,714.7z M273.1,688.7c-0.4-0.4-1-0.4-1.4,0l-11.5,11.5l0,0l-9.5,9.5c-0.4,0.4-0.4,1,0,1.4l5.1,5.2l0,0
		c0.1,0.1,0.2,0.2,0.3,0.2c0.1,0,0.3,0.1,0.4,0.1h20.5c0.6,0,1-0.4,1-1s-0.4-1-1-1h-14.2l6-6l0,0l11.5-11.5c0.4-0.4,0.4-1,0-1.4
		L273.1,688.7z"/>
</g>
<g>
	<path class="st0" d="M265.4,577.2c-14.6,0-26.4-11.8-26.4-26.3c0-14.6,11.8-26.4,26.3-26.4c14.6,0,26.4,11.8,26.4,26.3c0,0,0,0,0,0
		C291.7,565.4,279.9,577.2,265.4,577.2 M265.4,522.5c-15.7,0-28.4,12.7-28.4,28.3c0,15.7,12.7,28.4,28.3,28.4
		c15.7,0,28.4-12.7,28.4-28.3c0,0,0,0,0,0C293.7,535.2,281,522.5,265.4,522.5"/>
	<path class="st0" d="M277.6,556.7c-5.9,5.4-15.2,5.1-20.6-0.9c-5.1-5.6-5.1-14.2,0-19.7c0.4-0.4,0.4-1,0.1-1.4
		c-0.4-0.4-1-0.4-1.4-0.1c0,0-0.1,0.1-0.1,0.1c-6.3,6.7-6,17.2,0.7,23.4c2.8,2.6,6.4,4.2,10.2,4.5v3.2h-6.7c-0.6,0-1,0.4-1,1
		s0.4,1,1,1H275c0.6,0,1-0.4,1-1s-0.4-1-1-1h-6.7v-3.2c4-0.2,7.8-1.7,10.7-4.5c0.4-0.3,0.5-1,0.1-1.4c-0.3-0.4-1-0.5-1.4-0.1
		C277.7,556.7,277.7,556.7,277.6,556.7"/>
	<path class="st0" d="M267.6,556.3c-5.6,0-10.2-4.6-10.2-10.2c0-5.6,4.6-10.2,10.2-10.2s10.2,4.6,10.2,10.2
		C277.8,551.8,273.2,556.3,267.6,556.3 M267.6,533.9c-6.7,0-12.2,5.5-12.2,12.2c0,6.7,5.5,12.2,12.2,12.2c6.7,0,12.2-5.5,12.2-12.2
		c0,0,0,0,0,0C279.8,539.4,274.3,533.9,267.6,533.9"/>
</g>
<g>
	
		<rect x="331.6" y="694.8" transform="matrix(0.7072 -0.707 0.707 0.7072 -394.9175 444.0496)" class="st0" width="14.3" height="8"/>
	<polygon class="st0" points="329.4,702.4 321.3,710.5 325.4,714.8 328.4,714.8 335.1,708.1 	"/>
	<path class="st0" d="M348.7,697.3l-17.5,17.5h14.2c0.6,0,1,0.4,1,1s-0.4,1-1,1H325c-0.1,0-0.3,0-0.4-0.1c-0.1-0.1-0.2-0.1-0.3-0.2
		l0,0l-5.1-5.2c-0.4-0.4-0.4-1,0-1.4l21-21c0.4-0.4,1-0.4,1.4,0c0,0,0,0,0,0l7.1,7.1c0.2,0.2,0.3,0.4,0.3,0.7
		C349,696.9,348.8,697.1,348.7,697.3 M333.9,674.3c-15.7,0-28.4,12.7-28.4,28.3c0,15.7,12.7,28.4,28.3,28.4
		c15.7,0,28.4-12.7,28.4-28.3c0,0,0,0,0,0C362.2,687,349.6,674.3,333.9,674.3L333.9,674.3"/>
</g>
<g>
	<path class="st0" d="M336.1,558.3c-6.7,0-12.2-5.5-12.2-12.2c0-6.7,5.5-12.2,12.2-12.2c6.7,0,12.2,5.5,12.2,12.2c0,0,0,0,0,0
		C348.3,552.9,342.9,558.3,336.1,558.3 M347.5,558.2c-2.9,2.7-6.7,4.3-10.6,4.5v3.2h6.7c0.6,0,1,0.4,1,1s-0.4,1-1,1h-15.4
		c-0.6,0-1-0.4-1-1s0.4-1,1-1h6.7v-3.2c-9.1-0.7-16-8.7-15.3-17.8c0.3-3.8,1.9-7.4,4.5-10.1c0.4-0.4,1-0.4,1.4,0
		c0.4,0.4,0.4,1,0,1.4c-5.6,5.8-5.4,15,0.4,20.6c5.7,5.5,14.6,5.5,20.3,0c0.4-0.3,1.1-0.3,1.4,0.1
		C347.9,557.3,347.9,557.8,347.5,558.2 M333.9,522.5c-15.7,0-28.4,12.7-28.4,28.3c0,15.7,12.7,28.4,28.3,28.4
		c15.7,0,28.4-12.7,28.4-28.3c0,0,0,0,0,0C362.3,535.2,349.6,522.5,333.9,522.5"/>
	<path class="st0" d="M336.1,535.9c-5.6,0-10.2,4.6-10.2,10.2c0,5.6,4.6,10.2,10.2,10.2s10.2-4.6,10.2-10.2c0,0,0,0,0,0
		C346.3,540.5,341.8,535.9,336.1,535.9"/>
</g>
<g>
	<path class="st0" d="M265.4,653.1c-14.6,0-26.3-11.8-26.3-26.4c0-14.6,11.8-26.3,26.3-26.3c14.6,0,26.4,11.8,26.4,26.4l0,0
		C291.7,641.3,279.9,653.1,265.4,653.1 M265.4,598.4c-15.7,0-28.3,12.7-28.3,28.3c0,15.7,12.7,28.4,28.3,28.4s28.4-12.7,28.4-28.4
		l0,0C293.7,611.1,281,598.4,265.4,598.4"/>
	<path class="st0" d="M275.8,642h-20.9v-28.1h4.7v1.4c0,0.6,0.4,1,1,1h9.5c0.6,0,1-0.4,1-1v-1.4h4.7V642z M261.6,611.5h7.5v2.9h-7.5
		V611.5z M276.8,611.9h-5.7v-1.5c0-0.6-0.4-1-1-1h-9.5c-0.6,0-1,0.4-1,1v1.5h-5.7c-0.6,0-1,0.4-1,1V643c0,0.6,0.4,1,1,1h22.9
		c0.6,0,1-0.4,1-1v-30.1C277.8,612.4,277.4,611.9,276.8,611.9"/>
</g>
<g>
	<path class="st0" d="M339.7,615.3c0,0.6-0.4,1-1,1h-9.5c-0.6,0-1-0.4-1-1v-1.4h-4.7V642h20.9v-28.1h-4.7V615.3z"/>
	<path class="st0" d="M346.4,643c0,0.6-0.4,1-1,1h-22.9c-0.6,0-1-0.4-1-1v-30.1c0-0.6,0.4-1,1-1h5.7v-1.5c0-0.6,0.4-1,1-1h9.5
		c0.6,0,1,0.4,1,1v1.5h5.7c0.6,0,1,0.4,1,1L346.4,643z M333.9,598.4c-15.7,0-28.4,12.7-28.4,28.3c0,15.7,12.7,28.4,28.3,28.4
		c15.7,0,28.4-12.7,28.4-28.3c0,0,0,0,0,0C362.3,611.1,349.6,598.4,333.9,598.4"/>
	<rect x="330.2" y="611.5" class="st0" width="7.5" height="2.8"/>
</g>
<g>
	<path class="st0" d="M265.4,501.4c-14.6,0-26.4-11.8-26.4-26.3s11.8-26.4,26.3-26.4c14.6,0,26.4,11.8,26.4,26.3c0,0,0,0,0,0
		C291.7,489.5,279.9,501.3,265.4,501.4 M265.4,446.6c-15.7,0-28.4,12.7-28.4,28.3c0,15.7,12.7,28.4,28.3,28.4
		c15.7,0,28.4-12.7,28.4-28.3c0,0,0,0,0,0C293.7,459.3,281,446.7,265.4,446.6"/>
	<path class="st0" d="M274.5,464.2l-1.2,0.5c-0.2,0.1-0.4,0.3-0.5,0.6l-4,10.5c-0.2,0.4,0,0.9,0.3,1.1l2.5,2l-1.2,3l-14.4-5.5l1.2-3
		l3.2,0.1c0.4,0,0.8-0.2,1-0.6l4-10.5c0.1-0.2,0.1-0.5,0-0.8l-0.5-1.2l0.4-1l9.8,3.7L274.5,464.2z M276.5,461.7l-11.6-4.5
		c-0.5-0.2-1.1,0.1-1.3,0.6c0,0,0,0,0,0l-0.9,2.3c-0.1,0.2-0.1,0.5,0,0.8l0.5,1.2l-3.6,9.4l-3.2-0.1c-0.4,0-0.8,0.2-1,0.6l-1.8,4.6
		c-0.1,0.2-0.1,0.5,0,0.8c0.1,0.2,0.3,0.4,0.6,0.5l7.2,2.8l-4.1,10.7c-0.2,0.5,0.1,1.1,0.6,1.3c0,0,0,0,0,0c0.1,0,0.2,0.1,0.4,0.1
		c0.4,0,0.8-0.3,0.9-0.6l4.1-10.7l7.2,2.8c0.1,0,0.2,0.1,0.4,0.1c0.1,0,0.3,0,0.4-0.1c0.2-0.1,0.4-0.3,0.5-0.6l1.8-4.6
		c0.2-0.4,0-0.9-0.3-1.1l-2.5-2l3.6-9.4l1.2-0.5c0.2-0.1,0.4-0.3,0.5-0.5l0.9-2.3C277.2,462.5,276.9,462,276.5,461.7
		C276.4,461.8,276.4,461.8,276.5,461.7"/>
</g>
<g>
	<path class="st0" d="M333.3,460.5l0.5,1.2c0.1,0.2,0.1,0.5,0,0.8l-4,10.5c-0.2,0.4-0.6,0.7-1,0.6l-3.2-0.1l-1.2,3l14.4,5.5l1.2-3
		l-2.5-2c-0.3-0.3-0.4-0.7-0.3-1.1l4-10.5c0.1-0.2,0.3-0.5,0.5-0.6l1.2-0.5l0.4-1l-9.8-3.7L333.3,460.5z"/>
	<path class="st0" d="M345.6,463l-0.9,2.3c-0.1,0.2-0.3,0.4-0.5,0.5l-1.2,0.5l-3.6,9.4l2.5,2c0.3,0.3,0.4,0.7,0.3,1.1l-1.8,4.6
		c-0.1,0.4-0.5,0.6-0.9,0.6c-0.1,0-0.2,0-0.4-0.1l-7.2-2.8l-4.1,10.7c-0.1,0.4-0.5,0.6-0.9,0.6c-0.1,0-0.2,0-0.4-0.1
		c-0.5-0.2-0.8-0.8-0.6-1.3l4.1-10.6l-7.2-2.8c-0.2-0.1-0.5-0.3-0.6-0.5c-0.1-0.2-0.1-0.5,0-0.8l1.8-4.6c0.2-0.4,0.6-0.7,1-0.6
		l3.2,0.1l3.6-9.4l-0.5-1.2c-0.1-0.2-0.1-0.5,0-0.8l0.9-2.3c0.2-0.5,0.8-0.8,1.3-0.6c0,0,0,0,0,0l11.6,4.5c0.2,0.1,0.5,0.3,0.6,0.5
		C345.8,462.5,345.8,462.8,345.6,463 M334,446.7c-15.7,0-28.4,12.7-28.4,28.3s12.7,28.4,28.3,28.4s28.4-12.7,28.4-28.3
		c0,0,0,0,0-0.1C362.3,459.3,349.6,446.7,334,446.7"/>
</g>
<g>
	<path class="st0" d="M101.5,729c-14.6,0-26.3-11.8-26.3-26.3c0-14.6,11.8-26.4,26.3-26.4s26.3,11.8,26.3,26.4l0,0
		C127.8,717.2,116,729,101.5,729 M101.5,674.3c-15.7,0-28.3,12.7-28.3,28.3c0,15.7,12.7,28.4,28.3,28.4s28.3-12.7,28.3-28.4
		c0,0,0,0,0,0C129.8,687,117.2,674.3,101.5,674.3C101.5,674.3,101.5,674.3,101.5,674.3"/>
	<path class="st0" d="M109,717.4H94l-2.5-2.5h20L109,717.4z M98,699.1h7v13.8h-2.5v-4.6c0-0.6-0.4-1-1-1s-1,0.4-1,1v4.6H98V699.1z
		 M113.9,712.9H107v-14.8c0-0.6-0.4-1-1-1h-9c-0.6,0-1,0.4-1,1v14.8h-6.9c-0.4,0-0.8,0.2-0.9,0.6c-0.2,0.4-0.1,0.8,0.2,1.1l4.5,4.5
		c0.2,0.2,0.4,0.3,0.7,0.3h15.8c0.3,0,0.5-0.1,0.7-0.3l4.5-4.5c0.4-0.4,0.4-1,0-1.4C114.4,713,114.2,712.9,113.9,712.9"/>
	<path class="st0" d="M100.2,690.9l0.2-0.3c0.1-0.2,0.6-0.7,0.9-1.2l0.2-0.3c0.1,0.1,0.1,0.2,0.2,0.3c0.3,0.5,0.8,1,0.9,1.2l0.2,0.3
		c0.1,0.1,0.1,0.3,0.1,0.4c0,0.7-0.5,1.2-1.2,1.2h-0.1h-0.2h-0.1c-0.6-0.1-1.1-0.6-1.1-1.2C100.1,691.2,100.2,691.1,100.2,690.9
		 M101,694.6h0.6c0.1,0,0.2,0,0.4,0c1.8-0.2,3.1-1.8,2.9-3.5c0-0.3-0.1-0.7-0.2-1l-0.1-0.1l-0.3-0.4c0,0-0.1-0.1-0.1-0.1
		c0,0-0.5-0.6-0.8-1.1c-0.3-0.4-0.5-0.8-0.6-1.3c0-0.6-0.6-1.1-1.2-1.2h-0.2c-0.6,0-1.2,0.5-1.2,1.2c-0.1,0.5-0.3,0.9-0.5,1.3
		c-0.4,0.5-0.8,1.1-0.8,1.1l-0.1,0.1l-0.2,0.5c0,0,0,0.1,0,0.1c-0.2,0.4-0.3,0.8-0.3,1.3C98.2,693,99.4,694.4,101,694.6"/>
</g>
<g>
	<path class="st0" d="M169,708.3c0-0.6,0.4-1,1-1s1,0.4,1,1v4.6h2.5v-13.8h-7v13.8h2.5V708.3z"/>
	<polygon class="st0" points="165.5,714.9 160.1,714.9 162.6,717.4 177.5,717.4 180,714.9 174.6,714.9 	"/>
	<path class="st0" d="M169.8,692.6h0.1h0.2h0.1c0.7-0.1,1.2-0.6,1.2-1.2c0-0.1,0-0.3-0.1-0.4l-0.2-0.3c-0.1-0.2-0.6-0.7-0.9-1.2
		c-0.1-0.1-0.1-0.2-0.2-0.3c-0.1,0.1-0.1,0.2-0.2,0.3c-0.4,0.5-0.8,1-0.9,1.2l-0.2,0.3c-0.1,0.1-0.1,0.3-0.1,0.4
		C168.7,692,169.2,692.5,169.8,692.6"/>
	<path class="st0" d="M183.1,714.6l-4.5,4.5c-0.2,0.2-0.4,0.3-0.7,0.3h-15.8c-0.3,0-0.5-0.1-0.7-0.3l-4.5-4.5c-0.4-0.4-0.4-1,0-1.4
		c0.2-0.2,0.4-0.3,0.7-0.3h6.9v-14.8c0-0.6,0.4-1,1-1h9c0.6,0,1,0.4,1,1v14.8h6.9c0.4,0,0.8,0.2,0.9,0.6
		C183.5,713.9,183.4,714.3,183.1,714.6 M166.9,690.1l0.1-0.1l0.2-0.4c0,0,0.1-0.1,0.1-0.1c0,0,0.5-0.6,0.9-1.1
		c0.2-0.4,0.4-0.8,0.5-1.3c0-0.6,0.5-1.2,1.2-1.2h0.2c0.6,0,1.2,0.5,1.2,1.1c0.1,0.5,0.3,0.9,0.6,1.3c0.3,0.5,0.9,1.1,0.9,1.1
		c0,0,0.1,0.1,0.1,0.1l0.3,0.4l0.1,0.1c0.7,1.6-0.1,3.5-1.7,4.3c-0.3,0.1-0.6,0.2-1,0.2h-0.4h-0.6c-1.6-0.2-2.9-1.6-2.9-3.2
		C166.7,690.9,166.8,690.5,166.9,690.1 M170,674.3c-15.7,0-28.3,12.7-28.3,28.3c0,15.7,12.7,28.4,28.3,28.4s28.4-12.7,28.4-28.4
		c0,0,0,0,0,0C198.3,687,185.7,674.3,170,674.3"/>
</g>
<g>
	<path class="st0" d="M429.1,143.2c-15.7,0-28.4,12.7-28.4,28.3s12.7,28.4,28.3,28.4c15.7,0,28.4-12.7,28.4-28.3c0,0,0,0,0,0
		C457.4,155.9,444.7,143.2,429.1,143.2z M429.1,197.9c-14.6,0-26.4-11.8-26.4-26.3s11.8-26.4,26.3-26.4s26.4,11.8,26.4,26.3
		c0,0,0,0,0,0C455.4,186.1,443.6,197.8,429.1,197.9z"/>
	<path class="st0" d="M445.6,167.3h-2.6v-2.6c0-0.6-0.4-1-1-1h-12V161h6.1c0.6,0,1-0.4,1-1v-4.7c0-0.6-0.4-1-1-1h-7.1
		c-0.6,0-1,0.4-1,1v8.5H416c-0.6,0-1,0.4-1,1v2.6h-2.6c-0.6,0-1,0.4-1,1v15.4c0,0.6,0.4,1,1,1h33.2c0.6,0,1-0.4,1-1v-15.4
		C446.6,167.8,446.2,167.3,445.6,167.3z M430.1,156.3h5.1v2.7h-5.1V156.3z M444.6,182.8h-26.4V179c0-0.6-0.4-1-1-1s-1,0.4-1,1v3.7
		h-2.7v-13.4h2.5c0.6,0,1-0.4,1-1v-2.6h24.1v2.6c0,0.6,0.4,1,1,1h2.6L444.6,182.8z"/>
	<path class="st0" d="M422.6,178.3c0,0-0.1-0.1-0.1-0.1c-0.1,0-0.1-0.1-0.2-0.1c-0.1,0-0.1,0-0.2-0.1c-0.2,0-0.4,0-0.6,0.1
		c-0.1,0-0.2,0.1-0.3,0.2c-0.4,0.4-0.3,1.1,0.1,1.4c0.4,0.3,0.9,0.3,1.3,0c0.3-0.3,0.4-0.7,0.2-1.1
		C422.8,178.5,422.7,178.4,422.6,178.3z"/>
	<path class="st0" d="M427.1,178.1c-0.2-0.1-0.4-0.1-0.6-0.1c-0.1,0-0.1,0-0.2,0.1c-0.1,0-0.1,0.1-0.2,0.1l-0.1,0.1
		c-0.1,0.1-0.2,0.2-0.2,0.3c-0.2,0.5,0,1.1,0.5,1.3c0.4,0.2,0.8,0.1,1.1-0.2c0.4-0.4,0.4-1,0-1.4
		C427.3,178.2,427.2,178.1,427.1,178.1z"/>
	<path class="st0" d="M432.1,178.3c-0.3-0.3-0.7-0.4-1.1-0.2c-0.1,0-0.2,0.1-0.3,0.2c-0.1,0.1-0.2,0.2-0.2,0.3
		c-0.1,0.1-0.1,0.2-0.1,0.4c0,0.6,0.4,1,1,1c0.1,0,0.3,0,0.4-0.1c0.1-0.1,0.2-0.1,0.3-0.2c0.3-0.3,0.4-0.7,0.2-1.1
		C432.3,178.5,432.2,178.4,432.1,178.3z"/>
	<path class="st0" d="M436.9,178.3l-0.2-0.1c-0.1,0-0.1-0.1-0.2-0.1c-0.1,0-0.1-0.1-0.2-0.1c-0.2,0-0.4,0-0.6,0.1
		c-0.1,0-0.2,0.1-0.3,0.2c-0.1,0.1-0.2,0.2-0.2,0.3c-0.2,0.5,0,1.1,0.5,1.3c0.5,0.2,1.1,0,1.3-0.5
		C437.2,179,437.2,178.6,436.9,178.3z"/>
	<path class="st0" d="M441.3,178.1c-0.2-0.1-0.4-0.1-0.6-0.1c-0.1,0-0.1,0-0.2,0.1c-0.1,0-0.1,0.1-0.2,0.1l-0.2,0.1
		c-0.4,0.4-0.4,1,0,1.4s1,0.4,1.4,0c0.2-0.2,0.3-0.4,0.3-0.7c0-0.3-0.1-0.5-0.3-0.7C441.5,178.2,441.4,178.1,441.3,178.1z"/>
	<path class="st0" d="M421.9,175.3c0.6,0,1-0.4,1-1c0-0.1,0-0.3-0.1-0.4c-0.1-0.1-0.1-0.2-0.2-0.3c0,0-0.1-0.1-0.1-0.1
		c-0.1,0-0.1-0.1-0.2-0.1c-0.1,0-0.1,0-0.2-0.1c-0.2,0-0.4,0-0.6,0.1c-0.1,0-0.2,0.1-0.3,0.2c-0.2,0.2-0.3,0.4-0.3,0.7
		C420.9,174.8,421.4,175.3,421.9,175.3L421.9,175.3z"/>
	<path class="st0" d="M417.9,173.6c0,0-0.1-0.1-0.1-0.1c-0.1,0-0.1-0.1-0.2-0.1c-0.1,0-0.1,0-0.2-0.1c-0.2,0-0.4,0-0.6,0.1
		c-0.2,0.1-0.4,0.3-0.5,0.5c-0.2,0.4-0.1,0.8,0.2,1.1c0.4,0.4,1,0.4,1.4,0c0.3-0.3,0.4-0.7,0.2-1.1
		C418.1,173.8,418,173.7,417.9,173.6z"/>
	<path class="st0" d="M427.1,173.3c-0.2-0.1-0.5-0.1-0.8,0c-0.1,0-0.2,0.1-0.3,0.2c-0.1,0.1-0.2,0.2-0.2,0.3c-0.2,0.5,0,1.1,0.5,1.3
		c0.4,0.2,0.8,0.1,1.1-0.2c0.2-0.2,0.3-0.4,0.3-0.7c0-0.3-0.1-0.5-0.3-0.7C427.3,173.5,427.2,173.4,427.1,173.3z"/>
	<path class="st0" d="M432.1,173.6c-0.1-0.1-0.2-0.2-0.3-0.2c-0.2-0.1-0.4-0.1-0.6-0.1c-0.1,0-0.1,0-0.2,0.1l-0.2,0.1l-0.1,0.1
		c-0.1,0.1-0.2,0.2-0.2,0.3c-0.2,0.5,0,1.1,0.5,1.3c0.4,0.2,0.8,0.1,1.1-0.2c0.3-0.3,0.4-0.7,0.2-1.1
		C432.3,173.8,432.2,173.6,432.1,173.6z"/>
	<path class="st0" d="M436.9,173.6c0-0.1-0.1-0.1-0.1-0.1c-0.1,0-0.1-0.1-0.2-0.1c-0.1,0-0.1-0.1-0.2-0.1c-0.2,0-0.4,0-0.6,0.1
		c-0.1,0-0.2,0.1-0.3,0.2c-0.1,0.1-0.2,0.2-0.2,0.3c-0.2,0.4-0.1,0.8,0.2,1.1c0.1,0.1,0.2,0.2,0.3,0.2c0.1,0,0.2,0.1,0.4,0.1
		c0.3,0,0.5-0.1,0.7-0.3c0.3-0.3,0.4-0.7,0.2-1.1C437,173.8,437,173.6,436.9,173.6z"/>
	<path class="st0" d="M441.6,173.6l-0.2-0.1c-0.1,0-0.1-0.1-0.2-0.1c-0.1,0-0.1-0.1-0.2-0.1c-0.2,0-0.4,0-0.6,0.1
		c-0.1,0-0.2,0.1-0.3,0.2c-0.2,0.2-0.3,0.4-0.3,0.7c0,0.6,0.4,1,1,1c0.3,0,0.5-0.1,0.7-0.3c0.2-0.2,0.3-0.4,0.3-0.7
		C441.9,174,441.8,173.7,441.6,173.6L441.6,173.6z"/>
	<path class="st0" d="M422.6,168.8c-0.4-0.4-1-0.4-1.4,0c-0.1,0.1-0.2,0.2-0.2,0.3c-0.2,0.5,0,1.1,0.5,1.3c0.1,0.1,0.3,0.1,0.4,0.1
		c0.3,0,0.5-0.1,0.7-0.3c0.3-0.3,0.4-0.7,0.2-1.1C422.8,169,422.7,168.9,422.6,168.8z"/>
	<path class="st0" d="M426.3,170.4c0.1,0.1,0.3,0.1,0.4,0.1c0.6,0,1-0.5,1-1c0-0.1,0-0.3-0.1-0.4c-0.1-0.1-0.1-0.2-0.2-0.3
		c0,0-0.1-0.1-0.1-0.1c-0.1,0-0.1-0.1-0.2-0.1c-0.1,0-0.1-0.1-0.2-0.1c-0.2,0-0.4,0-0.6,0.1c-0.1,0-0.2,0.1-0.3,0.2
		c-0.1,0.1-0.2,0.2-0.2,0.3C425.6,169.6,425.8,170.2,426.3,170.4L426.3,170.4z"/>
	<path class="st0" d="M432.1,168.8c-0.3-0.3-0.7-0.4-1.1-0.2c-0.1,0-0.2,0.1-0.3,0.2c-0.1,0.1-0.2,0.2-0.2,0.3
		c-0.1,0.2-0.1,0.5,0,0.8c0.1,0.1,0.1,0.2,0.2,0.3c0.1,0.1,0.2,0.2,0.3,0.2c0.1,0.1,0.3,0.1,0.4,0.1c0.6,0,1-0.5,1-1
		C432.4,169.3,432.3,169,432.1,168.8L432.1,168.8z"/>
	<path class="st0" d="M436.9,168.8c0,0-0.1-0.1-0.1-0.1c-0.1,0-0.1-0.1-0.2-0.1c-0.1,0-0.1-0.1-0.2-0.1c-0.1,0-0.3,0-0.4,0l-0.2,0.1
		l-0.2,0.1l-0.1,0.1c-0.1,0.1-0.2,0.2-0.2,0.3c-0.2,0.4-0.1,0.8,0.2,1.1c0.2,0.2,0.4,0.3,0.7,0.3c0.6,0,1-0.5,1-1
		C437.2,169.3,437.1,169,436.9,168.8L436.9,168.8z"/>
</g>
<g>
	<path class="st0" d="M510.2,179.7c-0.4,0.4-1,0.4-1.4,0c-0.3-0.3-0.4-0.7-0.2-1.1c0.1-0.1,0.1-0.2,0.2-0.3c0,0,0.1-0.1,0.1-0.1
		c0.1,0,0.1-0.1,0.2-0.1c0.1,0,0.1,0,0.2-0.1c0.2,0,0.4,0,0.6,0.1c0.2,0.1,0.4,0.3,0.5,0.5C510.5,179,510.4,179.4,510.2,179.7
		 M505.4,170.2c-0.2,0.2-0.4,0.3-0.7,0.3c-0.1,0-0.3,0-0.4-0.1c-0.1,0-0.2-0.1-0.3-0.2c-0.4-0.4-0.4-1,0-1.4c0,0,0,0,0,0
		c0.4-0.4,1-0.4,1.4,0c0.1,0.1,0.2,0.2,0.2,0.3C505.8,169.5,505.7,169.9,505.4,170.2 M505.4,175c-0.4,0.4-1,0.4-1.4,0
		c-0.3-0.3-0.4-0.7-0.2-1.1c0.1-0.1,0.1-0.2,0.2-0.3c0.1-0.1,0.2-0.2,0.3-0.2c0.2-0.1,0.5-0.1,0.8,0c0.1,0,0.2,0.1,0.3,0.2
		c0.2,0.2,0.3,0.4,0.3,0.7C505.7,174.5,505.6,174.8,505.4,175 M505.4,179.7c-0.4,0.4-1,0.4-1.4,0c-0.3-0.3-0.4-0.7-0.2-1.1
		c0.1-0.1,0.1-0.2,0.2-0.3c0.1-0.1,0.2-0.2,0.3-0.2c0.2-0.1,0.5-0.1,0.8,0c0.1,0,0.2,0.1,0.3,0.2
		C505.8,178.7,505.8,179.3,505.4,179.7 M500.9,169.9c-0.1,0.1-0.1,0.2-0.2,0.3c-0.2,0.2-0.4,0.3-0.7,0.3c-0.1,0-0.3,0-0.4-0.1
		c-0.1,0-0.2-0.1-0.3-0.2c-0.2-0.2-0.3-0.4-0.3-0.7c0-0.3,0.1-0.5,0.3-0.7c0.4-0.4,1-0.4,1.4,0c0.2,0.2,0.3,0.4,0.3,0.7
		C501,169.7,501,169.8,500.9,169.9 M499,174.3c0-0.1,0-0.3,0.1-0.4c0.1-0.2,0.3-0.4,0.5-0.5c0.2-0.1,0.4-0.1,0.6-0.1
		c0.1,0,0.1,0,0.2,0.1c0.1,0,0.1,0.1,0.2,0.1c0.1,0,0.1,0.1,0.1,0.1c0.1,0.1,0.2,0.2,0.2,0.3c0.2,0.5,0,1.1-0.5,1.3
		c-0.4,0.2-0.8,0.1-1.1-0.2C499.1,174.8,499,174.5,499,174.3 M500.7,179.7c-0.3,0.3-0.7,0.4-1.1,0.2c-0.1-0.1-0.2-0.1-0.3-0.2
		c-0.3-0.3-0.4-0.7-0.2-1.1c0.1-0.2,0.3-0.4,0.5-0.5c0.2-0.1,0.5-0.1,0.8,0c0.1,0,0.2,0.1,0.3,0.2c0.1,0.1,0.2,0.2,0.2,0.3
		C501.1,179,501,179.4,500.7,179.7 M508.8,173.6c0.1-0.1,0.2-0.2,0.3-0.2c0.5-0.2,1.1,0,1.3,0.5c0,0,0,0,0,0
		c0.2,0.4,0.1,0.8-0.2,1.1c-0.1,0.1-0.2,0.2-0.3,0.2c-0.4,0.2-0.8,0.1-1.1-0.2c-0.2-0.2-0.3-0.4-0.3-0.7
		C508.5,174,508.6,173.7,508.8,173.6 M496,170.2c-0.2,0.2-0.4,0.3-0.7,0.3c-0.6,0-1-0.5-1-1c0-0.4,0.2-0.8,0.6-0.9
		c0.4-0.2,0.8-0.1,1.1,0.2c0.1,0.1,0.2,0.2,0.2,0.3C496.3,169.5,496.3,169.9,496,170.2 M496,175c-0.1,0.1-0.2,0.2-0.3,0.2
		c-0.1,0-0.3,0.1-0.4,0.1c-0.1,0-0.3,0-0.4-0.1c-0.1-0.1-0.2-0.1-0.3-0.2c-0.3-0.3-0.4-0.7-0.2-1.1c0-0.1,0.1-0.2,0.2-0.3
		c0-0.1,0.1-0.1,0.1-0.1c0.1,0,0.1-0.1,0.2-0.1c0.1,0,0.1-0.1,0.2-0.1c0.1,0,0.3,0,0.4,0c0.1,0,0.1,0,0.2,0.1c0.1,0,0.1,0.1,0.2,0.1
		l0.1,0.1c0.1,0.1,0.2,0.2,0.2,0.3C496.3,174.3,496.3,174.7,496,175 M496,179.7c-0.1,0.1-0.2,0.2-0.3,0.2c-0.1,0-0.3,0.1-0.4,0.1
		c-0.6,0-1-0.5-1-1c0-0.3,0.1-0.5,0.3-0.7c0.1-0.1,0.2-0.2,0.3-0.2c0.2-0.1,0.5-0.1,0.8,0c0.1,0,0.1,0.1,0.2,0.1l0.1,0.1
		c0.1,0.1,0.2,0.2,0.2,0.3C496.3,179,496.3,179.4,496,179.7 M491.2,170.2c-0.1,0.1-0.2,0.2-0.3,0.2c-0.1,0.1-0.2,0.1-0.4,0.1
		c-0.6,0-1-0.5-1-1c0-0.1,0-0.3,0.1-0.4c0.1-0.1,0.1-0.2,0.2-0.3c0,0,0.1-0.1,0.1-0.1c0.1,0,0.1-0.1,0.2-0.1c0.1,0,0.1-0.1,0.2-0.1
		c0.3-0.1,0.7,0,0.9,0.3c0.1,0.1,0.2,0.2,0.2,0.3C491.6,169.5,491.5,169.9,491.2,170.2 M491.2,175c-0.2,0.2-0.4,0.3-0.7,0.3
		c-0.3,0-0.5-0.1-0.7-0.3c-0.3-0.3-0.4-0.7-0.2-1.1c0-0.1,0.1-0.2,0.2-0.3c0-0.1,0.1-0.1,0.1-0.1c0.1,0,0.1-0.1,0.2-0.1
		c0.1,0,0.1-0.1,0.2-0.1c0.2,0,0.4,0,0.6,0.1c0.1,0,0.2,0.1,0.3,0.2c0.1,0.1,0.2,0.2,0.2,0.3C491.6,174.3,491.5,174.7,491.2,175
		 M491.2,179.7c-0.2,0.2-0.4,0.3-0.7,0.3c-0.3,0-0.5-0.1-0.7-0.3c-0.3-0.3-0.4-0.7-0.2-1.1c0-0.1,0.1-0.2,0.2-0.3
		c0-0.1,0.1-0.1,0.1-0.1c0.1,0,0.1-0.1,0.2-0.1c0.1,0,0.1-0.1,0.2-0.1c0.2,0,0.4,0,0.6,0.1c0.1,0,0.2,0.1,0.3,0.2
		C491.6,178.7,491.6,179.3,491.2,179.7 M486.5,175c-0.2,0.2-0.4,0.3-0.7,0.3c-0.3,0-0.5-0.1-0.7-0.3c-0.3-0.3-0.4-0.7-0.2-1.1
		c0.1-0.2,0.3-0.4,0.5-0.5c0.2-0.1,0.5-0.1,0.8,0c0.1,0,0.2,0.1,0.3,0.2c0.2,0.2,0.3,0.4,0.3,0.7C486.8,174.6,486.6,174.8,486.5,175
		 M509.6,168.4v-2.6h-24.1v2.6c0,0.6-0.4,1-1,1H482v13.4h2.7V179c0-0.6,0.4-1,1-1s1,0.4,1,1v3.7h26.5v-13.4h-2.6
		C510.1,169.3,509.6,168.9,509.6,168.4"/>
	<rect x="498.6" y="156.3" class="st0" width="5.1" height="2.7"/>
	<path class="st0" d="M515.2,183.7c0,0.6-0.4,1-1,1H481c-0.6,0-1-0.4-1-1v-15.4c0-0.6,0.4-1,1-1h2.6v-2.6c0-0.6,0.4-1,1-1h12v-8.5
		c0-0.6,0.4-1,1-1h7.1c0.6,0,1,0.4,1,1v4.7c0,0.6-0.4,1-1,1h-6.1v2.7h12c0.6,0,1,0.4,1,1v2.6h2.6c0.6,0,1,0.4,1,1L515.2,183.7z
		 M497.6,143.2c-15.7,0-28.3,12.7-28.3,28.4c0,15.7,12.7,28.3,28.4,28.3c15.6,0,28.3-12.7,28.3-28.3
		C526,155.9,513.3,143.2,497.6,143.2"/>
</g>
<g>
	<path class="st0" d="M429.1,349.4c-14.6,0-26.4-11.8-26.4-26.3c0-14.6,11.8-26.4,26.3-26.4c14.6,0,26.4,11.8,26.4,26.3c0,0,0,0,0,0
		C455.4,337.6,443.6,349.4,429.1,349.4 M429.1,294.8c-15.7,0-28.4,12.7-28.4,28.3c0,15.7,12.7,28.4,28.3,28.4
		c15.7,0,28.4-12.7,28.4-28.3c0,0,0,0,0,0C457.4,307.4,444.7,294.8,429.1,294.8"/>
	<path class="st0" d="M416.2,337.8l1.4-2.8h22.8l1.4,2.8H416.2z M442,333.5c-0.2-0.3-0.5-0.5-0.9-0.5H417c-0.4,0-0.7,0.2-0.9,0.5
		l-2.4,4.8c-0.2,0.3-0.1,0.7,0,1c0.2,0.3,0.5,0.5,0.9,0.5h28.9c0.6,0,1-0.5,1-1c0-0.2,0-0.3-0.1-0.4L442,333.5z"/>
	<path class="st0" d="M429.1,308.6l9.3,5.1h-18.6L429.1,308.6z M415.8,315.7h26.5c0.5,0,0.9-0.3,1-0.8c0.1-0.4-0.1-0.9-0.5-1.1
		l-13.2-7.2c-0.3-0.2-0.7-0.2-1,0l-13.2,7.2c-0.5,0.3-0.7,0.9-0.4,1.4C415.1,315.5,415.4,315.7,415.8,315.7"/>
	<path class="st0" d="M417.2,319.5v9.6c0,0.6,0.4,1,1,1s1-0.4,1-1v-9.6c0-0.6-0.4-1-1-1S417.2,318.9,417.2,319.5"/>
	<path class="st0" d="M424.5,319.5v9.6c0,0.6,0.4,1,1,1s1-0.4,1-1v-9.6c0-0.6-0.4-1-1-1S424.5,318.9,424.5,319.5"/>
	<path class="st0" d="M431.7,319.5v9.6c0,0.6,0.4,1,1,1s1-0.4,1-1v-9.6c0-0.6-0.4-1-1-1S431.7,318.9,431.7,319.5"/>
	<path class="st0" d="M438.9,319.5v9.6c0,0.6,0.4,1,1,1s1-0.4,1-1v-9.6c0-0.6-0.4-1-1-1S438.9,318.9,438.9,319.5"/>
</g>
<g>
	<path class="st0" d="M512.9,339.3c-0.2,0.3-0.5,0.5-0.8,0.5h-28.9c-0.6,0-1-0.4-1-1c0-0.2,0-0.3,0.1-0.5l2.4-4.8
		c0.2-0.3,0.5-0.5,0.9-0.5h24.1c0.4,0,0.7,0.2,0.9,0.5l2.5,4.8C513.2,338.6,513.1,339,512.9,339.3 M487.8,319.5v9.6c0,0.6-0.4,1-1,1
		s-1-0.4-1-1v-9.6c0-0.6,0.4-1,1-1S487.8,319,487.8,319.5 M495,319.5v9.6c0,0.6-0.4,1-1,1s-1-0.4-1-1v-9.6c0-0.6,0.4-1,1-1
		S495,319,495,319.5 M502.3,319.5v9.6c0,0.6-0.4,1-1,1s-1-0.4-1-1v-9.6c0-0.6,0.4-1,1-1S502.3,319,502.3,319.5 M509.5,319.5v9.6
		c0,0.6-0.4,1-1,1s-1-0.4-1-1v-9.6c0-0.6,0.4-1,1-1S509.5,319,509.5,319.5 M483.9,313.8l13.2-7.2c0.3-0.2,0.7-0.2,1,0l13.2,7.2
		c0.4,0.2,0.6,0.7,0.5,1.1c-0.1,0.5-0.5,0.8-1,0.8h-26.5c-0.5,0-0.9-0.3-1-0.8C483.2,314.5,483.4,314,483.9,313.8 M497.6,294.8
		c-15.7,0-28.3,12.8-28.3,28.4c0,15.7,12.8,28.3,28.4,28.3c15.7,0,28.3-12.8,28.3-28.4c0-15.7-12.7-28.3-28.3-28.4
		C497.7,294.8,497.7,294.8,497.6,294.8"/>
	<polygon class="st0" points="486.2,334.9 484.8,337.8 510.4,337.8 509,334.9 	"/>
	<polygon class="st0" points="497.6,308.6 488.3,313.7 506.9,313.7 	"/>
</g>
<g>
	<path class="st0" d="M429.1,219.1c-15.7,0-28.4,12.7-28.4,28.3c0,15.7,12.7,28.4,28.3,28.4c15.7,0,28.4-12.7,28.4-28.3c0,0,0,0,0,0
		C457.4,231.7,444.7,219.1,429.1,219.1z M429.1,273.7c-14.6,0-26.4-11.8-26.4-26.3S414.5,221,429,221s26.4,11.8,26.4,26.3
		c0,0,0,0,0,0C455.4,261.9,443.6,273.7,429.1,273.7z"/>
	<path class="st0" d="M415.6,251.3h26.9c0.6,0,1-0.4,1-1s-0.4-1-1-1h-4.3v-3.1c0-0.6-0.4-1-1-1s-1,0.4-1,1v3.1h-3.4v-3.1
		c0-0.6-0.4-1-1-1s-1,0.4-1,1v3.1h-3.4v-3.1c0-0.6-0.4-1-1-1s-1,0.4-1,1v3.1h-3.4v-3.1c0-0.6-0.4-1-1-1s-1,0.4-1,1v3.1h-4.3
		c-0.6,0-1,0.4-1,1S415,251.3,415.6,251.3L415.6,251.3z"/>
	<path class="st0" d="M418.8,244.3h20.4c0.6,0,1-0.4,1-1s-0.4-1-1-1h-1.3c-1.1-3.5-4.2-6.1-7.9-6.5v-3.1c0-0.6-0.4-1-1-1s-1,0.4-1,1
		v3.1c-3.7,0.4-6.8,2.9-7.9,6.5h-1.3c-0.6,0-1,0.4-1,1S418.2,244.3,418.8,244.3z M429,237.8c3,0,5.6,1.8,6.8,4.5h-13.6
		C423.4,239.6,426,237.8,429,237.8z"/>
	<path class="st0" d="M444,261.1h-2.6v-7.7c0-0.6-0.4-1-1-1s-1,0.4-1,1v7.7h-3.8v-7.7c0-0.6-0.4-1-1-1s-1,0.4-1,1v7.7h-3.8v-7.7
		c0-0.6-0.4-1-1-1s-1,0.4-1,1v7.7h-3.8v-7.7c0-0.6-0.4-1-1-1s-1,0.4-1,1v7.7h-3.8v-7.7c0-0.6-0.4-1-1-1s-1,0.4-1,1v7.7h-2.3
		c-0.6,0-1,0.4-1,1s0.4,1,1,1h30c0.6,0,1-0.4,1-1S444.6,261.1,444,261.1L444,261.1z"/>
</g>
<g>
	<path class="st0" d="M490.8,242.3h13.6c-1.6-3.8-5.9-5.5-9.6-4C492.9,239.1,491.5,240.5,490.8,242.3 M513.6,262.1c0,0.6-0.4,1-1,1
		h-30c-0.6,0-1-0.4-1-1s0.4-1,1-1h2.3v-7.7c0-0.6,0.4-1,1-1s1,0.4,1,1v7.7h3.8v-7.7c0-0.6,0.4-1,1-1s1,0.4,1,1v7.7h3.8v-7.7
		c0-0.6,0.4-1,1-1s1,0.4,1,1v7.7h3.8v-7.7c0-0.6,0.4-1,1-1s1,0.4,1,1v7.7h3.8v-7.7c0-0.6,0.4-1,1-1s1,0.4,1,1v7.7h2.6
		C513.1,261.1,513.6,261.6,513.6,262.1 M512,250.3c0,0.6-0.4,1-1,1h-26.9c-0.6,0-1-0.4-1-1s0.4-1,1-1h4.3v-3.1c0-0.6,0.4-1,1-1
		s1,0.4,1,1v3.1h3.4v-3.1c0-0.6,0.4-1,1-1s1,0.4,1,1v3.1h3.4v-3.1c0-0.6,0.4-1,1-1s1,0.4,1,1v3.1h3.4v-3.1c0-0.6,0.4-1,1-1
		s1,0.4,1,1v3.1h4.3C511.6,249.3,512,249.8,512,250.3 M508.8,243.3c0,0.6-0.4,1-1,1h-20.4c-0.6,0-1-0.4-1-1s0.4-1,1-1h1.3
		c1.1-3.5,4.2-6,7.9-6.4v-3.2c0-0.6,0.4-1,1-1s1,0.4,1,1v3.2c3.7,0.4,6.7,2.9,7.9,6.4h1.3C508.3,242.3,508.8,242.8,508.8,243.3
		 M526,247.4c0-15.7-12.7-28.4-28.4-28.4s-28.3,12.7-28.4,28.3c0,15.7,12.7,28.4,28.4,28.4c0,0,0,0,0,0
		C513.3,275.8,526,263.1,526,247.4C526,247.5,526,247.4,526,247.4"/>
</g>
<g>
	<path class="st0" d="M265.4,750.2c-15.7,0-28.4,12.7-28.4,28.3c0,15.7,12.7,28.4,28.3,28.4c15.7,0,28.4-12.7,28.4-28.3c0,0,0,0,0,0
		C293.7,762.8,281,750.2,265.4,750.2L265.4,750.2z M265.4,804.8c-14.6,0-26.4-11.8-26.4-26.3c0-14.6,11.8-26.4,26.3-26.4
		c14.6,0,26.4,11.8,26.4,26.3c0,0,0,0,0,0C291.7,793,279.9,804.8,265.4,804.8z"/>
	<path class="st0" d="M282,771.7l-6.1-2.2l3.3-3.3c0.4-0.4,0.5-1,0.1-1.4c-0.4-0.4-1-0.5-1.4-0.1c0,0-0.1,0.1-0.1,0.1l-4,4l-8-2.9
		c-0.2-0.1-0.5-0.1-0.7,0l-16.2,5.9c-0.4,0.1-0.7,0.5-0.7,0.9c0,0.4,0.2,0.8,0.6,0.9l6.3,2.7l-1.1,7.9c0,0.2,0,0.4,0.1,0.6
		c0.5,0.7,1,1.3,1.6,1.9l-4.1,4.1c-0.4,0.4-0.4,1,0,1.4c0,0,0,0,0,0c0.4,0.4,1,0.4,1.4,0c0,0,0,0,0,0l4.3-4.3c2.4,1.4,5,2.1,7.8,2
		h0.3c4.3,0,8.3-1.9,11.2-5.1c0.2-0.2,0.2-0.5,0.2-0.8l-1-7.8c0,0,0-0.1,0-0.1l3.8-1.6v14.3c0,0.6,0.4,1,1,1s1-0.4,1-1v-15.2
		l0.5-0.2c0.4-0.2,0.6-0.5,0.6-1C282.7,772.2,282.4,771.8,282,771.7z M265.4,767.9l6.8,2.4l-7.8,7.8l-12.5-5.3L265.4,767.9z
		 M256,784.1l0.9-7l5.9,2.5l-5.7,5.7C256.7,784.9,256.3,784.5,256,784.1z M274.8,783.9c-2.5,2.5-5.8,4-9.4,4
		c-2.3,0.1-4.5-0.4-6.5-1.5l6-6l0.1,0.1c0.1,0.1,0.3,0.1,0.4,0.1c0.1,0,0.3,0,0.4-0.1l8-3.5L274.8,783.9z M267.9,777.4l6.4-6.4
		l4.6,1.7L267.9,777.4z"/>
</g>
<g>
	<path class="st0" d="M429.1,370.8c-15.7,0-28.4,12.7-28.4,28.3c0,15.7,12.7,28.4,28.3,28.4c15.7,0,28.4-12.7,28.4-28.3c0,0,0,0,0,0
		C457.4,383.5,444.7,370.8,429.1,370.8z M429.1,425.5c-14.6,0-26.4-11.8-26.4-26.3c0-14.6,11.8-26.4,26.3-26.4
		c14.6,0,26.4,11.8,26.4,26.3c0,0,0,0,0,0C455.4,413.7,443.6,425.5,429.1,425.5z"/>
	<path class="st0" d="M444.2,394.2c-4.1-2.9-10,0.4-10.3,0.5c-0.5,0.3-0.6,0.9-0.4,1.4c0.3,0.5,0.9,0.6,1.4,0.4c0,0,0,0,0,0
		c0,0,5-2.9,8.1-0.6l0.1,0c0.1,0.1,2.1,1.3,2.2,4.7c-1.5-0.1-3-0.1-4.4,0c-6.3,0.4-7.5,3.9-7.6,5.9c-0.3,4.5,2.8,6,4.6,6.2
		c3.1,0.2,5.5-0.4,7.2-2l0.3-0.3v1.8c0,0.6,0.4,1,1,1s1-0.4,1-1V401C447.4,396.4,444.7,394.5,444.2,394.2z M445.4,404.8
		c0,0,0,0.1,0,0.1v0.2c0,1.6-0.6,3-1.7,4.2c-1.2,1.2-3.1,1.7-5.6,1.5c-0.1,0-3-0.4-2.8-4.1c0.2-2.5,2.1-3.8,5.9-4.1
		c0.3,0,0.8,0,1.4,0c1,0,2.3,0,2.9,0.1L445.4,404.8z"/>
	<path class="st0" d="M421.7,385.5c-0.1-0.4-0.5-0.7-1-0.7c-0.4,0-0.8,0.3-1,0.7l-9,26.7c-0.2,0.5,0.1,1.1,0.6,1.3c0,0,0,0,0,0
		c0.1,0,0.2,0,0.3,0c0.4,0,0.9-0.3,1-0.7l3-9h9.9l2.9,9c0.2,0.5,0.8,0.8,1.3,0.6c0.5-0.2,0.8-0.7,0.6-1.2L421.7,385.5z M416.4,401.9
		l4.3-12.9l4.2,12.9L416.4,401.9z"/>
</g>
<g>
	<path class="st0" d="M333.4,780.5l-6,6c2,1.1,4.3,1.6,6.5,1.5c3.5,0,6.9-1.5,9.4-4l-0.9-6.8l-8,3.5c-0.1,0.1-0.3,0.1-0.4,0.1
		c-0.1,0-0.3,0-0.4-0.1L333.4,780.5z M325.7,785.3l5.7-5.7l-5.9-2.5l-0.9,7C324.9,784.5,325.3,785,325.7,785.3 M332.9,778.1l7.8-7.8
		l-6.8-2.4l-13.5,4.9L332.9,778.1z M336.4,777.5l11-4.7l-4.6-1.7L336.4,777.5z M351.2,772.6c0,0.4-0.2,0.8-0.6,1l-0.5,0.2v15.2
		c0,0.6-0.4,1-1,1s-1-0.4-1-1v-14.3l-3.8,1.6c0,0,0,0.1,0,0.1l1,7.8c0,0.3,0,0.5-0.2,0.8c-2.8,3.2-6.8,5-11.1,5.1h-0.3
		c-2.7,0.1-5.4-0.6-7.8-2l-4.3,4.3c-0.4,0.4-1,0.4-1.4,0c-0.4-0.4-0.4-1,0-1.4l4.1-4.1c-0.6-0.5-1.2-1.2-1.6-1.9
		c-0.1-0.2-0.2-0.4-0.1-0.6l1-7.9l-6.3-2.7c-0.5-0.2-0.7-0.8-0.5-1.3c0.1-0.3,0.3-0.5,0.6-0.5l16.2-5.9c0.2-0.1,0.5-0.1,0.7,0l8,2.9
		l4-4c0.4-0.4,1-0.5,1.4-0.1c0.4,0.4,0.5,1,0.1,1.4c0,0-0.1,0.1-0.1,0.1l-3.3,3.3l6.1,2.2C350.9,771.8,351.2,772.2,351.2,772.6
		 M362.3,778.5c0-15.7-12.7-28.4-28.3-28.4c-15.7,0-28.4,12.7-28.4,28.3c0,15.7,12.7,28.4,28.3,28.4c0,0,0,0,0,0
		C349.6,806.8,362.3,794.1,362.3,778.5C362.3,778.5,362.3,778.5,362.3,778.5"/>
</g>
<g>
	<path class="st0" d="M493.4,401.9l-4.2-12.9l-4.4,12.9L493.4,401.9z M514,404.9c0,0,0-0.1,0-0.1v-2.2c-0.6,0-1.8-0.1-2.9-0.1
		c-0.6,0-1.1,0-1.4,0c-3.8,0.2-5.7,1.6-5.9,4.1c-0.2,3.7,2.6,4.1,2.8,4.1c2.5,0.2,4.4-0.3,5.6-1.5c1.1-1.1,1.7-2.6,1.7-4.2
		L514,404.9z M516,412.1c0,0.6-0.4,1-1,1s-1-0.4-1-1v-1.8l-0.3,0.3c-1.7,1.6-4.1,2.3-7.2,2c-1.7-0.2-4.9-1.8-4.6-6.2
		c0.1-2,1.3-5.5,7.6-5.9c1.5-0.1,3,0,4.4,0c-0.2-3.4-2.1-4.6-2.2-4.7l-0.1,0c-3.1-2.2-8.1,0.6-8.1,0.6c-0.5,0.3-1.1,0.1-1.4-0.4
		s-0.1-1.1,0.4-1.4c0.2-0.1,6.1-3.5,10.3-0.5c0.5,0.3,3.2,2.2,3.2,6.8L516,412.1z M498.2,413.4c-0.1,0-0.2,0.1-0.3,0
		c-0.4,0-0.8-0.3-1-0.7l-2.9-9h-9.9l-3,9c-0.1,0.5-0.7,0.9-1.2,0.7c-0.5-0.1-0.9-0.7-0.7-1.2c0,0,0-0.1,0-0.1l9-26.7
		c0.1-0.4,0.5-0.7,1-0.7c0.4,0,0.8,0.3,1,0.7l8.7,26.7C499.1,412.7,498.8,413.3,498.2,413.4 M526,399.1c0-15.7-12.7-28.4-28.4-28.4
		c-15.7,0-28.4,12.7-28.4,28.4c0,15.7,12.7,28.4,28.4,28.4c0,0,0,0,0,0C513.3,427.5,526,414.8,526,399.1
		C526,399.1,526,399.1,526,399.1"/>
</g>
<g>
	<path class="st0" d="M101.5,750.2c-15.7,0-28.3,12.7-28.3,28.3c0,15.7,12.7,28.4,28.3,28.4s28.3-12.7,28.3-28.4c0,0,0,0,0,0
		C129.8,762.8,117.2,750.2,101.5,750.2C101.5,750.2,101.5,750.2,101.5,750.2z M101.5,804.8c-14.6,0-26.3-11.8-26.3-26.3
		c0-14.6,11.8-26.4,26.3-26.4s26.3,11.8,26.3,26.4l0,0C127.8,793,116,804.8,101.5,804.8z"/>
	<path class="st0" d="M117.6,766.3H85.4c-0.6,0-1,0.4-1,1v22.5c0,0.6,0.4,1,1,1h32.3c0.6,0,1-0.4,1-1v-22.5
		C118.6,766.7,118.2,766.3,117.6,766.3L117.6,766.3z M116.6,788.7H86.4v-20.5h30.3L116.6,788.7z"/>
	<path class="st0" d="M113.6,779.3c0-0.1,0.1-0.2,0.1-0.3c0.1-0.2,0.2-0.5,0.2-0.8c0-0.2,0-0.3-0.1-0.4c-0.2-0.2-0.4-0.5-0.6-0.6
		c-0.1,0-0.2-0.1-0.2-0.2c0-0.1,0-0.2,0-0.3c0-0.3-0.1-0.6-0.2-0.8c-0.1-0.1-0.2-0.2-0.3-0.3c-0.2-0.1-0.5-0.2-0.8-0.2
		c-0.1,0-0.2,0-0.3,0c-0.1-0.1-0.1-0.2-0.2-0.2c-0.1-0.3-0.4-0.5-0.6-0.6c-0.1-0.1-0.3-0.1-0.5-0.1c-0.3,0-0.5,0.1-0.8,0.2
		c-0.1,0.1-0.2,0.1-0.3,0.1c-0.1,0-0.2,0-0.3-0.1c-0.2-0.1-0.5-0.2-0.8-0.2c-0.4,0-0.8,0.3-1.1,0.7l-0.1,0.2h-0.2h-0.1
		c-0.3,0-0.6,0.1-0.8,0.2c-0.1,0.1-0.2,0.2-0.3,0.3c-0.1,0.2-0.2,0.5-0.2,0.8c0,0.1,0,0.2,0,0.3c-0.1,0.1-0.2,0.1-0.2,0.2
		c-0.3,0.1-0.5,0.4-0.7,0.6c-0.1,0.1-0.1,0.3-0.1,0.4c0,0.3,0.1,0.5,0.2,0.8c0.1,0.1,0.1,0.2,0.1,0.3c0,0.1-0.1,0.2-0.1,0.3
		c-0.1,0.2-0.2,0.5-0.2,0.8c0,0.2,0,0.3,0.1,0.5c0.2,0.2,0.4,0.4,0.6,0.6l0.2,0.2c0,0.1,0,0.2,0,0.3c0,0.3,0.1,0.6,0.2,0.9
		c0.2,0.3,0.5,0.4,0.8,0.5v3.6c0,0.4,0.2,0.7,0.5,0.9c0.1,0.1,0.3,0.1,0.5,0.1c0.2,0,0.4-0.1,0.6-0.2l1.3-0.9l1.3,0.9
		c0.2,0.1,0.4,0.2,0.6,0.2c0.6,0,1-0.4,1-1v-3.6c0.2,0,0.4-0.1,0.6-0.2c0.1-0.1,0.2-0.2,0.3-0.3c0.1-0.2,0.2-0.5,0.2-0.8
		c0-0.1,0-0.2,0-0.3c0.1-0.1,0.2-0.1,0.2-0.2l0,0c0.3-0.1,0.5-0.4,0.6-0.6c0.1-0.1,0.1-0.3,0.1-0.4c0-0.3-0.1-0.5-0.2-0.8
		C113.6,779.5,113.6,779.4,113.6,779.3z M106.3,778.6c0.2-0.2,0.4-0.3,0.5-0.6c0.1-0.2,0.2-0.4,0.2-0.7c0.2,0,0.5-0.1,0.7-0.2
		c0.2-0.1,0.4-0.3,0.6-0.5c0.5,0.1,1,0.1,1.4,0c0.2,0.2,0.3,0.4,0.6,0.5c0.2,0.1,0.5,0.2,0.7,0.2c0,0.2,0.1,0.5,0.2,0.7
		c0.1,0.2,0.3,0.4,0.5,0.6c-0.2,0.5-0.2,1,0,1.5c-0.2,0.2-0.3,0.3-0.5,0.5c-0.1,0.2-0.2,0.4-0.2,0.7c-0.2,0-0.5,0.1-0.7,0.2
		c-0.2,0.1-0.4,0.3-0.6,0.5c-0.5-0.1-1-0.1-1.4,0c-0.3-0.4-0.8-0.6-1.2-0.7c0-0.2-0.1-0.5-0.2-0.7c-0.1-0.2-0.3-0.4-0.5-0.5
		C106.5,779.6,106.5,779.1,106.3,778.6L106.3,778.6z M109.6,784.7c-0.1-0.1-0.3-0.1-0.4-0.2h-0.3c-0.2,0-0.3,0.1-0.4,0.2l-0.3,0.2
		v-0.7c0.2,0,0.4-0.1,0.6-0.2l0.3-0.1c0.1,0,0.2,0,0.3,0.1c0.2,0.1,0.4,0.1,0.6,0.2v0.8L109.6,784.7z"/>
	<path class="st0" d="M109,781.5c1.2,0,2.2-1,2.2-2.2s-1-2.2-2.2-2.2c-1.2,0-2.2,1-2.2,2.2c0,0,0,0,0,0
		C106.8,780.5,107.8,781.5,109,781.5z"/>
	<path class="st0" d="M89,772.6h25c0.6,0,1-0.4,1-1s-0.4-1-1-1H89c-0.6,0-1,0.4-1,1S88.4,772.6,89,772.6z"/>
	<path class="st0" d="M99.6,776.9H89c-0.6,0-1,0.4-1,1s0.4,1,1,1h10.6c0.6,0,1-0.4,1-1S100.1,776.9,99.6,776.9z"/>
	<path class="st0" d="M99.6,780H89c-0.6,0-1,0.4-1,1s0.4,1,1,1h10.6c0.6,0,1-0.4,1-1S100.1,780,99.6,780z"/>
	<path class="st0" d="M99.6,783H89c-0.6,0-1,0.4-1,1s0.4,1,1,1h10.6c0.6,0,1-0.4,1-1S100.1,783,99.6,783z"/>
</g>
<g>
	<path class="st0" d="M177.3,784c-0.2,0.1-0.4,0.2-0.6,0.2v0.7l0.3-0.2c0.1-0.1,0.3-0.1,0.4-0.2h0.3c0.2,0,0.3,0.1,0.4,0.2l0.3,0.2
		v-0.8c-0.2,0-0.4-0.1-0.6-0.2c-0.1,0-0.2-0.1-0.3-0.1C177.4,783.9,177.4,784,177.3,784 M175.4,779.3c0-1.2,1-2.2,2.2-2.2
		c1.2,0,2.2,1,2.2,2.2c0,1.2-1,2.2-2.2,2.2C176.3,781.5,175.4,780.5,175.4,779.3C175.4,779.3,175.4,779.3,175.4,779.3 M175,779.3
		c0,0.2,0,0.5-0.1,0.7c0.2,0.2,0.3,0.3,0.5,0.5c0,0.5,0.3,0.9,0.8,1c0.1,0,0.1,0,0.2,0c0.2,0.1,0.4,0.3,0.6,0.5c0.5-0.1,1-0.1,1.4,0
		c0.2-0.2,0.4-0.3,0.6-0.5c0.2-0.1,0.4-0.2,0.7-0.2c0-0.2,0.1-0.5,0.2-0.7c0.1-0.2,0.3-0.4,0.5-0.5c-0.2-0.5-0.2-1,0-1.5
		c-0.2-0.2-0.4-0.3-0.5-0.6c-0.1-0.2-0.2-0.4-0.2-0.7c-0.2,0-0.5-0.1-0.7-0.2c-0.2-0.1-0.4-0.3-0.6-0.5c-0.5,0.1-1,0.1-1.4,0
		c-0.2,0.2-0.4,0.3-0.6,0.5c-0.2,0.1-0.5,0.2-0.7,0.2c0,0.2-0.1,0.5-0.2,0.7c-0.1,0.2-0.3,0.4-0.5,0.6
		C174.9,778.8,175,779.1,175,779.3 M156.5,771.6c0-0.6,0.4-1,1-1h25c0.6,0,1,0.4,1,1s-0.4,1-1,1h-25
		C157,772.6,156.5,772.1,156.5,771.6 M156.5,777.9c0-0.6,0.4-1,1-1h10.6c0.6,0,1,0.4,1,1s-0.4,1-1,1h-10.6
		C157,778.9,156.5,778.4,156.5,777.9 M156.5,780.9c0-0.6,0.4-1,1-1h10.6c0.6,0,1,0.4,1,1s-0.4,1-1,1h-10.6
		C157,781.9,156.5,781.5,156.5,780.9 M156.5,784c0-0.6,0.4-1,1-1h10.6c0.6,0,1,0.4,1,1s-0.4,1-1,1h-10.6
		C157,785,156.5,784.6,156.5,784 M173,779.3c0-0.1-0.1-0.2-0.1-0.3c-0.1-0.2-0.2-0.5-0.2-0.8c0-0.2,0-0.3,0.1-0.4
		c0.2-0.3,0.4-0.5,0.6-0.6c0.1,0,0.2-0.1,0.2-0.2c0-0.1,0-0.2,0-0.3c0-0.3,0.1-0.6,0.2-0.8c0.1-0.1,0.2-0.2,0.3-0.3
		c0.2-0.1,0.5-0.2,0.8-0.2h0.1h0.2l0.1-0.2c0.2-0.4,0.6-0.7,1.1-0.7c0.3,0,0.5,0.1,0.8,0.2c0.1,0,0.2,0.1,0.3,0.1
		c0.1,0,0.2-0.1,0.3-0.1c0.2-0.1,0.5-0.2,0.8-0.2c0.2,0,0.3,0,0.4,0.1c0.3,0.2,0.5,0.4,0.6,0.7c0,0.1,0.1,0.2,0.2,0.2
		c0.1,0,0.2,0,0.3,0c0.3,0,0.6,0,0.8,0.2c0.1,0.1,0.2,0.2,0.3,0.3c0.1,0.3,0.2,0.6,0.2,0.8c0,0.1,0,0.2,0,0.3l0.2,0.2
		c0.3,0.1,0.5,0.3,0.6,0.6c0.1,0.1,0.1,0.3,0.1,0.4c0,0.3-0.1,0.6-0.2,0.8c-0.1,0.1-0.1,0.2-0.1,0.3c0,0.1,0.1,0.2,0.1,0.3
		c0.1,0.2,0.2,0.5,0.2,0.8c0,0.2,0,0.3-0.1,0.4c-0.1,0.3-0.4,0.5-0.6,0.6l0,0l-0.2,0.2c0,0.1,0,0.2,0,0.3c0,0.3-0.1,0.6-0.2,0.8
		c-0.1,0.1-0.2,0.2-0.3,0.3c-0.2,0.1-0.4,0.2-0.6,0.2v3.6c0,0.4-0.2,0.7-0.5,0.9c-0.1,0.1-0.3,0.1-0.5,0.1c-0.2,0-0.4-0.1-0.6-0.2
		l-1.3-0.9l-1.3,0.9c-0.5,0.3-1.1,0.2-1.4-0.3c-0.1-0.2-0.2-0.4-0.2-0.6v-3.6c-0.2,0-0.3-0.1-0.5-0.2c-0.1-0.1-0.2-0.2-0.3-0.3
		c-0.2-0.3-0.2-0.6-0.2-0.9c0-0.1,0-0.2,0-0.3l-0.2-0.2c-0.3-0.1-0.5-0.3-0.6-0.6c-0.1-0.1-0.1-0.3-0.1-0.4c0-0.3,0.1-0.6,0.2-0.8
		C172.9,779.5,172.9,779.4,173,779.3 M154.9,788.7h30.3v-20.5h-30.3L154.9,788.7z M187.2,789.7c0,0.6-0.4,1-1,1h-32.3
		c-0.6,0-1-0.4-1-1v-22.5c0-0.6,0.4-1,1-1h32.3c0.6,0,1,0.4,1,1L187.2,789.7z M198.4,778.5c0-15.7-12.7-28.3-28.4-28.3
		c-15.7,0-28.3,12.7-28.3,28.4c0,15.6,12.7,28.3,28.3,28.3C185.7,806.8,198.3,794.2,198.4,778.5
		C198.4,778.5,198.4,778.5,198.4,778.5"/>
</g>
<g>
	<path class="st0" d="M429.1,446.7c-15.7,0-28.4,12.7-28.4,28.3c0,15.7,12.7,28.4,28.3,28.4c15.7,0,28.4-12.7,28.4-28.3c0,0,0,0,0,0
		C457.4,459.4,444.7,446.7,429.1,446.7z M429.1,501.4c-14.6,0-26.4-11.8-26.4-26.3s11.8-26.4,26.3-26.4c14.6,0,26.4,11.8,26.4,26.3
		c0,0,0,0,0,0C455.4,489.5,443.6,501.3,429.1,501.4z"/>
	<path class="st0" d="M439.8,472c-0.8-0.5-1.7-0.8-2.6-1.1c0.2-0.8,0.4-1.5,0.5-2.3c0.1-0.6-0.3-1-0.9-1.1c-0.6-0.1-1,0.3-1.1,0.9
		c-0.1,0.7-0.2,1.4-0.4,2.1c-2.9-0.4-5.9-0.2-8.6,0.7l-0.4,0.1c0-1.6,0.1-3.3,0.2-4.9c5-0.1,9.9-0.7,14.7-1.9
		c0.5-0.1,0.9-0.7,0.7-1.2c-0.1-0.5-0.7-0.9-1.2-0.7c0,0,0,0,0,0c-4.6,1.2-9.3,1.8-14,1.9c0.2-1.7,0.4-3.4,0.7-5
		c0.1-0.6-0.3-1.1-0.8-1.2c-0.6-0.1-1.1,0.3-1.2,0.8c-0.3,1.8-0.5,3.6-0.7,5.4c-3,0-6-0.3-9-0.8c-0.6-0.1-1.1,0.3-1.2,0.8
		c-0.1,0.6,0.3,1.1,0.8,1.2c3,0.5,6.1,0.8,9.1,0.9c-0.1,1.9-0.2,3.8-0.2,5.7c-4.9,2.2-9.1,6.4-10.3,10.4c-0.7,1.8-0.4,3.9,0.8,5.4
		c1.6,2,4.3,2.7,6.7,1.8c1.5-0.5,2.9-1.2,4.1-2.2c0.1,0.8,0.3,1.6,0.4,2.4c0.1,0.5,0.5,0.8,1,0.8h0.2c0.5-0.1,0.9-0.6,0.8-1.2
		c0,0,0,0,0,0c-0.2-1.2-0.4-2.3-0.6-3.5c4-3.7,7.2-8.2,9.3-13.3c0.8,0.2,1.6,0.5,2.3,0.9c1.6,0.8,2.9,2.3,3.4,4
		c0.8,2.8,0.5,5.1-0.8,7c-2.9,4.3-10.1,5-10.2,5c-0.6,0-1,0.5-1,1c0,0.6,0.5,1,1,1l0,0h0.1c0.3,0,8.2-0.8,11.7-5.8
		c1.6-2.4,2-5.3,1.1-8.7C443.4,475,441.9,473.1,439.8,472z M420.7,487.8c-1.6,0.7-3.5,0.2-4.6-1.2c-0.8-1-0.9-2.4-0.4-3.6
		c0.9-2.9,4.1-6.5,8.4-8.7c0.1,3.7,0.4,7.4,1,11C423.8,486.5,422.3,487.3,420.7,487.8L420.7,487.8z M426.9,483.7
		c-0.5-3.4-0.7-6.8-0.8-10.2l1-0.4c1.7-0.5,3.5-0.8,5.3-0.8c0.7,0,1.4,0,2.1,0.1C432.7,476.6,430.1,480.5,426.9,483.7L426.9,483.7z"
		/>
</g>
<g>
	<path class="st0" d="M493.6,485.4c-0.5-3.6-0.9-7.3-1-11c-4.3,2.2-7.6,5.9-8.4,8.7c-0.5,1.2-0.3,2.5,0.5,3.6c1.1,1.4,3,1.9,4.6,1.2
		C490.9,487.3,492.3,486.4,493.6,485.4 M495.4,483.7c3.2-3.2,5.8-7.1,7.6-11.3c-0.7-0.1-1.4-0.1-2.1-0.1c-1.8,0-3.6,0.3-5.3,0.8
		c-0.4,0.1-0.7,0.3-1,0.4C494.7,476.9,495,480.3,495.4,483.7 M511.7,485.9c-3.5,5-11.3,5.8-11.7,5.8h-0.1c-0.6,0-1-0.4-1-1
		c0-0.6,0.4-1,1-1c0.1,0,7.3-0.7,10.2-5c1.3-1.9,1.6-4.2,0.8-7c-0.5-1.7-1.7-3.2-3.4-4c-0.7-0.4-1.5-0.7-2.3-0.9
		c-2.1,5.1-5.2,9.6-9.3,13.3c0.2,1.1,0.4,2.3,0.6,3.5c0.1,0.5-0.2,1.1-0.8,1.2c0,0,0,0,0,0h-0.2c-0.5,0-0.9-0.3-1-0.8
		c-0.2-0.8-0.3-1.6-0.4-2.4c-1.2,0.9-2.6,1.7-4.1,2.2c-2.4,0.9-5.1,0.2-6.7-1.8c-1.2-1.5-1.5-3.6-0.8-5.4c1.2-4,5.4-8.1,10.3-10.3
		c0-1.9,0.1-3.8,0.2-5.7c-3.1,0-6.1-0.3-9.1-0.9c-0.5-0.1-0.9-0.6-0.8-1.1c0.1-0.5,0.6-0.9,1.2-0.8c0,0,0,0,0,0c3,0.5,6,0.8,9,0.8
		c0.2-1.8,0.4-3.6,0.7-5.4c0.1-0.6,0.6-0.9,1.2-0.8c0.6,0.1,0.9,0.6,0.8,1.2c-0.3,1.7-0.5,3.4-0.7,5c4.7-0.1,9.4-0.7,14-1.9
		c0.5-0.1,1.1,0.2,1.2,0.7s-0.2,1.1-0.7,1.2l0,0c-4.8,1.2-9.7,1.9-14.7,1.9c-0.1,1.6-0.2,3.3-0.2,4.9c0.1,0,0.3-0.1,0.4-0.2
		c2.8-0.9,5.7-1.1,8.6-0.7c0.2-0.7,0.4-1.4,0.4-2.1c0.1-0.5,0.5-0.9,1.1-0.9c0.5,0.1,1,0.5,0.9,1.1c-0.1,0.8-0.2,1.6-0.5,2.3
		c0.9,0.3,1.8,0.6,2.6,1.1c2.1,1.1,3.7,3,4.4,5.2C513.7,480.6,513.3,483.5,511.7,485.9 M526,475c0-15.7-12.7-28.4-28.3-28.4
		c-15.7,0-28.4,12.7-28.4,28.3c0,15.7,12.7,28.4,28.3,28.4c0,0,0,0,0,0C513.3,503.3,526,490.7,526,475"/>
</g>
</svg>
