<?xml version="1.0" encoding="utf-8"?>
<!-- Generator: Adobe Illustrator 25.2.3, SVG Export Plug-In . SVG Version: 6.00 Build 0)  -->
<svg version="1.1" id="SAFETY_SECURITY" xmlns="http://www.w3.org/2000/svg" xmlns:xlink="http://www.w3.org/1999/xlink" x="0px"
	 y="0px" viewBox="0 0 1908 1073.2" style="enable-background:new 0 0 1908 1073.2;" xml:space="preserve">
<style type="text/css">
	.st0{fill:#007680;}
	.st1{fill:#00ABAB;}
</style>
<g>
	<path class="st0" d="M101.5,219.1c-15.7,0-28.3,12.7-28.3,28.4s12.7,28.3,28.3,28.3s28.3-12.7,28.3-28.3c0,0,0,0,0,0
		C129.8,231.7,117.2,219.1,101.5,219.1C101.5,219.1,101.5,219.1,101.5,219.1z M101.5,273.7c-14.6,0-26.3-11.8-26.3-26.4
		S86.9,221,101.5,221s26.3,11.8,26.3,26.3C127.8,261.9,116,273.7,101.5,273.7z"/>
	<path class="st0" d="M109.1,254c-0.4,0-0.9,0.1-1.3,0.3c-0.3-1.4-1.6-2.4-3.1-2.4c-0.4,0-0.8,0.1-1.2,0.2v-3.6
		c0.1-1.8-1.2-3.3-3-3.4c-1.8-0.1-3.3,1.2-3.4,3c0,0.1,0,0.2,0,0.4v9.1c-0.5-0.8-1.2-1.5-2-2c-0.7-0.5-1.7-0.6-2.5-0.3
		c-0.8,0.2-1.5,0.8-1.8,1.6c-0.4,1.4-0.1,3,0.8,4.2l1,2c0.2,0.4,0.5,0.6,0.9,0.6c0.1,0,0.3,0,0.4-0.1c0.5-0.2,0.7-0.8,0.5-1.3
		c0,0,0,0,0,0l-1-2.1l-0.1-0.1c-0.6-0.7-0.8-1.5-0.7-2.4c0.1-0.2,0.3-0.4,0.5-0.4c0.1,0,0.1,0,0.2-0.1c0.2-0.1,0.4,0,0.8,0.2
		c0.7,0.4,1.2,1,1.5,1.8l1.5,3.3c0.2,0.5,0.8,0.7,1.3,0.5c0.4-0.2,0.6-0.7,0.5-1.1c0-0.1,0-0.1,0-0.2v-13c-0.1-0.6,0.4-1.2,1.1-1.3
		c0.6-0.1,1.2,0.4,1.3,1.1c0,0.1,0,0.1,0,0.2v9.8c0,0.6,0.4,1,1,1s1-0.4,1-1V255c-0.1-0.6,0.4-1.2,1.1-1.3c0.6-0.1,1.2,0.4,1.3,1.1
		c0,0.1,0,0.1,0,0.2v3.3c0,0.6,0.4,1,1,1s1-0.4,1-1v-1.1c0.1-0.6,0.6-1.1,1.3-1.1c0.6,0.1,1,0.5,1.1,1.1v2.2c0,0.6,0.4,1,1,1
		s1-0.4,1-1v-2.2C112.2,255.4,110.8,254,109.1,254z"/>
	<path class="st0" d="M92.8,235.3c1.1,0,2-0.9,1.9-2.1s-0.9-2-2.1-1.9c-1.1,0-1.9,0.9-1.9,1.9C90.7,234.4,91.7,235.3,92.8,235.3
		L92.8,235.3z"/>
	<path class="st0" d="M100.4,235.3c1.1,0,2-0.9,2-2.1s-0.9-2-2.1-2c-1.1,0-2,0.9-2,2C98.3,234.4,99.3,235.3,100.4,235.3
		C100.4,235.3,100.4,235.3,100.4,235.3z"/>
	<path class="st0" d="M108,235.3c1.1,0,2-0.9,2-2s-0.9-2-2-2c-1.1,0-2,0.9-2,1.9C106,234.3,106.9,235.3,108,235.3z"/>
	<path class="st0" d="M92.8,242.9c1.1,0,2.1-0.9,2.1-2c0-1.1-0.9-2.1-2-2.1c-1.1,0-2.1,0.9-2.1,2c0,0,0,0,0,0
		C90.7,242,91.6,242.9,92.8,242.9C92.8,242.9,92.8,242.9,92.8,242.9z"/>
	<circle class="st0" cx="92.8" cy="248.5" r="2.1"/>
	<path class="st0" d="M100.4,242.9c1.1,0,2.1-0.9,2.1-2.1c0-1.1-0.9-2.1-2.1-2.1c-1.1,0-2.1,0.9-2.1,2.1l0,0
		C98.3,242,99.3,242.9,100.4,242.9C100.4,242.9,100.4,242.9,100.4,242.9z"/>
	<path class="st0" d="M108,242.9c1.1,0,2.1-0.9,2.1-2s-0.9-2.1-2-2.1c-1.1,0-2.1,0.9-2.1,2c0,0,0,0,0,0.1
		C106,242,106.9,242.9,108,242.9z"/>
	<path class="st0" d="M108,250.5c1.1,0,2.1-0.9,2.1-2s-0.9-2.1-2-2.1c-1.1,0-2.1,0.9-2.1,2c0,0,0,0.1,0,0.1
		C106,249.6,106.9,250.5,108,250.5z"/>
</g>
<g>
	<path class="st0" d="M101.5,143.2c-15.7,0-28.4,12.7-28.4,28.4s12.7,28.3,28.4,28.3s28.3-12.7,28.3-28.3
		C129.8,155.9,117.2,143.2,101.5,143.2C101.5,143.2,101.5,143.2,101.5,143.2z M101.5,197.9c-14.6,0-26.3-11.8-26.3-26.4
		s11.8-26.3,26.3-26.3s26.3,11.8,26.3,26.3C127.8,186.1,116,197.9,101.5,197.9z"/>
	<path class="st0" d="M115.7,159c-0.3-0.2-0.7-0.2-0.9,0c-4.2,2.2-9.3,1.3-12.6-2.1c-0.4-0.4-1-0.4-1.4,0c-3.2,3.5-8.4,4.3-12.6,2.1
		c-0.5-0.3-1.1-0.1-1.4,0.4c-0.1,0.1-0.1,0.2-0.1,0.4c-2.3,19.7,14.1,28.4,14.3,28.5l0.1,0.1h0.1h0.2l0,0h0.2h0.1l0.1-0.1
		c0.2-0.1,16.7-8.8,14.3-28.5C116.2,159.4,116,159.1,115.7,159z M88.6,161.4c4.4,1.7,9.4,0.8,12.9-2.4c1.4,1.3,3,2.2,4.8,2.7
		l-14.6,14.6C89.2,171.7,88.1,166.5,88.6,161.4L88.6,161.4z M94,179.7c-0.4-0.5-0.8-1.1-1.2-1.7l15.9-15.9c1,0.1,2,0,3-0.1L94,179.7
		z M101.4,186.3c-2.3-1.4-4.4-3-6.2-5l19.1-19.1C115.2,177.4,104,184.9,101.4,186.3L101.4,186.3z"/>
</g>
<g>
	<path class="st0" d="M170,219.1c-15.7,0-28.3,12.7-28.3,28.4s12.7,28.3,28.3,28.3s28.4-12.7,28.4-28.3c0,0,0,0,0,0
		C198.3,231.7,185.7,219.1,170,219.1z M176.5,231.2c1.1,0,2.1,0.9,2.1,2c0,1.1-0.9,2.1-2,2.1c-1.1,0-2.1-0.9-2.1-2c0,0,0-0.1,0-0.1
		C174.6,232.1,175.5,231.2,176.5,231.2L176.5,231.2z M176.5,238.8c1.1,0,2.1,0.9,2.1,2s-0.9,2.1-2,2.1s-2.1-0.9-2.1-2c0,0,0,0,0-0.1
		C174.5,239.7,175.4,238.8,176.5,238.8L176.5,238.8z M176.5,246.4c1.1,0,2,0.9,2,2s-0.9,2-2,2c-1.1,0-2-0.9-2-1.9
		C174.5,247.3,175.4,246.4,176.5,246.4L176.5,246.4z M169,231.2c1.1,0,2.1,0.9,2.1,2c0,1.1-0.9,2.1-2,2.1c-1.1,0-2.1-0.9-2.1-2
		c0,0,0-0.1,0-0.1C167,232.1,167.9,231.2,169,231.2z M169,238.8c1.1,0,2.1,0.9,2.1,2s-0.9,2.1-2,2.1s-2.1-0.9-2.1-2c0,0,0,0,0-0.1
		C167,239.7,167.9,238.8,169,238.8z M161.4,231.2c1.1,0,2,0.9,2,2.1c0,1.1-0.9,2-2.1,2c-1.1,0-2-0.9-2-2.1c0,0,0,0,0,0
		C159.4,232.1,160.2,231.2,161.4,231.2L161.4,231.2z M161.4,238.8c1.1,0,2.1,0.9,2.1,2.1s-0.9,2.1-2.1,2.1s-2.1-0.9-2.1-2.1
		c0,0,0,0,0,0C159.3,239.7,160.2,238.8,161.4,238.8L161.4,238.8z M161.4,246.4c1.1,0,2,0.9,1.9,2.1s-0.9,2-2.1,1.9
		c-1.1,0-1.9-0.9-1.9-1.9C159.3,247.3,160.2,246.4,161.4,246.4L161.4,246.4z M180.9,259.3c0,0.6-0.4,1-1,1s-1-0.4-1-1v-2.2
		c-0.1-0.6-0.6-1.1-1.3-1.1c-0.6,0.1-1,0.5-1.1,1.1v1.1c0,0.6-0.4,1-1,1s-1-0.4-1-1V255c0.1-0.6-0.4-1.2-1.1-1.3
		c-0.6-0.1-1.2,0.4-1.3,1.1c0,0.1,0,0.1,0,0.2v3.3c0,0.6-0.4,1-1,1s-1-0.4-1-1v-9.8c0.1-0.6-0.4-1.2-1.1-1.3
		c-0.6-0.1-1.2,0.4-1.3,1.1c0,0.1,0,0.1,0,0.2v13c0,0.1,0,0.1,0,0.2c0.1,0.5-0.3,1.1-0.8,1.1c-0.4,0.1-0.8-0.1-1-0.5l-1.5-3.3
		c-0.3-0.7-0.8-1.3-1.5-1.8c-0.4-0.2-0.6-0.3-0.8-0.2c-0.1,0-0.1,0.1-0.2,0.1c-0.2,0-0.4,0.2-0.5,0.4c-0.2,0.9,0,1.8,0.6,2.5
		l0.1,0.1l1,2.1c0.2,0.5,0,1.1-0.5,1.3c-0.1,0.1-0.3,0.1-0.4,0.1c-0.4,0-0.7-0.2-0.9-0.6l-1-2c-1-1.6-1.3-3-0.8-4.2
		c0.3-0.8,1-1.4,1.8-1.6c0.8-0.3,1.8-0.2,2.5,0.3c0.8,0.5,1.5,1.1,2,2v-9c-0.1-1.8,1.2-3.3,3-3.4c1.8-0.1,3.3,1.2,3.4,3
		c0,0.1,0,0.2,0,0.4v3.4c0.4-0.1,0.8-0.2,1.2-0.2c1.5,0,2.7,1,3.1,2.4c0.4-0.2,0.8-0.3,1.3-0.3c1.8,0,3.2,1.4,3.2,3.2c0,0,0,0,0,0
		L180.9,259.3z"/>
</g>
<g>
	<path class="st0" d="M170,159c-3.5,3.2-8.5,4.1-12.9,2.4c-0.5,5.2,0.6,10.4,3.1,14.9l14.6-14.6C173,161.2,171.4,160.3,170,159z"/>
	<path class="st0" d="M163.9,181.2c1.8,2,3.9,3.6,6.1,5c2.5-1.4,13.7-8.9,12.9-24.1L163.9,181.2z"/>
	<path class="st0" d="M177.2,162.2L161.4,178c0.4,0.6,0.8,1.2,1.2,1.7l17.6-17.6C179.2,162.2,178.2,162.2,177.2,162.2z"/>
	<path class="st0" d="M170,143.2c-15.7,0-28.3,12.7-28.3,28.4s12.7,28.3,28.3,28.3s28.4-12.7,28.4-28.3S185.7,143.2,170,143.2
		C170,143.2,170,143.2,170,143.2z M170.5,188.3l-0.1,0.1h-0.1c-0.1,0-0.2,0-0.2,0l0,0c-0.1,0-0.2,0-0.2,0h-0.1l-0.1-0.1
		c-0.2-0.1-16.6-8.8-14.3-28.5c0.1-0.5,0.6-0.9,1.1-0.9c0.1,0,0.3,0.1,0.4,0.1c4.2,2.2,9.3,1.3,12.6-2.1c0.4-0.4,1-0.4,1.4,0
		c0,0,0,0,0,0c3.2,3.5,8.4,4.3,12.6,2.1c0.3-0.2,0.6-0.2,0.9,0c0.3,0.2,0.5,0.4,0.6,0.8C187.1,179.5,170.7,188.2,170.5,188.3
		L170.5,188.3z"/>
</g>
<g>
	<path class="st0" d="M101.5,295.9c-15.7,0-28.3,12.7-28.3,28.4c0,15.7,12.7,28.4,28.3,28.4s28.3-12.7,28.3-28.4c0,0,0,0,0,0
		C129.8,308.6,117.2,295.9,101.5,295.9C101.5,295.9,101.5,295.9,101.5,295.9z M101.5,350.6c-14.6,0-26.3-11.8-26.3-26.4
		s11.8-26.4,26.3-26.4s26.3,11.8,26.3,26.4C127.8,338.8,116,350.6,101.5,350.6z"/>
	<path class="st0" d="M111.7,323.2h-1v-5.1c0.2-5.1-3.8-9.3-8.9-9.5c-5.1-0.2-9.3,3.8-9.5,8.9c0,0.2,0,0.4,0,0.6v5.1h-1
		c-0.6,0-1,0.4-1,1v14.3c0,0.6,0.4,1,1,1h20.5c0.6,0,1-0.4,1-1v-14.3c0-0.6-0.4-1-1-1C111.8,323.2,111.8,323.2,111.7,323.2z
		 M94.3,318.1c-0.1-4,2.9-7.3,6.9-7.4c4-0.1,7.3,2.9,7.4,6.9c0,0.2,0,0.4,0,0.5v5.1H94.3V318.1z M110.7,337.5H92.3v-12.3h18.5V337.5
		z"/>
</g>
<g>
	<path class="st0" d="M101.5,370.8c-15.7,0-28.3,12.7-28.3,28.4c0,15.7,12.7,28.4,28.3,28.4s28.3-12.7,28.3-28.4c0,0,0,0,0,0
		C129.8,383.5,117.2,370.8,101.5,370.8C101.5,370.8,101.5,370.8,101.5,370.8z M101.5,425.5c-14.6,0-26.3-11.8-26.3-26.4
		s11.8-26.4,26.3-26.4s26.3,11.8,26.3,26.4C127.8,413.7,116,425.5,101.5,425.5z"/>
	<path class="st0" d="M113,398.1H93.3v-5.9c0-4.5,3.7-8.2,8.2-8.2c4.5,0,8.2,3.7,8.2,8.2c0,0.6,0.4,1,1,1s1-0.4,1-1
		c0-5.6-4.5-10.2-10.2-10.2c-5.6,0-10.2,4.5-10.2,10.2c0,0,0,0,0,0v5.9H90c-0.6,0-1,0.4-1,1v16c0,0.6,0.4,1,1,1h23c0.6,0,1-0.4,1-1
		v-16C114,398.6,113.6,398.1,113,398.1z M112,414.1H91v-14h21V414.1z"/>
</g>
<g>
	<path class="st0" d="M177.2,318.1c0-4-3.2-7.2-7.2-7.2c-4,0-7.2,3.2-7.2,7.2v5.1h14.4V318.1z"/>
	<rect x="160.8" y="325.2" class="st0" width="18.4" height="12.3"/>
	<path class="st0" d="M170,295.9c-15.7,0-28.3,12.7-28.3,28.4c0,15.7,12.7,28.4,28.3,28.4s28.4-12.7,28.4-28.4c0,0,0,0,0,0
		C198.3,308.6,185.7,295.9,170,295.9z M181.2,338.5c0,0.6-0.4,1-1,1h-20.4c-0.6,0-1-0.4-1-1v-14.3c0-0.6,0.4-1,1-1h1v-5.1
		c0-5.1,4.1-9.2,9.2-9.2c5.1,0,9.2,4.1,9.2,9.2v5.1h1c0.6,0,1,0.4,1,1L181.2,338.5z"/>
</g>
<g>
	<path class="st0" d="M170,370.8c-15.7,0-28.3,12.7-28.3,28.4c0,15.7,12.7,28.4,28.3,28.4s28.4-12.7,28.4-28.4c0,0,0,0,0,0
		C198.3,383.5,185.7,370.8,170,370.8z M182.5,415.2c0,0.6-0.4,1-1,1h-22.9c-0.6,0-1-0.4-1-1v-16c0-0.6,0.4-1,1-1h1.3v-5.9
		c0-5.6,4.6-10.2,10.2-10.2c5.6,0,10.2,4.6,10.2,10.2c0,0.6-0.4,1-1,1s-1-0.4-1-1c0-4.5-3.7-8.2-8.2-8.2c-4.5,0-8.2,3.7-8.2,8.2v5.9
		h19.6c0.6,0,1,0.4,1,1L182.5,415.2z"/>
	<rect x="159.6" y="400.1" class="st0" width="20.9" height="14"/>
</g>
<g>
	<path class="st1" d="M757.8,219.1c-15.7,0-28.4,12.7-28.4,28.3s12.7,28.4,28.3,28.4c15.7,0,28.4-12.7,28.4-28.3c0,0,0,0,0,0
		C786.2,231.7,773.5,219.1,757.8,219.1C757.8,219.1,757.8,219.1,757.8,219.1z M757.8,273.7c-14.6,0-26.4-11.8-26.4-26.3
		s11.8-26.4,26.3-26.4c14.6,0,26.4,11.8,26.4,26.3v0C784.1,261.9,772.4,273.7,757.8,273.7z"/>
	<path class="st1" d="M768.1,230.1c0-0.6-0.4-1-1-1h-8.7c-0.6,0-1,0.4-1,1v1.5h-4c-3.3,0-6,2.7-6,6v22.3c0,0.6,0.4,1,1,1s1-0.4,1-1
		v-22.3c0-2.2,1.8-4,4-4h4v3c-2.8,0.5-4.9,3-5,5.9v22.3c0,0.6,0.4,1,1,1h9.9c0.6,0,1-0.4,1-1v-22.2c0-2.9-2.1-5.4-5-5.9v-4.1
		l7.4,2.1c0.1,0,0.2,0,0.3,0c0.6,0.1,1.1-0.3,1.1-0.9s-0.3-1.1-0.9-1.1l-5.5-1.6h5.2C767.6,231,768.1,230.6,768.1,230.1z
		 M762.4,257.5h-3v-7.9h2.7c0.1,0,0.2,0,0.2,0L762.4,257.5z M762.4,242.4v5.2c-0.1,0-0.2,0-0.2-0.1h-3.7c-0.6,0-1,0.4-1,1v9.9
		c0,0.6,0.4,1,1,1h4v4.2h-7.9v-21.3c0.3-2.2,2.4-3.7,4.6-3.3C760.8,239.4,762.2,240.7,762.4,242.4L762.4,242.4z"/>
</g>
<g>
	<path class="st1" d="M823,242.4v21.3h7.9v-4.2H827c-0.6,0-1-0.4-1-1v-9.9c0-0.6,0.4-1,1-1h3.7c0.1,0,0.2,0,0.2,0.1v-5.2
		c0-2.2-1.8-4-4-4S823,240.3,823,242.4L823,242.4z"/>
	<path class="st1" d="M828,249.6v7.9h3v-7.9c-0.1,0-0.2,0-0.2,0L828,249.6z"/>
	<path class="st1" d="M826.4,219.1c-15.7,0-28.4,12.7-28.4,28.3s12.7,28.4,28.3,28.4c15.7,0,28.4-12.7,28.4-28.3c0,0,0,0,0,0
		C854.7,231.7,842,219.1,826.4,219.1C826.4,219.1,826.4,219.1,826.4,219.1z M835.9,232.7c0.5,0.2,0.8,0.7,0.7,1.2l0,0
		c-0.1,0.4-0.5,0.7-1,0.7c-0.1,0-0.2,0-0.3,0l-7.3-2.2v4.1c2.8,0.5,4.9,3,5,5.9v22.3c0,0.6-0.4,1-1,1h-10c-0.6,0-1-0.4-1-1v-22.3
		c0-2.9,2.1-5.4,5-5.9v-3h-4c-2.2,0-4,1.8-4,4v22.3c0,0.6-0.4,1-1,1s-1-0.4-1-1v-22.4c0-3.3,2.7-6,6-6h4V230c0-0.6,0.4-1,1-1h8.7
		c0.6,0,1,0.4,1,1s-0.4,1-1,1h-5.2L835.9,232.7z"/>
</g>
<g>
	<path class="st1" d="M757.8,750.2c-15.7,0-28.4,12.7-28.4,28.3s12.7,28.4,28.3,28.4s28.4-12.7,28.4-28.3c0,0,0,0,0,0
		C786.2,762.8,773.5,750.2,757.8,750.2C757.8,750.2,757.8,750.2,757.8,750.2z M757.8,804.8c-14.6,0-26.4-11.8-26.4-26.3
		s11.8-26.4,26.3-26.4c14.6,0,26.4,11.8,26.4,26.3v0C784.1,793,772.4,804.8,757.8,804.8z"/>
	<path class="st1" d="M757.8,758.5c-11,0-20,9-20,20s9,20,20,20s20-9,20-20S768.9,758.5,757.8,758.5z M762.7,761.2
		c6,1.7,10.8,6.4,12.5,12.5l-7.5,1.1c-1.1-2.8-3.2-4.9-6-6L762.7,761.2z M766.3,778.5c0,4.7-3.8,8.5-8.5,8.5c-4.7,0-8.5-3.8-8.5-8.5
		s3.8-8.5,8.5-8.5c0,0,0,0,0,0C762.5,770,766.3,773.8,766.3,778.5L766.3,778.5z M757.8,760.5c1,0,1.9,0.1,2.9,0.2l-1.1,7.4
		c-1.2-0.2-2.4-0.2-3.6,0l-1.1-7.4C755.9,760.6,756.8,760.5,757.8,760.5L757.8,760.5z M753,761.2l1.1,7.5c-2.8,1.1-4.9,3.2-6,6
		l-7.5-1.1C742.3,767.6,747,762.9,753,761.2L753,761.2z M739.9,778.5c0-1,0.1-1.9,0.2-2.9l7.4,1.1c-0.2,1.2-0.2,2.4,0,3.6l-7.4,1.1
		C739.9,780.4,739.9,779.4,739.9,778.5L739.9,778.5z M753,795.8c-6-1.7-10.8-6.4-12.5-12.5l7.5-1.1c1.1,2.7,3.3,4.9,6,6L753,795.8z
		 M757.8,796.5c-1,0-1.9-0.1-2.9-0.2l1.1-7.4c1.2,0.2,2.4,0.2,3.6,0l1.1,7.4C759.8,796.4,758.8,796.5,757.8,796.5L757.8,796.5z
		 M762.7,795.8l-1.1-7.5c2.7-1.1,4.9-3.3,6-6l7.5,1.1C773.4,789.4,768.7,794.1,762.7,795.8L762.7,795.8z M768.2,780.3
		c0.2-1.2,0.2-2.4,0-3.6l7.4-1.1c0.3,1.9,0.3,3.8,0,5.8L768.2,780.3z"/>
</g>
<g>
	<path class="st1" d="M817.9,778.5c0,4.7,3.8,8.5,8.5,8.5c4.7,0,8.5-3.8,8.5-8.5c0-4.7-3.8-8.5-8.5-8.5c0,0,0,0,0,0
		C821.7,770,817.9,773.8,817.9,778.5z"/>
	<path class="st1" d="M826.4,768c0.6,0,1.2,0.1,1.8,0.2l1.1-7.4c-1.9-0.3-3.8-0.3-5.8,0l1,7.4C825.1,768.1,825.7,768,826.4,768z"/>
	<path class="st1" d="M822.6,768.7l-1.1-7.5c-6,1.7-10.8,6.4-12.5,12.5l7.5,1.1C817.7,772,819.8,769.8,822.6,768.7z"/>
	<path class="st1" d="M831.2,761.2l-1.1,7.5c2.8,1.1,4.9,3.2,6,6l7.5-1.1C841.9,767.6,837.2,762.9,831.2,761.2z"/>
	<path class="st1" d="M836.8,778.5c0,0.6-0.1,1.2-0.2,1.8l7.4,1.1c0.3-1.9,0.3-3.8,0-5.8l-7.4,1.1
		C836.8,777.3,836.8,777.9,836.8,778.5z"/>
	<path class="st1" d="M830.1,788.3l1.1,7.5c6-1.7,10.8-6.4,12.5-12.5l-7.5-1.1C835.1,785,832.9,787.2,830.1,788.3z"/>
	<path class="st1" d="M815.9,778.5c0-0.6,0.1-1.2,0.2-1.8l-7.4-1.1c-0.3,1.9-0.3,3.8,0,5.8l7.4-1.1
		C815.9,779.7,815.9,779.1,815.9,778.5z"/>
	<path class="st1" d="M826.4,789c-0.6,0-1.2-0.1-1.8-0.2l-1,7.4c0.9,0.2,1.9,0.2,2.9,0.2c1,0,1.9-0.1,2.9-0.2l-1.1-7.4
		C827.6,788.9,827,789,826.4,789z"/>
	<path class="st1" d="M816.6,782.3l-7.5,1.1c1.7,6,6.4,10.8,12.5,12.5l1.1-7.5C819.8,787.2,817.7,785,816.6,782.3z"/>
	<path class="st1" d="M826.4,750.2c-15.7,0-28.4,12.7-28.4,28.3s12.7,28.4,28.3,28.4s28.4-12.7,28.4-28.3c0,0,0,0,0,0
		C854.7,762.8,842,750.2,826.4,750.2C826.4,750.2,826.4,750.2,826.4,750.2z M826.4,798.5c-11,0-20-9-20-20s9-20,20-20s20,9,20,20
		S837.4,798.5,826.4,798.5z"/>
</g>
<g>
	<path class="st1" d="M757.8,522.5c-15.7,0-28.4,12.7-28.4,28.3s12.7,28.4,28.3,28.4s28.4-12.7,28.4-28.3v0
		C786.2,535.2,773.5,522.5,757.8,522.5C757.8,522.5,757.8,522.5,757.8,522.5z M757.8,577.2c-14.6,0-26.4-11.8-26.4-26.3
		s11.8-26.4,26.3-26.4c14.6,0,26.4,11.8,26.4,26.3v0C784.1,565.4,772.4,577.2,757.8,577.2L757.8,577.2z"/>
	<path class="st1" d="M772.4,535.4h-7.2c-0.6,0-1,0.4-1,1v6.3h-6.3c-0.6,0-1,0.4-1,1v6.1h-6.3c-0.6,0-1,0.4-1,1v6.4h-6.3
		c-0.6,0-1,0.4-1,1v7.2c0,0.6,0.4,1,1,1s1-0.4,1-1v-6.2h6.3c0.6,0,1-0.4,1-1v-6.4h6.3c0.6,0,1-0.4,1-1v-6.1h6.3c0.6,0,1-0.4,1-1
		v-6.3h6.2c0.6,0,1-0.4,1-1S772.9,535.4,772.4,535.4z"/>
	<path class="st1" d="M768,551.4l-9.2,9.1v-4.9c0-0.6-0.4-1-1-1s-1,0.4-1,1v7.2c0,0.6,0.4,1,1,1h7.3c0.6,0,1-0.4,1-1s-0.4-1-1-1
		h-4.8l9.1-9.1c0.4-0.3,0.5-1,0.2-1.4c-0.3-0.4-1-0.5-1.4-0.2C768.1,551.3,768,551.4,768,551.4z"/>
</g>
<g>
	<path class="st1" d="M757.8,598.4c-15.7,0-28.4,12.7-28.4,28.3s12.7,28.4,28.3,28.4s28.4-12.7,28.4-28.3v0
		C786.2,611.1,773.5,598.4,757.8,598.4z M757.8,653.1c-14.6,0-26.4-11.8-26.4-26.3s11.8-26.4,26.3-26.4c14.6,0,26.4,11.8,26.4,26.3
		v0C784.1,641.3,772.4,653.1,757.8,653.1L757.8,653.1z"/>
	<path class="st1" d="M772.4,611.3h-7.2c-0.6,0-1,0.4-1,1v6.3h-6.3c-0.6,0-1,0.4-1,1v6.1h-6.3c-0.6,0-1,0.4-1,1v6.4h-6.3
		c-0.6,0-1,0.4-1,1v7.2c0,0.6,0.4,1,1,1s1-0.4,1-1v-6.2h6.3c0.6,0,1-0.4,1-1v-6.4h6.3c0.6,0,1-0.4,1-1v-6.1h6.3c0.6,0,1-0.4,1-1
		v-6.3h6.2c0.6,0,1-0.4,1-1S772.9,611.3,772.4,611.3z"/>
</g>
<g>
	<path class="st1" d="M826.4,522.5c-15.7,0-28.4,12.7-28.4,28.3s12.7,28.4,28.3,28.4s28.4-12.7,28.4-28.3v0
		C854.7,535.2,842,522.5,826.4,522.5C826.4,522.5,826.4,522.5,826.4,522.5z M837.9,552.8l-9.1,9.1h4.9c0.6,0,1,0.4,1,1s-0.4,1-1,1
		h-7.3c-0.6,0-1-0.4-1-1v-7.2c0-0.6,0.4-1,1-1s1,0.4,1,1v4.9l9.2-9.1c0.4-0.4,1-0.4,1.4,0c0,0,0,0,0,0
		C838.3,551.8,838.3,552.4,837.9,552.8z M840.9,537.4h-6.2v6.3c0,0.6-0.4,1-1,1h-6.3v6.1c0,0.6-0.4,1-1,1h-6.3v6.4c0,0.6-0.4,1-1,1
		h-6.3v6.2c0,0.6-0.4,1-1,1s-1-0.4-1-1v-7.2c0-0.6,0.4-1,1-1h6.3v-6.4c0-0.6,0.4-1,1-1h6.3v-6.1c0-0.6,0.4-1,1-1h6.3v-6.3
		c0-0.6,0.4-1,1-1h7.2c0.6,0,1,0.4,1,1S841.5,537.4,840.9,537.4z"/>
</g>
<g>
	<path class="st1" d="M826.4,598.4c-15.7,0-28.4,12.7-28.4,28.3s12.7,28.4,28.3,28.4s28.4-12.7,28.4-28.3v0
		C854.7,611.1,842,598.4,826.4,598.4z M840.9,613.3h-6.2v6.3c0,0.6-0.4,1-1,1h-6.3v6.1c0,0.6-0.4,1-1,1h-6.3v6.4c0,0.6-0.4,1-1,1
		h-6.3v6.2c0,0.6-0.4,1-1,1s-1-0.4-1-1v-7.2c0-0.6,0.4-1,1-1h6.3v-6.4c0-0.6,0.4-1,1-1h6.3v-6.1c0-0.6,0.4-1,1-1h6.3v-6.3
		c0-0.6,0.4-1,1-1h7.2c0.6,0,1,0.4,1,1S841.5,613.3,840.9,613.3z"/>
</g>
<g>
	<path class="st1" d="M646.5,561.5h30.1l-15-24.3L646.5,561.5z M661.5,558.8c-0.6,0-1.1-0.5-1.1-1.1c0-0.6,0.5-1.1,1.1-1.1
		c0.6,0,1.1,0.5,1.1,1.1C662.5,558.4,662.1,558.8,661.5,558.8z M662.5,544.7v8.3c0,0.6-0.4,1-1,1s-1-0.4-1-1v-8.4c0-0.6,0.4-1,1-1
		S662.5,544.1,662.5,544.7L662.5,544.7z"/>
	<path class="st1" d="M661.5,522.5c-15.7,0-28.4,12.7-28.4,28.3s12.7,28.4,28.3,28.4s28.4-12.7,28.4-28.3v0
		C689.8,535.2,677.2,522.5,661.5,522.5z M679.2,563c-0.2,0.3-0.5,0.5-0.9,0.5h-33.6c-0.6,0-1-0.4-1-1c0-0.2,0.1-0.4,0.2-0.5
		l16.9-27.2c0.2-0.3,0.5-0.5,0.8-0.5l0,0c0.3,0,0.7,0.2,0.8,0.5l16.8,27.2C679.4,562.3,679.4,562.7,679.2,563z"/>
</g>
<g>
	<path class="st1" d="M593,295.9c-15.7,0-28.4,12.7-28.4,28.3c0,15.7,12.7,28.4,28.3,28.4c15.7,0,28.4-12.7,28.4-28.3c0,0,0,0,0,0
		C621.3,308.6,608.7,295.9,593,295.9C593,295.9,593,295.9,593,295.9z M593,350.6c-14.6,0-26.4-11.8-26.4-26.3s11.8-26.4,26.3-26.4
		c14.6,0,26.4,11.8,26.4,26.3c0,0,0,0,0,0C619.3,338.8,607.5,350.6,593,350.6z"/>
	<path class="st1" d="M593,327.8c-1.9,0-3.5,1.6-3.5,3.5s1.6,3.5,3.5,3.5c1.9,0,3.5-1.6,3.5-3.5c0,0,0,0,0,0
		C596.5,329.4,594.9,327.8,593,327.8z M593,332.8c-0.8,0-1.5-0.7-1.5-1.5s0.7-1.5,1.5-1.5c0.8,0,1.5,0.7,1.5,1.5c0,0,0,0,0,0
		C594.5,332.1,593.8,332.8,593,332.8L593,332.8z"/>
	<path class="st1" d="M593,326.5c1.2,0,2.3-0.8,2.6-2c0.3-0.9,0.7-6.6,0.9-8.8c0.1-0.9-0.3-1.9-0.9-2.5c-1.4-1.4-3.6-1.5-5.1-0.1
		c0,0-0.1,0.1-0.1,0.1c-0.6,0.7-1,1.6-0.9,2.5c0.1,2.2,0.6,7.9,0.9,8.8C590.7,325.7,591.8,326.5,593,326.5z M591.9,314.5
		c0.3-0.3,0.7-0.5,1.1-0.5c0.4,0,0.8,0.2,1.1,0.5c0.3,0.3,0.4,0.6,0.3,1c-0.2,3.2-0.6,7.8-0.8,8.4c-0.1,0.3-0.4,0.6-0.7,0.5
		c-0.3,0-0.6-0.2-0.7-0.5c-0.2-0.6-0.6-5.2-0.8-8.4C591.5,315.1,591.6,314.8,591.9,314.5L591.9,314.5z"/>
	<path class="st1" d="M593,307.1c-9.2,0-16.7,7.5-16.8,16.8c0,3.4,1,6.7,3,9.5c-0.8,2.3-1.7,4.5-2.9,6.6c-0.3,0.5-0.1,1.1,0.4,1.4
		c0.1,0.1,0.3,0.1,0.5,0.1c0.2,0,5.5,0,9.4-2.1c8.6,3.5,18.3-0.6,21.8-9.2s-0.6-18.3-9.2-21.8C597.3,307.5,595.2,307.1,593,307.1z
		 M593,338.6c-2.1,0-4.1-0.4-6-1.3c-0.3-0.1-0.6-0.1-0.9,0c-2.2,1.1-4.7,1.8-7.2,2c0.9-1.9,1.7-3.8,2.4-5.8c0.1-0.3,0-0.6-0.2-0.9
		c-4.8-6.6-3.4-15.8,3.1-20.6c6.6-4.8,15.8-3.4,20.6,3.1c4.8,6.6,3.4,15.8-3.1,20.6C599.2,337.6,596.1,338.6,593,338.6L593,338.6z"
		/>
</g>
<g>
	<path class="st1" d="M593,143.2c-15.7,0-28.4,12.7-28.4,28.3s12.7,28.4,28.3,28.4s28.4-12.7,28.4-28.3v0
		C621.4,155.9,608.7,143.2,593,143.2C593,143.2,593,143.2,593,143.2z M593,197.9c-14.6,0-26.4-11.8-26.4-26.3s11.8-26.4,26.3-26.4
		c14.6,0,26.4,11.8,26.4,26.3v0C619.3,186.1,607.5,197.9,593,197.9z"/>
	<path class="st1" d="M594.6,176.1v-3c0-3.9-2.9-7.2-6.8-7.7v-1.3c0-0.6-0.4-1-1-1s-1,0.4-1,1v1.3c-3.9,0.5-6.7,3.8-6.8,7.7v3
		c0,2.6-0.6,3.9-2.7,6c-0.2,0.2-0.3,0.4-0.3,0.7v1.5c0,0.6,0.4,1,1,1h6.5c0,0.1,0,0.2,0,0.2c0,1.4,1.4,2.5,3.2,2.5s3.2-1.1,3.2-2.5
		c0-0.1,0-0.2,0-0.2h6.5c0.6,0,1-0.4,1-1v-1.5c0-0.3-0.1-0.5-0.3-0.7C595.1,180,594.6,178.8,594.6,176.1z M588.1,185.6
		c0,0.1-0.4,0.5-1.2,0.5s-1.2-0.4-1.2-0.5c0-0.1,0-0.2,0-0.2h2.6C588.1,185.5,588.1,185.6,588.1,185.6z M595.6,183.4h-17.5v-0.1
		c2.3-2.4,3-4.1,3-7.2v-3c0-3.2,2.6-5.8,5.8-5.8s5.8,2.6,5.8,5.8v3C592.6,179.2,593.3,180.9,595.6,183.4L595.6,183.4z"/>
	<path class="st1" d="M611.5,172.9l-11.2-17.2c-0.6-0.9-1.9-1-2.7-0.4c-0.1,0.1-0.3,0.2-0.4,0.4l-5.6,8.6c-0.3,0.4-0.3,1.1,0.2,1.4
		c0.4,0.3,1.1,0.3,1.4-0.2c0,0,0.1-0.1,0.1-0.1l5.5-8.4l10.8,16.6h-13.1c-0.6,0-1,0.4-1,1s0.4,1,1,1H610c0.7,0,1.3-0.4,1.7-1
		C611.9,174.1,611.9,173.4,611.5,172.9z"/>
	<path class="st1" d="M598.8,168.8c0.6,0,1-0.4,1-1v-5.9c0-0.6-0.4-1-1-1s-1,0.4-1,1v5.9C597.8,168.4,598.3,168.8,598.8,168.8z"/>
	<path class="st1" d="M597.8,171.6c0,0.6,0.4,1,1,1s1-0.4,1-1v-1.2c0-0.6-0.4-1-1-1s-1,0.4-1,1V171.6z"/>
</g>
<g>
	<path class="st1" d="M593,598.4c-15.7,0-28.4,12.7-28.4,28.3s12.7,28.4,28.3,28.4s28.4-12.7,28.4-28.3v0
		C621.3,611.1,608.7,598.4,593,598.4z M593,653.1c-14.6,0-26.4-11.8-26.4-26.3s11.8-26.4,26.3-26.4c14.6,0,26.4,11.8,26.4,26.3v0
		C619.3,641.3,607.5,653.1,593,653.1L593,653.1z"/>
	<path class="st1" d="M608.5,619.3c-3.4,0.6-6.9,0.3-7.2-0.4c-0.4-1.1,1.2-4.4,2.9-6.8c0.3-0.4,0.2-1.1-0.2-1.4
		c-0.3-0.3-0.8-0.3-1.2,0c-1.8,1.2-4.9,2.7-6.1,2.4c-1.7-0.4-2.8-3.7-3-4.9c0-0.6-0.4-1-1-1s-1,0.4-1,1c0,0-0.7,3.7-3,4.8
		c-1.9,0.9-5-1.4-6-2.4c-0.4-0.4-1-0.4-1.4,0c-0.3,0.3-0.3,0.7-0.2,1.1c0.9,2,1.4,4.1,1.5,6.3c0,0.6,0.4,1,1,1s1-0.4,1-1
		c0-1.4-0.2-2.7-0.6-4c1.6,0.9,3.6,1.6,5.5,0.7c1.4-0.7,2.5-1.9,3.2-3.3c0.7,1.5,1.8,3.1,3.5,3.5c1.5,0.1,3-0.2,4.4-0.9
		c-0.9,1.8-1.7,4-1.1,5.5s3,2,5.2,2c-1.6,1.2-3.1,2.7-3.3,4.2c-0.1,1.3,0.3,2.6,1.1,3.6c-1.3,0.4-2.4,1.2-3.2,2.2
		c-0.3,0.5-0.2,1.1,0.2,1.4c0.2,0.1,0.4,0.2,0.6,0.2c0.3,0,0.6-0.2,0.8-0.4c1.1-1.6,3.7-1.8,3.7-1.8c0.4,0,0.8-0.3,0.9-0.8
		c0.1-0.4-0.1-0.9-0.5-1.1c0,0-2.1-1.3-1.8-3.1c0.2-1.3,3.6-3.7,5.8-4.9c0.5-0.3,0.7-0.9,0.4-1.4
		C609.3,619.4,608.9,619.2,608.5,619.3L608.5,619.3z"/>
	<path class="st1" d="M592,639.1c-1.9,0-3.5,1.6-3.5,3.5s1.6,3.5,3.5,3.5s3.5-1.6,3.5-3.5S593.9,639.1,592,639.1z M592,644.1
		c-0.8,0-1.5-0.7-1.5-1.5s0.7-1.5,1.5-1.5s1.5,0.7,1.5,1.5S592.8,644.1,592,644.1z"/>
	<path class="st1" d="M592,618.2c-1.9,0-3.5,1.6-3.5,3.5l0,0l0.7,13c0,1.6,1.3,2.8,2.8,2.8c1.6,0,2.8-1.3,2.8-2.8c0,0,0,0,0,0
		l0.7-13.1C595.4,619.7,593.9,618.2,592,618.2z M592.8,634.8c0,0.5-0.4,0.9-0.8,0.9c-0.5-0.1-0.9-0.5-0.8-1l-0.7-13
		c0-0.8,0.7-1.5,1.5-1.5s1.5,0.7,1.5,1.5L592.8,634.8z"/>
	<path class="st1" d="M578,622.2c-0.4-0.4-1-0.4-1.4,0c-0.4,0.4-0.4,1,0,1.4l1.7,1.7c0.4,0.4,1,0.4,1.4,0c0,0,0,0,0,0
		c0.4-0.4,0.4-1,0-1.4c0,0,0,0,0,0L578,622.2z"/>
	<path class="st1" d="M582.4,626.6c-0.4-0.3-1.1-0.2-1.4,0.2c-0.3,0.4-0.3,0.8,0,1.2l1.7,1.7c0.2,0.2,0.4,0.3,0.7,0.3
		c0.3,0,0.5-0.1,0.7-0.3c0.4-0.4,0.4-1,0-1.4c0,0,0,0,0,0L582.4,626.6z"/>
	<path class="st1" d="M581.7,625.5c0.3,0,0.5-0.1,0.7-0.3l1.7-1.7c0.4-0.4,0.4-1,0-1.4c-0.4-0.4-1-0.4-1.4,0c0,0,0,0,0,0l-1.7,1.7
		c-0.4,0.4-0.4,1,0,1.4c0,0,0,0,0,0C581.2,625.4,581.4,625.5,581.7,625.5z"/>
	<path class="st1" d="M578.2,626.6l-1.7,1.7c-0.4,0.4-0.4,1,0,1.4c0,0,0,0,0,0c0.2,0.2,0.4,0.3,0.7,0.3c0.3,0,0.5-0.1,0.7-0.3
		l1.7-1.7c0.4-0.4,0.4-1,0-1.4S578.6,626.2,578.2,626.6L578.2,626.6L578.2,626.6z"/>
	<path class="st1" d="M603.7,639.1h-1.5v-1.5c0-0.6-0.4-1-1-1s-1,0.4-1,1v1.5h-1.5c-0.6,0-1,0.4-1,1s0.4,1,1,1h1.5v1.5
		c0,0.6,0.4,1,1,1s1-0.4,1-1v-1.5h1.5c0.6,0,1-0.4,1-1S604.2,639.1,603.7,639.1z"/>
</g>
<g>
	<polygon class="st1" points="660.9,248.9 662.1,248.9 662.5,239.5 660.5,239.5 	"/>
	<path class="st1" d="M661.5,235.5c-6.6,0-11.9,5.3-11.9,11.9s5.3,11.9,11.9,11.9s11.9-5.3,11.9-11.9c0,0,0,0,0,0
		C673.4,240.8,668.1,235.5,661.5,235.5z M661.5,257.2c-1.4,0-2.5-1.1-2.5-2.5c0-1.4,1.1-2.6,2.5-2.6c1.4,0,2.5,1.1,2.5,2.5
		c0,0,0,0,0,0C664,256.1,662.9,257.2,661.5,257.2z M664,249.5c0,0.8-0.7,1.4-1.5,1.4h-2.1c-0.8,0-1.5-0.6-1.5-1.4l-0.5-10.3
		c-0.1-0.8,0.6-1.5,1.4-1.6c0,0,0,0,0,0h3.3c0.8,0.1,1.4,0.8,1.4,1.6L664,249.5z"/>
	<path class="st1" d="M661.5,254.1c-0.3,0-0.5,0.2-0.5,0.6c0,0.3,0.2,0.6,0.5,0.6c0.3,0,0.6-0.2,0.6-0.5c0,0,0,0,0,0
		C662,254.4,661.8,254.1,661.5,254.1z"/>
	<path class="st1" d="M661.5,219.1c-15.7,0-28.4,12.7-28.4,28.3s12.7,28.4,28.3,28.4c15.7,0,28.4-12.7,28.4-28.3c0,0,0,0,0,0
		C689.8,231.7,677.2,219.1,661.5,219.1z M649.7,260.6c-0.4,0.4-1,0.4-1.4,0c0,0,0,0,0,0c-7.3-7.3-7.3-19.1,0-26.4
		c0.4-0.4,1-0.4,1.4,0c0.4,0.4,0.4,1,0,1.4c-6.5,6.5-6.5,17.1,0,23.6c0,0,0,0,0,0C650.1,259.6,650.1,260.2,649.7,260.6L649.7,260.6z
		 M661.5,261.3c-7.7,0-13.9-6.2-13.9-13.9s6.2-13.9,13.9-13.9c7.7,0,13.9,6.2,13.9,13.9c0,0,0,0,0,0
		C675.4,255,669.2,261.3,661.5,261.3z M674.7,260.6c-0.2,0.2-0.4,0.3-0.7,0.3c-0.6,0-1-0.5-1-1c0-0.3,0.1-0.5,0.3-0.7
		c6.5-6.5,6.5-17.1,0-23.6c-0.4-0.4-0.4-1,0-1.4c0.4-0.4,1-0.4,1.4,0C682,241.5,682,253.3,674.7,260.6L674.7,260.6z"/>
</g>
<g>
	<path class="st1" d="M661.5,329.8c-0.8,0-1.5,0.7-1.5,1.5s0.7,1.5,1.5,1.5c0.8,0,1.5-0.7,1.5-1.5c0,0,0,0,0,0
		C663,330.5,662.3,329.8,661.5,329.8z"/>
	<path class="st1" d="M661.5,324.5c0.3,0,0.6-0.2,0.7-0.5c0.2-0.6,0.6-5.2,0.8-8.4c0-0.4-0.1-0.7-0.4-1c-0.6-0.6-1.6-0.6-2.2,0
		c0,0,0,0,0,0c-0.3,0.3-0.4,0.6-0.4,1c0.2,3.2,0.6,7.8,0.8,8.4C660.9,324.3,661.2,324.5,661.5,324.5z"/>
	<path class="st1" d="M661.5,295.9c-15.7,0-28.4,12.7-28.4,28.3c0,15.7,12.7,28.4,28.3,28.4c15.7,0,28.4-12.7,28.4-28.3c0,0,0,0,0,0
		C689.8,308.6,677.2,295.9,661.5,295.9z M661.5,340.6c-2.2,0-4.3-0.4-6.3-1.2c-3.9,2.1-9.2,2.1-9.4,2.1c-0.4,0-0.7-0.2-0.9-0.5
		c-0.2-0.3-0.2-0.7,0-1c1.1-2.1,2.1-4.3,2.9-6.6c-2-2.8-3-6.1-3-9.5c0-9.3,7.5-16.8,16.8-16.8s16.8,7.5,16.8,16.8
		S670.8,340.6,661.5,340.6L661.5,340.6L661.5,340.6z"/>
	<path class="st1" d="M661.5,309.1c-8.1,0-14.7,6.6-14.8,14.8c0,3.2,1,6.2,2.9,8.8c0.2,0.3,0.2,0.6,0.2,0.9c-0.6,2-1.4,3.9-2.4,5.8
		c2.5-0.2,4.9-0.9,7.2-2c0.3-0.2,0.6-0.2,0.9,0c7.4,3.3,16.2,0,19.5-7.5c3.3-7.4,0-16.2-7.5-19.5C665.6,309.5,663.6,309,661.5,309.1
		L661.5,309.1z M658.9,313.2c1.4-1.4,3.6-1.5,5.1-0.1c0,0,0.1,0.1,0.1,0.1c0.6,0.7,1,1.6,0.9,2.5c-0.2,2.2-0.6,7.9-0.9,8.8
		c-0.4,1.4-1.9,2.3-3.4,1.9c-0.9-0.3-1.6-1-1.9-1.9c-0.3-0.9-0.7-6.6-0.9-8.8C657.9,314.8,658.3,313.8,658.9,313.2L658.9,313.2z
		 M661.5,334.8c-1.9,0-3.5-1.6-3.5-3.5s1.6-3.5,3.5-3.5c1.9,0,3.5,1.6,3.5,3.5c0,0,0,0,0,0C665,333.2,663.4,334.8,661.5,334.8
		L661.5,334.8z"/>
</g>
<g>
	<path class="st1" d="M661.1,173.1c-0.1-3.2-2.8-5.6-6-5.5c-3,0.1-5.4,2.5-5.5,5.5v3c0,3.1-0.7,4.8-3,7.2v0.1h17.5v-0.1
		c-2.3-2.4-3-4.1-3-7.2V173.1z"/>
	<path class="st1" d="M661.5,143.2c-15.7,0-28.4,12.7-28.4,28.3s12.7,28.4,28.3,28.4s28.4-12.7,28.4-28.3v0
		C689.8,155.9,677.2,143.2,661.5,143.2z M666.1,184.4c0,0.6-0.4,1-1,1h-6.5c0,0.1,0,0.2,0,0.2c0,1.4-1.4,2.5-3.3,2.5
		s-3.2-1.1-3.2-2.5c0-0.1,0-0.2,0-0.2h-6.5c-0.6,0-1-0.4-1-1v-1.5c0-0.3,0.1-0.5,0.3-0.7c2.2-2.1,2.7-3.4,2.7-6v-3
		c0-3.9,2.9-7.2,6.8-7.7v-1.3c0-0.6,0.4-1,1-1s1,0.4,1,1v1.3c3.9,0.5,6.8,3.8,6.8,7.7v3c0,2.6,0.5,3.9,2.7,6
		c0.2,0.2,0.3,0.4,0.3,0.7L666.1,184.4z M680.1,174.7c-0.3,0.6-1,1-1.6,1h-13.4c-0.6,0-1-0.4-1-1s0.4-1,1-1h13.1L667.4,157l-5.5,8.4
		c-0.3,0.5-0.9,0.6-1.4,0.3s-0.6-0.9-0.3-1.4l5.6-8.6c0.6-0.9,1.9-1,2.7-0.4c0.1,0.1,0.3,0.2,0.4,0.4l11.2,17.2
		C680.4,173.4,680.5,174.1,680.1,174.7L680.1,174.7z M667.3,169.4c0.6,0,1,0.4,1,1v1.2c0,0.6-0.4,1-1,1s-1-0.4-1-1v-1.2
		C666.3,169.9,666.8,169.4,667.3,169.4C667.4,169.4,667.4,169.4,667.3,169.4L667.3,169.4z M666.3,167.8v-5.9c0-0.6,0.4-1,1-1
		s1,0.4,1,1v5.9c0,0.6-0.4,1-1,1S666.3,168.4,666.3,167.8z"/>
	<path class="st1" d="M654.1,185.6c0,0.1,0.4,0.5,1.2,0.5s1.2-0.4,1.2-0.5c0-0.1,0-0.2,0-0.2H654
		C654.1,185.5,654.1,185.6,654.1,185.6z"/>
</g>
<g>
	<path class="st1" d="M661.5,598.4c-15.7,0-28.4,12.7-28.4,28.3s12.7,28.4,28.3,28.4s28.4-12.7,28.4-28.3v0
		C689.8,611.1,677.2,598.4,661.5,598.4z M648.2,628l-1.7,1.7c-0.4,0.4-1,0.4-1.4,0c0,0,0,0,0,0c-0.4-0.4-0.4-1,0-1.4c0,0,0,0,0,0
		l1.7-1.7c0.4-0.4,1.1-0.3,1.4,0.1C648.5,627.1,648.5,627.6,648.2,628z M648.2,625.2c-0.2,0.2-0.4,0.3-0.7,0.3
		c-0.3,0-0.5-0.1-0.7-0.3l-1.7-1.7c-0.4-0.4-0.4-1,0-1.4c0.4-0.4,1-0.4,1.4,0c0,0,0,0,0,0l1.7,1.7
		C648.6,624.2,648.6,624.8,648.2,625.2C648.2,625.2,648.2,625.2,648.2,625.2L648.2,625.2z M652.6,629.7c-0.4,0.4-1,0.4-1.4,0
		l-1.7-1.7c-0.4-0.4-0.4-1,0-1.4s1-0.4,1.4,0l1.7,1.7C653,628.7,653,629.3,652.6,629.7C652.6,629.7,652.6,629.7,652.6,629.7
		L652.6,629.7z M652.6,623.6l-1.6,1.7c-0.4,0.4-1,0.4-1.4,0c0,0,0,0,0,0c-0.4-0.4-0.4-1,0-1.4c0,0,0,0,0,0l1.7-1.7
		c0.4-0.4,1.1-0.3,1.4,0.1C653,622.6,653,623.2,652.6,623.6L652.6,623.6z M660.5,646.1c-1.9,0-3.5-1.6-3.5-3.5s1.6-3.5,3.5-3.5
		s3.5,1.6,3.5,3.5C664,644.5,662.5,646.1,660.5,646.1L660.5,646.1z M663.4,634.9c0.1,1.6-1.1,2.9-2.7,3c-1.6,0.1-2.9-1.1-3-2.7
		c0-0.1,0-0.2,0-0.3l-0.7-13l0,0c0.1-1.9,1.8-3.4,3.8-3.2c1.7,0.1,3.1,1.5,3.2,3.2L663.4,634.9z M672.2,641.1h-1.5v1.5
		c0,0.6-0.4,1-1,1s-1-0.4-1-1v-1.5h-1.5c-0.6,0-1-0.4-1-1s0.4-1,1-1h1.5v-1.5c0-0.6,0.4-1,1-1s1,0.4,1,1v1.5h1.5c0.6,0,1,0.4,1,1
		S672.8,641.1,672.2,641.1z M677.7,621.2c-2.2,1.2-5.6,3.5-5.8,4.9c-0.2,1.8,1.8,3.1,1.8,3.1c0.5,0.3,0.6,0.9,0.4,1.4
		c-0.2,0.3-0.5,0.5-0.8,0.5c0,0-2.6,0.2-3.7,1.8c-0.2,0.3-0.5,0.4-0.8,0.4c-0.2,0-0.4-0.1-0.6-0.2c-0.4-0.3-0.6-0.9-0.2-1.4
		c0.8-1.1,1.9-1.8,3.2-2.2c-0.9-1-1.3-2.3-1.1-3.6c0.2-1.5,1.7-3,3.3-4.2c-2.2,0-4.6-0.4-5.2-2s0.2-3.6,1.1-5.5
		c-1.3,0.7-2.9,1-4.4,0.9c-1.7-0.4-2.8-2-3.5-3.5c-0.7,1.4-1.8,2.6-3.2,3.3c-1.8,0.8-3.9,0.2-5.5-0.7c0.4,1.3,0.6,2.6,0.6,4
		c0,0.6-0.4,1-1,1s-1-0.4-1-1c-0.1-2.2-0.7-4.3-1.5-6.3c-0.2-0.5,0-1.1,0.5-1.3c0.4-0.2,0.8-0.1,1.1,0.2c1,1,4.1,3.2,6,2.4
		c2.4-1.1,3-4.8,3.1-4.8c0.1-0.5,0.5-0.8,1-0.8c0.5,0,0.9,0.3,1,0.8c0.2,1.1,1.3,4.5,3,4.9c1.2,0.3,4.3-1.2,6.2-2.4
		c0.5-0.3,1.1-0.2,1.4,0.3c0.2,0.3,0.2,0.8,0,1.1c-1.7,2.4-3.3,5.7-2.9,6.8c0.3,0.8,3.8,1,7.2,0.4c0.5-0.1,1,0.2,1.1,0.7
		C678.3,620.5,678.1,621,677.7,621.2L677.7,621.2z"/>
	<path class="st1" d="M660.5,641.1c-0.8,0-1.5,0.7-1.5,1.5s0.7,1.5,1.5,1.5s1.5-0.7,1.5-1.5C662,641.8,661.4,641.1,660.5,641.1z"/>
	<path class="st1" d="M660.5,620.2c-0.8,0-1.5,0.7-1.5,1.5l0.7,13c0,0.5,0.4,0.9,0.8,1c0.5-0.1,0.8-0.5,0.8-0.9l0.6-13.1
		C662,620.9,661.3,620.3,660.5,620.2z"/>
</g>
<g>
	<path class="st1" d="M593,446.7c-15.7,0-28.4,12.6-28.4,28.3c0,15.7,12.6,28.4,28.3,28.4c15.7,0,28.4-12.6,28.4-28.3c0,0,0,0,0-0.1
		C621.3,459.4,608.6,446.7,593,446.7z M593,501.4c-14.6,0-26.4-11.7-26.4-26.3c0-14.6,11.7-26.4,26.3-26.4
		c14.6,0,26.4,11.7,26.4,26.3c0,0,0,0,0,0C619.3,489.5,607.5,501.3,593,501.4z"/>
	<path class="st1" d="M593,482.1c-2,0-3.6,1.6-3.5,3.6c0,2,1.6,3.6,3.6,3.5c2,0,3.5-1.6,3.5-3.6C596.6,483.7,595,482.1,593,482.1
		C593,482.1,593,482.1,593,482.1z M593,487.2c-0.9,0-1.6-0.7-1.5-1.6c0-0.9,0.7-1.6,1.6-1.5c0.9,0,1.5,0.7,1.5,1.6
		C594.6,486.5,593.9,487.2,593,487.2C593,487.2,593,487.2,593,487.2z"/>
	<path class="st1" d="M593,460.8c-1.9,0-3.5,1.5-3.6,3.5c0,0.1,0,0.1,0,0.2c0.1,2.6,0.6,13.2,0.9,14.2c0.4,1.5,2,2.3,3.5,1.9
		c0.9-0.3,1.6-1,1.9-1.9c0.3-1,0.9-11.9,0.9-14.3C596.6,462.5,595.1,460.8,593,460.8C593.1,460.8,593,460.8,593,460.8z M593.8,478.2
		c-0.1,0.4-0.4,0.6-0.8,0.5c-0.3,0.1-0.7-0.2-0.7-0.5c-0.2-0.8-0.7-9.7-0.8-13.8c0-0.4,0.1-0.8,0.4-1.1c0.3-0.3,0.7-0.5,1.1-0.5
		c0.9,0,1.6,0.7,1.6,1.5c0,0,0,0.1,0,0.1C594.5,467.2,593.9,477.3,593.8,478.2L593.8,478.2z"/>
	<path class="st1" d="M603.2,471.5l1.8-3.4c0.1-0.2,0.1-0.5,0.1-0.8c-0.1-0.3-0.3-0.5-0.5-0.6l-3.5-1.6c-0.5-0.3-1.1-0.1-1.4,0.4
		c-0.3,0.5-0.1,1.1,0.4,1.4c0.1,0,0.1,0.1,0.2,0.1l2.5,1.1l-1.6,3.1c-0.2,0.4-0.1,0.9,0.2,1.2l2.2,2.2l-2.2,2.2
		c-0.3,0.3-0.4,0.8-0.2,1.2l1.6,3.1l-2.5,1.1c-0.5,0.2-0.7,0.8-0.5,1.3c0.2,0.4,0.5,0.6,0.9,0.6c0.1,0,0.3,0,0.4-0.1l3.5-1.6
		c0.3-0.1,0.4-0.3,0.5-0.6c0.1-0.3,0.1-0.5-0.1-0.8l-1.8-3.4l2.4-2.4c0.4-0.4,0.4-1,0-1.4L603.2,471.5z"/>
	<path class="st1" d="M612.5,474l-2.5-3.4l1.9-4.7c0.2-0.5,0-1-0.4-1.2l-3.5-2.1c-0.5-0.3-1.1-0.1-1.4,0.4c-0.3,0.5-0.1,1.1,0.3,1.4
		l2.7,1.6l-1.8,4.4c-0.1,0.3-0.1,0.7,0.1,1l2.5,3.2l-2.5,3.2c-0.2,0.3-0.3,0.7-0.1,1l1.8,4.4l-2.6,1.6c-0.5,0.3-0.6,0.9-0.3,1.4
		c0.2,0.3,0.5,0.5,0.9,0.5c0.2,0,0.4-0.1,0.5-0.1l3.5-2c0.4-0.3,0.6-0.8,0.4-1.2l-1.9-4.7l2.6-3.4
		C612.8,474.8,612.8,474.3,612.5,474z"/>
	<path class="st1" d="M586.2,465.6c-0.2-0.5-0.8-0.7-1.3-0.5l-3.5,1.6c-0.5,0.2-0.7,0.8-0.5,1.3c0,0,0,0,0,0.1l1.8,3.4l-2.4,2.4
		c-0.4,0.4-0.4,1,0,1.4l2.4,2.4l-1.8,3.4c-0.3,0.5-0.1,1.1,0.4,1.4c0,0,0,0,0.1,0l3.5,1.6c0.1,0.1,0.3,0.1,0.4,0.1c0.6,0,1-0.4,1-1
		c0-0.4-0.2-0.8-0.6-0.9l-2.5-1.1l1.6-3.1c0.2-0.4,0.1-0.9-0.2-1.2l-2.2-2.2l2.2-2.2c0.3-0.3,0.4-0.8,0.2-1.2l-1.6-3.1l2.5-1.1
		C586.2,466.7,586.4,466.1,586.2,465.6z"/>
	<path class="st1" d="M579.3,463c-0.3-0.5-0.9-0.6-1.4-0.4l-3.5,2.1c-0.4,0.3-0.6,0.8-0.4,1.2l1.9,4.7l-2.6,3.4
		c-0.3,0.4-0.3,0.9,0,1.2l2.6,3.4l-1.9,4.7c-0.2,0.5,0,1,0.4,1.2l3.5,2c0.2,0.1,0.3,0.1,0.5,0.1c0.4,0,0.7-0.2,0.9-0.5
		c0.3-0.5,0.1-1.1-0.3-1.4l-2.7-1.6l1.8-4.4c0.1-0.3,0.1-0.7-0.1-1l-2.5-3.2l2.5-3.2c0.2-0.3,0.3-0.7,0.1-1l-1.8-4.4l2.7-1.6
		C579.4,464.1,579.6,463.5,579.3,463C579.3,463,579.3,463,579.3,463z"/>
</g>
<g>
	<path class="st1" d="M593,370.8c-15.7,0-28.4,12.7-28.4,28.3c0,15.7,12.7,28.4,28.3,28.4c15.7,0,28.4-12.7,28.4-28.3c0,0,0,0,0,0
		C621.3,383.5,608.7,370.8,593,370.8C593,370.8,593,370.8,593,370.8z M593,425.5c-14.6,0-26.4-11.8-26.4-26.3s11.8-26.4,26.3-26.4
		c14.6,0,26.4,11.8,26.4,26.3c0,0,0,0,0,0C619.3,413.7,607.5,425.5,593,425.5z"/>
	<path class="st1" d="M610,386.5c-0.4-0.4-1-0.4-1.4,0c-0.4,0.4-0.4,1,0,1.4c4,4.1,4,10.6,0,14.8c-0.4,0.4-0.4,1,0,1.4
		c0.2,0.2,0.4,0.3,0.7,0.3c0.3,0,0.5-0.1,0.7-0.3C614.7,399.2,614.7,391.4,610,386.5z"/>
	<path class="st1" d="M605.5,401c0.2,0.2,0.4,0.3,0.7,0.3c0.3,0,0.5-0.1,0.7-0.3c3.1-3.1,3.2-8.2,0-11.3c0,0,0,0,0,0
		c-0.4-0.4-1-0.4-1.4,0c-0.4,0.4-0.4,1,0,1.4c0,0,0,0,0,0c2.4,2.3,2.4,6.1,0,8.5c0,0,0,0,0,0C605.1,400,605.1,400.6,605.5,401
		C605.5,401,605.5,401,605.5,401z"/>
	<path class="st1" d="M602.4,397.8c0.2,0.2,0.5,0.3,0.7,0.3c0.2,0,0.5-0.1,0.7-0.3c1.4-1.3,1.6-3.5,0.3-4.9
		c-0.1-0.1-0.2-0.2-0.3-0.3c-0.4-0.4-1-0.4-1.4,0c-0.4,0.4-0.4,1,0,1.4c0,0,0.1,0.1,0.1,0.1c0.3,0.3,0.5,0.7,0.5,1.1
		c0,0.4-0.2,0.8-0.5,1.1C602.1,396.8,602.1,397.4,602.4,397.8z"/>
	<path class="st1" d="M577.4,387.9c0.4-0.4,0.4-1,0-1.4c-0.4-0.4-1-0.4-1.4,0c0,0,0,0,0,0c-4.7,4.9-4.7,12.7,0,17.6
		c0.4,0.4,1,0.4,1.4,0c0,0,0,0,0,0c0.4-0.4,0.4-1,0-1.4C573.4,398.6,573.4,392,577.4,387.9z"/>
	<path class="st1" d="M579,401c0.4,0.4,1,0.4,1.4,0c0,0,0,0,0,0c0.4-0.4,0.4-1,0-1.4c0,0,0,0,0,0c-2.4-2.3-2.4-6.1,0-8.5
		c0,0,0,0,0,0c0.4-0.4,0.4-1,0-1.4c-0.4-0.4-1-0.4-1.4,0C575.9,392.8,575.8,397.8,579,401C579,401,579,401,579,401z"/>
	<path class="st1" d="M582.8,398.2c0.6,0,1-0.5,1-1c0-0.3-0.1-0.5-0.3-0.7c-0.3-0.3-0.5-0.7-0.5-1.1c0-0.4,0.2-0.8,0.5-1.1
		c0.4-0.4,0.4-1,0-1.4c-0.4-0.4-0.9-0.4-1.3-0.1c-1.4,1.3-1.6,3.5-0.3,4.9c0.1,0.1,0.2,0.2,0.3,0.3
		C582.3,398.1,582.5,398.2,582.8,398.2z"/>
	<path class="st1" d="M594.6,388.8c-0.4-0.5-1-0.9-1.6-0.9c-0.7,0-1.3,0.3-1.7,0.9L578.7,409c-0.6,0.9-0.3,2.1,0.6,2.7
		c0.3,0.2,0.7,0.3,1,0.3h25.3c1.1,0,1.9-0.9,2-1.9c0-0.4-0.1-0.8-0.3-1.1L594.6,388.8z M580.3,410.1l12.6-20.2l12.6,20.1
		L580.3,410.1z"/>
	<path class="st1" d="M592,395.7v7.9c0,0.6,0.4,1,1,1s1-0.4,1-1v-7.9c0-0.6-0.4-1-1-1S592,395.2,592,395.7z"/>
	<path class="st1" d="M593,405.5c-0.6,0-1,0.4-1,1v1.1c0,0.6,0.4,1,1,1s1-0.4,1-1v-1.1C594,406,593.6,405.5,593,405.5z"/>
</g>
<g>
	<path class="st1" d="M661.5,462.8c-0.4,0-0.8,0.2-1.1,0.5c-0.3,0.3-0.4,0.7-0.4,1.1c0.1,4.1,0.6,12.9,0.8,13.8
		c0.1,0.4,0.6,0.6,1,0.5c0.2-0.1,0.4-0.3,0.5-0.5c0.2-0.8,0.8-11,0.8-13.7c0.1-0.9-0.6-1.6-1.4-1.7
		C661.6,462.8,661.5,462.8,661.5,462.8z"/>
	<path class="st1" d="M661.5,484.1c-0.9,0-1.6,0.7-1.6,1.6s0.7,1.6,1.6,1.6s1.6-0.7,1.6-1.6l0,0
		C663.1,484.8,662.4,484.1,661.5,484.1z"/>
	<path class="st1" d="M661.5,446.7c-15.7,0-28.4,12.7-28.4,28.3c0,15.7,12.7,28.4,28.3,28.4c15.7,0,28.4-12.7,28.4-28.3c0,0,0,0,0,0
		C689.8,459.3,677.2,446.7,661.5,446.7z M646.6,470.4c0.1,0.3,0.1,0.7-0.1,1l-2.4,3.2l2.5,3.2c0.2,0.3,0.3,0.7,0.1,1l-1.8,4.4
		l2.7,1.6c0.5,0.3,0.6,0.9,0.3,1.4c-0.2,0.3-0.5,0.5-0.9,0.5c-0.2,0-0.4,0-0.5-0.1l-3.5-2.1c-0.4-0.3-0.6-0.8-0.4-1.2l1.9-4.7
		l-2.6-3.4c-0.3-0.4-0.3-0.9,0-1.2l2.6-3.4l-1.9-4.7c-0.2-0.5,0-1,0.4-1.2l3.5-2.1c0.5-0.3,1.1-0.1,1.4,0.4c0.3,0.5,0.1,1.1-0.3,1.4
		l-2.7,1.7L646.6,470.4z M653.4,471.2c0.2,0.4,0.1,0.9-0.2,1.2l-2.2,2.2l2.2,2.2c0.3,0.3,0.4,0.8,0.2,1.2l-1.6,3.1l2.5,1.1
		c0.5,0.2,0.7,0.8,0.5,1.3c-0.2,0.4-0.5,0.6-0.9,0.6c-0.1,0-0.3,0-0.4-0.1l-3.4-1.6c-0.3-0.1-0.4-0.3-0.5-0.6
		c-0.1-0.3-0.1-0.5,0.1-0.8l1.8-3.4l-2.4-2.4c-0.4-0.4-0.4-1,0-1.4l2.4-2.4l-1.8-3.4c-0.1-0.2-0.1-0.5-0.1-0.8
		c0.1-0.3,0.3-0.5,0.5-0.6l3.5-1.6c0.5-0.3,1.1-0.1,1.4,0.4c0.3,0.5,0.1,1.1-0.4,1.4c-0.1,0-0.1,0.1-0.2,0.1l-2.5,1.1L653.4,471.2z
		 M661.5,489.2c-2,0-3.6-1.6-3.6-3.6s1.6-3.6,3.6-3.6s3.6,1.6,3.6,3.6l0,0C665.1,487.6,663.5,489.2,661.5,489.2z M664.2,478.7
		c-0.4,1.5-2,2.3-3.4,1.9c-0.9-0.3-1.6-1-1.9-1.9c-0.3-1-0.8-11.6-0.9-14.2c0-1,0.3-1.9,1-2.6c1.4-1.4,3.6-1.4,5.1-0.1
		c0.7,0.7,1.1,1.6,1.1,2.6C665.1,466.8,664.5,477.7,664.2,478.7z M674.2,475.3l-2.4,2.4l1.8,3.4c0.1,0.2,0.1,0.5,0.1,0.8
		c-0.1,0.3-0.3,0.5-0.5,0.6l-3.5,1.5c-0.1,0.1-0.3,0.1-0.4,0.1c-0.6,0-1-0.5-1-1c0-0.4,0.2-0.7,0.6-0.9l2.5-1.1l-1.6-3
		c-0.2-0.4-0.1-0.9,0.2-1.2l2.2-2.2l-2.2-2.2c-0.3-0.3-0.4-0.8-0.2-1.2l1.6-3.1l-2.5-1.1c-0.5-0.2-0.8-0.8-0.6-1.3
		c0.2-0.5,0.8-0.8,1.3-0.6c0.1,0,0.1,0,0.2,0.1l3.5,1.6c0.3,0.1,0.4,0.3,0.5,0.6c0.1,0.3,0.1,0.5-0.1,0.8l-1.8,3.4l2.4,2.4
		C674.5,474.3,674.5,474.9,674.2,475.3L674.2,475.3z M681.1,475.2l-2.6,3.4l1.9,4.7c0.2,0.5,0,1-0.4,1.2l-3.5,2
		c-0.2,0.1-0.3,0.1-0.5,0.1c-0.4,0-0.7-0.2-0.9-0.5c-0.3-0.5-0.1-1.1,0.3-1.4l2.7-1.6l-1.8-4.4c-0.1-0.3-0.1-0.7,0.1-1l2.5-3.2
		l-2.5-3.2c-0.2-0.3-0.3-0.7-0.1-1l1.8-4.4l-2.7-1.6c-0.4-0.3-0.5-1-0.2-1.4c0.3-0.4,0.8-0.5,1.2-0.3l3.5,2.1
		c0.4,0.3,0.6,0.8,0.4,1.2l-1.9,4.7l2.6,3.4C681.4,474.3,681.4,474.8,681.1,475.2L681.1,475.2z"/>
</g>
<g>
	<path class="st1" d="M648.9,410.1l25.2-0.1l-12.6-20.1L648.9,410.1z M662.5,407.6c0,0.6-0.4,1-1,1s-1-0.4-1-1v-1.1c0-0.6,0.4-1,1-1
		s1,0.4,1,1V407.6z M662.5,395.7v7.9c0,0.6-0.4,1-1,1s-1-0.4-1-1v-7.9c0-0.6,0.4-1,1-1S662.5,395.2,662.5,395.7z"/>
	<path class="st1" d="M661.5,370.8c-15.7,0-28.4,12.7-28.4,28.3c0,15.7,12.7,28.4,28.3,28.4c15.7,0,28.4-12.7,28.4-28.3c0,0,0,0,0,0
		C689.8,383.5,677.2,370.8,661.5,370.8z M674,391c-0.4-0.4-0.4-1,0-1.4c0,0,0,0,0,0c0.4-0.4,1-0.4,1.4,0c3.1,3.1,3.2,8.2,0,11.3
		c0,0,0,0,0,0c-0.4,0.4-1,0.4-1.4,0c-0.4-0.4-0.4-1,0-1.4C676.4,397.2,676.4,393.4,674,391C674,391.1,674,391.1,674,391L674,391z
		 M671,394.2c-0.4-0.4-0.4-1-0.1-1.4c0.4-0.4,1-0.4,1.4-0.1c0,0,0,0,0,0c1.4,1.3,1.6,3.5,0.3,4.9c-0.1,0.1-0.2,0.2-0.3,0.3
		c-0.2,0.2-0.4,0.3-0.7,0.3c-0.6,0-1-0.4-1-1c0-0.3,0.1-0.6,0.3-0.7c0.3-0.3,0.5-0.7,0.5-1.1C671.5,394.9,671.3,394.5,671,394.2z
		 M650.6,392.7c0.4-0.4,1-0.3,1.4,0.1c0,0,0,0,0,0c0.4,0.4,0.3,1-0.1,1.4c-0.3,0.3-0.5,0.7-0.5,1.1c0,0.4,0.2,0.8,0.5,1.1
		c0.4,0.4,0.4,1,0.1,1.4c-0.4,0.4-1,0.4-1.4,0.1c-1.4-1.3-1.6-3.5-0.3-4.9C650.4,392.9,650.5,392.8,650.6,392.7L650.6,392.7z
		 M649,389.6c0.4,0.4,0.4,1,0,1.4c0,0,0,0,0,0c-2.4,2.3-2.4,6.1,0,8.5c0,0,0,0,0,0c0.4,0.4,0.4,1,0,1.4c-0.4,0.4-1,0.4-1.4,0l0,0
		c-3.1-3.1-3.2-8.2,0-11.3c0,0,0,0,0,0C648,389.2,648.6,389.2,649,389.6z M646,404.1c-0.4,0.4-1,0.4-1.4,0c0,0,0,0,0,0
		c-4.7-4.9-4.7-12.7,0-17.6c0.4-0.4,1-0.4,1.4,0c0,0,0,0,0,0c0.4,0.4,0.4,1,0,1.4c-4,4.1-4,10.6,0,14.8
		C646.4,403.1,646.3,403.7,646,404.1L646,404.1z M676,411c-0.3,0.6-1,1-1.7,1h-25.4c-1.1,0-1.9-0.9-1.9-2c0-0.4,0.1-0.7,0.3-1
		l12.6-20.2c0.6-0.9,1.9-1.1,2.8-0.5c0.2,0.1,0.4,0.3,0.5,0.5l12.7,20.2c0.4,0.6,0.4,1.4,0.1,2L676,411z M678.6,404.1
		c-0.2,0.2-0.4,0.3-0.7,0.3c-0.6,0-1-0.4-1-1c0-0.3,0.1-0.5,0.3-0.7c4-4.1,4-10.6,0-14.8c-0.4-0.4-0.4-1,0-1.4c0.4-0.4,1-0.4,1.4,0
		c4.7,4.9,4.6,12.7-0.1,17.6H678.6z"/>
</g>
<g>
	<path class="st1" d="M757.8,143.2c-15.7,0-28.4,12.7-28.4,28.3s12.7,28.4,28.3,28.4s28.4-12.7,28.4-28.3v0
		C786.2,155.9,773.5,143.2,757.8,143.2C757.8,143.2,757.8,143.2,757.8,143.2z M757.8,197.9c-14.6,0-26.4-11.8-26.4-26.3
		s11.8-26.4,26.3-26.4c14.6,0,26.4,11.8,26.4,26.3v0C784.1,186.1,772.4,197.9,757.8,197.9z"/>
	<path class="st1" d="M757.8,154.4c-6.1,0-11,5-11,11.1v20.1c0,1.7,1.3,3,3,3s3-1.3,3-3c0-0.6,0.4-1,1-1s1,0.4,1,1c0,1.7,1.3,3,3,3
		s3-1.3,3-3c0-0.6,0.4-1,1-1s1,0.4,1,1c0,1.7,1.3,3,3,3s3-1.3,3-3v-20.1C768.8,159.4,763.9,154.5,757.8,154.4z M766.9,185.6
		c0,0.6-0.4,1-1,1s-1-0.4-1-1c0-1.7-1.3-3-3-3s-3,1.3-3,3c0,0.6-0.4,1-1,1s-1-0.4-1-1c0-1.7-1.3-3-3-3s-3,1.3-3,3c0,0.6-0.4,1-1,1
		s-1-0.4-1-1v-20.1c0.2-5,4.4-8.9,9.4-8.8c4.8,0.2,8.6,4,8.8,8.8L766.9,185.6z"/>
	<path class="st1" d="M762.8,162.6c-0.8,0-1.5,0.7-1.5,1.5s0.7,1.5,1.5,1.5s1.5-0.7,1.5-1.5S763.6,162.6,762.8,162.6z"/>
	<path class="st1" d="M759.4,167.6c-1.2,0-2,1.3-2,3.1s0.9,3.1,2,3.1s2-1.3,2-3.1S760.6,167.6,759.4,167.6z"/>
	<path class="st1" d="M756.1,162.6c-0.8,0-1.5,0.7-1.5,1.5s0.7,1.5,1.5,1.5s1.5-0.7,1.5-1.5C757.6,163.3,756.9,162.6,756.1,162.6z"
		/>
</g>
<g>
	<path class="st1" d="M826.4,156.4c-5,0-9,4.1-9,9.1v20.1c0,0.6,0.4,1,1,1s1-0.4,1-1c0-1.7,1.3-3,3-3s3,1.3,3,3c0,0.6,0.4,1,1,1
		s1-0.4,1-1c0-1.7,1.3-3,3-3s3,1.3,3,3c0,0.6,0.4,1,1,1s1-0.4,1-1v-20.1C835.3,160.5,831.3,156.5,826.4,156.4z M824.6,165.6
		c-0.8,0-1.5-0.7-1.5-1.5s0.7-1.5,1.5-1.5s1.5,0.7,1.5,1.5S825.4,165.6,824.6,165.6z M828,173.8c-1.2,0-2-1.3-2-3.1s0.9-3.1,2-3.1
		s2,1.3,2,3.1S829.2,173.8,828,173.8L828,173.8z M831.3,165.6c-0.8,0-1.5-0.7-1.5-1.5s0.7-1.5,1.5-1.5s1.5,0.7,1.5,1.5
		C832.8,164.9,832.1,165.6,831.3,165.6L831.3,165.6z"/>
	<path class="st1" d="M826.4,143.2c-15.7,0-28.4,12.7-28.4,28.3s12.7,28.4,28.3,28.4s28.4-12.7,28.4-28.3v0
		C854.7,155.9,842,143.2,826.4,143.2C826.4,143.2,826.4,143.2,826.4,143.2z M837.4,185.6c0,1.7-1.3,3-3,3s-3-1.3-3-3
		c0-0.6-0.4-1-1-1s-1,0.4-1,1c0,1.7-1.3,3-3,3s-3-1.3-3-3c0-0.6-0.4-1-1-1s-1,0.4-1,1c0,1.7-1.3,3-3,3s-3-1.3-3-3v-20.1
		c0-6.1,4.9-11.1,11-11.1c6.1,0,11.1,4.9,11.1,11c0,0,0,0,0,0L837.4,185.6z"/>
</g>
<g>
	<path class="st1" d="M757.8,674.3c-15.7,0-28.4,12.7-28.4,28.3s12.7,28.4,28.3,28.4s28.4-12.7,28.4-28.3c0,0,0,0,0,0
		C786.2,687,773.5,674.3,757.8,674.3C757.8,674.3,757.8,674.3,757.8,674.3z M757.8,729c-14.6,0-26.4-11.8-26.4-26.3
		s11.8-26.4,26.3-26.4c14.6,0,26.4,11.8,26.4,26.3v0C784.2,717.2,772.4,729,757.8,729L757.8,729z"/>
	<path class="st1" d="M770.4,690.3l-4.2-1v-1.8c-0.2-1.9-1.9-3.3-3.9-3.1c-1.6,0.2-2.9,1.5-3.1,3.1v0.3l-11.3-2.5
		c-0.4-0.1-0.9,0.1-1.1,0.5c-0.2,0.4-5,9.6,0,18.5c0.2,0.3,0.5,0.5,0.9,0.5h0.2l11.3-2.5v15.4c0.2,1.9,1.9,3.3,3.9,3.1
		c1.6-0.2,2.9-1.5,3.1-3.1v-16.9l4.2-0.9c0.5-0.1,0.8-0.5,0.8-1v-7.5C771.2,690.8,770.9,690.4,770.4,690.3z M761.1,687.5
		c0.1-0.8,0.9-1.4,1.7-1.3c0.6,0.1,1.1,0.6,1.3,1.3v1.5l-3-0.7V687.5z M764.1,717.7c-0.1,0.8-0.9,1.4-1.7,1.3
		c-0.6-0.1-1.1-0.6-1.3-1.3v-15.8l3-0.7V717.7z M769.1,698l-21.1,4.7c-3.2-6.5-0.9-13.2,0-15.3l21,4.7L769.1,698z"/>
</g>
<g>
	<path class="st1" d="M593,674.3c-15.7,0-28.4,12.7-28.4,28.3S577.3,731,593,731s28.4-12.7,28.4-28.3c0,0,0,0,0,0
		C621.3,687,608.7,674.3,593,674.3C593,674.3,593,674.3,593,674.3z M593,729c-14.6,0-26.4-11.8-26.4-26.3s11.8-26.4,26.3-26.4
		c14.6,0,26.4,11.8,26.4,26.3v0C619.3,717.2,607.5,729,593,729z"/>
	<path class="st1" d="M593,714c-1.9,0-3.5,1.6-3.5,3.5s1.6,3.5,3.5,3.5c1.9,0,3.5-1.6,3.5-3.5l0,0C596.5,715.6,594.9,714.1,593,714
		C593,714,593,714,593,714z M593,719c-0.8,0-1.5-0.7-1.5-1.5s0.7-1.5,1.5-1.5l0,0c0.8,0,1.5,0.7,1.5,1.5S593.8,719,593,719z"/>
	<path class="st1" d="M596.7,684.2h-7.5c-0.3,0-0.5,0.1-0.7,0.3c-0.2,0.2-0.3,0.5-0.3,0.7l1.2,24.9c0,0.6,0.4,1,1,1h5
		c0.6,0,1-0.4,1-1l1.2-24.9c0-0.3-0.1-0.5-0.3-0.7C597.2,684.3,597,684.2,596.7,684.2z M594.5,709.1h-3.1l-1.1-22.9h5.3L594.5,709.1
		z"/>
</g>
<g>
	<path class="st1" d="M757.8,295.9c-15.7,0-28.4,12.7-28.4,28.3c0,15.7,12.7,28.4,28.3,28.4c15.7,0,28.4-12.7,28.4-28.3c0,0,0,0,0,0
		C786.2,308.6,773.5,295.9,757.8,295.9C757.8,295.9,757.8,295.9,757.8,295.9z M757.8,350.6c-14.6,0-26.4-11.8-26.4-26.3
		s11.8-26.4,26.3-26.4c14.6,0,26.4,11.8,26.4,26.3c0,0,0,0,0,0C784.1,338.8,772.4,350.6,757.8,350.6z"/>
	<path class="st1" d="M772.2,321.6h-5.7v-5.7c0-0.6-0.4-1-1-1h-1.2c0,0,0-0.1,0-0.1c0-1.8-1.4-3.2-3.2-3.2c-1.8,0-3.2,1.4-3.2,3.2
		c0,0,0,0.1,0,0.1h-14.5c-0.6,0-1,0.4-1,1v3.5h-1.2c-0.6,0-1,0.4-1,1s0.4,1,1,1h1.2v2.4h-1.2c-0.6,0-1,0.4-1,1s0.4,1,1,1h1.2v7.9
		c0,0.6,0.4,1,1,1h2.5c0.5,1.7,2.3,2.6,4,2.1c1-0.3,1.7-1.1,2.1-2.1h12.8c0.5,1.7,2.3,2.6,4,2.1c1-0.3,1.7-1.1,2.1-2.1h3.6
		c0.6,0,1-0.4,1-1v-8.9C775.5,323,774,321.6,772.2,321.6C772.3,321.6,772.3,321.6,772.2,321.6z M759.9,314.8c0-0.7,0.5-1.2,1.2-1.2
		c0.7,0,1.2,0.5,1.2,1.2c0,0,0,0.1,0,0.1h-2.5C759.9,314.9,759.9,314.8,759.9,314.8z M744.4,321.4h2.4v2.4h-2.4V321.4z M748.9,334.9
		c-0.7,0-1.2-0.5-1.2-1.2s0.5-1.2,1.2-1.2c0.7,0,1.2,0.5,1.2,1.2v0C750.1,334.4,749.6,334.9,748.9,334.9z M764.6,332.7H752
		c-0.5-1.7-2.3-2.6-4-2.1c-1,0.3-1.7,1.1-2.1,2.1h-1.5v-6.9h17.9c0.6,0,1-0.4,1-1s-0.4-1-1-1h-0.1v-2.4h0.1c0.6,0,1-0.4,1-1
		s-0.4-1-1-1h-17.9v-2.5h20.2L764.6,332.7z M748.8,323.8v-2.4h2.4v2.4H748.8z M753.3,323.8v-2.4h2.4v2.4H753.3z M757.7,323.8v-2.4
		h2.4v2.4H757.7z M767.8,334.9c-0.7,0-1.2-0.5-1.2-1.2s0.5-1.2,1.2-1.2c0.7,0,1.2,0.5,1.2,1.2v0C769,334.4,768.5,334.9,767.8,334.9
		L767.8,334.9z M773.5,332.7h-2.6c-0.4-1.3-1.6-2.2-3-2.2c-0.4,0-0.8,0.1-1.2,0.2v-7.1h5.7c0.7,0,1.2,0.5,1.2,1.2L773.5,332.7z"/>
</g>
<g>
	<path class="st1" d="M832.7,687.5c-0.1-0.8-0.8-1.4-1.7-1.3c-0.7,0.1-1.2,0.6-1.3,1.3v0.7l3,0.7V687.5z"/>
	<path class="st1" d="M829.7,717.7c0.1,0.8,0.8,1.4,1.7,1.3c0.7-0.1,1.2-0.6,1.3-1.3v-16.5l-3,0.7V717.7z"/>
	<path class="st1" d="M816.7,702.7l21.1-4.7v-5.9l-21-4.7C815.8,689.5,813.4,696.2,816.7,702.7z"/>
	<path class="st1" d="M826.4,674.3c-15.7,0-28.4,12.7-28.4,28.3s12.7,28.4,28.3,28.4s28.4-12.7,28.4-28.3c0,0,0,0,0,0
		C854.7,687,842,674.3,826.4,674.3C826.4,674.3,826.4,674.3,826.4,674.3z M839.7,698.9c0,0.5-0.3,0.9-0.8,1l-4.2,0.9v16.9
		c-0.1,1.9-1.8,3.4-3.8,3.2c-1.7-0.1-3.1-1.5-3.2-3.2v-15.4l-11.3,2.5h-0.2c-0.4,0-0.7-0.2-0.9-0.5c-5-9-0.2-18.2,0-18.5
		c0.2-0.4,0.7-0.6,1.1-0.5l11.3,2.5v-0.3c0.1-1.9,1.8-3.4,3.8-3.2c1.7,0.1,3.1,1.5,3.2,3.2v1.8l4.2,1c0.5,0.1,0.8,0.5,0.8,1
		L839.7,698.9z"/>
</g>
<g>
	<polygon class="st1" points="660,709.1 663,709.1 664.2,686.2 658.8,686.2 	"/>
	<path class="st1" d="M661.5,716c-0.8,0-1.5,0.7-1.5,1.5s0.7,1.5,1.5,1.5c0.8,0,1.5-0.7,1.5-1.5l0,0C663,716.7,662.3,716,661.5,716z
		"/>
	<path class="st1" d="M661.5,674.3c-15.7,0-28.4,12.7-28.4,28.3s12.7,28.4,28.3,28.4s28.4-12.7,28.4-28.3c0,0,0,0,0,0
		C689.8,687,677.2,674.3,661.5,674.3C661.5,674.3,661.5,674.3,661.5,674.3z M661.5,721c-1.9,0-3.5-1.6-3.5-3.5
		c0-1.9,1.6-3.5,3.5-3.5s3.5,1.6,3.5,3.5c0,0,0,0,0,0C665,719.5,663.4,721,661.5,721L661.5,721z M665,710.1c0,0.6-0.4,1-1,1h-5
		c-0.6,0-1-0.4-1-1l-1.2-24.9c0-0.3,0.1-0.5,0.3-0.7c0.2-0.2,0.4-0.3,0.7-0.3h7.5c0.3,0,0.5,0.1,0.7,0.3c0.2,0.2,0.3,0.5,0.3,0.7
		L665,710.1z"/>
</g>
<g>
	<rect x="826.2" y="321.4" class="st1" width="2.4" height="2.4"/>
	<path class="st1" d="M812.9,319.4h17.9c0.6,0,1,0.4,1,1s-0.4,1-1,1h-0.1v2.4h0.1c0.6,0,1,0.4,1,1s-0.4,1-1,1h-17.9v6.9h1.5
		c0.5-1.7,2.3-2.6,4-2.1c1,0.3,1.7,1.1,2.1,2.1h12.6v-15.8h-20.2V319.4z"/>
	<rect x="821.8" y="321.4" class="st1" width="2.4" height="2.4"/>
	<rect x="812.9" y="321.4" class="st1" width="2.4" height="2.4"/>
	<rect x="817.4" y="321.4" class="st1" width="2.4" height="2.4"/>
	<path class="st1" d="M830.9,314.8c0-0.7-0.5-1.2-1.2-1.2c-0.7,0-1.2,0.5-1.2,1.2c0,0,0,0.1,0,0.1h2.5
		C830.9,314.9,830.9,314.8,830.9,314.8z"/>
	<path class="st1" d="M817.5,332.5c-0.7,0-1.2,0.5-1.2,1.2s0.5,1.2,1.2,1.2c0.7,0,1.2-0.5,1.2-1.2v0
		C818.7,333,818.2,332.5,817.5,332.5z"/>
	<path class="st1" d="M840.8,323.6h-5.7v7.1c0.4-0.2,0.8-0.2,1.2-0.2c1.4,0,2.6,0.9,3,2.2h2.6v-7.9
		C842,324.1,841.5,323.6,840.8,323.6z"/>
	<path class="st1" d="M826.4,295.9c-15.7,0-28.4,12.7-28.4,28.3c0,15.7,12.7,28.4,28.3,28.4c15.7,0,28.4-12.7,28.4-28.3c0,0,0,0,0,0
		C854.7,308.6,842,295.9,826.4,295.9C826.4,295.9,826.4,295.9,826.4,295.9z M844,333.7c0,0.6-0.4,1-1,1h-3.6c-0.5,1.7-2.3,2.6-4,2.1
		c-1-0.3-1.7-1.1-2.1-2.1h-12.8c-0.5,1.7-2.3,2.6-4,2.1c-1-0.3-1.7-1.1-2.1-2.1h-2.5c-0.6,0-1-0.4-1-1v-7.9h-1.2c-0.6,0-1-0.4-1-1
		s0.4-1,1-1h1.2v-2.4h-1.2c-0.6,0-1-0.4-1-1s0.4-1,1-1h1.2v-3.5c0-0.6,0.4-1,1-1h14.6c0,0,0-0.1,0-0.1c0-1.8,1.4-3.2,3.2-3.2
		c1.8,0,3.2,1.4,3.2,3.2c0,0,0,0.1,0,0.1h1.2c0.6,0,1,0.4,1,1v5.7h5.7c1.8,0,3.2,1.5,3.2,3.2V333.7z"/>
	<path class="st1" d="M836.4,332.5c-0.7,0-1.2,0.5-1.2,1.2s0.5,1.2,1.2,1.2c0.7,0,1.2-0.5,1.2-1.2v0
		C837.6,333,837,332.5,836.4,332.5z"/>
</g>
<g>
	<path class="st1" d="M593,750.2c-15.7,0-28.4,12.7-28.4,28.3s12.7,28.4,28.3,28.4s28.4-12.7,28.4-28.3c0,0,0,0,0,0
		C621.3,762.8,608.7,750.2,593,750.2C593,750.2,593,750.2,593,750.2z M593,804.8c-14.6,0-26.4-11.8-26.4-26.3s11.8-26.4,26.3-26.4
		c14.6,0,26.4,11.8,26.4,26.3v0C619.3,793,607.5,804.8,593,804.8z"/>
	<path class="st1" d="M592.9,789.9c-1.9,0-3.5,1.6-3.5,3.5s1.6,3.5,3.5,3.5c1.9,0,3.5-1.6,3.5-3.5l0,0
		C596.4,791.5,594.8,789.9,592.9,789.9z M592.9,794.9c-0.8,0-1.5-0.7-1.5-1.5s0.7-1.5,1.5-1.5c0.8,0,1.5,0.7,1.5,1.5l0,0
		C594.4,794.3,593.7,794.9,592.9,794.9L592.9,794.9z"/>
	<path class="st1" d="M592.9,760.1c-5.4,0-10,3.9-10.8,9.2c0,0.2,0,0.5,0,0.5c0,0.5,0.4,1,0.9,1l5,0.4c0.5,0,0.9-0.3,1-0.8
		c0.5-2.2,2.6-3.5,4.8-3c1.8,0.4,3,1.9,3.1,3.7c0,2.2-1.8,4-4,4h-2.5c-0.3,0-0.5,0.1-0.7,0.3c-0.2,0.2-0.3,0.4-0.3,0.7v10
		c0,0.6,0.4,1,1,1h5c0.6,0,1-0.4,1-1v-4.6c5.7-2.1,8.7-8.4,6.6-14.1C601.5,763,597.5,760.2,592.9,760.1L592.9,760.1z M595.1,779.7
		c-0.5,0.1-0.8,0.5-0.8,1v4.3h-3v-8h1.5c3.3-0.1,5.9-2.7,6-6c-0.1-3.3-2.8-6-6.1-5.9c-2.5,0-4.7,1.6-5.5,4l-3-0.2
		c1.2-4.8,6-7.8,10.9-6.7c4.8,1.2,7.8,6,6.7,10.9C601,776.3,598.4,778.9,595.1,779.7L595.1,779.7z"/>
</g>
<g>
	<path class="st1" d="M661.5,762.1c-4.1,0-7.7,2.8-8.7,6.8l3,0.2c1.1-3.1,4.5-4.8,7.6-3.7c2.4,0.8,4,3.1,4,5.6c-0.1,3.3-2.7,5.9-6,6
		H660v8h3v-4.3c0-0.5,0.3-0.9,0.8-1c4.8-1.4,7.5-6.4,6.1-11.2C668.8,764.8,665.4,762.2,661.5,762.1L661.5,762.1z"/>
	<path class="st1" d="M661.5,791.9c-0.8,0-1.5,0.7-1.5,1.5c0,0.8,0.7,1.5,1.5,1.5c0.8,0,1.5-0.7,1.5-1.5c0,0,0,0,0,0
		C662.9,792.6,662.3,791.9,661.5,791.9z"/>
	<path class="st1" d="M661.5,750.2c-15.7,0-28.4,12.7-28.4,28.3s12.7,28.4,28.3,28.4s28.4-12.7,28.4-28.3c0,0,0,0,0,0
		C689.8,762.8,677.2,750.2,661.5,750.2z M661.5,796.9c-1.9,0-3.5-1.6-3.5-3.5c0-1.9,1.6-3.5,3.5-3.5c1.9,0,3.5,1.6,3.5,3.5
		c0,0,0,0,0,0C665,795.4,663.4,796.9,661.5,796.9C661.5,796.9,661.5,796.9,661.5,796.9L661.5,796.9z M665,781.4v4.6c0,0.6-0.4,1-1,1
		h-5c-0.6,0-1-0.4-1-1v-10c0-0.6,0.4-1,1-1h2.5c2.2,0,4-1.8,4-4c-0.1-2.2-2-3.9-4.2-3.8c-1.8,0.1-3.3,1.4-3.7,3.1
		c-0.1,0.5-0.5,0.8-1,0.8l-5-0.4c-0.5,0-0.9-0.5-0.9-1c0-0.2,0-0.4,0-0.5c1-6,6.6-10.1,12.6-9.1c6,1,10.1,6.6,9.1,12.6
		C671.7,776.7,668.9,780.1,665,781.4L665,781.4z"/>
</g>
<g>
	<path class="st1" d="M757.8,370.8c-15.7,0-28.4,12.7-28.4,28.3c0,15.7,12.7,28.4,28.3,28.4c15.7,0,28.4-12.7,28.4-28.3c0,0,0,0,0,0
		C786.2,383.5,773.5,370.8,757.8,370.8C757.8,370.8,757.8,370.8,757.8,370.8z M757.8,425.5c-14.6,0-26.4-11.8-26.4-26.3
		s11.8-26.4,26.3-26.4c14.6,0,26.4,11.8,26.4,26.3c0,0,0,0,0,0C784.1,413.7,772.4,425.5,757.8,425.5z"/>
	<path class="st1" d="M764.4,404.1c-0.6,0-1,0.4-1,1v9.7h-15.8v-31.3h15.8v9.7c0,0.6,0.4,1,1,1s1-0.4,1-1v-10.7c0-0.6-0.4-1-1-1
		h-17.8c-0.6,0-1,0.4-1,1v33.3c0,0.6,0.4,1,1,1h17.8c0.6,0,1-0.4,1-1v-10.7C765.4,404.5,764.9,404.1,764.4,404.1z"/>
	<path class="st1" d="M775.8,398.4l-4.8-4.8c-0.4-0.4-1-0.4-1.4,0c0,0,0,0,0,0c-0.4,0.4-0.4,1,0,1.4l3.1,3.1h-17.8c-0.6,0-1,0.4-1,1
		s0.4,1,1,1h17.8l-3.1,3c-0.4,0.4-0.4,1,0,1.4c0.2,0.2,0.4,0.3,0.7,0.3c0.3,0,0.5-0.1,0.7-0.3l4.8-4.8c0.1-0.1,0.2-0.2,0.2-0.3
		c0.1-0.2,0.1-0.5,0-0.8C776,398.6,775.9,398.5,775.8,398.4z"/>
</g>
<g>
	<path class="st1" d="M757.8,446.7c-15.7,0-28.4,12.7-28.4,28.3c0,15.7,12.7,28.4,28.3,28.4c15.7,0,28.4-12.7,28.4-28.3c0,0,0,0,0,0
		C786.2,459.3,773.5,446.7,757.8,446.7C757.8,446.7,757.8,446.7,757.8,446.7z M757.8,501.4c-14.6,0-26.4-11.8-26.4-26.3
		s11.8-26.4,26.3-26.4c14.6,0,26.4,11.8,26.4,26.3c0,0,0,0,0,0C784.1,489.5,772.4,501.3,757.8,501.4z"/>
	<path class="st1" d="M769.5,457.3h-17.9c-0.6,0-1,0.4-1,1V469c0,0.6,0.4,1,1,1s1-0.4,1-1v-9.7h15.9v31.3h-15.9V481c0-0.6-0.4-1-1-1
		s-1,0.4-1,1v10.7c0,0.6,0.4,1,1,1h17.9c0.6,0,1-0.4,1-1v-33.4C770.5,457.8,770.1,457.3,769.5,457.3z"/>
	<path class="st1" d="M756.9,479.1c-0.4,0.4-0.4,1,0,1.4c0,0,0,0,0,0c0.4,0.4,1,0.4,1.4,0c0,0,0,0,0,0l4.8-4.8
		c0.1-0.1,0.2-0.2,0.2-0.3c0.1-0.2,0.1-0.5,0-0.8c-0.1-0.1-0.1-0.2-0.2-0.3l-4.8-4.8c-0.4-0.4-1-0.4-1.4,0c0,0,0,0,0,0
		c-0.4,0.4-0.4,1,0,1.4l3.1,3h-17.9c-0.6,0-1,0.4-1,1s0.4,1,1,1H760L756.9,479.1z"/>
</g>
<g>
	<path class="st1" d="M826.4,370.8c-15.7,0-28.4,12.7-28.4,28.3c0,15.7,12.7,28.4,28.3,28.4c15.7,0,28.4-12.7,28.4-28.3c0,0,0,0,0,0
		C854.7,383.5,842,370.8,826.4,370.8C826.4,370.8,826.4,370.8,826.4,370.8z M833.9,415.8c0,0.6-0.4,1-1,1h-17.8c-0.6,0-1-0.4-1-1
		v-33.3c0-0.6,0.4-1,1-1h17.8c0.6,0,1,0.4,1,1v10.7c0,0.6-0.4,1-1,1s-1-0.4-1-1v-9.7h-15.8v31.3h15.8v-9.7c0-0.6,0.4-1,1-1
		s1,0.4,1,1L833.9,415.8z M844.6,399.5c0,0.1-0.1,0.2-0.2,0.3l-4.8,4.8c-0.2,0.2-0.4,0.3-0.7,0.3c-0.3,0-0.5-0.1-0.7-0.3
		c-0.4-0.4-0.4-1,0-1.4l3-3h-17.8c-0.6,0-1-0.4-1-1s0.4-1,1-1h17.8l-3-3.1c-0.4-0.4-0.4-1,0-1.4c0.4-0.4,1-0.4,1.4,0c0,0,0,0,0,0
		l4.8,4.8c0.1,0.1,0.2,0.2,0.2,0.3C844.7,399,844.7,399.3,844.6,399.5L844.6,399.5z"/>
</g>
<g>
	<path class="st1" d="M826.4,446.7c-15.7,0-28.3,12.7-28.3,28.4c0,15.7,12.7,28.3,28.4,28.3c15.7,0,28.3-12.7,28.3-28.4c0,0,0,0,0,0
		C854.7,459.3,842,446.7,826.4,446.7C826.4,446.7,826.4,446.7,826.4,446.7z M809.7,475c0-0.6,0.4-1,1-1h17.8l-3.1-3
		c-0.4-0.4-0.4-1,0-1.4c0.4-0.4,1-0.4,1.4,0c0,0,0,0,0,0l4.8,4.8c0.1,0.1,0.2,0.2,0.2,0.3c0.1,0.2,0.1,0.5,0,0.8
		c-0.1,0.1-0.1,0.2-0.2,0.3l-4.8,4.8c-0.4,0.4-1,0.4-1.4,0c0,0,0,0,0,0c-0.4-0.4-0.4-1,0-1.4c0,0,0,0,0,0l3.1-3.1h-17.8
		C810.1,476,809.7,475.6,809.7,475z M839.1,491.7c0,0.6-0.4,1-1,1h-17.9c-0.6,0-1-0.4-1-1V481c0-0.6,0.4-1,1-1s1,0.4,1,1v9.7h15.9
		v-31.4h-15.9v9.7c0,0.6-0.4,1-1,1s-1-0.4-1-1v-10.7c0-0.6,0.4-1,1-1h17.9c0.6,0,1,0.4,1,1V491.7z"/>
</g>
<g>
	<path class="st1" d="M921.7,219.1c-15.7,0-28.4,12.7-28.4,28.3s12.7,28.4,28.3,28.4c15.7,0,28.4-12.7,28.4-28.3c0,0,0,0,0,0
		C950.1,231.7,937.4,219.1,921.7,219.1z M921.7,273.7c-14.6,0-26.4-11.8-26.4-26.3s11.8-26.4,26.3-26.4c14.6,0,26.4,11.8,26.4,26.3
		v0C948,261.9,936.3,273.7,921.7,273.7z"/>
	<path class="st1" d="M936.2,234.7c-0.3-0.2-0.6-0.2-0.9,0c-4.4,1.9-9.4,1.1-13-2.1c-0.2-0.2-0.5-0.3-0.8-0.2
		c-0.3,0-0.5,0.2-0.7,0.4c0,0.1-4.2,5.3-12.7,1.9c-0.3-0.1-0.6-0.1-0.9,0c-0.3,0.2-0.4,0.4-0.5,0.7c0,0.2-3.1,18.8,14.4,28.9
		c0.1,0.1,0.3,0.1,0.5,0.1c0.2,0,0.3,0,0.4-0.1c3.1-1.7,5.8-3.9,8.1-6.6c3.5-4.2,7.5-11.5,6.5-22.2
		C936.7,235.2,936.5,234.9,936.2,234.7z M921.7,262.3c-9-5.1-14.1-15-13.1-25.3c7.1,2.3,11.5-0.8,13.1-2.2c3.7,2.9,8.6,3.8,13.1,2.2
		C935.8,253.5,924.2,260.9,921.7,262.3L921.7,262.3z"/>
	<path class="st1" d="M929.5,243.9l-4.7-0.8l-2.2-4.1c-0.2-0.3-0.5-0.5-0.9-0.5c-0.4,0-0.7,0.2-0.9,0.5l-2.1,4.2l-4.9,0.5
		c-0.4,0-0.7,0.3-0.8,0.7c-0.1,0.4,0,0.7,0.3,1l3.5,3.3l-0.7,4.9c-0.1,0.4,0.1,0.7,0.4,0.9c0.2,0.1,0.4,0.2,0.6,0.2
		c0.2,0,0.3,0,0.5-0.1l4.3-2.2l4.1,2.2c0.3,0.2,0.7,0.1,1-0.1c0.3-0.2,0.5-0.6,0.4-1l-0.7-4.9l3.4-3.2c0.3-0.3,0.4-0.6,0.3-1
		C930.1,244.2,929.8,244,929.5,243.9z M924.8,247.7c-0.2,0.2-0.4,0.6-0.3,0.9l0.5,3.5l-2.8-1.5c-0.3-0.1-0.6-0.1-0.9,0l-3,1.5
		l0.5-3.6c0-0.3-0.1-0.6-0.3-0.9l-2.3-2.2l3.3-0.4c0.3,0,0.6-0.2,0.8-0.6l1.5-3l1.6,2.8c0.1,0.3,0.4,0.4,0.7,0.5l3.2,0.6
		L924.8,247.7z"/>
</g>
<g>
	<path class="st1" d="M991.8,244.5l-1.6-2.8l-1.5,3c-0.2,0.3-0.5,0.5-0.8,0.5l-3.3,0.4l2.3,2.2c0.2,0.2,0.3,0.5,0.3,0.9l-0.5,3.6
		l3-1.5c0.3-0.2,0.6-0.2,0.9,0l2.8,1.5l-0.5-3.5c0-0.3,0.1-0.7,0.3-0.9l2.3-2.2l-3.2-0.6C992.2,244.9,992,244.7,991.8,244.5z"/>
	<path class="st1" d="M990.3,219.1c-15.7,0-28.4,12.7-28.4,28.3s12.7,28.4,28.3,28.4s28.4-12.7,28.4-28.3c0,0,0,0,0,0
		C1018.6,231.7,1005.9,219.1,990.3,219.1L990.3,219.1z M998.7,257.7c-2.2,2.7-5,5-8.1,6.6c-0.1,0.1-0.3,0.1-0.4,0.1
		c-0.2,0-0.3,0-0.5-0.1c-17.5-10-14.5-28.7-14.4-28.9c0.1-0.3,0.2-0.6,0.5-0.7c0.3-0.1,0.6-0.1,0.9,0c8.5,3.3,12.6-1.7,12.7-1.9
		c0.2-0.2,0.4-0.3,0.7-0.4c0.3,0,0.5,0.1,0.8,0.2c3.5,3.2,8.6,4,13,2.1c0.3-0.2,0.6-0.2,0.9,0c0.3,0.2,0.5,0.4,0.5,0.8
		C1006.3,246.2,1002.3,253.5,998.7,257.7z"/>
	<path class="st1" d="M990.3,234.7c-1.6,1.5-6,4.6-13.1,2.2c-1,10.3,4.1,20.2,13.1,25.3c2.5-1.4,14-8.7,13.1-25.2
		C998.9,238.5,994,237.7,990.3,234.7z M998.5,245.6l-3.4,3.2l0.7,4.9c0.1,0.4-0.1,0.8-0.4,1c-0.3,0.2-0.7,0.2-1,0.1l-4.1-2.2
		l-4.3,2.1c-0.1,0.1-0.3,0.1-0.5,0.1c-0.6,0-1-0.4-1-1c0-0.1,0-0.1,0-0.1l0.7-4.9l-3.5-3.3c-0.3-0.3-0.4-0.6-0.3-1
		c0.1-0.4,0.5-0.6,0.8-0.7l4.9-0.5l2.1-4.2c0.2-0.3,0.5-0.5,0.9-0.6c0.4,0,0.7,0.2,0.9,0.5l2.2,4.1l4.7,0.8c0.4,0.1,0.7,0.3,0.8,0.7
		C998.9,245,998.8,245.4,998.5,245.6L998.5,245.6z"/>
</g>
<g>
	<path class="st1" d="M593,219.1c-15.7,0-28.4,12.7-28.4,28.3s12.7,28.4,28.3,28.4c15.7,0,28.4-12.7,28.4-28.3c0,0,0,0,0,0
		C621.3,231.7,608.7,219.1,593,219.1C593,219.1,593,219.1,593,219.1z M593,273.7c-14.6,0-26.4-11.8-26.4-26.3S578.4,221,593,221
		c14.6,0,26.4,11.8,26.4,26.3v0C619.3,261.9,607.5,273.7,593,273.7z"/>
	<path class="st1" d="M593,233.5c-7.7,0-13.9,6.2-13.9,13.9s6.2,13.9,13.9,13.9c7.7,0,13.9-6.2,13.9-13.9c0,0,0,0,0,0
		C606.9,239.7,600.7,233.5,593,233.5z M593,259.3c-6.6,0-11.9-5.3-11.9-11.9s5.3-11.9,11.9-11.9c6.6,0,11.9,5.3,11.9,11.9
		c0,0,0,0,0,0C604.9,253.9,599.6,259.3,593,259.3z"/>
	<path class="st1" d="M581.2,235.6c0.4-0.4,0.4-1,0-1.4c-0.4-0.4-1-0.4-1.4,0l0,0c-7.3,7.3-7.3,19.1,0,26.4c0.2,0.2,0.4,0.3,0.7,0.3
		c0.3,0,0.5-0.1,0.7-0.3c0.4-0.4,0.4-1,0-1.4c-6.6-6.5-6.7-17-0.2-23.6C581,235.6,581,235.6,581.2,235.6z"/>
	<path class="st1" d="M606.2,234.2c-0.4-0.4-1-0.4-1.4,0c-0.4,0.4-0.4,1,0,1.4c0,0,0,0,0,0c6.5,6.5,6.5,17.1,0,23.6c0,0,0,0,0,0
		c-0.4,0.4-0.4,1,0,1.4c0.4,0.4,1,0.4,1.4,0C613.5,253.3,613.5,241.5,606.2,234.2z"/>
	<path class="st1" d="M593,252.1c-1.4,0-2.5,1.1-2.5,2.5c0,1.4,1.1,2.6,2.5,2.6c1.4,0,2.5-1.1,2.5-2.5c0,0,0,0,0,0
		C595.5,253.3,594.4,252.1,593,252.1z M593,255.2c-0.3,0-0.5-0.2-0.5-0.6s0.2-0.6,0.5-0.6c0.3,0,0.5,0.2,0.5,0.5c0,0,0,0,0,0
		C593.5,255,593.3,255.2,593,255.2z"/>
	<path class="st1" d="M594.6,237.6h-3.3c-0.4,0-0.8,0.2-1,0.5c-0.3,0.3-0.4,0.7-0.4,1.1l0.5,10.3c0,0.8,0.7,1.5,1.5,1.4h2.1
		c0.8,0,1.5-0.6,1.5-1.4l0.5-10.3C596.1,238.3,595.5,237.6,594.6,237.6z M593.5,248.9h-1.2l-0.5-9.4h2.1L593.5,248.9z"/>
</g>
<g>
	<path class="st1" d="M921.7,143.2c-15.7,0-28.4,12.7-28.4,28.3s12.7,28.4,28.3,28.4s28.4-12.7,28.4-28.3v0
		C950.1,155.9,937.4,143.2,921.7,143.2z M921.7,197.9c-14.6,0-26.4-11.8-26.4-26.3s11.8-26.4,26.3-26.4c14.6,0,26.4,11.8,26.4,26.3
		v0C948,186.1,936.3,197.9,921.7,197.9z"/>
	<path class="st1" d="M934.3,170.3l-0.7-3.9c-0.1-0.5-0.6-0.9-1.1-0.8l-6.7,1.1c-0.3,0-0.5,0.2-0.7,0.4c-0.1,0.2-0.2,0.5-0.2,0.8
		l0.7,3.9c-3.3,3-3.5,8.1-0.5,11.4c2.6,2.8,6.8,3.4,10.1,1.5c0.5-0.3,0.6-0.9,0.3-1.4c-0.3-0.5-0.9-0.6-1.4-0.3
		c-2.9,1.7-6.6,0.8-8.3-2.1c-1.7-2.9-0.8-6.6,2.1-8.3c2.9-1.7,6.6-0.8,8.3,2.1c1,1.6,1.1,3.6,0.4,5.4c-0.2,0.5,0,1.1,0.5,1.3
		c0,0,0,0,0,0c0.5,0.2,1.1,0,1.3-0.5c0.4-1,0.6-2,0.6-3.1C939.2,174.5,937.3,171.6,934.3,170.3z M927.5,170.5l-0.3-2l4.7-0.8
		l0.3,1.9c-0.4-0.1-0.7-0.1-1.1-0.1C929.9,169.6,928.6,169.9,927.5,170.5L927.5,170.5z"/>
	<path class="st1" d="M921,162.7l1.8-0.6c0.5-0.2,0.9-0.6,1.2-1c0-0.1,0.1-0.2,0.1-0.2c0.3,0.3,0.6,0.5,1,0.6l1.9,0.5h0.1v0.2
		l0.2,1.9c0,0.5,0.3,1.1,0.7,1.4c0.4,0.3,0.8,0.5,1.3,0.5h0.2c1.1-0.1,2-1.1,1.9-2.2c0,0,0,0,0,0l-0.2-1.9c0-0.6-0.3-1.1-0.7-1.4
		c-0.3-0.2-0.6-0.4-0.9-0.4c0-0.9-0.7-1.8-1.6-2l-1.9-0.5c-0.5-0.1-1.1,0-1.6,0.2c-0.4,0.3-0.7,0.7-0.9,1.1
		c-0.2-0.2-0.4-0.4-0.6-0.5c-0.5-0.2-1.1-0.3-1.6-0.1l-1.8,0.6c-1.1,0.4-1.7,1.6-1.3,2.6c0,0,0,0,0,0l0,0l-2-1.5
		c-0.2-0.2-0.5-0.2-0.8-0.2c-0.3,0-0.5,0.2-0.7,0.4l-2.2,3.2h-0.4c-4.5,0-8.1,3.6-8.1,8.1c0,1.8,0.6,3.6,1.8,5.1
		c0.3,0.4,1,0.5,1.4,0.1c0.4-0.3,0.5-1,0.2-1.4c0,0,0,0,0,0c-0.9-1.1-1.4-2.4-1.4-3.8c0-3.4,2.7-6.1,6.1-6.1c3.4,0,6.1,2.7,6.1,6.1
		c0,3.4-2.7,6.1-6.1,6.1c0,0,0,0,0,0c-0.5,0-1-0.1-1.5-0.2c-0.5-0.1-1.1,0.2-1.2,0.7c-0.1,0.5,0.2,1.1,0.7,1.2
		c4.3,1.1,8.7-1.5,9.8-5.8c0.4-1.7,0.3-3.4-0.3-5l2.2-3.2c0.3-0.4,0.2-1.1-0.2-1.4l-1.5-1.1l0,0C920.5,162.8,920.8,162.8,921,162.7z
		 M929.3,163.8C929.3,163.8,929.2,163.8,929.3,163.8l-0.2-2c0,0,0-0.1,0.1-0.1l0,0c0,0,0.1,0,0.1,0.1L929.3,163.8
		C929.4,163.8,929.4,163.8,929.3,163.8C929.3,163.8,929.3,163.8,929.3,163.8L929.3,163.8z M925.7,159.2l1.9,0.5c0,0,0.1,0,0.1,0.1
		s0,0.1-0.1,0.1l-1.9-0.5C925.6,159.4,925.6,159.4,925.7,159.2C925.6,159.3,925.6,159.2,925.7,159.2z M918.7,166.5
		c-1-1.3-2.3-2.3-3.9-2.8l1.1-1.6l3.9,2.8L918.7,166.5z M920.3,160.6l1.8-0.6l0,0c0,0,0.1,0,0.1,0.1c0,0,0,0.1,0,0.1l-1.8,0.6
		c0,0-0.1,0-0.1-0.1C920.2,160.7,920.2,160.7,920.3,160.6C920.3,160.6,920.3,160.6,920.3,160.6L920.3,160.6z"/>
</g>
<g>
	<path class="st1" d="M994.1,159.4l1.9,0.5c0,0,0.1,0,0.1-0.1c0,0,0-0.1,0-0.1c0,0,0,0,0,0l-1.9-0.5c0,0-0.1,0-0.1,0.1
		C994.1,159.4,994.1,159.4,994.1,159.4z"/>
	<path class="st1" d="M997.8,163.8C997.9,163.8,997.9,163.8,997.8,163.8C997.9,163.7,997.9,163.7,997.8,163.8l-0.1-2
		c0,0,0-0.1-0.1-0.1l0,0c0,0-0.1,0-0.1,0.1L997.8,163.8C997.8,163.7,997.8,163.8,997.8,163.8z"/>
	<path class="st1" d="M983.4,163.8c1.5,0.5,2.9,1.5,3.9,2.8l1.1-1.6l-3.9-2.8L983.4,163.8z"/>
	<path class="st1" d="M990.7,160.1c0,0,0-0.1,0-0.1c0,0-0.1,0-0.1,0l0,0l-1.8,0.6c0,0-0.1,0.1,0,0.1c0,0,0.1,0.1,0.1,0.1
		L990.7,160.1z"/>
	<path class="st1" d="M995.7,168.5l0.3,2c1.4-0.8,3.1-1.1,4.7-0.8l-0.4-2L995.7,168.5z"/>
	<path class="st1" d="M990.3,143.2c-15.7,0-28.4,12.7-28.4,28.3s12.7,28.4,28.3,28.4s28.4-12.7,28.4-28.3c0,0,0,0,0,0
		C1018.6,155.9,1005.9,143.2,990.3,143.2z M990.4,163.9c0.4,0.3,0.5,0.9,0.2,1.4l-2.2,3.2c0.4,0.9,0.6,1.9,0.6,2.9
		c0,4.5-3.7,8.1-8.1,8.1c-0.7,0-1.3-0.1-2-0.3c-0.5-0.1-0.9-0.7-0.7-1.2c0.1-0.5,0.7-0.9,1.2-0.7c0.5,0.1,1,0.2,1.5,0.2
		c3.4,0,6.1-2.7,6.1-6.1s-2.7-6.1-6.1-6.1s-6.1,2.7-6.1,6.1c0,0,0,0,0,0c0,1.4,0.5,2.8,1.4,3.8c0.3,0.4,0.3,1.1-0.2,1.4
		c-0.4,0.3-1.1,0.3-1.4-0.2c-2.8-3.5-2.3-8.6,1.2-11.4c1.4-1.2,3.2-1.8,5.1-1.8c0.1,0,0.2,0,0.4,0l2.2-3.2c0.2-0.2,0.4-0.4,0.7-0.4
		c0.3,0,0.5,0,0.8,0.2l2,1.5l0,0c-0.4-1.1,0.2-2.3,1.3-2.6l1.8-0.6c0.5-0.2,1.1-0.2,1.6,0.1c0.2,0.1,0.5,0.3,0.6,0.5
		c0.3-1,1.4-1.6,2.4-1.4l1.9,0.5c0.9,0.2,1.5,1.1,1.5,2c0.3,0.1,0.7,0.2,1,0.4c0.4,0.4,0.7,0.9,0.7,1.4l0.2,1.9
		c0.1,1.1-0.8,2.2-1.9,2.2c0,0,0,0,0,0h-0.2c-0.5,0-1-0.2-1.3-0.5c-0.4-0.4-0.7-0.9-0.7-1.4l-0.2-1.9c0-0.1,0-0.1,0-0.2h-0.1
		l-1.9-0.5c-0.4-0.1-0.7-0.4-1-0.7c0,0.1,0,0.2-0.1,0.3c-0.2,0.5-0.7,0.9-1.2,1.1l-1.8,0.6c-0.2,0.1-0.4,0.1-0.7,0.1l0,0
		L990.4,163.9z M1007.1,180.8c-0.2,0.5-0.8,0.7-1.3,0.5c-0.5-0.2-0.8-0.8-0.6-1.3c0,0,0,0,0,0c0.3-0.7,0.5-1.5,0.5-2.3
		c0-3.4-2.7-6.1-6.1-6.1c-3.4,0-6.1,2.7-6.1,6.1s2.7,6.1,6.1,6.1c1.1,0,2.2-0.3,3.1-0.9c0.5-0.3,1.1-0.1,1.4,0.3
		c0.3,0.5,0.1,1.1-0.3,1.4c-3.8,2.3-8.8,1.1-11.1-2.7c-2-3.3-1.4-7.5,1.5-10.1l-0.7-3.9c0-0.3,0-0.5,0.2-0.8
		c0.2-0.2,0.4-0.4,0.7-0.4l6.7-1.1c0.5-0.1,1,0.3,1.1,0.8l0.7,3.9c2.9,1.3,4.9,4.2,4.9,7.4C1007.8,178.8,1007.5,179.8,1007.1,180.8z
		"/>
</g>
<g>
	<path class="st1" d="M593,522.5c-15.7,0-28.4,12.7-28.4,28.3s12.7,28.4,28.3,28.4s28.4-12.7,28.4-28.3v0
		C621.4,535.2,608.7,522.5,593,522.5C593,522.5,593,522.5,593,522.5z M593,577.2c-14.6,0-26.4-11.8-26.4-26.3s11.8-26.4,26.3-26.4
		c14.6,0,26.4,11.8,26.4,26.3v0C619.3,565.4,607.5,577.2,593,577.2L593,577.2z"/>
	<path class="st1" d="M593.9,534.7c-0.2-0.3-0.5-0.5-0.8-0.5l0,0c-0.3,0-0.7,0.2-0.8,0.5L575.3,562c-0.3,0.5-0.2,1.1,0.3,1.4
		c0.2,0.1,0.3,0.2,0.5,0.2h33.7c0.6,0,1-0.4,1-1c0-0.2-0.1-0.4-0.2-0.5L593.9,534.7z M577.9,561.5l15.1-24.3l15,24.3H577.9z"/>
	<path class="st1" d="M592,544.7v8.3c0,0.6,0.4,1,1,1s1-0.4,1-1v-8.4c0-0.6-0.4-1-1-1S592,544.1,592,544.7L592,544.7z"/>
	<path class="st1" d="M593,556.7c-0.6,0-1.1,0.5-1.1,1.1c0,0.6,0.5,1.1,1.1,1.1c0.6,0,1.1-0.5,1.1-1.1
		C594.1,557.2,593.6,556.7,593,556.7C593,556.7,593,556.7,593,556.7z"/>
</g>
</svg>
