<?xml version="1.0" encoding="utf-8"?>
<!-- Generator: Adobe Illustrator 25.2.3, SVG Export Plug-In . SVG Version: 6.00 Build 0)  -->
<svg version="1.1" id="TRANSPORT_TRAVELING_2" xmlns="http://www.w3.org/2000/svg" xmlns:xlink="http://www.w3.org/1999/xlink"
	 x="0px" y="0px" viewBox="0 0 1908 1073.2" style="enable-background:new 0 0 1908 1073.2;" xml:space="preserve">
<style type="text/css">
	.st0{fill:#0076A8;}
	.st1{fill:#005587;}
	.st2{fill:#012169;}
</style>
<g>
	<path class="st0" d="M757.8,143.2c-15.7,0-28.4,12.7-28.4,28.3s12.7,28.4,28.3,28.4s28.4-12.7,28.4-28.3c0,0,0,0,0,0
		C786.2,155.9,773.5,143.2,757.8,143.2z M757.8,197.9c-14.6,0-26.4-11.8-26.4-26.3s11.8-26.4,26.3-26.4c14.6,0,26.4,11.8,26.4,26.3
		c0,0,0,0,0,0C784.1,186.1,772.4,197.8,757.8,197.9z"/>
	<path class="st0" d="M765.7,155.7c-2.1-1.8-4.9-2.8-7.7-2.7h-10.9c-0.6,0-1,0.4-1,1v35c0,0.6,0.4,1,1,1h6.9c0.6,0,1-0.4,1-1v-14h2
		c0.2,0,5.4,0.2,8.1-2c2.7-2.2,4.3-5.4,4.5-8.9C769.6,160.8,768.2,157.7,765.7,155.7z M763.8,171.4c-1.7,1.4-5.4,1.6-6.7,1.6h-3
		c-0.6,0-1,0.4-1,1v14h-4.8v-33h9.9c2.3-0.1,4.6,0.7,6.3,2.2c2.1,1.7,3.2,4.2,3.1,6.9C767.4,166.9,766,169.6,763.8,171.4z"/>
	<path class="st0" d="M758.4,159h-4.6c-0.6,0-1,0.4-1,1v7.8c0,0.6,0.4,1,1,1h4.9c2.8-0.3,4.8-2.9,4.5-5.7c-0.1-1.1-0.6-2.1-1.3-2.8
		C760.9,159.4,759.6,159,758.4,159z M758.7,166.8h-3.9V161h3.7c0.7,0,1.5,0.2,2,0.7c0.5,0.5,0.8,1.3,0.7,2
		C761.2,166.6,759.1,166.8,758.7,166.8L758.7,166.8z"/>
</g>
<g>
	<path class="st0" d="M832.9,157.2c-1.8-1.5-4-2.3-6.3-2.2h-9.9v33h4.8v-14c0-0.6,0.4-1,1-1h3.1c1.3,0,5-0.1,6.7-1.6
		c2.2-1.8,3.6-4.5,3.8-7.4C836.2,161.4,835,158.8,832.9,157.2z M827.2,168.8h-4.9c-0.6,0-1-0.4-1-1V160c0-0.6,0.4-1,1-1h4.6
		c1.3,0,2.5,0.4,3.5,1.3c1.9,2.1,1.8,5.3-0.3,7.2C829.3,168.2,828.3,168.6,827.2,168.8L827.2,168.8z"/>
	<path class="st0" d="M827,161h-3.7v5.8h3.9c0.4,0,2.5-0.2,2.5-3c0-0.7-0.2-1.5-0.7-2C828.5,161.3,827.8,161,827,161z"/>
	<path class="st0" d="M826.4,143.2c-15.7,0-28.4,12.7-28.4,28.3s12.7,28.4,28.3,28.4s28.4-12.7,28.4-28.3v0
		C854.7,155.9,842,143.2,826.4,143.2C826.4,143.2,826.4,143.2,826.4,143.2z M833.6,173c-2.7,2.2-7.8,2.1-8.1,2h-2v14
		c0,0.6-0.4,1-1,1h-6.8c-0.6,0-1-0.4-1-1v-35c0-0.6,0.4-1,1-1h10.9c2.8-0.1,5.6,0.9,7.7,2.7c2.5,2,3.9,5.1,3.8,8.3
		C838,167.5,836.3,170.8,833.6,173z"/>
</g>
<g>
	<path class="st1" d="M429.1,446.7c-15.7,0-28.4,12.7-28.4,28.3c0,15.7,12.7,28.4,28.3,28.4c15.7,0,28.4-12.7,28.4-28.3c0,0,0,0,0,0
		C457.4,459.4,444.7,446.7,429.1,446.7z M429.1,501.4c-14.6,0-26.4-11.8-26.4-26.3s11.8-26.4,26.3-26.4c14.6,0,26.4,11.8,26.4,26.3
		c0,0,0,0,0,0C455.4,489.5,443.6,501.3,429.1,501.4z"/>
	<path class="st1" d="M438.2,458.5c-0.1-0.5-0.5-0.8-1-0.8h-16.5c-0.5,0-0.9,0.3-1,0.8c0,0.1-1.7,8.7-2.4,13.1
		c-0.4,3.3,0.7,6.5,2.8,9c2,2.3,4.9,3.7,7.9,3.9v5.8h-6.3c-0.6,0-1,0.4-1,1s0.4,1,1,1h14.8c0.6,0,1-0.4,1-1s-0.4-1-1-1h-6.4v-5.8
		c3-0.2,5.8-1.7,7.8-4c2.2-2.6,3.3-5.9,3-9.3C440.1,467.3,438.2,458.6,438.2,458.5z M436.3,479.3c-1.8,2.1-4.4,3.4-7.2,3.3
		c-2.8,0.1-5.5-1.1-7.4-3.2c-1.8-2.1-2.6-4.7-2.4-7.4c0.6-3.6,1.8-10,2.2-12.2h7.8l-1.5,5.5c-0.1,0.4,0,0.8,0.4,1.1l3.4,2.5
		l-2.2,6.1c-0.2,0.5,0.1,1.1,0.6,1.3c0,0,0,0,0,0c0.1,0,0.2,0.1,0.4,0.1c0.4,0,0.8-0.3,0.9-0.6l2.5-6.8c0.2-0.4,0-0.9-0.4-1.2
		l-3.5-2.5l1.5-5.4h5c0.5,2.2,1.9,8.7,2.4,11.9C439,474.4,438.1,477.2,436.3,479.3z"/>
</g>
<g>
	<path class="st1" d="M497.6,446.7c-15.7,0-28.3,12.7-28.3,28.4c0,15.7,12.7,28.3,28.4,28.3c15.6,0,28.3-12.7,28.3-28.4
		C526,459.3,513.3,446.7,497.6,446.7C497.6,446.7,497.6,446.7,497.6,446.7z M506.4,480.5c-1.9,2.3-4.7,3.8-7.8,4v5.8h6.4
		c0.6,0,1,0.4,1,1s-0.4,1-1,1h-14.8c-0.6,0-1-0.4-1-1s0.4-1,1-1h6.3v-5.8c-3.1-0.2-5.9-1.6-7.9-3.9c-2.1-2.5-3.2-5.7-2.8-9
		c0.7-4.4,2.4-13,2.4-13.1c0.1-0.5,0.5-0.8,1-0.8h16.5c0.5,0,0.9,0.3,1,0.8c0,0.1,1.9,8.8,2.6,12.8
		C509.7,474.7,508.6,478,506.4,480.5z"/>
	<path class="st1" d="M504.9,459.7h-5l-1.5,5.4l3.5,2.5c0.4,0.3,0.5,0.7,0.4,1.2l-2.5,6.8c-0.1,0.4-0.5,0.7-0.9,0.6
		c-0.1,0-0.2,0-0.3-0.1c-0.5-0.2-0.8-0.8-0.6-1.3c0,0,0,0,0,0l2.2-6.1l-3.4-2.5c-0.3-0.2-0.5-0.7-0.4-1.1l1.5-5.5H490
		c-0.4,2.2-1.6,8.7-2.2,12.2c-0.3,2.7,0.6,5.4,2.4,7.4c1.9,2.1,4.6,3.3,7.4,3.2c2.8,0,5.5-1.2,7.2-3.3c1.8-2.1,2.7-4.9,2.5-7.6
		C506.8,468.4,505.4,461.9,504.9,459.7z"/>
</g>
<g>
	<path class="st0" d="M757.8,750.2c-15.7,0-28.4,12.7-28.4,28.3s12.7,28.4,28.3,28.4s28.4-12.7,28.4-28.3c0,0,0,0,0,0
		C786.2,762.8,773.5,750.2,757.8,750.2L757.8,750.2z M757.8,804.8c-14.6,0-26.4-11.8-26.4-26.3c0-14.6,11.8-26.4,26.3-26.4
		c14.6,0,26.4,11.8,26.4,26.3c0,0,0,0,0,0C784.1,793,772.4,804.8,757.8,804.8z"/>
	<path class="st0" d="M776.9,778l-9.1-15.8c-0.2-0.3-0.5-0.5-0.9-0.5h-18.2c-0.4,0-0.7,0.2-0.9,0.5l-9.1,15.8c-0.2,0.3-0.2,0.7,0,1
		l9.1,15.8c0.2,0.3,0.5,0.5,0.9,0.5h18.2c0.4,0,0.7-0.2,0.9-0.5l9.1-15.8C777.1,778.7,777.1,778.3,776.9,778z M766.4,793.3h-17.1
		l-8.5-14.8l8.5-14.8h17.1l8.5,14.8L766.4,793.3z"/>
	<path class="st0" d="M763.1,773.5c-0.1,0-0.2,0-0.4,0V770c0-1.3-1.1-2.3-2.4-2.3c-0.2,0-0.3,0-0.5,0.1c-0.5-1.2-1.9-1.8-3.1-1.4
		c-0.6,0.2-1.1,0.7-1.3,1.3c-0.2,0-0.4-0.1-0.6-0.1c-1.3,0-2.4,1-2.4,2.3l0,0v1.8c-1.2-0.1-2.3,0.8-2.4,2c0,0,0,0.1,0,0.1v3.5
		c0,2,0,4,0,5.9c-0.1,2.5,1.2,4.8,3.3,6.1c1.3,0.9,2.8,1.3,4.4,1.3c0.8,0,1.5-0.1,2.2-0.3c2.3-0.7,4.1-2.4,5-4.6
		c0.3-0.8,0.5-1.7,0.5-2.6v-7.4C765.5,774.5,764.4,773.5,763.1,773.5z M763.5,783.2c0,0.6-0.1,1.2-0.3,1.8c-0.6,1.7-2,3-3.7,3.5
		c-1.7,0.5-3.5,0.2-4.9-0.8c-1.6-0.9-2.5-2.6-2.4-4.4c0-2,0-4,0-6v-3.5c0-0.1,0.1-0.2,0.2-0.2s0.2,0.1,0.2,0.2v5.4c0,0.6,0.4,1,1,1
		s1-0.4,1-1v-9.3c0-0.2,0.2-0.4,0.4-0.3c0,0,0,0,0,0c0.2,0,0.4,0.2,0.4,0.3l0,0v9.3c0,0.6,0.4,1,1,1s1-0.4,1-1v-10.6
		c0-0.2,0.2-0.4,0.4-0.4c0.2,0,0.4,0.2,0.4,0.4v1.4c0,0,0,0,0,0v9.2c0,0.6,0.4,1,1,1s1-0.4,1-1V770c0-0.2,0.2-0.3,0.4-0.3
		c0.2,0,0.4,0.1,0.4,0.3c0,0,0,0,0,0v5.8l0,0v3.4c0,0.6,0.4,1,1,1s1-0.4,1-1v-3.4c0-0.2,0.2-0.3,0.4-0.3c0.2,0,0.4,0.1,0.4,0.3
		c0,0,0,0,0,0L763.5,783.2L763.5,783.2z"/>
</g>
<g>
	<path class="st0" d="M831.7,775.5c-0.2,0-0.4,0.1-0.4,0.3v3.4c0,0.6-0.4,1-1,1s-1-0.4-1-1v-3.4l0,0V770c0-0.2-0.2-0.3-0.4-0.3
		c-0.2,0-0.3,0.1-0.4,0.3v9.3c0,0.6-0.4,1-1,1s-1-0.4-1-1V770c0,0,0,0,0,0v-1.5c0-0.2-0.2-0.3-0.4-0.3c-0.2,0-0.4,0.1-0.4,0.3v10.7
		c0,0.6-0.4,1-1,1s-1-0.4-1-1v-9.3l0,0c0-0.2-0.2-0.3-0.4-0.3c-0.2,0-0.3,0.2-0.3,0.3v9.3c0,0.6-0.4,1-1,1s-1-0.4-1-1v-5.4
		c0-0.1-0.1-0.2-0.2-0.2c0,0,0,0,0,0c-0.1,0-0.2,0.1-0.2,0.2v3.5c0,2,0,4,0,6c-0.1,1.8,0.9,3.5,2.4,4.4c2.6,1.8,6.1,1.1,7.9-1.5
		c0.3-0.4,0.5-0.8,0.7-1.3c0.2-0.6,0.3-1.2,0.3-1.8v-7.4C832.1,775.7,831.9,775.5,831.7,775.5C831.7,775.5,831.7,775.5,831.7,775.5z
		"/>
	<path class="st0" d="M817.8,763.7l-8.5,14.8l8.5,14.8h17.1l8.5-14.8l-8.5-14.8H817.8z M834,783.2c0,0.9-0.1,1.8-0.5,2.6
		c-0.9,2.2-2.7,3.9-4.9,4.6c-0.7,0.2-1.5,0.3-2.2,0.3c-1.6,0-3.1-0.5-4.4-1.3c-2.1-1.3-3.4-3.6-3.3-6.1c0-2,0-4,0-5.9v-3.5
		c0-1.2,1-2.2,2.3-2.2c0,0,0.1,0,0.1,0v-1.8c0-1.3,1.1-2.4,2.4-2.3c0.2,0,0.4,0,0.6,0.1c0.5-1.2,1.9-1.8,3.1-1.2
		c0.6,0.3,1,0.7,1.3,1.3c0.2,0,0.3-0.1,0.5-0.1c1.3,0,2.4,1,2.4,2.3c0,0,0,0,0,0v3.5c0.1,0,0.2,0,0.4,0c1.3,0,2.4,1,2.4,2.3
		L834,783.2L834,783.2z"/>
	<path class="st0" d="M826.4,750.2c-15.7,0-28.4,12.7-28.4,28.3s12.7,28.4,28.3,28.4s28.4-12.7,28.4-28.3c0,0,0,0,0,0
		C854.7,762.8,842,750.2,826.4,750.2C826.4,750.2,826.4,750.2,826.4,750.2z M845.5,779l-9.1,15.8c-0.2,0.3-0.5,0.5-0.9,0.5h-18.2
		c-0.4,0-0.7-0.2-0.9-0.5l-9.1-15.8c-0.2-0.3-0.2-0.7,0-1l9.1-15.8c0.2-0.3,0.5-0.5,0.9-0.5h18.2c0.4,0,0.7,0.2,0.9,0.5l9.1,15.8
		C845.6,778.3,845.6,778.7,845.5,779z"/>
</g>
<g>
	<path class="st1" d="M429.1,522.5c-15.7,0-28.4,12.7-28.4,28.3c0,15.7,12.7,28.4,28.3,28.4c15.7,0,28.4-12.7,28.4-28.3c0,0,0,0,0,0
		C457.4,535.2,444.7,522.5,429.1,522.5z M429.1,577.2c-14.6,0-26.4-11.8-26.4-26.3c0-14.6,11.8-26.4,26.3-26.4
		c14.6,0,26.4,11.8,26.4,26.3c0,0,0,0,0,0C455.4,565.4,443.6,577.2,429.1,577.2L429.1,577.2z"/>
	<path class="st1" d="M445.5,542.1c0-0.1-0.1-0.1-0.1-0.2l-0.1-0.1c-0.1-0.1-0.2-0.1-0.3-0.2l0,0l-15.6-6.7c-0.3-0.1-0.5-0.1-0.8,0
		l-15.6,6.7l0,0c-0.1,0-0.2,0.1-0.3,0.2l-0.1,0.1l-0.1,0.2c0,0,0,0.1,0,0.1c0,0.1-0.1,0.2-0.1,0.3v15.6c0,0.4,0.2,0.7,0.5,0.9
		l15.6,7.8h0c0.1,0.1,0.3,0.1,0.4,0.1c0.1,0,0.2,0,0.4-0.1l0,0l15.5-6.7c0.4-0.2,0.6-0.5,0.6-0.9v-16.7c0-0.1,0-0.2-0.1-0.3
		C445.5,542.1,445.5,542.1,445.5,542.1z M429.1,536.9l13,5.6l-13,5.6l-13.1-5.6L429.1,536.9z M414.5,544l13.6,5.8v14.5l-13.6-6.8
		V544z M430.1,564.4v-14.5l13.6-5.9v14.5L430.1,564.4z"/>
</g>
<g>
	<path class="st2" d="M101.5,750.2c-15.7,0-28.3,12.7-28.3,28.3c0,15.7,12.7,28.4,28.3,28.4s28.3-12.7,28.3-28.4c0,0,0,0,0,0
		C129.8,762.8,117.2,750.2,101.5,750.2C101.5,750.2,101.5,750.2,101.5,750.2z M101.5,804.8c-14.6,0-26.3-11.8-26.3-26.3
		c0-14.6,11.8-26.4,26.3-26.4s26.3,11.8,26.3,26.4l0,0C127.8,793,116,804.8,101.5,804.8z"/>
	<path class="st2" d="M101.5,759.7c-10.4,0-18.8,8.4-18.8,18.8s8.4,18.8,18.8,18.8s18.8-8.4,18.8-18.8c0,0,0,0,0,0
		C120.3,768.1,111.9,759.7,101.5,759.7z M116.3,786.4h-8.1c0.4-2.3,0.6-4.6,0.6-6.9h9.4C118.1,781.9,117.4,784.3,116.3,786.4z
		 M101.5,795.3c-1.5,0-3.2-2.7-4.2-6.9h8.5C104.7,792.6,103,795.3,101.5,795.3L101.5,795.3z M96.8,786.4c-0.4-2.3-0.6-4.6-0.7-6.9
		h10.7c0,2.3-0.3,4.6-0.7,6.9H96.8z M84.8,779.5h9.4c0,2.3,0.3,4.6,0.6,6.9h-8.1C85.5,784.3,84.9,781.9,84.8,779.5z M86.7,770.6h8.1
		c-0.4,2.3-0.6,4.6-0.6,6.9h-9.4C84.9,775.1,85.5,772.7,86.7,770.6z M101.5,761.7c1.5,0,3.2,2.7,4.2,6.9h-8.5
		C98.3,764.4,100,761.7,101.5,761.7L101.5,761.7z M106.2,770.6c0.4,2.3,0.6,4.6,0.7,6.9H96.2c0-2.3,0.3-4.6,0.7-6.9H106.2z
		 M108.8,777.5c0-2.3-0.3-4.6-0.6-6.9h8.1c1.1,2.1,1.8,4.5,1.9,6.9H108.8z M115,768.6h-7.2c-0.5-2.3-1.3-4.5-2.5-6.5
		C109.2,763.1,112.6,765.4,115,768.6L115,768.6z M97.7,762.1c-1.2,2-2.1,4.2-2.5,6.5H88C90.4,765.4,93.8,763.1,97.7,762.1
		L97.7,762.1z M88,788.4h7.2c0.5,2.3,1.3,4.5,2.5,6.5C93.8,793.9,90.4,791.6,88,788.4z M105.3,794.9c1.2-2,2.1-4.2,2.5-6.5h7.2
		C112.6,791.6,109.2,793.9,105.3,794.9L105.3,794.9z"/>
</g>
<g>
	<polygon class="st1" points="496.6,549.9 483,544 483,557.5 496.6,564.3 	"/>
	<polygon class="st1" points="510.7,542.5 497.6,536.9 484.5,542.5 497.6,548.1 	"/>
	<polygon class="st1" points="498.6,549.9 498.6,564.4 512.2,558.6 512.2,544 	"/>
	<path class="st1" d="M497.6,522.5c-15.7,0-28.3,12.7-28.3,28.4c0,15.7,12.7,28.3,28.4,28.3c15.6,0,28.3-12.7,28.3-28.3
		C526,535.2,513.3,522.5,497.6,522.5C497.6,522.5,497.6,522.5,497.6,522.5z M514.2,559.2c0,0.4-0.2,0.8-0.6,0.9l-15.6,6.7l0,0
		c-0.1,0-0.2,0.1-0.3,0.1c-0.1,0-0.3,0-0.4-0.1l0,0l-15.7-7.8c-0.3-0.2-0.6-0.5-0.6-0.9v-15.6c0-0.1,0-0.2,0.1-0.3l0-0.1
		c0-0.1,0.1-0.1,0.1-0.2l0.1-0.1c0.1-0.1,0.2-0.1,0.3-0.2l0,0l15.6-6.7c0.3-0.1,0.5-0.1,0.8,0l15.6,6.7l0,0c0.1,0,0.2,0.1,0.3,0.2
		l0.1,0.1c0.1,0.1,0.1,0.1,0.1,0.2v0.1c0,0.1,0.1,0.2,0.1,0.3L514.2,559.2z"/>
</g>
<g>
	<path class="st2" d="M162.7,779.5h-9.4c0.1,2.4,0.8,4.8,1.9,6.9h8.1C163,784.1,162.7,781.8,162.7,779.5z"/>
	<path class="st2" d="M164.7,779.5c0,2.3,0.3,4.6,0.7,6.9h9.3c0.4-2.3,0.6-4.6,0.7-6.9H164.7z"/>
	<path class="st2" d="M162.7,777.5c0-2.3,0.3-4.6,0.6-6.9h-8.1c-1.1,2.1-1.8,4.5-1.9,6.9H162.7z"/>
	<path class="st2" d="M177.4,779.5c0,2.3-0.3,4.6-0.6,6.9h8.1c1.1-2.1,1.8-4.5,1.9-6.9H177.4z"/>
	<path class="st2" d="M176.3,768.6h7.2c-2.4-3.3-5.9-5.5-9.8-6.5C175,764.1,175.9,766.3,176.3,768.6z"/>
	<path class="st2" d="M165.8,788.4c1.1,4.2,2.7,6.9,4.2,6.9s3.2-2.7,4.2-6.9H165.8z"/>
	<path class="st2" d="M174.3,768.6c-1.1-4.2-2.7-6.9-4.2-6.9s-3.2,2.7-4.2,6.9H174.3z"/>
	<path class="st2" d="M175.4,777.5c0-2.3-0.3-4.6-0.7-6.9h-9.3c-0.4,2.3-0.6,4.6-0.7,6.9H175.4z"/>
	<path class="st2" d="M176.7,770.6c0.4,2.3,0.6,4.6,0.6,6.9h9.4c-0.1-2.4-0.8-4.8-1.9-6.9H176.7z"/>
	<path class="st2" d="M176.3,788.4c-0.5,2.3-1.3,4.5-2.5,6.5c3.9-0.9,7.4-3.2,9.8-6.5H176.3z"/>
	<path class="st2" d="M170,750.2c-15.7,0-28.3,12.7-28.3,28.3c0,15.7,12.7,28.4,28.3,28.4s28.4-12.7,28.4-28.4c0,0,0,0,0,0
		C198.3,762.8,185.7,750.2,170,750.2z M170,797.3c-10.4,0-18.8-8.4-18.8-18.8c0-10.4,8.4-18.8,18.8-18.8c10.4,0,18.8,8.4,18.8,18.8
		c0,0,0,0,0,0C188.8,788.9,180.4,797.3,170,797.3L170,797.3z"/>
	<path class="st2" d="M163.7,768.6c0.5-2.3,1.3-4.5,2.5-6.5c-3.9,0.9-7.4,3.2-9.8,6.5H163.7z"/>
	<path class="st2" d="M163.7,788.4h-7.2c2.4,3.3,5.9,5.5,9.8,6.5C165.1,792.9,164.2,790.7,163.7,788.4z"/>
</g>
<g>
	<path class="st0" d="M757.8,522.5c-15.7,0-28.4,12.7-28.4,28.3s12.7,28.4,28.3,28.4s28.4-12.7,28.4-28.3c0,0,0,0,0,0
		C786.2,535.2,773.5,522.5,757.8,522.5z M757.8,577.2c-14.6,0-26.4-11.8-26.4-26.3c0-14.6,11.8-26.4,26.3-26.4
		c14.6,0,26.4,11.8,26.4,26.3c0,0,0,0,0,0C784.1,565.4,772.4,577.2,757.8,577.2L757.8,577.2z"/>
	<path class="st0" d="M757.8,541c1.8,0,3.2-1.4,3.2-3.2c0-1.8-1.4-3.2-3.2-3.2c-1.8,0-3.2,1.4-3.2,3.2c0,0,0,0,0,0
		C754.6,539.6,756.1,541,757.8,541z M757.8,536.6c0.7,0,1.2,0.5,1.2,1.2c0,0.7-0.5,1.2-1.2,1.2c-0.7,0-1.2-0.5-1.2-1.2c0,0,0,0,0,0
		C756.7,537.2,757.2,536.7,757.8,536.6L757.8,536.6z"/>
	<path class="st0" d="M755.8,557.3l-5.8,8.2c-0.3,0.4-0.2,1.1,0.2,1.4c0,0,0,0,0,0c0.2,0.1,0.4,0.2,0.6,0.2c0.3,0,0.6-0.2,0.8-0.4
		l5.8-8.2c0.3-0.5,0.2-1.1-0.2-1.4C756.8,556.8,756.2,556.9,755.8,557.3L755.8,557.3z"/>
	<path class="st0" d="M764.4,550.2c-0.4-0.4-1-0.4-1.4,0s-0.4,1,0,1.4l1.2,1.2c0.4,0.4,1,0.4,1.4,0c0.4-0.4,0.4-1,0-1.4L764.4,550.2
		z"/>
	<path class="st0" d="M770.2,537.1l-11.4,11.4v-5.2c0-0.6-0.5-1-1-1c-0.2,0-0.4,0.1-0.6,0.2l-4.4,3.3c-0.3,0.2-0.4,0.5-0.4,0.8v8.3
		l-8.5,8.4c-0.4,0.4-0.4,1,0,1.4c0.4,0.4,1,0.4,1.4,0l13.1-13.1l0,0l13.1-13.1c0.4-0.4,0.4-1,0-1.4c0,0,0,0,0,0
		C771.2,536.8,770.6,536.8,770.2,537.1z M754.5,547.1l2.3-1.8v5.2l-2.3,2.4V547.1z"/>
	<path class="st0" d="M763.3,557.4l-2.3-3.5c-0.3-0.4-1-0.5-1.4-0.2c-0.4,0.3-0.5,0.9-0.3,1.3l2.2,3.3l1.1,7.9
		c0.1,0.5,0.5,0.9,1,0.9h0.1c0.5-0.1,0.9-0.6,0.9-1.1c0,0,0,0,0,0l-1.2-8.2C763.5,557.6,763.4,557.5,763.3,557.4z"/>
</g>
<g>
	<path class="st0" d="M757.8,295.9c-15.7,0-28.4,12.7-28.4,28.3s12.7,28.4,28.3,28.4c15.7,0,28.4-12.7,28.4-28.3c0,0,0,0,0,0
		C786.2,308.6,773.5,295.9,757.8,295.9L757.8,295.9z M757.8,350.6c-14.6,0-26.4-11.8-26.4-26.3s11.8-26.4,26.3-26.4
		c14.6,0,26.4,11.8,26.4,26.3c0,0,0,0,0,0C784.1,338.8,772.4,350.6,757.8,350.6z"/>
	<path class="st0" d="M761.9,306.6h-8.2c-2.2,0-4,1.8-4,4v27.2c0,2.2,1.8,4,4,4h8.2c2.2,0,4-1.8,4-4v-27.2
		C765.9,308.4,764.1,306.6,761.9,306.6z M763.9,337.9c0,1.1-0.9,2-2,2h-8.2c-1.1,0-2-0.9-2-2v-27.2c0-1.1,0.9-2,2-2h8.2
		c1.1,0,2,0.9,2,2V337.9z"/>
	<path class="st0" d="M757.8,311.4c-1.9,0-3.4,1.5-3.4,3.4c0,1.9,1.5,3.4,3.4,3.4s3.4-1.5,3.4-3.4c0,0,0,0,0,0
		C761.2,312.9,759.7,311.4,757.8,311.4z M757.8,316.1c-0.8,0-1.4-0.6-1.4-1.4c0-0.8,0.6-1.4,1.4-1.4c0.8,0,1.4,0.6,1.4,1.4
		c0,0,0,0,0,0C759.2,315.5,758.6,316.1,757.8,316.1z"/>
	<path class="st0" d="M757.8,320.9c-1.9,0-3.4,1.5-3.4,3.4c0,1.9,1.5,3.4,3.4,3.4c1.9,0,3.4-1.5,3.4-3.4c0,0,0,0,0,0
		C761.2,322.4,759.7,320.9,757.8,320.9z M757.8,325.6c-0.8,0-1.4-0.6-1.4-1.4c0-0.8,0.6-1.4,1.4-1.4s1.4,0.6,1.4,1.4c0,0,0,0,0,0
		C759.2,325,758.6,325.6,757.8,325.6z"/>
	<path class="st0" d="M757.8,330.4c-1.9,0-3.4,1.5-3.4,3.4s1.5,3.4,3.4,3.4s3.4-1.5,3.4-3.4l0,0
		C761.2,331.9,759.7,330.4,757.8,330.4z M757.8,335.1c-0.8,0-1.4-0.6-1.4-1.4s0.6-1.4,1.4-1.4c0.8,0,1.4,0.6,1.4,1.4l0,0
		C759.2,334.5,758.6,335.1,757.8,335.1z"/>
</g>
<g>
	<path class="st0" d="M757.8,370.8c-15.7,0-28.4,12.7-28.4,28.3c0,15.7,12.7,28.4,28.3,28.4c15.7,0,28.4-12.7,28.4-28.3c0,0,0,0,0,0
		C786.2,383.5,773.5,370.8,757.8,370.8z M757.8,425.5c-14.6,0-26.4-11.8-26.4-26.3s11.8-26.4,26.3-26.4c14.6,0,26.4,11.8,26.4,26.3
		c0,0,0,0,0,0C784.1,413.7,772.4,425.5,757.8,425.5z"/>
	<path class="st0" d="M757.8,387c-1.8,0-3.2,1.5-3.2,3.2s1.5,3.2,3.2,3.2c1.8,0,3.2-1.5,3.2-3.2c0,0,0,0,0,0
		C761,388.5,759.6,387,757.8,387z M757.8,391.5c-0.7,0-1.2-0.6-1.2-1.2s0.6-1.2,1.2-1.2c0.7,0,1.2,0.6,1.2,1.2c0,0,0,0,0,0
		C759,390.9,758.5,391.4,757.8,391.5L757.8,391.5z"/>
	<path class="st0" d="M757.8,395.9c-1.8,0-3.2,1.5-3.2,3.2s1.5,3.2,3.2,3.2c1.8,0,3.2-1.5,3.2-3.2c0,0,0,0,0,0
		C761,397.4,759.6,395.9,757.8,395.9z M757.8,400.4c-0.7,0-1.2-0.6-1.2-1.2c0-0.7,0.6-1.2,1.2-1.2c0.7,0,1.2,0.6,1.2,1.2
		c0,0,0,0,0,0C759,399.8,758.5,400.4,757.8,400.4C757.8,400.4,757.8,400.4,757.8,400.4z"/>
	<path class="st0" d="M757.8,404.9c-1.8,0-3.2,1.5-3.2,3.2c0,1.8,1.5,3.2,3.2,3.2c1.8,0,3.2-1.5,3.2-3.2c0,0,0,0,0,0
		C761,406.3,759.6,404.9,757.8,404.9C757.8,404.8,757.8,404.9,757.8,404.9z M757.8,409.3c-0.7,0-1.2-0.6-1.2-1.2s0.6-1.2,1.2-1.2
		c0.7,0,1.2,0.6,1.2,1.2c0,0,0,0,0,0C759,408.8,758.5,409.3,757.8,409.3z"/>
	<path class="st0" d="M771.1,385.7c0-0.6-0.4-1-1-1h-5c-0.7-1.4-2.1-2.2-3.6-2.2h-7.5c-1.5,0-2.9,0.9-3.6,2.2h-5c-0.6,0-1,0.4-1,1
		c-0.1,3.3,2.3,6.1,5.6,6.5v2.5h-4.6c-0.6,0-1,0.4-1,1c-0.1,3.3,2.3,6.1,5.6,6.5v2.5h-4.6c-0.6,0-1,0.4-1,1
		c-0.1,3.3,2.3,6.2,5.7,6.5c0.3,1.9,2,3.4,3.9,3.4h7.4c2,0,3.6-1.5,3.9-3.4c3.3-0.4,5.8-3.2,5.7-6.5c0-0.6-0.4-1-1-1h-4.6v-2.5
		c3.3-0.4,5.7-3.2,5.6-6.5c0-0.6-0.4-1-1-1h-4.6v-2.5C768.8,391.8,771.2,389,771.1,385.7z M765.5,390.2v-3.5h3.5
		C768.7,388.5,767.3,389.9,765.5,390.2L765.5,390.2z M746.6,386.7h3.5v3.5C748.3,389.9,746.9,388.5,746.6,386.7L746.6,386.7z
		 M746.6,396.8h3.5v3.5C748.3,400,746.9,398.6,746.6,396.8L746.6,396.8z M746.6,406.9h3.5v3.5C748.3,410.1,746.9,408.7,746.6,406.9
		L746.6,406.9z M763.5,411.8c0,1.1-0.9,2-2,2h-7.4c-1.1,0-2-0.9-2-2v-25.3c0-1.1,0.9-2,2-2h7.4c1.1,0,2,0.9,2,2V411.8z M769,406.9
		c-0.3,1.8-1.7,3.2-3.5,3.5v-3.5H769z M769,396.8c-0.3,1.8-1.7,3.2-3.5,3.5v-3.5H769z"/>
</g>
<g>
	<path class="st0" d="M757.8,446.7c-15.7,0-28.4,12.7-28.4,28.3s12.7,28.4,28.3,28.4c15.7,0,28.4-12.7,28.4-28.3c0,0,0,0,0,0
		C786.2,459.4,773.5,446.7,757.8,446.7z M757.8,501.4c-14.6,0-26.4-11.8-26.4-26.3s11.8-26.4,26.3-26.4c14.6,0,26.4,11.8,26.4,26.3
		c0,0,0,0,0,0C784.1,489.5,772.4,501.3,757.8,501.4z"/>
	<path class="st0" d="M758.4,464.4c1.8,0,3.3-1.5,3.3-3.3c0-1.8-1.5-3.3-3.3-3.3c-1.8,0-3.3,1.5-3.3,3.3c0,0,0,0,0,0
		C755.1,462.9,756.6,464.4,758.4,464.4z M758.4,459.8c0.7,0,1.3,0.6,1.3,1.3c0,0.7-0.6,1.3-1.3,1.3s-1.3-0.6-1.3-1.3c0,0,0,0,0,0
		C757.1,460.4,757.7,459.8,758.4,459.8z"/>
	<path class="st0" d="M763.8,482.5l-4.4-5.5v-10.1c0-0.6-0.5-1-1-1c-0.2,0-0.4,0.1-0.6,0.2l-4.6,3.5c-0.3,0.2-0.4,0.5-0.4,0.8v8.1
		c0,0.6,0.4,1,1,1s1-0.4,1-1v-7.6l2.6-2v8.4c0,0.2,0.1,0.4,0.2,0.6l4.5,5.6l1.1,7.8c0.1,0.5,0.5,0.9,1,0.9h0.1
		c0.5-0.1,0.9-0.6,0.8-1.1L764,483C764,482.8,763.9,482.6,763.8,482.5z"/>
	<path class="st0" d="M756.4,482.5l-5.8,8.1c-0.3,0.4-0.2,1.1,0.2,1.4c0.2,0.1,0.4,0.2,0.6,0.2c0.3,0,0.6-0.2,0.8-0.4l5.8-8.1
		c0.3-0.5,0.2-1.1-0.2-1.4C757.4,482,756.7,482.1,756.4,482.5L756.4,482.5z"/>
	<path class="st0" d="M763.7,474.3c-0.4-0.4-1-0.4-1.4,0c0,0,0,0,0,0c-0.4,0.4-0.4,1,0,1.4l1.2,1.2c0.2,0.2,0.4,0.3,0.7,0.3
		c0.3,0,0.5-0.1,0.7-0.3c0.4-0.4,0.4-1,0-1.4L763.7,474.3z"/>
</g>
<g>
	<path class="st0" d="M826.4,539c0.7,0,1.2-0.5,1.2-1.2s-0.5-1.2-1.2-1.2c-0.7,0-1.2,0.5-1.2,1.2l0,0
		C825.2,538.5,825.7,539,826.4,539z"/>
	<polygon class="st0" points="825.4,545.3 823,547.1 823,552.9 825.4,550.5 	"/>
	<path class="st0" d="M826.4,522.5c-15.7,0-28.4,12.7-28.4,28.3s12.7,28.4,28.3,28.4s28.4-12.7,28.4-28.3v0
		C854.7,535.2,842,522.5,826.4,522.5C826.4,522.5,826.4,522.5,826.4,522.5z M826.4,534.7c1.8,0,3.2,1.4,3.2,3.2s-1.4,3.2-3.2,3.2
		c-1.8,0-3.2-1.4-3.2-3.2l0,0C823.2,536.1,824.6,534.7,826.4,534.7L826.4,534.7z M826,558.5l-5.8,8.2c-0.2,0.3-0.5,0.4-0.8,0.4
		c-0.2,0-0.4-0.1-0.6-0.2c-0.4-0.3-0.6-0.9-0.2-1.4c0,0,0,0,0,0l5.8-8.2c0.3-0.5,0.9-0.6,1.4-0.2S826.3,558,826,558.5z M832.3,567.1
		h-0.2c-0.5,0-0.9-0.4-1-0.9l-1.1-7.9l-2.2-3.3c-0.3-0.5-0.2-1.1,0.3-1.4c0.5-0.3,1.1-0.2,1.4,0.3l0,0l2.3,3.5
		c0.1,0.1,0.1,0.3,0.2,0.4l1.2,8.2C833.3,566.5,832.9,567,832.3,567.1L832.3,567.1z M834.1,552.8c-0.2,0.2-0.4,0.3-0.7,0.3
		c-0.3,0-0.5-0.1-0.7-0.3l-1.2-1.2c-0.4-0.4-0.4-1,0-1.4c0,0,0,0,0,0c0.4-0.4,1-0.4,1.4,0l1.2,1.2
		C834.5,551.8,834.5,552.4,834.1,552.8L834.1,552.8z M840.1,538.6l-13.1,13.1l0,0L814,564.7c-0.4,0.4-1,0.4-1.4,0
		c-0.4-0.4-0.4-1,0-1.4l8.4-8.4v-8.3c0-0.3,0.1-0.6,0.4-0.8l4.3-3.3c0.3-0.2,0.7-0.2,1-0.1c0.3,0.2,0.5,0.5,0.5,0.9v5.2l11.4-11.4
		c0.4-0.4,1-0.4,1.4,0S840.5,538.2,840.1,538.6L840.1,538.6z"/>
</g>
<g>
	<circle class="st0" cx="826.4" cy="324.2" r="1.4"/>
	<circle class="st0" cx="826.4" cy="314.8" r="1.4"/>
	<path class="st0" d="M830.5,308.6h-8.2c-1.1,0-2,0.9-2,2v27.2c0,1.1,0.9,2,2,2h8.2c1.1,0,2-0.9,2-2v-27.2
		C832.5,309.5,831.6,308.6,830.5,308.6z M826.4,337.1c-1.9,0-3.4-1.5-3.4-3.4c0-1.9,1.5-3.4,3.4-3.4c1.9,0,3.4,1.5,3.4,3.4
		C829.7,335.6,828.2,337.1,826.4,337.1C826.4,337.1,826.4,337.1,826.4,337.1z M826.4,327.6c-1.9,0-3.4-1.5-3.4-3.4s1.5-3.4,3.4-3.4
		s3.4,1.5,3.4,3.4S828.2,327.6,826.4,327.6L826.4,327.6z M826.4,318.1c-1.9,0-3.4-1.5-3.4-3.4c0-1.9,1.5-3.4,3.4-3.4
		c1.9,0,3.4,1.5,3.4,3.4c0,0,0,0,0,0C829.7,316.6,828.2,318.1,826.4,318.1C826.4,318.1,826.4,318.1,826.4,318.1z"/>
	<path class="st0" d="M826.4,295.9c-15.7,0-28.4,12.7-28.4,28.3c0,15.7,12.7,28.4,28.3,28.4c15.7,0,28.4-12.7,28.4-28.3c0,0,0,0,0,0
		C854.7,308.6,842,295.9,826.4,295.9C826.4,295.9,826.4,295.9,826.4,295.9z M834.5,337.9c0,2.2-1.8,4-4,4h-8.2c-2.2,0-4-1.8-4-4
		v-27.3c0-2.2,1.8-4,4-4h8.2c2.2,0,4,1.8,4,4V337.9z"/>
	<circle class="st0" cx="826.4" cy="333.7" r="1.4"/>
</g>
<g>
	<path class="st0" d="M826.4,406.9c-0.7,0.1-1.2,0.7-1.1,1.3c0.1,0.6,0.5,1.1,1.1,1.1c0.7,0.1,1.3-0.4,1.3-1.1
		c0.1-0.7-0.4-1.3-1.1-1.3C826.5,406.8,826.4,406.8,826.4,406.9z"/>
	<path class="st0" d="M826.4,397.9c-0.7,0-1.2,0.6-1.2,1.2s0.6,1.2,1.2,1.2c0.7,0,1.2-0.6,1.2-1.2c0,0,0,0,0,0
		C827.6,398.5,827.1,397.9,826.4,397.9C826.4,397.9,826.4,397.9,826.4,397.9z"/>
	<path class="st0" d="M815.2,386.7c0.3,1.8,1.7,3.2,3.5,3.5v-3.5H815.2z"/>
	<path class="st0" d="M818.7,406.9h-3.5c0.3,1.8,1.7,3.2,3.5,3.5V406.9z"/>
	<path class="st0" d="M826.4,389c-0.7,0-1.2,0.6-1.2,1.2s0.6,1.2,1.2,1.2c0.7,0,1.2-0.6,1.2-1.2c0,0,0,0,0,0
		C827.6,389.6,827,389,826.4,389z"/>
	<path class="st0" d="M815.2,396.8c0.3,1.8,1.7,3.2,3.5,3.5v-3.5H815.2z"/>
	<path class="st0" d="M837.5,406.9h-3.5v3.5C835.9,410.1,837.3,408.7,837.5,406.9z"/>
	<path class="st0" d="M834.1,390.2c1.8-0.3,3.2-1.7,3.5-3.5h-3.5V390.2z"/>
	<path class="st0" d="M826.4,370.8c-15.7,0-28.4,12.7-28.4,28.3s12.7,28.4,28.3,28.4c15.7,0,28.4-12.7,28.4-28.3c0,0,0,0,0,0
		C854.7,383.5,842,370.8,826.4,370.8C826.4,370.8,826.4,370.8,826.4,370.8z M838.7,394.8c0.6,0,1,0.4,1,1c0.1,3.3-2.3,6.1-5.6,6.5
		v2.5h4.6c0.6,0,1,0.4,1,1c0.1,3.3-2.3,6.2-5.7,6.5c-0.3,1.9-2,3.4-3.9,3.4h-7.4c-2,0-3.6-1.5-3.9-3.4c-3.3-0.4-5.8-3.2-5.7-6.5
		c0-0.6,0.4-1,1-1h4.6v-2.5c-3.3-0.4-5.7-3.2-5.6-6.5c0-0.6,0.4-1,1-1h4.6v-2.5c-3.3-0.4-5.7-3.2-5.6-6.5c0-0.6,0.4-1,1-1h5
		c0.7-1.4,2.1-2.2,3.6-2.2h7.4c1.5,0,2.9,0.9,3.6,2.2h5c0.6,0,1,0.4,1,1c0.1,3.3-2.3,6.1-5.6,6.5v2.5H838.7z"/>
	<path class="st0" d="M837.5,396.8h-3.5v3.5C835.9,400,837.3,398.6,837.5,396.8z"/>
	<path class="st0" d="M832.1,386.5c0-1.1-0.9-2-2-2h-7.4c-1.1,0-2,0.9-2,2v25.3c0,1.1,0.9,2,2,2h7.4c1.1,0,2-0.9,2-2V386.5z
		 M826.4,411.3c-1.8,0-3.2-1.5-3.2-3.2s1.5-3.2,3.2-3.2c1.8,0,3.2,1.5,3.2,3.2c0,0,0,0,0,0C829.6,409.9,828.1,411.3,826.4,411.3z
		 M826.4,402.4c-1.8,0-3.2-1.5-3.2-3.2c0-1.8,1.5-3.2,3.2-3.2c1.8,0,3.2,1.5,3.2,3.2c0,0,0,0,0,0
		C829.6,400.9,828.2,402.4,826.4,402.4C826.4,402.4,826.4,402.4,826.4,402.4z M826.4,393.4c-1.8,0-3.2-1.5-3.2-3.2s1.5-3.2,3.2-3.2
		c1.8,0,3.2,1.5,3.2,3.2c0,0,0,0,0,0C829.6,392,828.1,393.4,826.4,393.4z"/>
</g>
<g>
	<path class="st0" d="M826.9,462.4c0.7,0,1.3-0.6,1.3-1.3s-0.6-1.3-1.3-1.3c-0.7,0-1.3,0.6-1.3,1.3S826.2,462.4,826.9,462.4
		L826.9,462.4z"/>
	<path class="st0" d="M826.4,446.7c-15.7,0-28.3,12.7-28.3,28.4c0,15.7,12.7,28.3,28.4,28.3c15.7,0,28.3-12.7,28.3-28.4c0,0,0,0,0,0
		C854.7,459.3,842,446.7,826.4,446.7C826.4,446.7,826.4,446.7,826.4,446.7z M826.9,457.8c1.8,0,3.3,1.5,3.3,3.3s-1.5,3.3-3.3,3.3
		c-1.8,0-3.3-1.5-3.3-3.3S825.1,457.8,826.9,457.8L826.9,457.8z M826.6,483.7l-5.8,8.1c-0.2,0.3-0.5,0.4-0.8,0.4
		c-0.2,0-0.4-0.1-0.6-0.2c-0.4-0.3-0.6-0.9-0.2-1.4l5.8-8.1c0.3-0.5,0.9-0.6,1.4-0.2C826.8,482.6,826.9,483.2,826.6,483.7
		L826.6,483.7z M832.9,492.2h-0.2c-0.5,0-0.9-0.4-1-0.9l-1.1-7.8l-4.5-5.5c-0.1-0.2-0.2-0.4-0.2-0.6v-8.4l-2.6,2v7.6
		c0,0.6-0.4,1-1,1s-1-0.4-1-1v-8.1c0-0.3,0.1-0.6,0.4-0.8l4.6-3.5c0.3-0.2,0.7-0.2,1-0.1c0.3,0.2,0.5,0.5,0.5,0.9v10l4.4,5.5
		c0.1,0.1,0.2,0.3,0.2,0.5l1.2,8.1C833.7,491.6,833.4,492.1,832.9,492.2z M833.4,476.9c-0.4,0.4-1,0.4-1.4,0l-1.2-1.2
		c-0.4-0.4-0.3-1.1,0.1-1.4c0.4-0.3,0.9-0.3,1.3,0l1.2,1.2C833.8,475.9,833.8,476.5,833.4,476.9z"/>
</g>
<g>
	<path class="st0" d="M757.8,219.1c-15.7,0-28.4,12.7-28.4,28.3s12.7,28.4,28.3,28.4s28.4-12.7,28.4-28.3c0,0,0,0,0,0
		C786.2,231.7,773.5,219.1,757.8,219.1L757.8,219.1z M757.8,273.7c-14.6,0-26.4-11.8-26.4-26.3s11.8-26.4,26.3-26.4
		c14.6,0,26.4,11.8,26.4,26.3c0,0,0,0,0,0C784.1,261.9,772.4,273.7,757.8,273.7z"/>
	<path class="st0" d="M765.1,230.8c-0.2-0.2-0.4-0.3-0.7-0.3h-13.2c-0.3,0-0.5,0.1-0.7,0.3l-9.3,9.3c-0.2,0.2-0.3,0.4-0.3,0.7V254
		c0,0.3,0.1,0.5,0.3,0.7l9.3,9.3c0.2,0.2,0.4,0.3,0.7,0.3h13.2c0.3,0,0.5-0.1,0.7-0.3l9.3-9.3c0.2-0.2,0.3-0.4,0.3-0.7v-13.2
		c0-0.3-0.1-0.5-0.3-0.7L765.1,230.8z M772.7,253.6l-8.7,8.7h-12.4l-8.7-8.7v-12.4l8.7-8.7H764l8.7,8.7V253.6z"/>
</g>
<g>
	<polygon class="st0" points="820.2,232.5 811.4,241.2 811.4,253.6 820.2,262.3 832.5,262.3 841.3,253.6 841.3,241.2 832.5,232.5 	
		"/>
	<path class="st0" d="M826.4,219.1c-15.7,0-28.4,12.7-28.4,28.3s12.7,28.4,28.3,28.4c15.7,0,28.4-12.7,28.4-28.3c0,0,0,0,0,0
		C854.7,231.7,842,219.1,826.4,219.1C826.4,219.1,826.4,219.1,826.4,219.1z M843.3,254c0,0.3-0.1,0.5-0.3,0.7l-9.3,9.3
		c-0.2,0.2-0.4,0.3-0.7,0.3h-13.2c-0.3,0-0.5-0.1-0.7-0.3l-9.3-9.3c-0.2-0.2-0.3-0.4-0.3-0.7v-13.2c0-0.3,0.1-0.5,0.3-0.7l9.3-9.3
		c0.2-0.2,0.4-0.3,0.7-0.3H833c0.3,0,0.5,0.1,0.7,0.3l9.3,9.3c0.2,0.2,0.3,0.4,0.3,0.7L843.3,254z"/>
</g>
<g>
	<path class="st1" d="M429.1,674.3c-15.7,0-28.4,12.7-28.4,28.3c0,15.7,12.7,28.4,28.3,28.4c15.7,0,28.4-12.7,28.4-28.3c0,0,0,0,0,0
		C457.4,687,444.7,674.3,429.1,674.3L429.1,674.3z M429.1,729c-14.6,0-26.4-11.8-26.4-26.3c0-14.6,11.8-26.4,26.3-26.4
		c14.6,0,26.4,11.8,26.4,26.3c0,0,0,0,0,0C455.4,717.2,443.6,729,429.1,729L429.1,729z"/>
	<path class="st1" d="M447.2,691.4c-0.1-0.3-0.3-0.5-0.5-0.7l-12.3-6.1c-0.4-0.2-0.9-0.1-1.2,0.3l-4.1,5.2l-4.1-5.2
		c-0.3-0.4-0.8-0.5-1.2-0.3l-12.3,6.1c-0.3,0.1-0.5,0.4-0.5,0.7c-0.1,0.3,0,0.6,0.2,0.8l4.4,5.5l-4.4,5.5c0,0,0,0.1,0,0.1
		s0,0-0.1,0.1s0,0.1,0,0.1c0,0.1,0,0.1,0,0.2c0,0.1,0,0.1,0,0.2c0,0.1,0,0.1,0,0.2c0,0.1,0,0.1,0.1,0.2c0,0.1,0.1,0.1,0.1,0.2
		c0,0.1,0.1,0.1,0.1,0.2c0,0,0,0,0.1,0.1c0,0,0.1,0,0.1,0.1c0,0,0,0,0.1,0l4.4,2.2v6.7c0,0,0,0.1,0,0.1c0,0.1,0,0.1,0,0.2
		c0,0.1,0.1,0.1,0.1,0.2c0,0.1,0.1,0.1,0.1,0.2c0.1,0,0.1,0.1,0.2,0.1c0,0,0.1,0.1,0.1,0.1l12.3,6.1l0,0h0.1c0.1,0,0.2,0.1,0.3,0.1
		l0,0c0.1,0,0.2,0,0.3-0.1h0.1l0,0l12.3-6.1c0,0,0.1-0.1,0.1-0.1c0.1,0,0.1-0.1,0.2-0.1c0,0,0.1-0.1,0.1-0.2c0,0,0.1-0.1,0.1-0.2
		c0-0.1,0-0.1,0-0.2c0,0,0-0.1,0-0.1v-6.7l4.4-2.2c0.3-0.1,0.5-0.4,0.5-0.7c0.1-0.3,0-0.6-0.2-0.8l-4.4-5.5l4.4-5.5
		C447.1,692,447.2,691.7,447.2,691.4z M423.9,708.7l-10.4-5.2l3.6-4.5l10.4,5.2L423.9,708.7z M429.1,702.7l-10-5l10-5l10,5
		L429.1,702.7z M423.9,686.7l3.6,4.5l-10.4,5.2l-3.6-4.5L423.9,686.7z M423.7,710.9L423.7,710.9c0.2,0.1,0.3,0.1,0.4,0.1
		c0.1,0,0.3,0,0.4-0.1h0.1c0.1-0.1,0.2-0.1,0.3-0.2l0,0l3.1-3.9v11.5l-10.2-5.2v-5.1L423.7,710.9z M440.3,713l-10.3,5.1v-11.4
		l3.1,3.9c0.2,0.2,0.5,0.4,0.8,0.4c0.2,0,0.3,0,0.5-0.1l5.9-3V713z M434.2,708.7l-3.6-4.5L441,699l3.6,4.5L434.2,708.7z M441,696.4
		l-10.4-5.2l3.6-4.5l10.4,5.2L441,696.4z"/>
</g>
<g>
	<path class="st1" d="M429.1,598.4c-15.7,0-28.4,12.7-28.4,28.3c0,15.7,12.7,28.4,28.3,28.4c15.7,0,28.4-12.7,28.4-28.3c0,0,0,0,0,0
		C457.4,611.1,444.7,598.4,429.1,598.4z M429.1,653.1c-14.6,0-26.4-11.8-26.4-26.3c0-14.6,11.8-26.4,26.3-26.4
		c14.6,0,26.4,11.8,26.4,26.3c0,0,0,0,0,0C455.4,641.3,443.6,653.1,429.1,653.1L429.1,653.1z"/>
	<path class="st1" d="M445.9,617.8c0-0.1-0.1-0.1-0.1-0.2l-0.1-0.1c-0.1-0.1-0.2-0.1-0.3-0.2l0,0l-8-3.4l0,0l-7.9-3.4
		c-0.3-0.1-0.5-0.1-0.8,0l-15.9,6.8l0,0c-0.1,0-0.2,0.1-0.3,0.2l-0.1,0.1c-0.1,0.1-0.1,0.1-0.1,0.2c0,0,0,0.1,0,0.1
		c0,0.1-0.1,0.2-0.1,0.3v15.9c0,0.4,0.2,0.7,0.5,0.9l15.9,8h0c0.1,0.1,0.3,0.1,0.4,0.1c0.1,0,0.2,0,0.4-0.1l0,0l15.9-6.8
		c0.4-0.2,0.6-0.5,0.6-0.9v-17.1C445.9,618.1,445.9,618,445.9,617.8C445.9,617.8,445.9,617.8,445.9,617.8z M429.1,624l-5.4-2.3
		l13.4-5.8l5.4,2.3L429.1,624z M429.1,612.5l5.4,2.3l-13.4,5.7l-5.4-2.3L429.1,612.5z M414.1,619.8l13.9,6v14.8l-13.9-7V619.8z
		 M430.1,640.6v-14.9l13.9-6v14.9L430.1,640.6z"/>
	<path class="st1" d="M439,627.5c-0.3-0.2-0.6-0.2-1-0.1l-4.9,2.1c-0.4,0.2-0.6,0.5-0.6,0.9v4.9c0,0.3,0.2,0.6,0.4,0.8
		c0.2,0.1,0.4,0.2,0.6,0.2c0.1,0,0.3,0,0.4-0.1l4.9-2.1c0.4-0.2,0.6-0.5,0.6-0.9v-4.9C439.5,628,439.3,627.6,439,627.5z
		 M437.5,632.5l-2.9,1.2V631l2.9-1.2V632.5z"/>
</g>
<g>
	<polygon class="st1" points="503.1,633.8 506,632.5 506,629.8 503.1,631 	"/>
	<polygon class="st1" points="505.6,615.9 492.2,621.6 497.6,624 511,618.2 	"/>
	<polygon class="st1" points="496.6,625.7 482.7,619.7 482.7,633.5 496.6,640.5 	"/>
	<polygon class="st1" points="503,614.8 497.6,612.5 484.2,618.2 489.6,620.5 	"/>
	<path class="st1" d="M498.6,625.7v14.9l13.9-6v-14.8L498.6,625.7z M508,633.2c0,0.4-0.2,0.8-0.6,0.9l-4.9,2.1
		c-0.1,0.1-0.3,0.1-0.4,0.1c-0.2,0-0.4-0.1-0.5-0.2c-0.3-0.2-0.4-0.5-0.5-0.8v-4.9c0-0.4,0.2-0.8,0.6-0.9l4.9-2.1
		c0.3-0.1,0.7-0.1,0.9,0.1c0.3,0.2,0.4,0.5,0.5,0.8L508,633.2z"/>
	<path class="st1" d="M497.6,598.4c-15.7,0-28.3,12.7-28.3,28.4c0,15.7,12.7,28.3,28.4,28.3c15.6,0,28.3-12.7,28.3-28.3
		C526,611.1,513.3,598.4,497.6,598.4C497.6,598.4,497.6,598.4,497.6,598.4z M514.5,635.3c0,0.4-0.2,0.8-0.6,0.9L498,643l0,0
		c-0.1,0-0.2,0.1-0.4,0.1c-0.1,0-0.3,0-0.4-0.1l0,0l-15.9-8c-0.3-0.2-0.6-0.5-0.5-0.9v-15.9c0-0.1,0-0.2,0.1-0.3c0,0,0-0.1,0-0.1
		c0-0.1,0.1-0.1,0.1-0.2l0.1-0.1c0.1-0.1,0.2-0.1,0.3-0.2l0,0l15.9-6.8c0.3-0.1,0.5-0.1,0.8,0l7.9,3.4l0,0l8,3.4l0,0
		c0.1,0,0.2,0.1,0.3,0.2l0.1,0.1c0.1,0.1,0.1,0.1,0.1,0.2c0,0,0,0.1,0,0.1c0,0.1,0.1,0.2,0.1,0.3L514.5,635.3z"/>
</g>
<g>
	<path class="st1" d="M429.1,750.2c-15.7,0-28.4,12.7-28.4,28.3c0,15.7,12.7,28.4,28.3,28.4c15.7,0,28.4-12.7,28.4-28.3c0,0,0,0,0,0
		C457.4,762.8,444.7,750.2,429.1,750.2L429.1,750.2z M429.1,804.8c-14.6,0-26.4-11.8-26.4-26.3c0-14.6,11.8-26.4,26.3-26.4
		c14.6,0,26.4,11.8,26.4,26.3c0,0,0,0,0,0C455.4,793,443.6,804.8,429.1,804.8z"/>
	<path class="st1" d="M446.1,788.6h-6.9v-23.9c0-0.6-0.4-1-1-1s-1,0.4-1,1v17.3H435l-6.3-16.3c-0.1-0.4-0.5-0.6-0.9-0.6l-7.9-0.1
		c-0.3,0-0.5,0.1-0.7,0.3c-0.2,0.2-0.3,0.4-0.3,0.7v12.1H412c-0.6,0-1,0.4-1,1v10.5c0,0.6,0.4,1,1,1h3.1c0.5,1.9,2.5,3,4.4,2.5
		c1.2-0.3,2.1-1.3,2.5-2.5h7.5c0.5,1.9,2.5,3.1,4.4,2.6c1.3-0.3,2.3-1.4,2.6-2.7c0.1,0.1,0.3,0.1,0.4,0.1h9.2c0.6,0,1-0.4,1-1
		S446.7,788.6,446.1,788.6L446.1,788.6z M420.9,767.1l6.2,0.1l5.8,14.9H428l-6.3-3.8c-0.2-0.1-0.3-0.1-0.5-0.1h-0.3L420.9,767.1z
		 M418.6,791.3c-0.9,0-1.6-0.7-1.6-1.6c0-0.9,0.7-1.6,1.6-1.6s1.6,0.7,1.6,1.6c0,0,0,0,0,0C420.2,790.5,419.5,791.3,418.6,791.3z
		 M433,791.3c-0.9,0-1.6-0.7-1.6-1.6c0-0.9,0.7-1.6,1.6-1.6s1.6,0.7,1.6,1.6c0,0,0,0,0,0C434.6,790.5,433.9,791.2,433,791.3
		L433,791.3z M436.5,788.7c-0.4-1.9-2.4-3.2-4.3-2.7c-1.3,0.3-2.4,1.3-2.7,2.6H422c-0.5-1.9-2.5-3-4.4-2.5c-1.2,0.3-2.1,1.3-2.5,2.5
		H413v-8.5h7.9l6.3,3.8c0.2,0.1,0.3,0.1,0.5,0.1h9.5v4.6h-0.3C436.8,788.6,436.6,788.7,436.5,788.7L436.5,788.7z"/>
</g>
<g>
	<path class="st1" d="M487.1,788c-0.9,0-1.6,0.7-1.6,1.6c0,0.9,0.7,1.6,1.6,1.6c0.9,0,1.6-0.7,1.6-1.6c0,0,0,0,0,0
		C488.7,788.7,488,788,487.1,788z"/>
	<path class="st1" d="M490.3,778.3l6.3,3.8h4.8l-5.8-14.9l-6.2-0.1v11.1h0.3C489.9,778.2,490.1,778.2,490.3,778.3z"/>
	<path class="st1" d="M501.5,788c-0.9,0-1.6,0.7-1.6,1.6c0,0.9,0.7,1.6,1.6,1.6c0.9,0,1.6-0.7,1.6-1.6c0,0,0,0,0,0
		C503.2,788.7,502.4,788,501.5,788C501.5,788,501.5,788,501.5,788z"/>
	<path class="st1" d="M505.8,784.1h-9.5c-0.2,0-0.4,0-0.5-0.1l-6.3-3.8h-7.9v8.5h2.1c0.5-1.9,2.5-3,4.4-2.5c1.2,0.3,2.2,1.3,2.5,2.5
		h7.5c0.5-1.9,2.5-3.1,4.4-2.6c1.3,0.3,2.3,1.4,2.6,2.7c0.1-0.1,0.3-0.1,0.4-0.1h0.3L505.8,784.1z"/>
	<path class="st1" d="M497.6,750.2c-15.7,0-28.3,12.7-28.3,28.4c0,15.7,12.7,28.3,28.4,28.3c15.6,0,28.3-12.7,28.3-28.4
		C526,762.8,513.3,750.1,497.6,750.2C497.6,750.1,497.6,750.1,497.6,750.2z M514.6,790.6h-9.2c-0.2,0-0.3,0-0.4-0.1
		c-0.4,1.9-2.4,3.2-4.3,2.7c-1.3-0.3-2.4-1.3-2.7-2.6h-7.5c-0.5,1.9-2.5,3-4.4,2.5c-1.2-0.3-2.2-1.3-2.5-2.5h-3.1c-0.6,0-1-0.4-1-1
		v-10.5c0-0.6,0.4-1,1-1h6.9V766c0-0.3,0.1-0.5,0.3-0.7c0.2-0.2,0.4-0.3,0.7-0.3l7.9,0.1c0.4,0,0.8,0.3,0.9,0.6l6.3,16.3h2.2v-17.3
		c0-0.6,0.4-1,1-1s1,0.4,1,1v23.9h6.9c0.6,0,1,0.4,1,1S515.1,790.6,514.6,790.6L514.6,790.6z"/>
</g>
<g>
	<path class="st2" d="M101.5,143.2c-15.7,0-28.4,12.7-28.4,28.4s12.7,28.3,28.4,28.3s28.3-12.7,28.3-28.3
		C129.8,155.9,117.2,143.2,101.5,143.2C101.5,143.2,101.5,143.2,101.5,143.2z M101.5,197.9c-14.6,0-26.3-11.8-26.3-26.4
		s11.8-26.3,26.3-26.3s26.3,11.8,26.3,26.3C127.8,186.1,116,197.9,101.5,197.9z"/>
	<path class="st2" d="M116.3,164.1c-0.1-0.1-0.2-0.2-0.3-0.3c0.7-1.1,1-2.4,1-3.7c0-4.4-3.6-8-8.1-8.1l0,0c-2.9,0-5.5,1.5-6.9,4
		h-0.3c-0.1,0-0.1,0-0.2-0.1c-9.7,0-17.5,7.8-17.6,17.5c0,0,0,0,0,0c0,9.6,7.7,17.4,17.3,17.5c0.1,0,0.1,0,0.2,0h0.1
		c9.7-0.1,17.5-8,17.4-17.7c0-2.1-0.4-4.1-1.1-6C117.5,166.2,117,165.1,116.3,164.1z M115.2,180.8h-7.5c0.3-2.1,0.5-4.2,0.6-6.3h8.7
		C116.9,176.7,116.3,178.8,115.2,180.8z M101.6,189h-0.2c-1.2-0.1-2.7-2.4-3.7-6.3h7.7C104.3,186.7,102.8,188.9,101.6,189z
		 M97.2,180.7c-0.4-2.1-0.6-4.2-0.6-6.3h9.7c0,2.1-0.2,4.2-0.6,6.3H97.2z M86,174.5h8.6c0,2.1,0.2,4.2,0.6,6.3h-7.5
		C86.7,178.8,86.1,176.7,86,174.5z M87.8,166.2h7.4c-0.3,2.1-0.5,4.2-0.6,6.3H86C86.1,170.3,86.7,168.1,87.8,166.2L87.8,166.2z
		 M101.2,158c-0.2,0.7-0.3,1.4-0.3,2.1c0,1.5,0.4,2.9,1.2,4.1l0,0h-4.4C98.6,160.5,100,158.3,101.2,158L101.2,158z M103.4,166.2
		l2.8,4.3v0.5c0,0.5,0,1,0,1.5h-9.6c0-2.1,0.2-4.2,0.6-6.3L103.4,166.2z M117,172.5h-6.6l4.5-6.9c0.5,0.8,0.8,1.6,1.2,2.4
		C116.6,169.4,116.9,170.9,117,172.5L117,172.5z M108.9,154L108.9,154c3.4,0,6.1,2.7,6.1,6.1c0,1.1-0.3,2.1-0.8,3L109,171l-5.2-7.8
		c-0.6-0.9-0.9-2-0.8-3.1C102.9,156.8,105.6,154.1,108.9,154z M97.9,158.4c-1.1,1.8-1.8,3.8-2.3,5.8H89
		C91.2,161.3,94.3,159.2,97.9,158.4L97.9,158.4z M89.1,182.8h6.5c0.4,2,1.2,4,2.2,5.8C94.3,187.7,91.2,185.7,89.1,182.8L89.1,182.8z
		 M105.1,188.6c1.1-1.8,1.8-3.8,2.2-5.8h6.6C111.8,185.7,108.6,187.7,105.1,188.6L105.1,188.6z"/>
</g>
<g>
	<path class="st2" d="M176.9,174.5c0,2.1-0.2,4.2-0.6,6.3h7.5c1-1.9,1.6-4.1,1.8-6.3H176.9z"/>
	<path class="st2" d="M170.6,164.2L170.6,164.2c-0.8-1.2-1.2-2.7-1.1-4.1c0-0.7,0.1-1.4,0.3-2.1c-1.2,0.3-2.6,2.5-3.5,6.2
		L170.6,164.2z"/>
	<path class="st2" d="M163.2,174.5h-8.6c0.1,2.2,0.7,4.3,1.8,6.3h7.4C163.4,178.7,163.2,176.6,163.2,174.5z"/>
	<path class="st2" d="M174.8,172.5c0-0.5,0-1,0-1.5v-0.5l-2.8-4.3h-6.2c-0.4,2.1-0.6,4.2-0.6,6.3H174.8z"/>
	<path class="st2" d="M165.2,174.5c0,2.1,0.2,4.2,0.6,6.3h8.5c0.4-2.1,0.6-4.2,0.6-6.3H165.2z"/>
	<path class="st2" d="M166.2,182.8c1,3.9,2.5,6.1,3.7,6.3h0.2c1.2-0.1,2.8-2.4,3.7-6.3H166.2z"/>
	<path class="st2" d="M163.2,172.5c0-2.1,0.2-4.2,0.6-6.3h-7.4c-1,1.9-1.7,4.1-1.8,6.3H163.2z"/>
	<path class="st2" d="M164.1,182.8h-6.5c2.2,2.9,5.3,5,8.8,5.8C165.3,186.8,164.6,184.8,164.1,182.8z"/>
	<path class="st2" d="M175.9,182.8c-0.4,2.1-1.2,4-2.2,5.8c3.5-0.8,6.7-2.9,8.9-5.8H175.9z"/>
	<path class="st2" d="M170,143.2c-15.7,0-28.3,12.7-28.3,28.4s12.7,28.3,28.3,28.3s28.4-12.7,28.4-28.3S185.7,143.2,170,143.2
		C170,143.2,170,143.2,170,143.2z M170.1,191H170h-0.2c-9.7-0.3-17.3-8.4-17-18.1c0.3-9.4,7.9-16.9,17.2-17c0.1,0,0.1,0,0.2,0.1h0.3
		c1.4-2.5,4.1-4,6.9-4l0,0c4.4,0,8,3.6,8,8.1c0,1.3-0.3,2.6-1,3.7c0.1,0.1,0.2,0.2,0.3,0.3c5.2,8.2,2.7,19-5.4,24.2
		C176.5,190,173.4,191,170.1,191L170.1,191z"/>
	<path class="st2" d="M178.9,172.5h6.6c-0.1-1.5-0.4-3-1-4.5c-0.3-0.8-0.7-1.6-1.2-2.4L178.9,172.5z"/>
	<path class="st2" d="M164.1,164.2c0.4-2.1,1.2-4,2.3-5.8c-3.5,0.8-6.7,2.9-8.8,5.8H164.1z"/>
	<path class="st2" d="M172.3,163.1l5.2,7.9l5.2-7.9c0.6-0.9,0.8-1.9,0.8-3c0-3.3-2.7-6-6-6.1h-0.1c-3.3,0-6,2.7-6,6.1
		C171.4,161.2,171.7,162.2,172.3,163.1z"/>
</g>
<g>
	<path class="st2" d="M101.5,295.9c-15.7,0-28.3,12.7-28.3,28.4c0,15.7,12.7,28.4,28.3,28.4s28.3-12.7,28.3-28.4c0,0,0,0,0,0
		C129.8,308.6,117.2,295.9,101.5,295.9C101.5,295.9,101.5,295.9,101.5,295.9z M101.5,350.6c-14.6,0-26.3-11.8-26.3-26.4
		s11.8-26.4,26.3-26.4s26.3,11.8,26.3,26.4C127.8,338.8,116,350.6,101.5,350.6z"/>
	<path class="st2" d="M118,317.6c-0.6-1.4-1.3-2.7-2.2-3.9c-0.1-0.1-0.1-0.2-0.3-0.3c-1.7-2.2-3.9-3.9-6.3-5.1c0,0-0.1,0-0.1-0.1
		H109c-2.3-1.1-4.9-1.7-7.5-1.7c-1,0-1.9,0.1-2.9,0.2h-0.2c-5.4,1-10,4.3-12.6,9.2l-0.1,0.2c-4.5,8.7-1.1,19.4,7.6,23.9
		c1.1,0.6,2.2,1,3.4,1.3c0.1,0,0.1,0.1,0.2,0.1c0.6,0.2,1.2,0.3,1.8,0.4c0.1,0,0.2,0.1,0.3,0.1l0,0c0.8,0.1,1.6,0.2,2.5,0.2
		c9.8,0,17.7-8,17.7-17.8c0-2.2-0.4-4.4-1.2-6.5C118,317.7,118,317.7,118,317.6z M115.2,316.4c0.1,0.2,0.2,0.4,0.3,0.7h-0.4
		l-0.2-0.2L115.2,316.4z M96.4,309.3l-0.2,0.2c-0.1,0.2-0.2,0.4-0.2,0.5v1.8c0,0.4,0.3,0.8,0.7,1l2,0.6v0.6l-0.6,0.6l-0.1,0.1
		l-1.7,2.6l-1.6,1.6l-2.4,0.8c-0.4,0.1-0.7,0.5-0.7,1v0.9c0,0.3,0.1,0.5,0.3,0.7l2.7,2.7c0.2,0.2,0.4,0.3,0.7,0.3h2.5l2.2,0.7
		l1.6,2.4c0.1,0.1,0.2,0.3,0.4,0.3l1.6,0.8l0.5,0.5v0.2l-0.7,1.4l-0.8,0.8c-0.1,0.1-0.1,0.2-0.2,0.3l-0.8,1.6l-0.8,0.8
		c-0.2,0.2-0.3,0.4-0.3,0.7v1.4l-1.9,2.6l-0.5-0.1v-3.9c0-0.1,0-0.2,0-0.3l-0.9-2.6c0-0.1-0.1-0.3-0.2-0.4l-2.4-2.4v-1.4
		c0-0.3-0.1-0.5-0.3-0.7l-0.6-0.6v-2.2c0-0.3-0.2-0.7-0.4-0.8l-2.3-1.5l-0.8-3.1c0-0.1-0.1-0.3-0.2-0.4l-2.1-2.8
		C89.7,313.1,92.8,310.6,96.4,309.3L96.4,309.3z M85.8,324.2c0-2,0.4-4,1.1-5.8l1.4,1.8l0.8,3.3c0.1,0.2,0.2,0.5,0.4,0.6l2.2,1.5
		v2.1c0,0.3,0.1,0.5,0.3,0.7l0.6,0.6v1.4c0,0.3,0.1,0.5,0.3,0.7l2.5,2.5l0.8,2.3v3.1C89.9,336.7,85.8,330.9,85.8,324.2L85.8,324.2z
		 M101.5,340c-0.2,0-0.4,0-0.6,0l1.4-1.9c0.1-0.2,0.2-0.4,0.2-0.6v-1.4l0.6-0.6c0.1-0.1,0.1-0.2,0.2-0.3l0.8-1.6l0.8-0.8
		c0.1-0.1,0.1-0.2,0.2-0.3l0.9-1.8c0.1-0.1,0.1-0.3,0.1-0.5v-0.9c0-0.3-0.1-0.5-0.3-0.7l-0.9-0.9c-0.1-0.1-0.2-0.1-0.3-0.2l-1.5-0.8
		l-1.6-2.4c-0.1-0.2-0.3-0.3-0.5-0.4l-2.7-0.9c-0.1,0-0.2,0-0.3,0h-2.2l-1.9-1.9l1.8-0.6c0.1,0,0.3-0.1,0.4-0.2l1.8-1.8
		c0.1,0,0.1-0.1,0.1-0.1l1.7-2.6l0.8-0.8c0.2-0.2,0.3-0.4,0.3-0.7v-1.8c0-0.4-0.3-0.8-0.7-1l-2-0.6v-0.7l1.2-1.8
		c0.7-0.1,1.5-0.2,2.2-0.2c2,0,3.9,0.4,5.8,1.1l-0.5,1c-0.1,0.1-0.1,0.3-0.1,0.5v0.9c0,0.4,0.2,0.7,0.6,0.9l1.6,0.8l0.5,0.5v1.1
		l-0.8,1.6c-0.1,0.1-0.1,0.3-0.1,0.4v0.9c0,0.6,0.4,1,1,1h1.4l0.1,0.1l-0.5,1l-0.8,0.8c-0.2,0.2-0.3,0.4-0.3,0.7v2.6
		c0,0.4,0.2,0.7,0.6,0.9l1.6,0.8l0.8,0.8c0.2,0.2,0.4,0.3,0.7,0.3h0.5l0.2,0.1l-0.7,2.1c0,0.1-0.1,0.2-0.1,0.3v1.8
		c0,0.2,0.1,0.4,0.2,0.6l1.2,1.7C111.2,337.7,106.5,340,101.5,340z M115.3,331.8l-0.5-0.8v-1.3l0.8-2.5c0.1-0.4,0-0.7-0.2-1
		l-0.9-0.9c-0.2-0.2-0.4-0.3-0.7-0.3h-0.5l-0.6-0.6c-0.1-0.1-0.2-0.1-0.3-0.2l-1.2-0.6V322l0.6-0.6c0.1-0.1,0.1-0.2,0.2-0.3l0.9-1.8
		c0.2-0.4,0.1-0.8-0.2-1.1l-0.9-0.9c-0.2-0.2-0.4-0.3-0.7-0.3h-0.6l0.6-1.2c0.1-0.1,0.1-0.3,0.1-0.5v-1.8c0-0.3-0.1-0.5-0.3-0.7
		l-0.9-0.9c-0.1-0.1-0.2-0.1-0.3-0.2l-1.2-0.6l0.4-0.8c1.8,1,3.4,2.3,4.7,3.9l-0.8,2.5c-0.1,0.4,0,0.7,0.2,1l0.9,0.9
		c0.2,0.2,0.4,0.3,0.7,0.3h1.6C117.9,323.2,117.5,327.8,115.3,331.8L115.3,331.8z"/>
</g>
<g>
	<path class="st2" d="M101.5,522.5c-15.7,0-28.4,12.7-28.4,28.3c0,15.7,12.7,28.4,28.4,28.4s28.3-12.7,28.3-28.4l0,0
		C129.8,535.2,117.2,522.5,101.5,522.5C101.5,522.5,101.5,522.5,101.5,522.5z M101.5,577.2c-14.6,0-26.3-11.8-26.3-26.3
		c0-14.6,11.8-26.4,26.3-26.4s26.3,11.8,26.3,26.4l0,0C127.8,565.4,116,577.2,101.5,577.2L101.5,577.2z"/>
	<path class="st2" d="M119.3,549.7c-0.7-9.8-9.2-17.3-19-16.6c-6.2,0.4-11.7,4-14.6,9.4v0.1c-3.8,7.1-2.3,15.8,3.5,21.3
		c0.1,0.1,0.1,0.2,0.2,0.2c4.6,4.3,11.1,5.8,17.1,4h0.2c0.4-0.1,0.9-0.3,1.3-0.5l0.2-0.1c1.7-0.7,3.2-1.6,4.6-2.7l0.1-0.1
		c4.1-3.4,6.5-8.4,6.5-13.8c0-0.2,0-0.5,0-0.7C119.4,550,119.4,549.8,119.3,549.7z M117.3,549.3l-1.8-1.8c-0.2-0.2-0.4-0.3-0.7-0.3
		H114c-0.6,0-1,0.4-1,1v0.5l-0.6,0.6c-0.2,0.2-0.3,0.4-0.3,0.7v0.9c0,0.3,0.1,0.5,0.3,0.7l0.6,0.6v0.2l-0.5,1h-0.5l-0.6-1.1
		l-0.9-4.3c-0.1-0.5-0.5-0.8-1-0.8h-0.9c-0.3,0-0.5,0.1-0.7,0.3l-0.5,0.5l-0.6-1.1c-0.2-0.3-0.5-0.6-0.9-0.6h-2.7
		c-0.3,0-0.5,0.1-0.7,0.3l-0.6,0.6h-2.1v-0.4l0.3-0.3h0.5c0.3,0,0.5-0.1,0.7-0.3l0.6-0.6h1.4c0.3,0,0.5-0.1,0.7-0.3l1.8-1.8
		c0.2-0.2,0.3-0.4,0.3-0.7V542c0-0.6-0.4-1-1-1s-1,0.4-1,1v0.5l-1.1,1.1l-0.4-0.8l0.6-1.8l2-0.7h1.6c0.6,0,1-0.4,1-1v-0.9
		c0-0.2,0-0.3-0.1-0.4l-0.7-1.3l0.3-0.5C112.8,538.3,116.7,543.4,117.3,549.3L117.3,549.3z M96.6,535.9l0.2,0.2l-0.9,0.5h-1.2
		c0.5-0.3,1.1-0.5,1.6-0.7L96.6,535.9z M93.1,537.4l-1.2,1.2c-0.2,0.2-0.3,0.4-0.3,0.7v0.5l-0.5,0.5l-2.4,1.2
		C89.9,539.9,91.4,538.5,93.1,537.4L93.1,537.4z M86.3,555.5c-0.3-1-0.5-2-0.6-3l0.6,0.6v2.2C86.3,555.4,86.3,555.5,86.3,555.5
		L86.3,555.5z M86.4,555.7c0,0,0,0.1,0.1,0.1l1.8,2.7c0.1,0.1,0.2,0.3,0.4,0.3l1.2,0.6l-0.7,1.4C87.9,559.3,87,557.6,86.4,555.7
		L86.4,555.7z M104.9,565.2l-0.6-1.3v-0.7c0-0.2,0-0.3-0.1-0.5l-0.8-1.6v-0.7c0-0.4-0.2-0.7-0.6-0.9l-1.8-0.9
		c-0.1-0.1-0.3-0.1-0.4-0.1h-2.4l-1.2-0.6l-0.7-2.1v-2l1.4-1.4l1.4-0.7h2l1.5,1.5c0.2,0.2,0.4,0.3,0.7,0.3h0.9
		c0.3,0,0.5-0.1,0.7-0.3l0.6-0.6h1.3c0,0.1,0,0.2,0.1,0.3l1.8,3.6c0.1,0.2,0.3,0.4,0.6,0.5l1.8,0.6l-2.2,2.2
		c-0.2,0.2-0.3,0.4-0.3,0.7v1.3l-1.5,1.5c-0.2,0.2-0.3,0.4-0.3,0.7v1.7c-0.1,0-0.2,0.1-0.3,0.1L104.9,565.2z M113.1,561.6
		L113.1,561.6c0-0.6-0.4-1.1-1-1.1s-1,0.4-1,1v1.9c-0.8,0.6-1.6,1.1-2.4,1.5v-0.4l1.5-1.5c0.2-0.2,0.3-0.4,0.3-0.7v-1.4l2.4-2.4
		c0.2-0.2,0.3-0.4,0.3-0.7v-0.9c0-0.4-0.3-0.9-0.7-1l-2.3-0.8l-1.5-3v-0.7c0-0.6-0.4-1-1-1h-2.7c-0.3,0-0.5,0.1-0.7,0.3l-0.6,0.6
		l-1.5-1.5c-0.2-0.2-0.4-0.3-0.7-0.3h-2.7c-0.2,0-0.3,0-0.4,0.1l-1.8,0.9c-0.1,0-0.2,0.1-0.3,0.2l-1.8,1.8c-0.2,0.2-0.3,0.4-0.3,0.7
		v2.7c0,0.1,0,0.2,0,0.3l0.9,2.7c0.1,0.3,0.3,0.5,0.5,0.6l1.8,0.9c0.1,0.1,0.3,0.1,0.4,0.1h2.4l1,0.5v0.3c0,0.2,0,0.3,0.1,0.5
		l0.8,1.6v0.7c0,0.2,0,0.3,0.1,0.5l0.9,1.8c0,0.1,0.1,0.1,0.2,0.2c-0.6,0.1-1.3,0.1-1.9,0.1c-3.9,0-7.6-1.4-10.5-4v-0.9l0.8-1.6
		c0.1-0.1,0.1-0.3,0.1-0.5v-0.9c0-0.4-0.2-0.7-0.6-0.9l-1.5-0.8l-1.4-2.2v-2.4c0-0.2-0.1-0.5-0.3-0.6l-0.8-0.8l-1.4-2.2
		c0.2-1.8,0.7-3.5,1.5-5.1h0.9c0.2,0,0.3,0,0.4-0.1l3.6-1.8c0.1,0,0.2-0.1,0.3-0.2l0.9-0.9c0.2-0.2,0.3-0.4,0.3-0.7v-0.5l1.2-1.2
		h1.4c0.2,0,0.3,0,0.4-0.1l1.8-0.9c0.3-0.2,0.5-0.5,0.6-0.9v-0.9c0-0.2-0.1-0.4-0.2-0.5c0.9-0.2,1.8-0.2,2.7-0.2
		c1.3,0,2.6,0.2,3.9,0.5l-0.4,0.7c-0.1,0.3-0.1,0.6,0,0.9l0.6,1.2h-0.6c-0.1,0-0.2,0-0.3,0l-2.7,0.9c-0.3,0.1-0.5,0.3-0.6,0.6
		l-0.9,2.7c-0.1,0.3-0.1,0.5,0.1,0.8l0.3,0.6l-0.1,0.1l-0.6,0.6h-0.5c-0.3,0-0.5,0.1-0.7,0.3l-0.9,0.9c-0.2,0.2-0.3,0.4-0.3,0.7v1.8
		c0,0.6,0.4,1,1,1h3.6c0.3,0,0.5-0.1,0.7-0.3l0.6-0.6h1.6l0.6,1.2c0.2,0.3,0.5,0.5,0.9,0.5h0.9c0.3,0,0.5-0.1,0.7-0.3l0.3-0.3
		l0.7,3.3c0,0.1,0,0.2,0.1,0.2l0.9,1.8c0.2,0.3,0.5,0.5,0.9,0.5h1.7c0.4,0,0.7-0.2,0.9-0.5l0.9-1.8c0.1-0.1,0.1-0.3,0.1-0.4v-0.9
		c0-0.3-0.1-0.5-0.3-0.7l-0.6-0.6l0.6-0.7c0.1-0.1,0.1-0.1,0.2-0.2l2,2c0.2,0.1,0.3,0.2,0.6,0.2
		C117.1,555.5,115.6,558.9,113.1,561.6L113.1,561.6z"/>
	<path class="st2" d="M98.7,543.6l0.9-0.9c0.1-0.1,0.2-0.2,0.2-0.4l0.9-2.7c0.2-0.5-0.1-1.1-0.6-1.3c0,0,0,0,0,0
		c-0.5-0.2-1.1,0.1-1.3,0.6l-0.8,2.4l-0.7,0.7c-0.4,0.4-0.4,1,0,1.4C97.7,544,98.3,544,98.7,543.6C98.7,543.6,98.7,543.6,98.7,543.6
		L98.7,543.6z"/>
</g>
<g>
	<path class="st2" d="M101.5,446.7c-15.7,0-28.3,12.7-28.3,28.4c0,15.7,12.7,28.4,28.3,28.4s28.3-12.7,28.3-28.4c0,0,0,0,0,0
		C129.8,459.3,117.2,446.7,101.5,446.7C101.5,446.7,101.5,446.7,101.5,446.7z M101.5,501.4c-14.6,0-26.3-11.8-26.3-26.4
		s11.8-26.4,26.3-26.4s26.3,11.8,26.3,26.4C127.8,489.5,116,501.3,101.5,501.4z"/>
	<path class="st2" d="M108.2,458.4c-0.1,0-0.1,0-0.2-0.1c-9.2-3.6-19.5,0.9-23.1,10.1c-0.8,2.1-1.2,4.3-1.2,6.6c0,0.3,0,0.5,0,0.8
		c0,0.1,0,0.2,0,0.3c0.6,9.9,9.1,17.4,18.9,16.8c9.9-0.6,17.4-9.1,16.8-18.9C118.9,467,114.5,461,108.2,458.4L108.2,458.4z
		 M101.5,459.1c1.3,0,2.6,0.2,3.9,0.5l-0.7,0.2c-0.4,0.1-0.7,0.5-0.7,0.9v0.9c0,0.3,0.1,0.5,0.3,0.7l0.6,0.6l-0.1,0.1l-1.1-0.6
		c-0.1-0.1-0.3-0.1-0.4-0.1h-0.9c-0.3,0-0.5,0.1-0.7,0.3l-0.9,0.9c-0.3,0.3-0.4,0.8-0.2,1.1l0.8,1.6v0.2l-1.2,1.2h-1.4
		c-0.3,0-0.6,0.2-0.8,0.4c-0.2,0.3-0.2,0.6-0.1,0.9l0.7,2l-1-0.5c-0.1-0.1-0.3-0.1-0.4-0.1h-0.3l-0.5-1v-0.6c0-0.4-0.2-0.7-0.6-0.9
		L94,467c-0.4-0.2-0.9-0.1-1.2,0.2l-0.9,0.9c-0.1,0.1-0.2,0.3-0.3,0.5l-0.4,1.5l-0.3-1.3v-0.8c0-0.4-0.2-0.7-0.6-0.9l-1.8-0.9
		c-0.1,0-0.1-0.1-0.2-0.1C91.4,461.7,96.3,459.1,101.5,459.1z M87.2,468.2v0.4l-0.8,1.5C86.6,469.4,86.9,468.8,87.2,468.2z
		 M101.5,490.9c-8.3,0-15.2-6.5-15.8-14.8l1.6-2.3c0-0.1,0.1-0.2,0.1-0.2l0.9-2.6l0.8-1.7l0.8,3.3c0.1,0.5,0.5,0.8,1,0.8h0.9
		c0.5,0,0.9-0.3,1-0.8l0.8-3.3l0.2-0.2l0.6,0.3v0.3c0,0.2,0,0.3,0.1,0.4l0.9,1.8c0.2,0.3,0.5,0.5,0.9,0.5h0.7l1.6,0.8
		c0.4,0.2,0.9,0.1,1.2-0.2l0.9-0.9c0.3-0.3,0.4-0.6,0.2-1l-0.4-1.4h0.4c0.3,0,0.5-0.1,0.7-0.3l1.8-1.8c0.2-0.2,0.3-0.4,0.3-0.7v-0.9
		c0-0.2,0-0.3-0.1-0.4l-0.6-1.1l0.1-0.1h0.1l1.6,0.8c0.4,0.2,0.8,0.1,1.2-0.2l0.9-0.9c0.2-0.2,0.3-0.4,0.3-0.7v-0.9
		c0-0.3-0.1-0.5-0.3-0.7l-0.4-0.4l1.8-0.6c0.1,0,0.2-0.1,0.3-0.1c7.9,3.8,11.3,13.2,7.5,21.1C113.2,487.4,107.6,490.9,101.5,490.9
		L101.5,490.9z"/>
	<path class="st2" d="M111.3,482.8l-0.9-3.5c-0.1-0.3-0.3-0.5-0.6-0.7c-0.3-0.1-0.6-0.1-0.9,0l-1.6,0.8l-0.7-1.2
		c-0.2-0.3-0.5-0.6-0.9-0.5H105c-0.3,0-0.5,0.1-0.7,0.3l-1.7,1.7l-1.6,0.8c-0.3,0.2-0.6,0.5-0.6,0.9v2.7c0,0.4,0.2,0.7,0.6,0.9
		l1.8,0.9c0.1,0.1,0.3,0.1,0.4,0.1c0.3,0,0.5-0.1,0.7-0.3l0.6-0.6h2l1.6,0.8c0.4,0.2,0.9,0.1,1.2-0.2l1.8-1.8
		C111.3,483.5,111.4,483.1,111.3,482.8z M108.4,483.6l-1.1-0.6c-0.1-0.1-0.3-0.1-0.4-0.1h-2.7c-0.3,0-0.5,0.1-0.7,0.3l-0.4,0.4
		l-0.6-0.3v-1.4l1.2-0.6c0.1-0.1,0.2-0.1,0.3-0.2l1.4-1.4l0.6,1.1c0.2,0.3,0.5,0.6,0.9,0.6h0.9c0.2,0,0.3,0,0.4-0.1l0.7-0.3l0.4,1.8
		L108.4,483.6z"/>
	<path class="st2" d="M105.9,468c0.2,0,0.3,0,0.4-0.1l1.8-0.9c0.1-0.1,0.2-0.1,0.3-0.2l0.9-0.9c0.4-0.4,0.4-1,0-1.4
		c-0.4-0.4-1-0.4-1.4,0c0,0,0,0,0,0l-0.8,0.8l-1.6,0.8c-0.5,0.2-0.7,0.8-0.4,1.3C105.2,467.8,105.6,468,105.9,468z"/>
	<path class="st2" d="M101.5,477.8c0.3,0,0.5-0.1,0.7-0.3l0.9-0.9c0.1-0.1,0.1-0.2,0.2-0.3l0.9-1.8c0.2-0.4,0.1-0.9-0.2-1.2
		l-0.9-0.9c-0.2-0.2-0.4-0.3-0.7-0.3h-0.9c-0.3,0-0.5,0.1-0.7,0.3l-1.8,1.8c-0.2,0.2-0.3,0.4-0.3,0.7v0.9c0,0.4,0.2,0.7,0.6,0.9
		l1.8,0.9C101.2,477.7,101.3,477.8,101.5,477.8z M101.9,474.2l0.1,0.1l-0.5,1l-0.3,0.3l-0.5-0.2L101.9,474.2z"/>
	<path class="st2" d="M108,474.9l-1.6-0.8c-0.5-0.2-1.1,0-1.3,0.5c-0.2,0.5,0,1.1,0.4,1.3l1.8,0.9c0.1,0.1,0.3,0.1,0.4,0.1h1.4
		l0.6,0.6c0.4,0.4,1,0.4,1.4,0c0.4-0.4,0.4-1,0-1.4l-0.9-0.9c-0.2-0.2-0.4-0.3-0.7-0.3L108,474.9z"/>
	<path class="st2" d="M111.4,484.1l-1.8,1.8c-0.4,0.4-0.4,1,0,1.4c0.4,0.4,1,0.4,1.4,0l1.8-1.8c0.4-0.4,0.4-1,0-1.4c0,0,0,0,0,0
		C112.5,483.7,111.8,483.7,111.4,484.1z"/>
</g>
<g>
	<path class="st2" d="M101.5,219.1c-15.7,0-28.3,12.7-28.3,28.4s12.7,28.3,28.3,28.3s28.3-12.7,28.3-28.3c0,0,0,0,0,0
		C129.8,231.7,117.2,219.1,101.5,219.1C101.5,219.1,101.5,219.1,101.5,219.1z M101.5,273.7c-14.6,0-26.3-11.8-26.3-26.4
		S86.9,221,101.5,221s26.3,11.8,26.3,26.3C127.8,261.9,116,273.7,101.5,273.7z"/>
	<path class="st2" d="M105.1,239.5l7.1-5.7c0.4-0.3,0.5-1,0.2-1.4c-0.2-0.2-0.5-0.4-0.8-0.4H92.2v-2.8c0-0.6-0.4-1-1-1s-1,0.4-1,1
		v36.2c0,0.6,0.4,1,1,1s1-0.4,1-1v-18.7h19.6c0.5,0,0.9-0.3,1-0.7c0.1-0.4,0-0.9-0.3-1.1L105.1,239.5z M92.2,244.8v-10.7h16.5
		l-5.9,4.7c-0.2,0.2-0.4,0.5-0.4,0.8c0,0.3,0.2,0.6,0.4,0.8l5.9,4.4L92.2,244.8z"/>
</g>
<g>
	<path class="st2" d="M101.5,370.8c-15.7,0-28.4,12.7-28.4,28.4c0,15.7,12.7,28.4,28.4,28.4s28.3-12.7,28.3-28.4
		C129.8,383.5,117.2,370.8,101.5,370.8C101.5,370.8,101.5,370.8,101.5,370.8z M101.5,425.5c-14.6,0-26.3-11.8-26.3-26.4
		s11.8-26.4,26.3-26.4s26.3,11.8,26.3,26.4c0,0,0,0,0,0C127.8,413.7,116,425.5,101.5,425.5z"/>
	<path class="st2" d="M101.5,381.3c-3.3,0-6.5,0.9-9.3,2.6c-0.1,0-0.2,0.1-0.3,0.2c-8.3,5.3-10.7,16.3-5.4,24.6
		c3.3,5.1,9,8.2,15,8.2h0.1h0.8c0.3,0,0.7,0,1-0.1h0.1c8.6-0.9,15.3-7.9,15.9-16.6c0-0.1,0.1-0.2,0.1-0.3c0-0.1,0-0.1,0-0.2
		c0-0.2,0-0.5,0-0.7C119.3,389.3,111.4,381.3,101.5,381.3z M115.8,392.4c1,2.1,1.5,4.3,1.5,6.6l-0.7-2.7c0-0.1,0-0.1-0.1-0.2
		l-0.8-1.6V392.4z M105.8,385.4v0.4h-0.2l-0.5-1L105.8,385.4z M96.1,385.4c0.2,0.3,0.5,0.6,0.9,0.5h1.1l-0.1,0.1
		c-0.3,0.3-0.4,0.6-0.2,1l0.9,2.7c0.2,0.5,0.7,0.8,1.3,0.6c0.1,0,0.2-0.1,0.2-0.1l2-1.3l0.7,0.7l-0.4,0.8l-1.5,0.7
		c-0.1,0-0.2,0.1-0.3,0.2l-1.6,1.6l-2.4,0.8c-0.1,0-0.3,0.1-0.4,0.2l-0.9,0.9c-0.1,0.1-0.1,0.2-0.2,0.3l-0.9,1.8
		c-0.1,0.1-0.1,0.2-0.1,0.4l-0.7-0.5v-2.1c0-0.2,0-0.3-0.1-0.5l-0.8-1.6v-1.3l1.7-3.3c0.1-0.1,0.1-0.3,0.1-0.5v-1.8
		c0-0.3-0.1-0.5-0.3-0.7l0,0c0.5-0.3,1-0.5,1.5-0.7L96.1,385.4z M85.6,399.1c0-5.2,2.5-10,6.8-13l0.1,0.1v1.1l-1.7,3.3
		c-0.1,0.1-0.1,0.3-0.1,0.5v1.8c0,0.2,0,0.3,0.1,0.4l0.8,1.6v2.4c0,0.3,0.2,0.6,0.4,0.8l2.7,1.8h0.1l0.1,0c0.1,0,0.2,0.1,0.3,0.1
		h0.7l0.2,0.1c0.1,0.3,0.2,0.6,0.5,0.7c0.1,0.1,0.3,0.1,0.4,0.1c0.1,0,0.2,0,0.2,0l0.6,1.2c0.2,0.3,0.5,0.6,0.9,0.6h0.8v0.4
		l-0.6,0.6c-0.2,0.2-0.3,0.4-0.3,0.7v1.8c0,0.3,0.1,0.5,0.3,0.7l2.4,2.4v3l-0.7,2.6C92.3,414.5,85.7,407.6,85.6,399.1z M105.9,411.1
		l-0.8,1.6l-2.2,2.2h-0.1l0.6-2.2c0-0.1,0-0.2,0-0.2v-3.5c0-0.3-0.1-0.5-0.3-0.7l-2.4-2.4v-1l0.6-0.6c0.2-0.2,0.3-0.4,0.3-0.7v-1.4
		l0.3-0.3h3l2.3,0.8l1.6,1.6c0.1,0.1,0.2,0.2,0.4,0.2l2,0.7v0.6l-0.6,0.6c-0.1,0.1-0.1,0.2-0.2,0.3l-0.7,1.5l-1.5,0.7
		c-0.1,0-0.2,0.1-0.3,0.2l-1.8,1.8C106,410.9,106,411,105.9,411.1L105.9,411.1z M106.5,414.2l0.1-0.1c0.1-0.1,0.1-0.2,0.2-0.3
		l0.8-1.6l1.5-1.5l1.6-0.8c0.2-0.1,0.4-0.3,0.4-0.5l0.8-1.6l0.8-0.8c0.2-0.2,0.3-0.4,0.3-0.7v-1.8c0-0.4-0.3-0.8-0.7-1l-2.4-0.8
		l-1.6-1.6c-0.1-0.1-0.2-0.2-0.4-0.2l-2.7-0.9c-0.1,0-0.2,0-0.3,0h-3.6c-0.3,0-0.5,0.1-0.7,0.3l-0.6,0.6h-0.7l-0.6-1.2
		c-0.1-0.1-0.2-0.2-0.3-0.3l0.3-0.5c0.2-0.5,0-1.1-0.4-1.3c-0.5-0.2-1.1,0-1.3,0.4l0,0l-0.3,0.5l-0.2-0.1c-0.1,0-0.2-0.1-0.3-0.1
		v-0.6l0.7-1.4l0.6-0.6l0.5-0.2l0.8,1.5c0.2,0.3,0.5,0.6,0.9,0.5c0.2,0,0.3,0,0.4-0.1c0.5-0.2,0.7-0.8,0.4-1.3l-0.6-1.3h0
		c0.1-0.1,0.3-0.1,0.4-0.2l1.7-1.7l1.6-0.8c0.2-0.1,0.3-0.3,0.4-0.5l0.9-1.8c0.2-0.4,0.1-0.8-0.2-1.1l-1.8-1.8
		c-0.3-0.3-0.9-0.4-1.3-0.1l-1.6,1L100,387l1.3-1.3c0.3-0.3,0.4-0.7,0.2-1.1c-0.2-0.4-0.5-0.6-0.9-0.6h-3l-0.1-0.2
		c1.3-0.3,2.6-0.5,3.9-0.5h0.2l-0.1,0.1c-0.2,0.2-0.3,0.5-0.3,0.9c0,0.3,0.3,0.6,0.5,0.7l1.5,0.7l0.7,1.5c0.2,0.3,0.5,0.6,0.9,0.6
		h1.8c0.6,0,1-0.4,1-1v-1.8c0-0.1,0-0.3-0.1-0.4c0.6,0.3,1.2,0.6,1.8,0.9l0,0l1.8,2.7c0.1,0.1,0.2,0.3,0.4,0.3l1.2,0.6v1.1
		c0,0.3,0.1,0.5,0.3,0.7l0.6,0.6v3.1c0,0.2,0,0.3,0.1,0.5l0.8,1.7l0.9,3.5c0.1,0.5,0.5,0.8,1,0.8h0.7
		C116.5,407.1,112.3,412.2,106.5,414.2L106.5,414.2z"/>
	<path class="st2" d="M104.2,397.2h-2.7c-0.6,0-1,0.4-1,1s0.4,1,1,1h2.7c0.6,0,1-0.4,1-1S104.7,397.2,104.2,397.2z"/>
</g>
<g>
	<path class="st2" d="M170,295.9c-15.7,0-28.3,12.7-28.3,28.4c0,15.7,12.7,28.4,28.3,28.4s28.4-12.7,28.4-28.4c0,0,0,0,0,0
		C198.3,308.6,185.7,295.9,170,295.9z M170,342c-0.8,0-1.7-0.1-2.5-0.2l0,0c-0.1,0-0.2,0-0.3-0.1c-0.6-0.1-1.2-0.2-1.8-0.4
		c-0.1,0-0.2,0-0.2-0.1c-9.4-2.6-14.9-12.4-12.3-21.9c0.3-1.2,0.8-2.3,1.3-3.4c0-0.1,0-0.1,0.1-0.2c2.6-4.8,7.2-8.2,12.6-9.2
		c0.1,0,0.1,0,0.2,0c0.9-0.2,1.9-0.2,2.9-0.2c2.6,0,5.1,0.6,7.5,1.7h0.1l0.1,0.1c2.5,1.2,4.6,3,6.3,5.1c0.1,0.1,0.2,0.2,0.3,0.3
		c0.9,1.2,1.6,2.5,2.2,3.9c0,0.1,0.1,0.1,0.1,0.2c3.6,9.1-0.9,19.4-10,23C174.5,341.6,172.3,342,170,342z"/>
	<path class="st2" d="M184.1,317.1c-0.1-0.2-0.2-0.4-0.4-0.7l-0.2,0.5l0.1,0.2H184.1z"/>
	<path class="st2" d="M164.6,335.9l-0.8-2.3l-2.5-2.5c-0.2-0.2-0.3-0.4-0.3-0.7v-1.4l-0.6-0.6c-0.2-0.2-0.3-0.4-0.3-0.7v-2.1
		l-2.2-1.5c-0.2-0.1-0.4-0.3-0.4-0.6l-0.8-3.3l-1.4-1.8c-0.7,1.8-1.1,3.8-1.1,5.8c0,6.6,4.2,12.5,10.3,14.8V335.9z"/>
	<path class="st2" d="M158.5,319.2c0.1,0.1,0.1,0.2,0.2,0.4l0.8,3.1l2.3,1.5c0.3,0.2,0.5,0.5,0.4,0.8v2.2l0.6,0.6
		c0.2,0.2,0.3,0.4,0.3,0.7v1.3l2.4,2.4c0.1,0.1,0.2,0.2,0.2,0.4l0.9,2.6c0,0.1,0,0.2,0,0.3v3.9l0.5,0.1l1.9-2.6v-1.4
		c0-0.3,0.1-0.5,0.3-0.7l0.8-0.8l0.8-1.6c0-0.1,0.1-0.2,0.2-0.3l0.8-0.8l0.7-1.4V330l-0.5-0.5l-1.6-0.8c-0.2-0.1-0.3-0.2-0.4-0.3
		l-1.5-2.4l-2.2-0.7h-2.5c-0.3,0-0.5-0.1-0.7-0.3l-2.6-2.6c-0.2-0.2-0.3-0.4-0.3-0.7v-0.9c0-0.4,0.3-0.8,0.7-1l2.4-0.8l1.5-1.5
		l1.7-2.6l0.1-0.1l0.6-0.6v-0.6l-2-0.6c-0.4-0.1-0.7-0.5-0.7-1v-1.8c0-0.2,0.1-0.4,0.2-0.5l0.1-0.2c-3.6,1.2-6.7,3.8-8.6,7.1
		L158.5,319.2z"/>
	<path class="st2" d="M183.3,319.1c-0.3,0-0.5-0.1-0.7-0.3l-0.9-0.9c-0.3-0.3-0.4-0.6-0.2-1l0.8-2.5c-1.3-1.6-2.9-2.9-4.7-3.9
		l-0.4,0.8l1.2,0.6c0.1,0,0.2,0.1,0.3,0.2l0.9,0.9c0.2,0.2,0.3,0.4,0.3,0.7v1.8c0,0.2,0,0.3-0.1,0.5l-0.6,1.2h0.6
		c0.3,0,0.5,0.1,0.7,0.3l0.9,0.9c0.3,0.3,0.4,0.8,0.2,1.1l-0.9,1.8c0,0.1-0.1,0.2-0.2,0.3l-0.6,0.6v1.6l1.2,0.6
		c0.1,0.1,0.2,0.1,0.3,0.2l0.6,0.6h0.5c0.3,0,0.5,0.1,0.7,0.3l0.9,0.9c0.3,0.3,0.4,0.6,0.2,1l-0.8,2.5v1.3l0.5,0.8
		c1.3-2.3,1.9-4.9,1.9-7.5c0-1.8-0.3-3.5-0.9-5.2H183.3z"/>
	<path class="st2" d="M181.6,331.9c-0.1-0.2-0.2-0.4-0.2-0.6v-1.8c0-0.1,0-0.2,0.1-0.3l0.7-2.1L182,327h-0.5c-0.3,0-0.5-0.1-0.7-0.3
		L180,326l-1.6-0.8c-0.3-0.2-0.6-0.5-0.6-0.9v-2.7c0-0.3,0.1-0.5,0.3-0.7l0.8-0.8l0.5-1l-0.1-0.1H178c-0.6,0-1-0.4-1-1v-0.9
		c0-0.2,0-0.3,0.1-0.4l0.8-1.6V314l-0.5-0.5l-1.6-0.8c-0.3-0.2-0.5-0.5-0.6-0.9V311c0-0.2,0-0.3,0.1-0.5l0.5-1
		c-1.8-0.7-3.8-1.1-5.8-1.1c-0.7,0-1.5,0.1-2.2,0.2l-1.2,1.8v0.7l2,0.6c0.4,0.1,0.7,0.5,0.7,1v1.8c0,0.3-0.1,0.5-0.3,0.7l-0.8,0.8
		l-1.7,2.6l-0.1,0.1l-1.8,1.8c-0.1,0.1-0.2,0.2-0.4,0.2l-1.8,0.6l1.9,1.9h2.2c0.1,0,0.2,0,0.3,0l2.6,0.9c0.2,0.1,0.4,0.2,0.5,0.4
		l1.6,2.4l1.5,0.8c0.1,0,0.2,0.1,0.3,0.2l0.9,0.9c0.2,0.2,0.3,0.4,0.3,0.7v0.9c0,0.2,0,0.3-0.1,0.5l-0.9,1.8c0,0.1-0.1,0.2-0.2,0.3
		l-0.8,0.8l-0.8,1.6c-0.1,0.1-0.1,0.2-0.2,0.3l-0.6,0.6v1.4c0,0.2-0.1,0.4-0.2,0.6l-1.4,1.9c0.2,0,0.4,0,0.6,0c5,0,9.7-2.4,12.7-6.4
		L181.6,331.9z"/>
</g>
<g>
	<path class="st2" d="M159.7,540.3l0.5-0.5v-0.5c0-0.3,0.1-0.5,0.3-0.7l1.2-1.2c-1.7,1.1-3.2,2.4-4.4,4.1L159.7,540.3z"/>
	<path class="st2" d="M154.2,552.5c0.1,1,0.3,2,0.6,3c0-0.1,0-0.1,0-0.2V553L154.2,552.5z"/>
	<path class="st2" d="M164.5,536.6l0.9-0.5l-0.2-0.2h-0.3c-0.5,0.2-1.1,0.4-1.6,0.7L164.5,536.6z"/>
	<path class="st2" d="M158.4,559.5l-1.2-0.6c-0.2-0.1-0.3-0.2-0.4-0.3l-1.8-2.7c0,0-0.1-0.1-0.1-0.1c0.6,1.9,1.5,3.6,2.8,5.1
		L158.4,559.5z"/>
	<path class="st2" d="M175.6,536.7l0.7,1.3c0.1,0.1,0.1,0.3,0.1,0.4v0.9c0,0.6-0.4,1-1,1h-1.6l-2,0.7l-0.6,1.8l0.4,0.8l1.1-1.1V542
		c0-0.6,0.4-1,1-1s1,0.4,1,1v0.9c0,0.3-0.1,0.5-0.3,0.7l-1.8,1.8c-0.2,0.2-0.4,0.3-0.7,0.3h-1.4l-0.6,0.6c-0.2,0.2-0.4,0.3-0.7,0.3
		h-0.5l-0.3,0.3v0.4h2.1l0.6-0.6c0.2-0.2,0.4-0.3,0.7-0.3h2.7c0.4,0,0.7,0.2,0.9,0.6l0.6,1.1l0.5-0.5c0.2-0.2,0.4-0.3,0.7-0.3h0.8
		c0.5,0,0.9,0.3,1,0.8l0.9,4.3l0.6,1.1h0.6l0.5-1v-0.2l-0.6-0.6c-0.2-0.2-0.3-0.4-0.3-0.7V550c0-0.3,0.1-0.5,0.3-0.7l0.6-0.6v-0.5
		c0-0.6,0.4-1,1-1h0.9c0.3,0,0.5,0.1,0.7,0.3l1.8,1.8c-0.6-5.9-4.5-11-10-13.1L175.6,536.7z"/>
	<path class="st2" d="M175.3,564.2c0-0.3,0.1-0.5,0.3-0.7l1.5-1.5v-1.4c0-0.3,0.1-0.5,0.3-0.7l2.2-2.2l-1.8-0.6
		c-0.2-0.1-0.5-0.3-0.6-0.5l-1.8-3.6c0-0.1-0.1-0.2-0.1-0.3H174l-0.6,0.6c-0.2,0.2-0.4,0.3-0.7,0.3h-0.9c-0.3,0-0.5-0.1-0.7-0.3
		l-1.5-1.5h-2l-1.4,0.7l-1.4,1.4v2.1l0.7,2.1l1.2,0.6h2.4c0.2,0,0.3,0,0.4,0.1l1.8,0.9c0.3,0.2,0.5,0.5,0.6,0.9v0.7l0.8,1.6
		c0.1,0.1,0.1,0.3,0.1,0.5v0.6l0.6,1.3l1.5,0.8l0.3-0.1L175.3,564.2z"/>
	<path class="st2" d="M185.3,551.6l-2-2c0,0.1-0.1,0.1-0.2,0.2l-0.6,0.7l0.6,0.6c0.2,0.2,0.3,0.4,0.3,0.7v0.9c0,0.2,0,0.3-0.1,0.4
		l-0.9,1.8c-0.2,0.3-0.5,0.5-0.9,0.5h-1.8c-0.4,0-0.7-0.2-0.9-0.5l-0.9-1.8c0-0.1-0.1-0.2-0.1-0.2l-0.7-3.3l-0.3,0.3
		c-0.2,0.2-0.4,0.3-0.7,0.3h-0.9c-0.4,0-0.7-0.2-0.9-0.5l-0.6-1.2h-1.6l-0.6,0.6c-0.2,0.2-0.4,0.3-0.7,0.3h-3.6c-0.6,0-1-0.4-1-1
		v-1.8c0-0.3,0.1-0.5,0.3-0.7l0.9-0.9c0.2-0.2,0.4-0.3,0.7-0.3h0.5l0.6-0.6c0,0,0.1,0,0.1-0.1l-0.3-0.6c-0.1-0.2-0.1-0.5-0.1-0.8
		l0.9-2.7c0.1-0.3,0.3-0.5,0.6-0.6l2.7-0.9c0.1,0,0.2,0,0.3,0h0.6l-0.6-1.2c-0.1-0.3-0.1-0.6,0-0.9l0.4-0.7
		c-1.3-0.4-2.6-0.5-3.9-0.6c-0.9,0-1.8,0.1-2.7,0.2c0.1,0.2,0.2,0.3,0.2,0.5v0.9c0,0.4-0.2,0.7-0.6,0.9l-1.8,0.9
		c-0.1,0.1-0.3,0.1-0.4,0.1h-1.4l-1.2,1.2v0.5c0,0.3-0.1,0.5-0.3,0.7l-0.9,0.9c-0.1,0.1-0.2,0.1-0.3,0.2l-3.6,1.8
		c-0.1,0.1-0.3,0.1-0.4,0.1h-0.9c-0.8,1.6-1.3,3.3-1.5,5.1l1.4,2.1l0.8,0.8c0.2,0.2,0.3,0.4,0.3,0.7v2.3l1.5,2.2l1.5,0.8
		c0.3,0.2,0.5,0.5,0.6,0.9v0.9c0,0.2,0,0.3-0.1,0.5l-0.8,1.6v0.9c2.9,2.6,6.7,4,10.6,4c0.6,0,1.3-0.1,1.9-0.1
		c-0.1-0.1-0.1-0.1-0.1-0.2l-0.9-1.8c-0.1-0.1-0.1-0.3-0.1-0.5v-0.7L170,562c-0.1-0.1-0.1-0.3-0.1-0.5v-0.3l-1-0.5h-2.4
		c-0.2,0-0.3,0-0.4-0.1l-1.8-0.9c-0.2-0.1-0.4-0.3-0.5-0.6l-0.9-2.7c0-0.1,0-0.2-0.1-0.3v-2.7c0-0.3,0.1-0.5,0.3-0.7l1.8-1.8
		c0.1-0.1,0.2-0.1,0.3-0.2l1.8-0.9c0.1-0.1,0.3-0.1,0.4-0.1h2.6c0.3,0,0.5,0.1,0.7,0.3l1.5,1.5l0.6-0.6c0.2-0.2,0.4-0.3,0.7-0.3h2.7
		c0.6,0,1,0.4,1,1v0.7l1.5,3l2.3,0.8c0.4,0.1,0.7,0.6,0.7,1v0.8c0,0.3-0.1,0.5-0.3,0.7l-2.4,2.4v1.4c0,0.3-0.1,0.5-0.3,0.7l-1.5,1.5
		v0.4c0.9-0.4,1.7-1,2.4-1.5v-1.9c0-0.6,0.4-1,1-1s1,0.4,1,1v0.1c2.5-2.7,3.9-6.1,4.2-9.8C185.6,551.8,185.5,551.7,185.3,551.6z
		 M165.8,542.2l0.7-0.7l0.8-2.4c0.1-0.5,0.7-0.9,1.2-0.7c0.5,0.1,0.9,0.7,0.7,1.2c0,0.1,0,0.1-0.1,0.2l-0.9,2.7
		c0,0.1-0.1,0.3-0.2,0.4l-0.9,0.9c-0.2,0.2-0.4,0.3-0.7,0.3c-0.3,0-0.5-0.1-0.7-0.3C165.5,543.2,165.7,542.7,165.8,542.2
		L165.8,542.2z"/>
	<path class="st2" d="M170,522.5c-15.7,0-28.3,12.7-28.3,28.3c0,15.7,12.7,28.4,28.3,28.4s28.4-12.7,28.4-28.4l0,0
		C198.3,535.2,185.7,522.5,170,522.5z M187.9,550.9c0,5.3-2.4,10.4-6.5,13.8l-0.1,0.1c-1.4,1.1-2.9,2.1-4.6,2.7l-0.2,0.1
		c-0.4,0.2-0.9,0.3-1.3,0.5H175c-6,1.7-12.4,0.2-17-4c-0.1-0.1-0.2-0.1-0.2-0.2c-5.8-5.5-7.2-14.2-3.5-21.3v-0.1
		c4.7-8.7,15.5-12,24.2-7.3c5.4,2.9,9,8.4,9.4,14.6c0,0.2,0,0.3,0,0.5C187.9,550.4,187.9,550.6,187.9,550.9L187.9,550.9z"/>
</g>
<g>
	<polygon class="st2" points="170.1,475.3 170.6,474.3 170.5,474.2 169.4,475.3 169.8,475.6 	"/>
	<path class="st2" d="M157.2,466.1l1.8,0.9c0.3,0.2,0.5,0.5,0.6,0.9v0.8l0.3,1.3l0.4-1.5c0-0.2,0.1-0.3,0.3-0.5l0.9-0.9
		c0.3-0.3,0.8-0.4,1.1-0.2l1.8,0.9c0.3,0.2,0.6,0.5,0.6,0.9v0.6l0.5,1h0.3c0.2,0,0.3,0,0.4,0.1l1,0.5l-0.7-2
		c-0.1-0.3-0.1-0.6,0.1-0.9c0.2-0.3,0.5-0.4,0.8-0.4h1.4l1.2-1.2v-0.2l-0.8-1.6c-0.2-0.4-0.1-0.8,0.2-1.1l0.9-0.9
		c0.2-0.2,0.4-0.3,0.7-0.3h0.9c0.2,0,0.3,0,0.4,0.1l1.1,0.6l0.1-0.1l-0.6-0.6c-0.2-0.2-0.3-0.4-0.3-0.7v-0.9c0-0.4,0.3-0.8,0.7-0.9
		l0.6-0.2c-6.4-1.6-13.2,0.9-16.9,6.4C157.1,466,157.1,466.1,157.2,466.1z"/>
	<path class="st2" d="M155.7,468.2c-0.3,0.6-0.5,1.2-0.8,1.8l0.8-1.5V468.2z"/>
	<path class="st2" d="M176.7,481.2c-0.1,0.1-0.3,0.1-0.4,0.1h-0.9c-0.4,0-0.7-0.2-0.9-0.6l-0.6-1.1l-1.4,1.3
		c-0.1,0.1-0.2,0.1-0.3,0.2l-1.2,0.6v1.4l0.6,0.3l0.4-0.4c0.2-0.2,0.4-0.3,0.7-0.3h2.7c0.2,0,0.3,0,0.4,0.1l1.1,0.6l0.9-0.9
		l-0.4-1.8L176.7,481.2z"/>
	<path class="st2" d="M176.9,460.7c-0.1,0.1-0.2,0.1-0.3,0.1l-1.8,0.6l0.4,0.4c0.2,0.2,0.3,0.4,0.3,0.7v0.9c0,0.3-0.1,0.5-0.3,0.7
		l-0.9,0.9c-0.3,0.3-0.8,0.4-1.1,0.2l-1.6-0.8h-0.2l-0.1,0.1l0.6,1.1c0.1,0.1,0.1,0.3,0.1,0.4v0.9c0,0.3-0.1,0.5-0.3,0.7l-1.8,1.8
		c-0.2,0.2-0.4,0.3-0.7,0.3h-0.4l0.4,1.4c0.1,0.4,0,0.7-0.2,1l-0.9,0.9c-0.3,0.3-0.8,0.4-1.1,0.2l-1.6-0.8h-0.6
		c-0.4,0-0.7-0.2-0.9-0.5l-0.9-1.8c-0.1-0.1-0.1-0.3-0.1-0.4v-0.3l-0.6-0.3l-0.2,0.2l-0.8,3.3c-0.1,0.5-0.5,0.8-1,0.8h-0.9
		c-0.5,0-0.9-0.3-1-0.8l-0.8-3.3l-0.8,1.7l-0.9,2.6c0,0.1-0.1,0.2-0.1,0.2l-1.6,2.3c0.6,8.7,8.2,15.4,16.9,14.8
		c8.7-0.6,15.4-8.2,14.8-16.9C185.4,468.2,182,463.1,176.9,460.7L176.9,460.7z M179.6,476.1c0.4,0.4,0.4,1,0,1.4
		c-0.2,0.2-0.4,0.3-0.7,0.3c-0.3,0-0.5-0.1-0.7-0.3l-0.6-0.6h-1.4c-0.2,0-0.3,0-0.4-0.1l-1.8-0.9c-0.5-0.2-0.7-0.8-0.4-1.3
		c0.2-0.5,0.8-0.7,1.3-0.5l1.6,0.8h1.6c0.3,0,0.5,0.1,0.7,0.3L179.6,476.1z M174,466.1l1.6-0.8l0.8-0.8c0.4-0.4,1.1-0.3,1.4,0.1
		c0.3,0.4,0.3,0.9,0,1.3l-0.9,0.9c-0.1,0.1-0.2,0.1-0.3,0.2l-1.8,0.9c-0.1,0.1-0.3,0.1-0.4,0.1c-0.6,0-1-0.5-1-1
		C173.5,466.6,173.7,466.3,174,466.1L174,466.1z M167.3,475.9V475c0-0.3,0.1-0.5,0.3-0.7l1.8-1.8c0.2-0.2,0.4-0.3,0.7-0.3h0.9
		c0.3,0,0.5,0.1,0.7,0.3l0.9,0.9c0.3,0.3,0.4,0.8,0.2,1.2l-0.9,1.8c0,0.1-0.1,0.2-0.2,0.3l-0.9,0.9c-0.2,0.2-0.4,0.3-0.7,0.3
		c-0.2,0-0.3,0-0.4-0.1l-1.8-0.9C167.5,476.6,167.3,476.3,167.3,475.9L167.3,475.9z M176.7,485.6l-1.6-0.8h-2l-0.6,0.6
		c-0.2,0.2-0.4,0.3-0.7,0.3c-0.2,0-0.3,0-0.4-0.1l-1.8-0.9c-0.3-0.2-0.5-0.5-0.6-0.9v-2.7c0-0.4,0.2-0.7,0.6-0.9l1.6-0.8l1.7-1.7
		c0.2-0.2,0.4-0.3,0.7-0.3h0.9c0.4,0,0.7,0.2,0.9,0.5l0.6,1.2l1.6-0.8c0.3-0.1,0.6-0.1,0.9,0c0.3,0.1,0.5,0.4,0.6,0.7l0.9,3.5
		c0.1,0.3,0,0.7-0.3,1l-1.8,1.8C177.6,485.8,177.1,485.9,176.7,485.6L176.7,485.6z M181.4,485.5l-1.8,1.8c-0.2,0.2-0.4,0.3-0.7,0.3
		c-0.3,0-0.5-0.1-0.7-0.3c-0.4-0.4-0.4-1,0-1.4l1.8-1.8c0.4-0.4,1-0.4,1.4,0C181.8,484.4,181.8,485.1,181.4,485.5z"/>
	<path class="st2" d="M170,446.7c-15.7,0-28.3,12.7-28.3,28.4s12.7,28.3,28.4,28.3c15.6,0,28.3-12.7,28.3-28.4
		C198.4,459.3,185.7,446.7,170,446.7C170,446.7,170,446.7,170,446.7z M170,492.9c-9.4,0-17.2-7.4-17.8-16.8c0-0.1,0-0.2,0-0.3
		c0-0.3,0-0.5,0-0.8c0-9.8,8-17.8,17.8-17.9c2.2,0,4.4,0.4,6.5,1.2c0.1,0,0.1,0,0.2,0.1c9.2,3.7,13.6,14.1,9.9,23.2
		C183.9,488.4,177.3,492.9,170,492.9z"/>
</g>
<g>
	<path class="st2" d="M170,219.1c-15.7,0-28.3,12.7-28.3,28.4s12.7,28.3,28.3,28.3s28.4-12.7,28.4-28.3c0,0,0,0,0,0
		C198.3,231.7,185.7,219.1,170,219.1z M181.2,246.1c-0.1,0.4-0.5,0.7-1,0.7h-19.5v18.7c0,0.6-0.4,1-1,1s-1-0.4-1-1v-36.2
		c0-0.6,0.4-1,1-1s1,0.4,1,1v2.8h19.4c0.6,0,1,0.4,1,1c0,0.3-0.1,0.6-0.4,0.8l-7.1,5.7l7.3,5.5C181.3,245.2,181.4,245.7,181.2,246.1
		L181.2,246.1z"/>
	<path class="st2" d="M171,239.6c0-0.3,0.1-0.6,0.4-0.8l5.9-4.7h-16.5v10.7h16.6l-5.9-4.4C171.1,240.2,171,239.9,171,239.6z"/>
</g>
<g>
	<path class="st2" d="M176.7,408.9l1.5-0.7l0.7-1.5c0.1-0.1,0.1-0.2,0.2-0.3l0.6-0.6v-0.6l-2-0.7c-0.1,0-0.3-0.1-0.4-0.2l-1.6-1.6
		l-2.3-0.8h-3l-0.3,0.3v1.4c0,0.3-0.1,0.5-0.3,0.7l-0.6,0.6v1l2.4,2.4c0.2,0.2,0.3,0.4,0.3,0.7v3.5c0,0.1,0,0.2,0,0.2l-0.6,2.2h0.1
		l2.2-2.2l0.8-1.6c0-0.1,0.1-0.2,0.2-0.3l1.8-1.8C176.5,409,176.6,408.9,176.7,408.9z"/>
	<path class="st2" d="M169.9,412.3v-3l-2.4-2.4c-0.2-0.2-0.3-0.4-0.3-0.7v-1.8c0-0.3,0.1-0.5,0.3-0.7l0.6-0.6v-0.4h-0.8
		c-0.4,0-0.7-0.2-0.9-0.6l-0.6-1.2c-0.1,0-0.2,0-0.3,0c-0.2,0-0.3,0-0.4-0.1c-0.3-0.1-0.5-0.4-0.5-0.7l-0.2-0.1h-0.6
		c-0.1,0-0.2,0-0.4-0.1l-0.1,0h-0.1l-2.7-1.8c-0.3-0.2-0.4-0.5-0.4-0.8V395l-0.8-1.6c-0.1-0.1-0.1-0.3-0.1-0.4v-1.8
		c0-0.2,0-0.3,0.1-0.5l1.7-3.3v-1.1l-0.1-0.1c-7.2,5-8.9,14.9-3.9,22c2.8,4,7.3,6.5,12.2,6.8L169.9,412.3z"/>
	<path class="st2" d="M162.8,385.1c0.2,0.2,0.3,0.4,0.3,0.7v1.8c0,0.2,0,0.3-0.1,0.5l-1.7,3.3v1.3l0.8,1.6c0.1,0.1,0.1,0.3,0.1,0.5
		v2.1l0.7,0.5c0-0.1,0-0.2,0.1-0.4l0.9-1.8c0-0.1,0.1-0.2,0.2-0.3l0.9-0.9c0.1-0.1,0.2-0.2,0.4-0.2l2.4-0.8l1.6-1.6
		c0.1-0.1,0.2-0.1,0.3-0.2l1.5-0.7l0.4-0.8l-0.7-0.7l-2,1.3c-0.3,0.2-0.6,0.2-0.9,0.1c-0.3-0.1-0.5-0.3-0.6-0.6l-0.9-2.7
		c-0.1-0.4,0-0.7,0.2-1l0.1-0.1h-1.1c-0.4,0-0.7-0.2-0.9-0.5l-0.5-1C163.7,384.6,163.2,384.8,162.8,385.1L162.8,385.1z"/>
	<path class="st2" d="M185.1,401c-0.5,0-0.9-0.3-1-0.8l-0.9-3.5l-0.8-1.7c-0.1-0.1-0.1-0.3-0.1-0.5v-3.1l-0.6-0.6
		c-0.2-0.2-0.3-0.4-0.3-0.7v-1.1l-1.2-0.6c-0.2-0.1-0.3-0.2-0.4-0.3l-1.8-2.7l0,0c-0.6-0.3-1.2-0.7-1.8-0.9c0,0.1,0.1,0.2,0.1,0.4
		v1.8c0,0.6-0.4,1-1,1h-1.8c-0.4,0-0.7-0.2-0.9-0.6l-0.7-1.5l-1.5-0.7c-0.5-0.2-0.7-0.8-0.4-1.3c0-0.1,0.1-0.2,0.2-0.3l0.1-0.1H170
		c-1.3,0-2.6,0.2-3.9,0.5l0.1,0.2h2.9c0.4,0,0.8,0.2,0.9,0.6c0.2,0.4,0.1,0.8-0.2,1.1l-1.3,1.4l0.3,0.8l1.6-1
		c0.4-0.3,0.9-0.2,1.3,0.1l1.8,1.8c0.3,0.3,0.4,0.8,0.2,1.1l-0.9,1.8c-0.1,0.2-0.3,0.4-0.4,0.5l-1.6,0.8l-1.6,1.6
		c-0.1,0.1-0.2,0.2-0.4,0.2l0,0l0.6,1.3c0.2,0.5,0,1.1-0.4,1.3c-0.1,0.1-0.3,0.1-0.4,0.1c-0.4,0-0.7-0.2-0.9-0.5l-0.8-1.5l-0.5,0.2
		l-0.6,0.6l-0.7,1.4v0.6c0.1,0,0.2,0,0.3,0.1l0.2,0.1l0.3-0.5c0.2-0.5,0.8-0.7,1.3-0.5c0.5,0.2,0.7,0.8,0.5,1.3c0,0,0,0,0,0
		l-0.3,0.5c0.1,0.1,0.2,0.2,0.3,0.3l0.6,1.2h0.7l0.6-0.6c0.2-0.2,0.4-0.3,0.7-0.3h3.6c0.1,0,0.2,0,0.3,0l2.7,0.9
		c0.1,0.1,0.3,0.1,0.4,0.2l1.6,1.6l2.4,0.8c0.4,0.1,0.7,0.5,0.7,1v1.8c0,0.3-0.1,0.5-0.3,0.7l-0.8,0.8l-0.8,1.6
		c-0.1,0.2-0.3,0.3-0.4,0.5l-1.6,0.8l-1.5,1.5l-0.8,1.6c0,0.1-0.1,0.2-0.2,0.3l-0.1,0.1c5.8-2,9.9-7.1,10.7-13.1H185.1z
		 M172.7,399.2H170c-0.6,0-1-0.4-1-1s0.4-1,1-1h2.7c0.6,0,1,0.4,1,1S173.2,399.2,172.7,399.2L172.7,399.2z"/>
	<path class="st2" d="M185.2,396.2l0.7,2.7c0-2.3-0.6-4.5-1.5-6.6v2.1l0.8,1.6C185.2,396.1,185.2,396.2,185.2,396.2z"/>
	<path class="st2" d="M170,370.8c-15.7,0-28.3,12.7-28.3,28.4c0,15.7,12.7,28.4,28.3,28.4s28.4-12.7,28.4-28.4
		C198.4,383.5,185.7,370.8,170,370.8C170,370.8,170,370.8,170,370.8z M187.9,400c0,0.1,0,0.2-0.1,0.3c-0.6,8.6-7.2,15.6-15.8,16.6
		h-0.1c-0.3,0-0.7,0-1,0.1h-0.8H170c-9.9,0-17.8-8-17.9-17.8c0-6.1,3.1-11.8,8.3-15.1c0.1-0.1,0.2-0.1,0.3-0.2
		c8.4-5.2,19.4-2.5,24.5,5.8c1.7,2.8,2.7,6.1,2.6,9.4c0,0.2,0,0.5,0,0.7C187.9,399.9,187.9,399.9,187.9,400z"/>
	<polygon class="st2" points="174.4,385.7 174.4,385.4 173.7,384.7 174.2,385.7 	"/>
</g>
<polygon class="st2" points="142.2,371.8 142.4,371.8 142.4,371.5 141.7,370.8 "/>
<g>
	<path class="st2" d="M101.5,598.4c-15.7,0-28.4,12.7-28.4,28.3c0,15.7,12.7,28.4,28.4,28.4s28.3-12.7,28.3-28.4l0,0
		C129.8,611.1,117.1,598.4,101.5,598.4z M101.5,653.1c-14.6,0-26.3-11.8-26.3-26.3c0-14.6,11.8-26.4,26.3-26.4s26.3,11.8,26.3,26.4
		l0,0C127.8,641.3,116,653.1,101.5,653.1L101.5,653.1z"/>
	<path class="st2" d="M113.7,632.6c-5.9,5.5-15.2,5.1-20.6-0.9c-5.1-5.6-5.1-14.2,0-19.7c0.4-0.4,0.4-1,0-1.4c-0.4-0.4-1-0.4-1.4,0
		c-6.3,6.7-6,17.2,0.7,23.5c2.8,2.6,6.3,4.2,10.1,4.5v3.2h-6.7c-0.6,0-1,0.4-1,1s0.4,1,1,1h15.4c0.6,0,1-0.4,1-1s-0.4-1-1-1h-6.7
		v-3.2c4-0.2,7.7-1.8,10.6-4.5c0.4-0.4,0.4-1,0-1.4C114.7,632.3,114.1,632.3,113.7,632.6z"/>
	<path class="st2" d="M103.7,609.8c-6.7,0-12.2,5.5-12.2,12.2c0,6.7,5.5,12.2,12.2,12.2c6.7,0,12.2-5.5,12.2-12.2c0,0,0,0,0,0
		C115.9,615.3,110.4,609.8,103.7,609.8z M103.7,632.2c-5.6,0-10.2-4.6-10.2-10.2c0-5.6,4.6-10.2,10.2-10.2c5.6,0,10.2,4.6,10.2,10.2
		c0,0,0,0,0,0C113.9,627.6,109.3,632.2,103.7,632.2L103.7,632.2z"/>
</g>
<g>
	<path class="st2" d="M170,598.4c-15.7,0-28.3,12.7-28.3,28.3c0,15.7,12.7,28.4,28.3,28.4s28.4-12.7,28.4-28.4l0,0
		C198.3,611.1,185.7,598.4,170,598.4z M183.6,634.1c-2.9,2.7-6.6,4.3-10.6,4.5v3.2h6.7c0.6,0,1,0.4,1,1s-0.4,1-1,1h-15.4
		c-0.6,0-1-0.4-1-1s0.4-1,1-1h6.7v-3.2c-9.1-0.7-16-8.6-15.3-17.8c0.3-3.8,1.9-7.4,4.5-10.2c0.4-0.4,1-0.3,1.4,0.1
		c0.3,0.4,0.4,0.9,0,1.3c-5.6,5.8-5.4,15,0.4,20.6c5.7,5.5,14.6,5.5,20.3,0c0.4-0.4,1-0.4,1.4-0.1c0.4,0.4,0.4,1,0.1,1.4
		C183.7,634,183.7,634,183.6,634.1L183.6,634.1z M172.2,634.2c-6.7,0-12.2-5.5-12.2-12.2s5.5-12.2,12.2-12.2
		c6.7,0,12.2,5.5,12.2,12.2c0,0,0,0,0,0C184.4,628.7,179,634.2,172.2,634.2L172.2,634.2z"/>
	<path class="st2" d="M172.2,611.8c-5.6,0-10.2,4.6-10.2,10.2c0,5.6,4.6,10.2,10.2,10.2c5.6,0,10.2-4.6,10.2-10.2c0,0,0,0,0,0
		C182.4,616.4,177.9,611.8,172.2,611.8z"/>
</g>
<g>
	<path class="st2" d="M101.5,674.3c-15.7,0-28.3,12.7-28.3,28.3c0,15.7,12.7,28.4,28.3,28.4s28.3-12.7,28.3-28.4c0,0,0,0,0,0
		C129.8,687,117.2,674.3,101.5,674.3C101.5,674.3,101.5,674.3,101.5,674.3z M101.5,729c-14.6,0-26.3-11.8-26.3-26.3
		c0-14.6,11.8-26.4,26.3-26.4s26.3,11.8,26.3,26.4l0,0C127.8,717.2,116,729,101.5,729L101.5,729z"/>
	<path class="st2" d="M113.6,688.8c-0.3-0.2-0.7-0.1-1,0c-0.1,0-6.4,4.2-10.4,0.1c-4.2-4.2-10.3-1.9-12.9-0.1
		c-0.3,0.2-0.4,0.5-0.4,0.8v28c0,0.6,0.4,1,1,1s1-0.4,1-1v-12.3c1.5-0.9,6.4-3.4,10,0.2c4.1,4.1,10.2,1.9,12.9,0.1
		c0.3-0.2,0.5-0.5,0.4-0.8v-15.1C114.2,689.3,114,689,113.6,688.8z M112.2,704.3c-1.5,0.9-6.5,3.3-10-0.2c-1.5-1.6-3.7-2.4-5.9-2.4
		c-1.9,0-3.8,0.5-5.5,1.4v-12.9c1.5-0.9,6.5-3.3,10,0.2s8.3,2.5,11.4,1V704.3z"/>
</g>
<g>
	<path class="st2" d="M169.3,690.4c-3.5-3.5-8.4-1-10-0.2v12.9c1.7-0.9,3.6-1.3,5.5-1.4c2.2,0,4.3,0.8,5.9,2.4
		c3.4,3.4,8.4,1,9.9,0.2v-12.9C177.6,692.8,172.8,693.9,169.3,690.4z"/>
	<path class="st2" d="M170,674.3c-15.7,0-28.3,12.7-28.3,28.3c0,15.7,12.7,28.4,28.3,28.4s28.4-12.7,28.4-28.4c0,0,0,0,0,0
		C198.3,687,185.7,674.3,170,674.3z M182.7,704.8c0,0.3-0.2,0.7-0.4,0.8c-2.7,1.8-8.8,4-12.9-0.1c-3.5-3.5-8.5-1-10-0.2v12.3
		c0,0.6-0.4,1-1,1s-1-0.4-1-1v-28c0-0.3,0.2-0.6,0.4-0.8c2.6-1.8,8.7-4.1,12.9,0.1c4,4,10.3-0.1,10.4-0.1c0.3-0.2,0.7-0.2,1,0
		c0.3,0.2,0.5,0.5,0.5,0.9L182.7,704.8z"/>
</g>
<g>
	<path class="st0" d="M757.8,674.3c-15.7,0-28.4,12.7-28.4,28.3s12.7,28.4,28.3,28.4s28.4-12.7,28.4-28.3c0,0,0,0,0,0
		C786.2,687,773.5,674.3,757.8,674.3C757.8,674.3,757.8,674.3,757.8,674.3z M757.8,729c-14.6,0-26.4-11.8-26.4-26.3
		s11.8-26.4,26.3-26.4c14.6,0,26.4,11.8,26.4,26.3v0C784.2,717.2,772.4,729,757.8,729L757.8,729z"/>
	<path class="st0" d="M771.6,716.3h-2l-9.2-28.6c-0.1-0.4-0.5-0.7-1-0.7h-2.3c-0.4,0-0.8,0.3-1,0.7l-9.1,28.6h-3c-0.6,0-1,0.4-1,1
		s0.4,1,1,1h27.5c0.6,0,1-0.4,1-1S772.2,716.3,771.6,716.3z M757.9,689h0.8l2.3,7.2h-5.4L757.9,689z M754.9,698.2h6.7l2.7,8.3h-12
		L754.9,698.2z M749.2,716.3l2.5-7.8H765l2.5,7.8H749.2z"/>
</g>
<g>
	<polygon class="st0" points="827.3,689 826.4,689 824.1,696.2 829.6,696.2 	"/>
	<polygon class="st0" points="830.2,698.2 823.5,698.2 820.8,706.5 832.9,706.5 	"/>
	<path class="st0" d="M826.4,674.3c-15.7,0-28.4,12.7-28.4,28.3s12.7,28.4,28.3,28.4s28.4-12.7,28.4-28.3c0,0,0,0,0,0
		C854.7,687,842,674.3,826.4,674.3C826.4,674.3,826.4,674.3,826.4,674.3z M840.1,718.3h-27.6c-0.6,0-1-0.4-1-1s0.4-1,1-1h3l9.2-28.6
		c0.1-0.4,0.5-0.7,1-0.7h2.3c0.5,0,0.9,0.3,1,0.7l9.2,28.6h2c0.6,0,1,0.4,1,1S840.7,718.3,840.1,718.3L840.1,718.3z"/>
	<polygon class="st0" points="820.2,708.5 817.7,716.3 836,716.3 833.5,708.5 	"/>
</g>
<g>
	<path class="st1" d="M429.1,370.8c-15.7,0-28.4,12.7-28.4,28.3c0,15.7,12.7,28.4,28.3,28.4c15.7,0,28.4-12.7,28.4-28.3c0,0,0,0,0,0
		C457.4,383.5,444.7,370.8,429.1,370.8z M429.1,425.5c-14.6,0-26.4-11.8-26.4-26.3s11.8-26.4,26.3-26.4c14.6,0,26.4,11.8,26.4,26.3
		c0,0,0,0,0,0C455.4,413.7,443.6,425.5,429.1,425.5z"/>
	<path class="st1" d="M431.6,391.9c-0.6-0.1-1.1,0.3-1.2,0.8c-0.1,0.6,0.3,1.1,0.8,1.2l4.9,0.9h0.2c0.2,0,0.4-0.1,0.6-0.2
		c0.2-0.2,0.4-0.4,0.4-0.6l0.9-4.9c0.1-0.6-0.3-1.1-0.8-1.2c-0.6-0.1-1.1,0.3-1.2,0.8l-0.4,2.4l-5-8.6c-0.2-0.3-0.5-0.5-0.9-0.5h-2
		c-0.4,0-0.7,0.2-0.9,0.5l-6,10.3c-0.3,0.5-0.1,1.1,0.4,1.4c0.5,0.3,1.1,0.1,1.4-0.4c0,0,0,0,0,0l5.7-9.8h0.9l4.9,8.5L431.6,391.9z"
		/>
	<path class="st1" d="M425.6,410.6H414l-0.4-0.7l5-8.5l0.9,2.6c0.1,0.4,0.5,0.7,0.9,0.7c0.1,0,0.2,0,0.3-0.1
		c0.5-0.2,0.8-0.8,0.6-1.3l-1.7-4.7c-0.1-0.2-0.3-0.4-0.5-0.6c-0.2-0.1-0.5-0.1-0.8,0l-4.7,1.7c-0.5,0.2-0.8,0.8-0.6,1.3
		c0.2,0.5,0.8,0.8,1.3,0.6l2.3-0.8l-5.1,8.6c-0.2,0.3-0.2,0.7,0,1l0.9,1.8c0.2,0.3,0.5,0.5,0.9,0.5h12.2c0.6,0,1-0.4,1-1
		S426.2,410.7,425.6,410.6L425.6,410.6z"/>
	<path class="st1" d="M440.4,399c-0.3-0.5-0.9-0.6-1.4-0.4c-0.5,0.3-0.6,0.9-0.4,1.4l5.8,9.8l-0.4,0.7h-10.4l1.7-1.7
		c0.4-0.4,0.4-1,0-1.4c0,0,0,0,0,0c-0.4-0.4-1-0.4-1.4,0l-3.5,3.5c-0.4,0.4-0.4,1,0,1.4c0,0,0,0,0,0l3.5,3.5c0.4,0.4,1,0.4,1.4,0
		c0.4-0.4,0.4-1,0-1.4l-2-2h11.3c0.4,0,0.7-0.2,0.9-0.6l0.9-1.8c0.2-0.3,0.2-0.7,0-1L440.4,399z"/>
</g>
<g>
	<path class="st1" d="M497.6,370.8c-15.7,0-28.3,12.7-28.3,28.4c0,15.7,12.7,28.3,28.4,28.3c15.6,0,28.3-12.7,28.3-28.4
		C526,383.5,513.3,370.8,497.6,370.8C497.6,370.8,497.6,370.8,497.6,370.8z M494.2,412.6h-12.2c-0.4,0-0.7-0.2-0.9-0.5l-0.9-1.8
		c-0.2-0.3-0.2-0.7,0-1l5.1-8.6l-2.3,0.8c-0.5,0.2-1.1-0.1-1.3-0.6c-0.2-0.5,0.1-1.1,0.6-1.3c0,0,0,0,0,0l4.8-1.6
		c0.5-0.2,1.1,0.1,1.3,0.6l1.7,4.7c0.2,0.5-0.1,1.1-0.6,1.3c0,0,0,0,0,0c-0.5,0.2-1.1-0.1-1.3-0.6l-0.9-2.6l-5,8.5l0.4,0.7h11.6
		c0.6,0,1,0.4,1,1S494.7,412.7,494.2,412.6L494.2,412.6z M497.2,384l-5.7,9.8c-0.3,0.5-0.9,0.6-1.4,0.4c0,0,0,0,0,0
		c-0.5-0.3-0.6-0.9-0.4-1.4l5.9-10.3c0.2-0.3,0.5-0.5,0.9-0.5h2c0.4,0,0.7,0.2,0.9,0.5l5,8.6l0.4-2.4c0.1-0.6,0.6-0.9,1.2-0.8
		c0.6,0.1,0.9,0.6,0.8,1.2l-0.9,5c-0.1,0.5-0.5,0.8-1,0.8h-0.2l-4.9-0.9c-0.6-0.1-0.9-0.6-0.8-1.2c0.1-0.6,0.6-0.9,1.2-0.8l2.7,0.5
		L498,384L497.2,384z M515.2,410.3l-0.9,1.8c-0.2,0.3-0.5,0.6-0.9,0.6H502l2,2c0.4,0.4,0.4,1,0,1.4c-0.2,0.2-0.4,0.3-0.7,0.3
		c-0.3,0-0.5-0.1-0.7-0.3l-3.5-3.5c-0.4-0.4-0.4-1,0-1.4c0,0,0,0,0,0l3.5-3.5c0.4-0.4,1-0.4,1.4,0c0.4,0.4,0.4,1,0,1.4c0,0,0,0,0,0
		l-1.7,1.7h10.4l0.3-0.7l-5.8-9.8c-0.3-0.4-0.2-1.1,0.2-1.4s1.1-0.2,1.4,0.2c0,0.1,0.1,0.1,0.1,0.2l6.1,10.3
		C515.2,409.7,515.2,410,515.2,410.3L515.2,410.3z"/>
</g>
<g>
	<path class="st0" d="M757.8,598.4c-15.7,0-28.4,12.7-28.4,28.3s12.7,28.4,28.3,28.4s28.4-12.7,28.4-28.3c0,0,0,0,0,0
		C786.2,611.1,773.5,598.4,757.8,598.4z M757.8,653.1c-14.6,0-26.4-11.8-26.4-26.3c0-14.6,11.8-26.4,26.3-26.4
		c14.6,0,26.4,11.8,26.4,26.3c0,0,0,0,0,0C784.1,641.3,772.4,653.1,757.8,653.1L757.8,653.1z"/>
	<path class="st0" d="M763.2,610.4c-0.2-0.3-0.5-0.5-0.9-0.5h-9.1c-0.4,0-0.7,0.2-0.9,0.5l-4.5,7.9c-0.2,0.3-0.2,0.7,0,1l4.5,7.9
		c0.2,0.3,0.5,0.5,0.9,0.5h3.6v14.9c0,0.6,0.4,1,1,1s1-0.4,1-1v-14.9h3.5c0.4,0,0.7-0.2,0.9-0.5l4.5-7.9c0.2-0.3,0.2-0.7,0-1
		L763.2,610.4z M761.8,625.7h-8l-4-6.9l4-6.9h8l4,6.9L761.8,625.7z"/>
</g>
<g>
	<polygon class="st0" points="822.4,611.9 818.4,618.8 822.4,625.7 830.3,625.7 834.3,618.8 830.3,611.9 	"/>
	<path class="st0" d="M826.4,598.4c-15.7,0-28.4,12.7-28.4,28.3s12.7,28.4,28.3,28.4s28.4-12.7,28.4-28.3v0
		C854.7,611.1,842,598.4,826.4,598.4z M836.4,619.3l-4.6,7.9c-0.2,0.3-0.5,0.5-0.9,0.5h-3.6v14.9c0,0.6-0.4,1-1,1s-1-0.4-1-1v-14.9
		h-3.5c-0.4,0-0.7-0.2-0.9-0.5l-4.5-7.9c-0.2-0.3-0.2-0.7,0-1l4.5-7.9c0.2-0.3,0.5-0.5,0.9-0.5h9.1c0.4,0,0.7,0.2,0.9,0.5l4.6,7.9
		C836.5,618.6,836.5,619,836.4,619.3L836.4,619.3z"/>
</g>
<g>
	<polygon class="st1" points="496.1,704.4 485.7,699.2 482.1,703.8 492.5,709 	"/>
	<polygon class="st1" points="497.7,693 487.7,698 497.7,703 507.7,698 	"/>
	<path class="st1" d="M493.2,711.1L493.2,711.1c-0.2,0.1-0.3,0.1-0.5,0.1c-0.1,0-0.3,0-0.4-0.1h0l-5.9-3v5.1l10.2,5.2V707l-3.1,3.9
		C493.4,711,493.3,711.1,493.2,711.1z"/>
	<polygon class="st1" points="496.1,691.5 492.5,687 482.1,692.2 485.7,696.7 	"/>
	<path class="st1" d="M497.7,674.3C497.6,674.3,497.6,674.3,497.7,674.3c-15.7,0-28.4,12.7-28.4,28.4c0,15.7,12.7,28.3,28.4,28.3
		c15.6,0,28.3-12.7,28.3-28.4C526,687,513.3,674.3,497.7,674.3z M515.5,703.4c0.2,0.2,0.3,0.5,0.2,0.8c-0.1,0.3-0.3,0.5-0.5,0.7
		l-4.3,2.2v6.7c0,0,0,0.1,0,0.1c0,0.1,0,0.1,0,0.2c0,0.1-0.1,0.1-0.1,0.2c0,0.1-0.1,0.1-0.1,0.2c-0.1,0-0.1,0.1-0.2,0.1
		c0,0-0.1,0.1-0.1,0.1l-12.3,6.1H498c-0.1,0-0.2,0.1-0.3,0.1c-0.1,0-0.2,0-0.3-0.1h-0.1l-12.3-6.1c0,0-0.1-0.1-0.1-0.1
		c-0.1,0-0.1-0.1-0.2-0.1c0,0-0.1-0.1-0.1-0.2c0,0-0.1-0.1-0.1-0.2c0-0.1,0-0.1,0-0.2c0,0,0-0.1,0-0.1v-6.7l-4.3-2.2c0,0,0,0-0.1,0
		c0,0-0.1,0-0.1-0.1c-0.1,0-0.1-0.1-0.1-0.1c0,0-0.1-0.1-0.1-0.2c0,0-0.1-0.1-0.1-0.2c0-0.1,0-0.1-0.1-0.2c0-0.1,0-0.1,0-0.2
		c0-0.1,0-0.1,0-0.2c0-0.1,0-0.1,0-0.2c0,0,0,0,0-0.1s0-0.1,0.1-0.1s0-0.1,0-0.1l4.4-5.5l-4.4-5.5c-0.2-0.2-0.3-0.5-0.2-0.8
		c0.1-0.3,0.3-0.5,0.5-0.7l12.3-6.1c0.4-0.2,0.9-0.1,1.2,0.3l4.1,5.2l4.1-5.2c0.3-0.4,0.8-0.5,1.2-0.3l12.3,6.1
		c0.3,0.1,0.5,0.4,0.5,0.7c0,0.3-0.1,0.6-0.3,0.8l-4.4,5.5L515.5,703.4z"/>
	<polygon class="st1" points="499.2,691.5 509.6,696.7 513.3,692.1 502.8,686.9 	"/>
	<polygon class="st1" points="499.2,704.4 502.8,708.9 513.2,703.8 509.6,699.3 	"/>
	<path class="st1" d="M502.6,711.2c-0.3,0-0.6-0.1-0.8-0.4l-3.1-3.9v11.4l10.3-5.1v-5.1l-5.9,3C502.9,711.2,502.7,711.2,502.6,711.2
		z"/>
</g>
</svg>
