<?xml version="1.0" encoding="UTF-8"?>
<svg xmlns="http://www.w3.org/2000/svg" version="1.1" viewBox="0 0 387.37 157.52">
  <defs>
    <style>
      .cls-1 {
        fill: #fff;
      }

      .cls-2 {
        fill: #86bc25;
      }
    </style>
  </defs>
  <!-- Generator: Adobe Illustrator 28.7.10, SVG Export Plug-In . SVG Version: 1.2.0 Build 236)  -->
  <g>
    <g id="Artwork">
      <g>
        <path class="cls-2" d="M320.39,98.06c0-4.15,3.37-7.51,7.51-7.51s7.51,3.37,7.51,7.51-3.36,7.51-7.51,7.51-7.51-3.36-7.51-7.51"/>
        <path class="cls-1" d="M95.01,77.67c0,8.67-2.33,15.35-6.99,20.04-4.66,4.69-11.21,7.04-19.66,7.04h-16.41v-51.95h17.56c8.14,0,14.43,2.13,18.86,6.4,4.43,4.26,6.64,10.42,6.64,18.48M80.79,78.16c0-4.76-.92-8.29-2.76-10.59-1.84-2.3-4.63-3.45-8.38-3.45h-3.99v29.1h3.05c4.16,0,7.22-1.24,9.16-3.71,1.94-2.47,2.92-6.26,2.92-11.35"/>
        <rect class="cls-1" x="140.47" y="52.57" width="13.06" height="52.17"/>
        <path class="cls-1" d="M196.39,85.28c0,6.34-1.66,11.28-4.99,14.82-3.33,3.55-7.99,5.32-13.98,5.32s-10.31-1.81-13.71-5.44c-3.4-3.62-5.1-8.53-5.1-14.7s1.66-11.23,4.99-14.73c3.33-3.5,8-5.25,14.01-5.25,3.72,0,7,.81,9.85,2.43,2.85,1.62,5.05,3.94,6.6,6.96,1.55,3.02,2.32,6.55,2.32,10.58M171.87,85.28c0,3.33.43,5.86,1.3,7.61.87,1.74,2.33,2.62,4.37,2.62s3.46-.87,4.29-2.62c.83-1.74,1.25-4.28,1.25-7.61s-.42-5.8-1.27-7.49c-.85-1.69-2.29-2.53-4.34-2.53s-3.44.84-4.31,2.52c-.87,1.68-1.3,4.18-1.3,7.51"/>
        <rect class="cls-1" x="201.57" y="65.99" width="13.06" height="38.75"/>
        <rect class="cls-1" x="201.57" y="52.57" width="13.06" height="8.73"/>
        <path class="cls-1" d="M241.09,94.86c1.76,0,3.86-.45,6.31-1.34v9.75c-1.76.77-3.44,1.33-5.03,1.66-1.59.33-3.46.5-5.6.5-4.38,0-7.55-1.1-9.49-3.3-1.93-2.2-2.9-5.58-2.9-10.14v-15.97h-4.57v-10.02h4.57v-9.89l13.16-2.29v12.18h8.33v10.02h-8.33v15.08c0,2.51,1.18,3.76,3.54,3.76"/>
        <path class="cls-1" d="M271.32,94.86c1.76,0,3.86-.45,6.31-1.34v9.75c-1.76.77-3.44,1.33-5.03,1.66-1.59.33-3.46.5-5.6.5-4.38,0-7.55-1.1-9.48-3.3-1.94-2.2-2.91-5.58-2.91-10.14v-15.97h-4.58v-10.02h4.58v-10.04l13.16-2.14v12.18h8.34v10.02h-8.34v15.08c0,2.51,1.18,3.76,3.54,3.76"/>
        <path class="cls-1" d="M312.53,69.88c-3.1-3.04-7.51-4.57-13.21-4.57-5.99,0-10.6,1.75-13.83,5.25-3.23,3.5-4.84,8.52-4.84,15.06s1.74,11.22,5.23,14.66c3.49,3.43,8.38,5.15,14.68,5.15,3.03,0,5.63-.21,7.81-.62,2.17-.41,4.27-1.14,6.31-2.2l-2.01-8.73c-1.48.6-2.89,1.07-4.22,1.38-1.92.45-4.03.67-6.33.67-2.52,0-4.5-.62-5.96-1.85-1.46-1.23-2.23-2.93-2.32-5.1h23.34v-5.95c0-5.72-1.55-10.11-4.66-13.15M294.11,80.56c.18-2.12.78-3.68,1.82-4.67,1.04-.99,2.32-1.49,3.86-1.49,1.67,0,3,.56,3.99,1.68.99,1.12,1.51,2.61,1.55,4.48h-11.22Z"/>
        <path class="cls-1" d="M130.76,69.88c-3.1-3.04-7.51-4.57-13.21-4.57-5.99,0-10.6,1.75-13.83,5.25-3.23,3.5-4.84,8.52-4.84,15.06s1.74,11.22,5.23,14.66c3.48,3.43,8.38,5.15,14.68,5.15,3.03,0,5.63-.21,7.81-.62,2.17-.41,4.27-1.14,6.31-2.2l-2.01-8.73c-1.48.6-2.89,1.07-4.22,1.38-1.93.45-4.03.67-6.33.67-2.52,0-4.5-.62-5.96-1.85-1.46-1.23-2.23-2.93-2.32-5.1h23.34v-5.95c0-5.72-1.55-10.11-4.66-13.15M112.34,80.56c.18-2.12.79-3.68,1.82-4.67,1.04-.99,2.32-1.49,3.86-1.49,1.67,0,3,.56,3.99,1.68.99,1.12,1.51,2.61,1.55,4.48h-11.22Z"/>
      </g>
    </g>
  </g>
</svg>